M48
; DRILL file {KiCad 5.99.0-unknown-1f9723c~101~ubuntu18.04.1} date Wed Jun 24 04:42:19 2020
; FORMAT={-:-/ absolute / inch / decimal}
; #@! TF.CreationDate,2020-06-24T04:42:19+03:00
; #@! TF.GenerationSoftware,Kicad,Pcbnew,5.99.0-unknown-1f9723c~101~ubuntu18.04.1
FMAT,2
INCH
T1C0.0157
T2C0.0276
T3C0.0300
T4C0.0315
T5C0.0354
T6C0.0374
T7C0.0394
T8C0.0472
T9C0.0551
T10C0.0591
T11C0.0787
T12C0.0866
%
G90
G05
T1
X2.66Y-4.815
X2.6977Y-5.33
X2.6977Y-5.415
X2.7Y-6.08
X2.705Y-4.82
X2.71Y-6.285
X2.7223Y-4.8723
X2.7602Y-4.8496
X2.77Y-5.545
X2.835Y-6.3
X2.845Y-4.63
X2.845Y-6.11
X2.855Y-4.67
X2.87Y-5.335
X2.8849Y-4.6901
X2.8849Y-4.7249
X2.938Y-6.6088
X2.965Y-6.625
X2.995Y-6.925
X3.0154Y-6.705
X3.04Y-6.68
X3.0538Y-6.428
X3.06Y-6.89
X3.07Y-6.455
X3.195Y-6.605
X3.25Y-6.905
X3.295Y-4.63
X3.2963Y-4.6635
X3.3099Y-4.7214
X3.3132Y-4.6901
X3.3327Y-6.4227
X3.3404Y-6.2465
X3.355Y-6.445
X3.365Y-6.27
X3.375Y-6.875
X3.7Y-6.115
X3.7Y-6.18
X3.705Y-5.4
X3.705Y-5.485
X3.725Y-5.58
X3.73Y-5.695
X3.735Y-4.69
X3.7485Y-5.5496
X3.75Y-5.73
X3.7669Y-4.2629
X3.7694Y-4.2058
X3.7746Y-3.3902
X3.775Y-3.865
X3.785Y-5.055
X3.8Y-3.84
X3.8Y-4.185
X3.8025Y-3.3755
X3.8061Y-6.181
X3.815Y-5.94
X3.8201Y-5.9849
X3.825Y-4.155
X3.8268Y-3.3967
X3.83Y-3.81
X3.83Y-6.15
X3.895Y-6.64
X3.9049Y-6.3097
X3.905Y-5.8475
X3.935Y-5.9325
X3.965Y-5.7825
X3.985Y-6.115
X3.985Y-6.15
X3.99Y-6.285
X4.0Y-5.9925
X4.01Y-6.26
X4.03Y-5.7175
X4.09Y-5.9875
X4.1Y-5.6475
X4.1199Y-3.0858
X4.1251Y-3.0547
X4.145Y-3.015
X4.145Y-4.645
X4.15Y-5.9275
X4.16Y-6.6475
X4.19Y-5.6125
X4.255Y-5.6725
X4.265Y-5.8125
X4.285Y-6.37
X4.305Y-4.265
X4.305Y-5.7475
X4.305Y-6.29
X4.305Y-6.34
X4.3095Y-5.048
X4.315Y-4.36
X4.315Y-6.26
X4.34Y-5.5075
X4.34Y-5.58
X4.3425Y-5.1075
X4.35Y-4.095
X4.415Y-7.0625
X4.435Y-6.4175
X4.455Y-5.3625
X4.455Y-5.925
X4.4591Y-6.3403
X4.465Y-5.8875
X4.48Y-6.4575
X4.4837Y-6.3179
X4.495Y-5.3675
X4.5168Y-6.298
X4.565Y-5.53
X4.565Y-6.2575
X4.66Y-5.325
X4.665Y-5.36
X4.665Y-6.2775
X4.75Y-6.7225
X4.752Y-5.5608
X4.755Y-4.945
X4.755Y-5.07
X4.755Y-5.195
X4.7562Y-5.4588
X4.7571Y-5.4908
X4.7578Y-5.5235
X4.78Y-6.065
X4.8Y-6.265
X4.8098Y-5.5991
X4.825Y-5.15
X4.83Y-5.46
X4.83Y-5.575
X4.8453Y-5.174
X4.85Y-6.15
X4.89Y-6.3625
X4.89Y-6.4125
X4.915Y-6.3875
X4.95Y-5.64
X4.95Y-6.005
X4.95Y-6.145
X5.01Y-4.995
X5.015Y-5.8137
X5.03Y-5.02
X5.03Y-6.7375
X5.0408Y-5.8416
X5.0507Y-6.0036
X5.0569Y-5.4724
X5.0723Y-5.9281
X5.0808Y-5.4971
X5.09Y-5.985
X5.0928Y-5.9035
X5.105Y-5.555
X5.1069Y-5.5205
X5.11Y-5.9529
X5.115Y-6.3625
X5.115Y-6.4125
X5.13Y-6.3325
X5.14Y-6.3875
X5.1642Y-5.4655
X5.19Y-7.0625
X5.22Y-5.3875
X5.24Y-5.6225
X5.245Y-4.995
X5.2593Y-5.4993
X5.265Y-5.02
X5.265Y-6.4125
X5.27Y-6.7175
X5.315Y-5.4125
X5.32Y-5.8125
X5.36Y-5.535
X5.3809Y-6.3627
X5.39Y-7.0625
X5.402Y-6.3873
X5.4125Y-6.3322
X5.415Y-5.4275
X5.42Y-4.895
X5.435Y-6.2025
X5.455Y-4.92
X5.4569Y-5.9188
X5.47Y-6.5875
X5.488Y-5.9139
X5.49Y-5.195
X5.505Y-6.4425
X5.535Y-5.16
X5.615Y-5.37
X5.615Y-5.56
X5.615Y-6.3625
X5.615Y-6.4125
X5.62Y-5.775
X5.645Y-5.395
X5.645Y-5.575
X5.655Y-5.775
X5.655Y-6.3525
X5.715Y-6.6125
X5.765Y-4.885
X5.787Y-4.9075
X5.865Y-6.6125
X5.97Y-5.8875
X5.99Y-5.9125
X5.995Y-4.875
X6.015Y-6.6175
X6.02Y-6.525
X6.0349Y-4.8901
X6.055Y-5.985
X6.095Y-5.385
X6.1Y-5.855
X6.14Y-6.545
X6.21Y-5.435
X6.78Y-6.995
X6.83Y-6.995
X6.8485Y-6.395
X6.88Y-6.395
X6.945Y-6.84
X6.945Y-6.955
X11.055Y-3.52
X11.055Y-3.62
X11.58Y-3.445
X11.745Y-3.465
X12.0299Y-2.4451
X12.055Y-3.145
X12.055Y-3.195
X12.08Y-2.4412
X12.08Y-3.22
X12.105Y-2.42
T2
X7.0Y-3.65
X7.0Y-3.85
X4.995Y-4.125
X4.995Y-4.325
X6.5Y-3.65
X6.5Y-3.85
X7.0Y-4.62
X7.0Y-4.92
X7.0Y-5.095
X7.0Y-5.395
X5.825Y-3.6484
X5.825Y-3.8484
X6.325Y-3.65
X6.325Y-3.85
X4.51Y-4.125
X4.51Y-4.325
T3
X3.1831Y-2.9497
X3.1831Y-3.5403
X3.5769Y-2.9497
X3.5769Y-3.5403
T4
X2.855Y-6.22
X2.905Y-3.22
X2.9516Y-4.7725
X2.955Y-5.695
X2.989Y-6.842
X3.1016Y-4.9975
X3.13Y-5.57
X3.13Y-6.195
X3.18Y-5.195
X3.18Y-5.895
X3.235Y-6.535
X3.4016Y-5.0391
X3.43Y-5.695
X3.43Y-6.385
X3.4768Y-4.7225
X3.505Y-5.12
X3.51Y-5.825
X3.53Y-5.67
X3.53Y-6.37
X3.5743Y-5.9256
X3.58Y-5.22
X3.715Y-6.895
X3.715Y-7.025
X3.76Y-6.705
X3.855Y-4.845
X4.03Y-4.745
X4.13Y-6.175
X4.18Y-5.295
X4.22Y-5.44
X4.265Y-6.6125
X4.28Y-5.145
X4.29Y-4.885
X4.34Y-6.9625
X4.3786Y-4.7349
X4.39Y-5.4086
X4.43Y-4.695
X4.4474Y-5.5588
X4.48Y-4.77
X4.5175Y-5.2325
X4.5378Y-6.9662
X4.565Y-6.6125
X4.6425Y-4.9575
X4.69Y-6.2125
X4.72Y-6.6563
X4.745Y-4.335
X4.7863Y-4.2971
X4.865Y-6.7875
X4.9Y-5.7625
X4.905Y-4.87
X4.925Y-5.395
X4.93Y-5.135
X4.94Y-6.4625
X5.08Y-5.145
X5.2883Y-4.76
X5.38Y-4.995
X5.39Y-6.8125
X5.445Y-4.63
X5.58Y-4.97
X5.585Y-6.8625
X5.617Y-4.65
X5.64Y-4.815
X5.8723Y-4.4764
X6.149Y-4.3586
X6.205Y-6.745
X6.23Y-5.945
X6.505Y-4.945
X6.505Y-5.395
X6.835Y-4.32
X7.08Y-4.82
X7.08Y-5.395
X7.085Y-5.3
X7.09Y-6.755
X7.185Y-6.645
X7.1873Y-6.4182
X7.2398Y-6.5202
X7.27Y-6.065
X7.28Y-6.195
X7.315Y-5.74
X7.3361Y-4.7137
X7.35Y-5.945
X7.36Y-5.8
X7.385Y-3.92
X7.405Y-5.245
X7.405Y-5.32
X7.46Y-2.675
X7.53Y-3.47
X7.53Y-3.67
X7.53Y-3.92
X7.645Y-2.68
X7.655Y-3.17
X7.705Y-3.47
X7.715Y-3.9
X7.73Y-3.67
X7.82Y-2.67
X11.405Y-3.37
X6.1516Y-4.025
X6.25Y-4.025
X6.6Y-4.675
X6.6Y-4.775
X6.6Y-4.875
X6.9Y-4.675
X6.9Y-4.775
X6.9Y-4.875
X6.95Y-6.4188
X6.95Y-6.5172
X6.025Y-3.55
X6.025Y-3.85
X6.8Y-3.55
X6.8Y-3.85
X6.6Y-3.55
X6.6Y-3.85
X5.925Y-3.5484
X5.925Y-3.8484
X6.8266Y-4.03
X6.925Y-4.03
X6.475Y-5.75
X6.475Y-5.85
X6.475Y-5.95
X6.475Y-6.05
X6.775Y-5.75
X6.775Y-5.85
X6.775Y-5.95
X6.775Y-6.05
X6.6Y-5.15
X6.6Y-5.25
X6.6Y-5.35
X6.9Y-5.15
X6.9Y-5.25
X6.9Y-5.35
X4.67Y-4.13
X4.67Y-4.23
X4.67Y-4.33
X6.78Y-4.25
X6.88Y-4.25
X6.98Y-4.25
X6.105Y-4.2484
X6.205Y-4.2484
X6.305Y-4.2484
X6.225Y-3.5484
X6.225Y-3.8484
X6.95Y-5.9516
X6.95Y-6.05
X6.49Y-4.25
X6.59Y-4.25
X6.69Y-4.25
X5.8766Y-4.025
X5.975Y-4.025
X4.41Y-4.13
X4.41Y-4.43
X6.9Y-3.55
X6.9Y-3.85
X6.95Y-6.6437
X6.95Y-6.7422
X6.125Y-3.55
X6.125Y-3.85
X6.475Y-6.45
X6.475Y-6.55
X6.475Y-6.65
X6.475Y-6.75
X6.775Y-6.45
X6.775Y-6.55
X6.775Y-6.65
X6.775Y-6.75
X5.095Y-4.13
X5.095Y-4.43
X5.82Y-4.2484
X5.92Y-4.2484
X6.02Y-4.2484
X4.865Y-4.13
X4.865Y-4.23
X4.865Y-4.33
X6.48Y-6.195
X6.88Y-6.195
X6.95Y-5.7266
X6.95Y-5.825
X5.065Y-6.6
X5.065Y-6.9
X5.165Y-6.6
X5.165Y-6.9
X5.265Y-6.6
X5.265Y-6.9
X6.7Y-3.55
X6.7Y-3.85
X6.5516Y-4.03
X6.65Y-4.03
X6.475Y-6.895
X6.875Y-6.895
T5
X4.305Y-4.02
X4.705Y-4.02
X4.805Y-4.02
X5.205Y-4.02
T6
X4.2947Y-7.1375
X4.3931Y-7.1375
X4.4916Y-7.1375
X4.59Y-7.1375
X5.7447Y-7.1375
X5.8431Y-7.1375
X5.9416Y-7.1375
X6.04Y-7.1375
T7
X10.505Y-5.4297
X10.505Y-5.5297
X5.115Y-5.7125
X5.215Y-5.7125
X5.315Y-5.7125
X5.415Y-5.7125
X5.165Y-6.1375
X5.265Y-6.1375
X3.47Y-6.635
X3.47Y-6.735
X10.905Y-3.795
X11.005Y-3.795
X9.575Y-5.19
X9.675Y-5.19
X9.355Y-6.945
X9.7487Y-6.945
X2.805Y-2.796
X2.805Y-2.8944
X3.9581Y-4.17
X4.155Y-4.17
X6.0063Y-2.5313
X6.0063Y-3.3187
X6.2031Y-3.3187
X6.5969Y-3.3187
X6.7937Y-2.5313
X6.7937Y-3.3187
X3.8Y-6.35
X3.8Y-6.45
X4.2629Y-2.6391
X4.2629Y-3.6509
X4.4597Y-3.6509
X5.0503Y-3.6509
X5.2471Y-2.6391
X5.2471Y-3.6509
X5.115Y-5.2175
X5.115Y-5.3175
X5.215Y-5.2175
X5.215Y-5.3175
X5.315Y-5.2175
X5.315Y-5.3175
X5.415Y-5.2175
X5.415Y-5.3175
X3.865Y-5.425
X3.865Y-5.525
X11.43Y-3.175
X11.53Y-3.175
X6.83Y-7.17
X6.93Y-7.17
X12.0863Y-6.87
X12.48Y-6.87
X5.3581Y-4.17
X5.555Y-4.17
X4.66Y-4.755
X4.76Y-4.755
X6.505Y-7.17
X6.605Y-7.17
X11.93Y-5.045
X11.93Y-5.145
X5.1166Y-7.1363
X5.215Y-7.1363
X3.67Y-4.525
X3.77Y-4.525
X10.03Y-7.07
X10.13Y-7.07
T8
X3.4636Y-3.6626
X3.48Y-3.745
X3.6783Y-3.6896
X3.68Y-3.77
X4.23Y-3.77
X5.535Y-4.405
X7.48Y-2.925
X7.495Y-2.5313
X7.555Y-2.445
X8.33Y-2.545
X8.405Y-3.02
X12.33Y-4.295
X12.33Y-4.595
X12.33Y-4.895
X12.33Y-5.195
X8.3192Y-5.97
X9.205Y-5.97
X12.33Y-5.655
X12.33Y-5.955
X12.33Y-6.255
X12.33Y-6.555
X2.8581Y-4.27
X3.055Y-4.27
X11.48Y-5.3294
X11.48Y-5.92
X10.705Y-6.22
X11.905Y-6.22
X9.93Y-5.7544
X9.93Y-6.345
X8.3192Y-5.52
X9.205Y-5.52
X11.23Y-5.3294
X11.23Y-5.92
X11.355Y-2.67
X11.655Y-2.67
X11.955Y-2.67
X8.3192Y-6.42
X9.205Y-6.42
X9.355Y-6.645
X10.555Y-6.645
X11.33Y-3.67
X11.33Y-4.87
X10.98Y-5.3294
X10.98Y-5.92
X11.73Y-5.3294
X11.73Y-5.92
X12.33Y-3.22
X12.33Y-3.52
X12.33Y-3.82
X3.2831Y-2.595
X3.48Y-2.595
X11.755Y-3.67
X11.755Y-4.87
X11.0394Y-5.095
X11.63Y-5.095
X10.73Y-5.3294
X10.73Y-5.92
X10.18Y-5.7544
X10.18Y-6.345
X10.43Y-5.7544
X10.43Y-6.345
X8.3192Y-6.87
X9.205Y-6.87
X9.68Y-5.7544
X9.68Y-6.345
X10.705Y-7.02
X11.905Y-7.02
X10.705Y-6.62
X11.905Y-6.62
X9.43Y-5.7544
X9.43Y-6.345
T9
X2.855Y-3.87
X3.055Y-3.87
X3.255Y-3.87
X3.455Y-3.87
T10
X8.0Y-3.4737
X8.0Y-3.6883
X8.0Y-3.9029
X8.0Y-6.4659
X8.0Y-6.6804
X8.0Y-6.895
X8.0Y-4.9698
X8.0Y-5.3989
X8.0Y-4.2218
X8.0Y-4.6509
X8.0Y-2.7257
X8.0Y-2.9403
X8.0Y-3.1548
X8.0Y-5.7178
X8.0Y-5.9324
X8.0Y-6.147
T11
X11.72Y-3.04
T12
X10.1613Y-3.095
X10.555Y-3.095
X8.705Y-3.0861
X9.0987Y-3.0861
X8.705Y-4.5611
X9.0987Y-4.5611
X10.155Y-4.5561
X10.5487Y-4.5561
T0
M30
