%TF.GenerationSoftware,KiCad,Pcbnew,5.99.0-unknown-1f9723c~101~ubuntu18.04.1*%
%TF.CreationDate,2020-06-24T04:42:16+03:00*%
%TF.ProjectId,WaveUltrasonics,57617665-556c-4747-9261-736f6e696373,rev?*%
%TF.SameCoordinates,Original*%
%TF.FileFunction,Soldermask,Top*%
%TF.FilePolarity,Negative*%
%FSLAX46Y46*%
G04 Gerber Fmt 4.6, Leading zero omitted, Abs format (unit mm)*
G04 Created by KiCad (PCBNEW 5.99.0-unknown-1f9723c~101~ubuntu18.04.1) date 2020-06-24 04:42:16*
%MOMM*%
%LPD*%
G01*
G04 APERTURE LIST*
%TA.AperFunction,Profile*%
%ADD10C,0.050000*%
%TD*%
%ADD11O,1.800000X1.800000*%
%ADD12C,2.600000*%
%ADD13O,1.700000X1.700000*%
%ADD14O,2.500000X2.500000*%
%ADD15C,2.500000*%
%ADD16C,1.624000*%
%ADD17C,1.900000*%
%ADD18O,1.500000X1.500000*%
%ADD19C,1.500000*%
%ADD20O,1.800000X2.050000*%
%ADD21O,1.800000X2.100000*%
%ADD22O,2.100000X1.800000*%
%ADD23C,2.100000*%
%ADD24C,4.100000*%
%ADD25C,1.600000*%
%ADD26C,1.700000*%
%ADD27O,4.600000X2.600000*%
%ADD28C,2.900000*%
%ADD29O,1.900000X1.900000*%
G04 APERTURE END LIST*
D10*
X66500000Y-63000000D02*
G75*
G02*
X71500000Y-58000000I5000000J0D01*
G01*
X73000000Y-63000000D02*
G75*
G03*
X73000000Y-63000000I-1500000J0D01*
G01*
X73000000Y-181000000D02*
G75*
G03*
X73000000Y-181000000I-1500000J0D01*
G01*
X71500000Y-186000000D02*
G75*
G02*
X66500000Y-181000000I0J5000000D01*
G01*
X319984000Y-63008000D02*
G75*
G03*
X319984000Y-63008000I-1500000J0D01*
G01*
X320348000Y-181348000D02*
G75*
G03*
X320348000Y-181348000I-1500000J0D01*
G01*
X323500000Y-181348000D02*
G75*
G02*
X318848000Y-186000000I-4652000J0D01*
G01*
X318500000Y-58000000D02*
G75*
G02*
X323500000Y-63000000I0J-5000000D01*
G01*
X66500000Y-181000000D02*
X66500000Y-63000000D01*
X318848000Y-186000000D02*
X71500000Y-186000000D01*
X323500000Y-63000000D02*
X323500000Y-181348000D01*
X71500000Y-58000000D02*
X318500000Y-58000000D01*
D11*
%TO.C,TP9*%
X96520000Y-161290000D03*
G36*
G01*
X97420000Y-162980000D02*
X97420000Y-164680000D01*
G75*
G02*
X97370000Y-164730000I-50000J0D01*
G01*
X95670000Y-164730000D01*
G75*
G02*
X95620000Y-164680000I0J50000D01*
G01*
X95620000Y-162980000D01*
G75*
G02*
X95670000Y-162930000I50000J0D01*
G01*
X97370000Y-162930000D01*
G75*
G02*
X97420000Y-162980000I0J-50000D01*
G01*
G37*
%TD*%
%TO.C,TP8*%
X98171000Y-137795000D03*
G36*
G01*
X99071000Y-139485000D02*
X99071000Y-141185000D01*
G75*
G02*
X99021000Y-141235000I-50000J0D01*
G01*
X97321000Y-141235000D01*
G75*
G02*
X97271000Y-141185000I0J50000D01*
G01*
X97271000Y-139485000D01*
G75*
G02*
X97321000Y-139435000I50000J0D01*
G01*
X99021000Y-139435000D01*
G75*
G02*
X99071000Y-139485000I0J-50000D01*
G01*
G37*
%TD*%
%TO.C,J2*%
X137541000Y-132524500D03*
X137541000Y-135064500D03*
X135001000Y-132524500D03*
X135001000Y-135064500D03*
X132461000Y-132524500D03*
X132461000Y-135064500D03*
X129921000Y-132524500D03*
G36*
G01*
X130771000Y-135964500D02*
X129071000Y-135964500D01*
G75*
G02*
X129021000Y-135914500I0J50000D01*
G01*
X129021000Y-134214500D01*
G75*
G02*
X129071000Y-134164500I50000J0D01*
G01*
X130771000Y-134164500D01*
G75*
G02*
X130821000Y-134214500I0J-50000D01*
G01*
X130821000Y-135914500D01*
G75*
G02*
X130771000Y-135964500I-50000J0D01*
G01*
G37*
%TD*%
%TO.C,C56*%
G36*
G01*
X289287000Y-87021750D02*
X289287000Y-87984250D01*
G75*
G02*
X289018250Y-88253000I-268750J0D01*
G01*
X288480750Y-88253000D01*
G75*
G02*
X288212000Y-87984250I0J268750D01*
G01*
X288212000Y-87021750D01*
G75*
G02*
X288480750Y-86753000I268750J0D01*
G01*
X289018250Y-86753000D01*
G75*
G02*
X289287000Y-87021750I0J-268750D01*
G01*
G37*
G36*
G01*
X291162000Y-87021750D02*
X291162000Y-87984250D01*
G75*
G02*
X290893250Y-88253000I-268750J0D01*
G01*
X290355750Y-88253000D01*
G75*
G02*
X290087000Y-87984250I0J268750D01*
G01*
X290087000Y-87021750D01*
G75*
G02*
X290355750Y-86753000I268750J0D01*
G01*
X290893250Y-86753000D01*
G75*
G02*
X291162000Y-87021750I0J-268750D01*
G01*
G37*
%TD*%
%TO.C,U10*%
G36*
G01*
X86058000Y-135383000D02*
X86058000Y-133603000D01*
G75*
G02*
X86108000Y-133553000I50000J0D01*
G01*
X87628000Y-133553000D01*
G75*
G02*
X87678000Y-133603000I0J-50000D01*
G01*
X87678000Y-135383000D01*
G75*
G02*
X87628000Y-135433000I-50000J0D01*
G01*
X86108000Y-135433000D01*
G75*
G02*
X86058000Y-135383000I0J50000D01*
G01*
G37*
G36*
G01*
X86058000Y-137923000D02*
X86058000Y-136143000D01*
G75*
G02*
X86108000Y-136093000I50000J0D01*
G01*
X87628000Y-136093000D01*
G75*
G02*
X87678000Y-136143000I0J-50000D01*
G01*
X87678000Y-137923000D01*
G75*
G02*
X87628000Y-137973000I-50000J0D01*
G01*
X86108000Y-137973000D01*
G75*
G02*
X86058000Y-137923000I0J50000D01*
G01*
G37*
G36*
G01*
X86058000Y-140463000D02*
X86058000Y-138683000D01*
G75*
G02*
X86108000Y-138633000I50000J0D01*
G01*
X87628000Y-138633000D01*
G75*
G02*
X87678000Y-138683000I0J-50000D01*
G01*
X87678000Y-140463000D01*
G75*
G02*
X87628000Y-140513000I-50000J0D01*
G01*
X86108000Y-140513000D01*
G75*
G02*
X86058000Y-140463000I0J50000D01*
G01*
G37*
G36*
G01*
X86058000Y-143003000D02*
X86058000Y-141223000D01*
G75*
G02*
X86108000Y-141173000I50000J0D01*
G01*
X87628000Y-141173000D01*
G75*
G02*
X87678000Y-141223000I0J-50000D01*
G01*
X87678000Y-143003000D01*
G75*
G02*
X87628000Y-143053000I-50000J0D01*
G01*
X86108000Y-143053000D01*
G75*
G02*
X86058000Y-143003000I0J50000D01*
G01*
G37*
G36*
G01*
X76538000Y-143003000D02*
X76538000Y-141223000D01*
G75*
G02*
X76588000Y-141173000I50000J0D01*
G01*
X78108000Y-141173000D01*
G75*
G02*
X78158000Y-141223000I0J-50000D01*
G01*
X78158000Y-143003000D01*
G75*
G02*
X78108000Y-143053000I-50000J0D01*
G01*
X76588000Y-143053000D01*
G75*
G02*
X76538000Y-143003000I0J50000D01*
G01*
G37*
G36*
G01*
X76538000Y-140463000D02*
X76538000Y-138683000D01*
G75*
G02*
X76588000Y-138633000I50000J0D01*
G01*
X78108000Y-138633000D01*
G75*
G02*
X78158000Y-138683000I0J-50000D01*
G01*
X78158000Y-140463000D01*
G75*
G02*
X78108000Y-140513000I-50000J0D01*
G01*
X76588000Y-140513000D01*
G75*
G02*
X76538000Y-140463000I0J50000D01*
G01*
G37*
G36*
G01*
X76538000Y-137908000D02*
X76538000Y-136158000D01*
G75*
G02*
X76588000Y-136108000I50000J0D01*
G01*
X78108000Y-136108000D01*
G75*
G02*
X78158000Y-136158000I0J-50000D01*
G01*
X78158000Y-137908000D01*
G75*
G02*
X78108000Y-137958000I-50000J0D01*
G01*
X76588000Y-137958000D01*
G75*
G02*
X76538000Y-137908000I0J50000D01*
G01*
G37*
G36*
G01*
X76538000Y-135383000D02*
X76538000Y-133603000D01*
G75*
G02*
X76588000Y-133553000I50000J0D01*
G01*
X78108000Y-133553000D01*
G75*
G02*
X78158000Y-133603000I0J-50000D01*
G01*
X78158000Y-135383000D01*
G75*
G02*
X78108000Y-135433000I-50000J0D01*
G01*
X76588000Y-135433000D01*
G75*
G02*
X76538000Y-135383000I0J50000D01*
G01*
G37*
%TD*%
%TO.C,U3*%
G36*
G01*
X82873000Y-169974000D02*
X82873000Y-169624000D01*
G75*
G02*
X83048000Y-169449000I175000J0D01*
G01*
X84748000Y-169449000D01*
G75*
G02*
X84923000Y-169624000I0J-175000D01*
G01*
X84923000Y-169974000D01*
G75*
G02*
X84748000Y-170149000I-175000J0D01*
G01*
X83048000Y-170149000D01*
G75*
G02*
X82873000Y-169974000I0J175000D01*
G01*
G37*
G36*
G01*
X82873000Y-171244000D02*
X82873000Y-170894000D01*
G75*
G02*
X83048000Y-170719000I175000J0D01*
G01*
X84748000Y-170719000D01*
G75*
G02*
X84923000Y-170894000I0J-175000D01*
G01*
X84923000Y-171244000D01*
G75*
G02*
X84748000Y-171419000I-175000J0D01*
G01*
X83048000Y-171419000D01*
G75*
G02*
X82873000Y-171244000I0J175000D01*
G01*
G37*
G36*
G01*
X82873000Y-172514000D02*
X82873000Y-172164000D01*
G75*
G02*
X83048000Y-171989000I175000J0D01*
G01*
X84748000Y-171989000D01*
G75*
G02*
X84923000Y-172164000I0J-175000D01*
G01*
X84923000Y-172514000D01*
G75*
G02*
X84748000Y-172689000I-175000J0D01*
G01*
X83048000Y-172689000D01*
G75*
G02*
X82873000Y-172514000I0J175000D01*
G01*
G37*
G36*
G01*
X82873000Y-173784000D02*
X82873000Y-173434000D01*
G75*
G02*
X83048000Y-173259000I175000J0D01*
G01*
X84748000Y-173259000D01*
G75*
G02*
X84923000Y-173434000I0J-175000D01*
G01*
X84923000Y-173784000D01*
G75*
G02*
X84748000Y-173959000I-175000J0D01*
G01*
X83048000Y-173959000D01*
G75*
G02*
X82873000Y-173784000I0J175000D01*
G01*
G37*
G36*
G01*
X77923000Y-173784000D02*
X77923000Y-173434000D01*
G75*
G02*
X78098000Y-173259000I175000J0D01*
G01*
X79798000Y-173259000D01*
G75*
G02*
X79973000Y-173434000I0J-175000D01*
G01*
X79973000Y-173784000D01*
G75*
G02*
X79798000Y-173959000I-175000J0D01*
G01*
X78098000Y-173959000D01*
G75*
G02*
X77923000Y-173784000I0J175000D01*
G01*
G37*
G36*
G01*
X77923000Y-172514000D02*
X77923000Y-172164000D01*
G75*
G02*
X78098000Y-171989000I175000J0D01*
G01*
X79798000Y-171989000D01*
G75*
G02*
X79973000Y-172164000I0J-175000D01*
G01*
X79973000Y-172514000D01*
G75*
G02*
X79798000Y-172689000I-175000J0D01*
G01*
X78098000Y-172689000D01*
G75*
G02*
X77923000Y-172514000I0J175000D01*
G01*
G37*
G36*
G01*
X77923000Y-171244000D02*
X77923000Y-170894000D01*
G75*
G02*
X78098000Y-170719000I175000J0D01*
G01*
X79798000Y-170719000D01*
G75*
G02*
X79973000Y-170894000I0J-175000D01*
G01*
X79973000Y-171244000D01*
G75*
G02*
X79798000Y-171419000I-175000J0D01*
G01*
X78098000Y-171419000D01*
G75*
G02*
X77923000Y-171244000I0J175000D01*
G01*
G37*
G36*
G01*
X77923000Y-169974000D02*
X77923000Y-169624000D01*
G75*
G02*
X78098000Y-169449000I175000J0D01*
G01*
X79798000Y-169449000D01*
G75*
G02*
X79973000Y-169624000I0J-175000D01*
G01*
X79973000Y-169974000D01*
G75*
G02*
X79798000Y-170149000I-175000J0D01*
G01*
X78098000Y-170149000D01*
G75*
G02*
X77923000Y-169974000I0J175000D01*
G01*
G37*
%TD*%
%TO.C,R25*%
G36*
G01*
X289287000Y-88926750D02*
X289287000Y-89889250D01*
G75*
G02*
X289018250Y-90158000I-268750J0D01*
G01*
X288480750Y-90158000D01*
G75*
G02*
X288212000Y-89889250I0J268750D01*
G01*
X288212000Y-88926750D01*
G75*
G02*
X288480750Y-88658000I268750J0D01*
G01*
X289018250Y-88658000D01*
G75*
G02*
X289287000Y-88926750I0J-268750D01*
G01*
G37*
G36*
G01*
X291162000Y-88926750D02*
X291162000Y-89889250D01*
G75*
G02*
X290893250Y-90158000I-268750J0D01*
G01*
X290355750Y-90158000D01*
G75*
G02*
X290087000Y-89889250I0J268750D01*
G01*
X290087000Y-88926750D01*
G75*
G02*
X290355750Y-88658000I268750J0D01*
G01*
X290893250Y-88658000D01*
G75*
G02*
X291162000Y-88926750I0J-268750D01*
G01*
G37*
%TD*%
%TO.C,R23*%
G36*
G01*
X293250125Y-87295220D02*
X293250125Y-90250780D01*
G75*
G02*
X292977905Y-90523000I-272220J0D01*
G01*
X292297345Y-90523000D01*
G75*
G02*
X292025125Y-90250780I0J272220D01*
G01*
X292025125Y-87295220D01*
G75*
G02*
X292297345Y-87023000I272220J0D01*
G01*
X292977905Y-87023000D01*
G75*
G02*
X293250125Y-87295220I0J-272220D01*
G01*
G37*
G36*
G01*
X297525125Y-87295220D02*
X297525125Y-90250780D01*
G75*
G02*
X297252905Y-90523000I-272220J0D01*
G01*
X296572345Y-90523000D01*
G75*
G02*
X296300125Y-90250780I0J272220D01*
G01*
X296300125Y-87295220D01*
G75*
G02*
X296572345Y-87023000I272220J0D01*
G01*
X297252905Y-87023000D01*
G75*
G02*
X297525125Y-87295220I0J-272220D01*
G01*
G37*
%TD*%
%TO.C,C74*%
G36*
G01*
X140210750Y-120071000D02*
X141173250Y-120071000D01*
G75*
G02*
X141442000Y-120339750I0J-268750D01*
G01*
X141442000Y-120877250D01*
G75*
G02*
X141173250Y-121146000I-268750J0D01*
G01*
X140210750Y-121146000D01*
G75*
G02*
X139942000Y-120877250I0J268750D01*
G01*
X139942000Y-120339750D01*
G75*
G02*
X140210750Y-120071000I268750J0D01*
G01*
G37*
G36*
G01*
X140210750Y-118196000D02*
X141173250Y-118196000D01*
G75*
G02*
X141442000Y-118464750I0J-268750D01*
G01*
X141442000Y-119002250D01*
G75*
G02*
X141173250Y-119271000I-268750J0D01*
G01*
X140210750Y-119271000D01*
G75*
G02*
X139942000Y-119002250I0J268750D01*
G01*
X139942000Y-118464750D01*
G75*
G02*
X140210750Y-118196000I268750J0D01*
G01*
G37*
%TD*%
%TO.C,C55*%
G36*
G01*
X294685125Y-83858000D02*
X294685125Y-86068000D01*
G75*
G02*
X294415125Y-86338000I-270000J0D01*
G01*
X293605125Y-86338000D01*
G75*
G02*
X293335125Y-86068000I0J270000D01*
G01*
X293335125Y-83858000D01*
G75*
G02*
X293605125Y-83588000I270000J0D01*
G01*
X294415125Y-83588000D01*
G75*
G02*
X294685125Y-83858000I0J-270000D01*
G01*
G37*
G36*
G01*
X297485125Y-83858000D02*
X297485125Y-86068000D01*
G75*
G02*
X297215125Y-86338000I-270000J0D01*
G01*
X296405125Y-86338000D01*
G75*
G02*
X296135125Y-86068000I0J270000D01*
G01*
X296135125Y-83858000D01*
G75*
G02*
X296405125Y-83588000I270000J0D01*
G01*
X297215125Y-83588000D01*
G75*
G02*
X297485125Y-83858000I0J-270000D01*
G01*
G37*
%TD*%
%TO.C,C44*%
G36*
G01*
X74387750Y-140227000D02*
X75350250Y-140227000D01*
G75*
G02*
X75619000Y-140495750I0J-268750D01*
G01*
X75619000Y-141033250D01*
G75*
G02*
X75350250Y-141302000I-268750J0D01*
G01*
X74387750Y-141302000D01*
G75*
G02*
X74119000Y-141033250I0J268750D01*
G01*
X74119000Y-140495750D01*
G75*
G02*
X74387750Y-140227000I268750J0D01*
G01*
G37*
G36*
G01*
X74387750Y-138352000D02*
X75350250Y-138352000D01*
G75*
G02*
X75619000Y-138620750I0J-268750D01*
G01*
X75619000Y-139158250D01*
G75*
G02*
X75350250Y-139427000I-268750J0D01*
G01*
X74387750Y-139427000D01*
G75*
G02*
X74119000Y-139158250I0J268750D01*
G01*
X74119000Y-138620750D01*
G75*
G02*
X74387750Y-138352000I268750J0D01*
G01*
G37*
%TD*%
%TO.C,C43*%
G36*
G01*
X77390000Y-131471750D02*
X77390000Y-132434250D01*
G75*
G02*
X77121250Y-132703000I-268750J0D01*
G01*
X76583750Y-132703000D01*
G75*
G02*
X76315000Y-132434250I0J268750D01*
G01*
X76315000Y-131471750D01*
G75*
G02*
X76583750Y-131203000I268750J0D01*
G01*
X77121250Y-131203000D01*
G75*
G02*
X77390000Y-131471750I0J-268750D01*
G01*
G37*
G36*
G01*
X79265000Y-131471750D02*
X79265000Y-132434250D01*
G75*
G02*
X78996250Y-132703000I-268750J0D01*
G01*
X78458750Y-132703000D01*
G75*
G02*
X78190000Y-132434250I0J268750D01*
G01*
X78190000Y-131471750D01*
G75*
G02*
X78458750Y-131203000I268750J0D01*
G01*
X78996250Y-131203000D01*
G75*
G02*
X79265000Y-131471750I0J-268750D01*
G01*
G37*
%TD*%
%TO.C,C42*%
G36*
G01*
X87169000Y-131471750D02*
X87169000Y-132434250D01*
G75*
G02*
X86900250Y-132703000I-268750J0D01*
G01*
X86362750Y-132703000D01*
G75*
G02*
X86094000Y-132434250I0J268750D01*
G01*
X86094000Y-131471750D01*
G75*
G02*
X86362750Y-131203000I268750J0D01*
G01*
X86900250Y-131203000D01*
G75*
G02*
X87169000Y-131471750I0J-268750D01*
G01*
G37*
G36*
G01*
X89044000Y-131471750D02*
X89044000Y-132434250D01*
G75*
G02*
X88775250Y-132703000I-268750J0D01*
G01*
X88237750Y-132703000D01*
G75*
G02*
X87969000Y-132434250I0J268750D01*
G01*
X87969000Y-131471750D01*
G75*
G02*
X88237750Y-131203000I268750J0D01*
G01*
X88775250Y-131203000D01*
G75*
G02*
X89044000Y-131471750I0J-268750D01*
G01*
G37*
%TD*%
%TO.C,C41*%
G36*
G01*
X89971500Y-159865750D02*
X89971500Y-160428250D01*
G75*
G02*
X89727750Y-160672000I-243750J0D01*
G01*
X89240250Y-160672000D01*
G75*
G02*
X88996500Y-160428250I0J243750D01*
G01*
X88996500Y-159865750D01*
G75*
G02*
X89240250Y-159622000I243750J0D01*
G01*
X89727750Y-159622000D01*
G75*
G02*
X89971500Y-159865750I0J-243750D01*
G01*
G37*
G36*
G01*
X91546500Y-159865750D02*
X91546500Y-160428250D01*
G75*
G02*
X91302750Y-160672000I-243750J0D01*
G01*
X90815250Y-160672000D01*
G75*
G02*
X90571500Y-160428250I0J243750D01*
G01*
X90571500Y-159865750D01*
G75*
G02*
X90815250Y-159622000I243750J0D01*
G01*
X91302750Y-159622000D01*
G75*
G02*
X91546500Y-159865750I0J-243750D01*
G01*
G37*
%TD*%
%TO.C,C38*%
G36*
G01*
X92428750Y-156383000D02*
X92991250Y-156383000D01*
G75*
G02*
X93235000Y-156626750I0J-243750D01*
G01*
X93235000Y-157114250D01*
G75*
G02*
X92991250Y-157358000I-243750J0D01*
G01*
X92428750Y-157358000D01*
G75*
G02*
X92185000Y-157114250I0J243750D01*
G01*
X92185000Y-156626750D01*
G75*
G02*
X92428750Y-156383000I243750J0D01*
G01*
G37*
G36*
G01*
X92428750Y-154808000D02*
X92991250Y-154808000D01*
G75*
G02*
X93235000Y-155051750I0J-243750D01*
G01*
X93235000Y-155539250D01*
G75*
G02*
X92991250Y-155783000I-243750J0D01*
G01*
X92428750Y-155783000D01*
G75*
G02*
X92185000Y-155539250I0J243750D01*
G01*
X92185000Y-155051750D01*
G75*
G02*
X92428750Y-154808000I243750J0D01*
G01*
G37*
%TD*%
%TO.C,C7*%
G36*
G01*
X90597000Y-152427250D02*
X90597000Y-151864750D01*
G75*
G02*
X90840750Y-151621000I243750J0D01*
G01*
X91328250Y-151621000D01*
G75*
G02*
X91572000Y-151864750I0J-243750D01*
G01*
X91572000Y-152427250D01*
G75*
G02*
X91328250Y-152671000I-243750J0D01*
G01*
X90840750Y-152671000D01*
G75*
G02*
X90597000Y-152427250I0J243750D01*
G01*
G37*
G36*
G01*
X89022000Y-152427250D02*
X89022000Y-151864750D01*
G75*
G02*
X89265750Y-151621000I243750J0D01*
G01*
X89753250Y-151621000D01*
G75*
G02*
X89997000Y-151864750I0J-243750D01*
G01*
X89997000Y-152427250D01*
G75*
G02*
X89753250Y-152671000I-243750J0D01*
G01*
X89265750Y-152671000D01*
G75*
G02*
X89022000Y-152427250I0J243750D01*
G01*
G37*
%TD*%
%TO.C,C6*%
G36*
G01*
X90063000Y-142085750D02*
X90063000Y-142648250D01*
G75*
G02*
X89819250Y-142892000I-243750J0D01*
G01*
X89331750Y-142892000D01*
G75*
G02*
X89088000Y-142648250I0J243750D01*
G01*
X89088000Y-142085750D01*
G75*
G02*
X89331750Y-141842000I243750J0D01*
G01*
X89819250Y-141842000D01*
G75*
G02*
X90063000Y-142085750I0J-243750D01*
G01*
G37*
G36*
G01*
X91638000Y-142085750D02*
X91638000Y-142648250D01*
G75*
G02*
X91394250Y-142892000I-243750J0D01*
G01*
X90906750Y-142892000D01*
G75*
G02*
X90663000Y-142648250I0J243750D01*
G01*
X90663000Y-142085750D01*
G75*
G02*
X90906750Y-141842000I243750J0D01*
G01*
X91394250Y-141842000D01*
G75*
G02*
X91638000Y-142085750I0J-243750D01*
G01*
G37*
%TD*%
%TO.C,C5*%
G36*
G01*
X92621750Y-138603000D02*
X93184250Y-138603000D01*
G75*
G02*
X93428000Y-138846750I0J-243750D01*
G01*
X93428000Y-139334250D01*
G75*
G02*
X93184250Y-139578000I-243750J0D01*
G01*
X92621750Y-139578000D01*
G75*
G02*
X92378000Y-139334250I0J243750D01*
G01*
X92378000Y-138846750D01*
G75*
G02*
X92621750Y-138603000I243750J0D01*
G01*
G37*
G36*
G01*
X92621750Y-137028000D02*
X93184250Y-137028000D01*
G75*
G02*
X93428000Y-137271750I0J-243750D01*
G01*
X93428000Y-137759250D01*
G75*
G02*
X93184250Y-138003000I-243750J0D01*
G01*
X92621750Y-138003000D01*
G75*
G02*
X92378000Y-137759250I0J243750D01*
G01*
X92378000Y-137271750D01*
G75*
G02*
X92621750Y-137028000I243750J0D01*
G01*
G37*
%TD*%
%TO.C,C4*%
G36*
G01*
X90663000Y-134520250D02*
X90663000Y-133957750D01*
G75*
G02*
X90906750Y-133714000I243750J0D01*
G01*
X91394250Y-133714000D01*
G75*
G02*
X91638000Y-133957750I0J-243750D01*
G01*
X91638000Y-134520250D01*
G75*
G02*
X91394250Y-134764000I-243750J0D01*
G01*
X90906750Y-134764000D01*
G75*
G02*
X90663000Y-134520250I0J243750D01*
G01*
G37*
G36*
G01*
X89088000Y-134520250D02*
X89088000Y-133957750D01*
G75*
G02*
X89331750Y-133714000I243750J0D01*
G01*
X89819250Y-133714000D01*
G75*
G02*
X90063000Y-133957750I0J-243750D01*
G01*
X90063000Y-134520250D01*
G75*
G02*
X89819250Y-134764000I-243750J0D01*
G01*
X89331750Y-134764000D01*
G75*
G02*
X89088000Y-134520250I0J243750D01*
G01*
G37*
%TD*%
D12*
%TO.C,J1*%
X303657000Y-67818000D03*
X296037000Y-67818000D03*
X288417000Y-67818000D03*
%TD*%
%TO.C,Q23*%
G36*
G01*
X161282000Y-169818000D02*
X161282000Y-169018000D01*
G75*
G02*
X161332000Y-168968000I50000J0D01*
G01*
X162232000Y-168968000D01*
G75*
G02*
X162282000Y-169018000I0J-50000D01*
G01*
X162282000Y-169818000D01*
G75*
G02*
X162232000Y-169868000I-50000J0D01*
G01*
X161332000Y-169868000D01*
G75*
G02*
X161282000Y-169818000I0J50000D01*
G01*
G37*
G36*
G01*
X159282000Y-170768000D02*
X159282000Y-169968000D01*
G75*
G02*
X159332000Y-169918000I50000J0D01*
G01*
X160232000Y-169918000D01*
G75*
G02*
X160282000Y-169968000I0J-50000D01*
G01*
X160282000Y-170768000D01*
G75*
G02*
X160232000Y-170818000I-50000J0D01*
G01*
X159332000Y-170818000D01*
G75*
G02*
X159282000Y-170768000I0J50000D01*
G01*
G37*
G36*
G01*
X159282000Y-168868000D02*
X159282000Y-168068000D01*
G75*
G02*
X159332000Y-168018000I50000J0D01*
G01*
X160232000Y-168018000D01*
G75*
G02*
X160282000Y-168068000I0J-50000D01*
G01*
X160282000Y-168868000D01*
G75*
G02*
X160232000Y-168918000I-50000J0D01*
G01*
X159332000Y-168918000D01*
G75*
G02*
X159282000Y-168868000I0J50000D01*
G01*
G37*
%TD*%
D13*
%TO.C,U9*%
X172085000Y-163830000D03*
X164465000Y-171450000D03*
X172085000Y-166370000D03*
X164465000Y-168910000D03*
X172085000Y-168910000D03*
X164465000Y-166370000D03*
X172085000Y-171450000D03*
G36*
G01*
X163615000Y-164630000D02*
X163615000Y-163030000D01*
G75*
G02*
X163665000Y-162980000I50000J0D01*
G01*
X165265000Y-162980000D01*
G75*
G02*
X165315000Y-163030000I0J-50000D01*
G01*
X165315000Y-164630000D01*
G75*
G02*
X165265000Y-164680000I-50000J0D01*
G01*
X163665000Y-164680000D01*
G75*
G02*
X163615000Y-164630000I0J50000D01*
G01*
G37*
%TD*%
D11*
%TO.C,TP13*%
X93218000Y-114935000D03*
G36*
G01*
X94908000Y-114035000D02*
X96608000Y-114035000D01*
G75*
G02*
X96658000Y-114085000I0J-50000D01*
G01*
X96658000Y-115785000D01*
G75*
G02*
X96608000Y-115835000I-50000J0D01*
G01*
X94908000Y-115835000D01*
G75*
G02*
X94858000Y-115785000I0J50000D01*
G01*
X94858000Y-114085000D01*
G75*
G02*
X94908000Y-114035000I50000J0D01*
G01*
G37*
%TD*%
D14*
%TO.C,R76*%
X271907000Y-178308000D03*
D15*
X302387000Y-178308000D03*
%TD*%
%TO.C,C37*%
X211307000Y-174498000D03*
X233807000Y-174498000D03*
%TD*%
%TO.C,Y1*%
G36*
G01*
X104924330Y-146527064D02*
X103934381Y-145537114D01*
G75*
G02*
X103934381Y-145466404I35355J35355D01*
G01*
X105065752Y-144335033D01*
G75*
G02*
X105136462Y-144335033I35355J-35355D01*
G01*
X106126411Y-145324982D01*
G75*
G02*
X106126411Y-145395692I-35355J-35355D01*
G01*
X104995040Y-146527063D01*
G75*
G02*
X104924330Y-146527063I-35355J35355D01*
G01*
G37*
G36*
G01*
X106621386Y-148224120D02*
X105631437Y-147234170D01*
G75*
G02*
X105631437Y-147163460I35355J35355D01*
G01*
X106762808Y-146032089D01*
G75*
G02*
X106833518Y-146032089I35355J-35355D01*
G01*
X107823467Y-147022038D01*
G75*
G02*
X107823467Y-147092748I-35355J-35355D01*
G01*
X106692096Y-148224119D01*
G75*
G02*
X106621386Y-148224119I-35355J35355D01*
G01*
G37*
G36*
G01*
X103651538Y-151193968D02*
X102661589Y-150204018D01*
G75*
G02*
X102661589Y-150133308I35355J35355D01*
G01*
X103792960Y-149001937D01*
G75*
G02*
X103863670Y-149001937I35355J-35355D01*
G01*
X104853619Y-149991886D01*
G75*
G02*
X104853619Y-150062596I-35355J-35355D01*
G01*
X103722248Y-151193967D01*
G75*
G02*
X103651538Y-151193967I-35355J35355D01*
G01*
G37*
G36*
G01*
X102025193Y-149513882D02*
X100947562Y-148436251D01*
G75*
G02*
X100947562Y-148365541I35355J35355D01*
G01*
X102025193Y-147287910D01*
G75*
G02*
X102095903Y-147287910I35355J-35355D01*
G01*
X103173534Y-148365541D01*
G75*
G02*
X103173534Y-148436251I-35355J-35355D01*
G01*
X102095903Y-149513882D01*
G75*
G02*
X102025193Y-149513882I-35355J35355D01*
G01*
G37*
%TD*%
%TO.C,D29*%
G36*
G01*
X122446000Y-180270000D02*
X124696000Y-180270000D01*
G75*
G02*
X124746000Y-180320000I0J-50000D01*
G01*
X124746000Y-182320000D01*
G75*
G02*
X124696000Y-182370000I-50000J0D01*
G01*
X122446000Y-182370000D01*
G75*
G02*
X122396000Y-182320000I0J50000D01*
G01*
X122396000Y-180320000D01*
G75*
G02*
X122446000Y-180270000I50000J0D01*
G01*
G37*
G36*
G01*
X122446000Y-176405000D02*
X124696000Y-176405000D01*
G75*
G02*
X124746000Y-176455000I0J-50000D01*
G01*
X124746000Y-178455000D01*
G75*
G02*
X124696000Y-178505000I-50000J0D01*
G01*
X122446000Y-178505000D01*
G75*
G02*
X122396000Y-178455000I0J50000D01*
G01*
X122396000Y-176455000D01*
G75*
G02*
X122446000Y-176405000I50000J0D01*
G01*
G37*
%TD*%
D16*
%TO.C,L1*%
X80852000Y-89923000D03*
X90852000Y-89923000D03*
X90852000Y-74923000D03*
X80852000Y-74923000D03*
%TD*%
D17*
%TO.C,T2*%
X108277000Y-92733000D03*
X113277000Y-92733000D03*
X128277000Y-92733000D03*
X133277000Y-92733000D03*
X133277000Y-67033000D03*
X108277000Y-67033000D03*
%TD*%
%TO.C,C68*%
G36*
G01*
X138576000Y-175423750D02*
X138576000Y-174461250D01*
G75*
G02*
X138844750Y-174192500I268750J0D01*
G01*
X139382250Y-174192500D01*
G75*
G02*
X139651000Y-174461250I0J-268750D01*
G01*
X139651000Y-175423750D01*
G75*
G02*
X139382250Y-175692500I-268750J0D01*
G01*
X138844750Y-175692500D01*
G75*
G02*
X138576000Y-175423750I0J268750D01*
G01*
G37*
G36*
G01*
X136701000Y-175423750D02*
X136701000Y-174461250D01*
G75*
G02*
X136969750Y-174192500I268750J0D01*
G01*
X137507250Y-174192500D01*
G75*
G02*
X137776000Y-174461250I0J-268750D01*
G01*
X137776000Y-175423750D01*
G75*
G02*
X137507250Y-175692500I-268750J0D01*
G01*
X136969750Y-175692500D01*
G75*
G02*
X136701000Y-175423750I0J268750D01*
G01*
G37*
%TD*%
%TO.C,C48*%
G36*
G01*
X71179500Y-80036750D02*
X71179500Y-80999250D01*
G75*
G02*
X70910750Y-81268000I-268750J0D01*
G01*
X70373250Y-81268000D01*
G75*
G02*
X70104500Y-80999250I0J268750D01*
G01*
X70104500Y-80036750D01*
G75*
G02*
X70373250Y-79768000I268750J0D01*
G01*
X70910750Y-79768000D01*
G75*
G02*
X71179500Y-80036750I0J-268750D01*
G01*
G37*
G36*
G01*
X73054500Y-80036750D02*
X73054500Y-80999250D01*
G75*
G02*
X72785750Y-81268000I-268750J0D01*
G01*
X72248250Y-81268000D01*
G75*
G02*
X71979500Y-80999250I0J268750D01*
G01*
X71979500Y-80036750D01*
G75*
G02*
X72248250Y-79768000I268750J0D01*
G01*
X72785750Y-79768000D01*
G75*
G02*
X73054500Y-80036750I0J-268750D01*
G01*
G37*
%TD*%
%TO.C,U17*%
G36*
G01*
X113001000Y-146067500D02*
X113001000Y-144692500D01*
G75*
G02*
X113101000Y-144592500I100000J0D01*
G01*
X113301000Y-144592500D01*
G75*
G02*
X113401000Y-144692500I0J-100000D01*
G01*
X113401000Y-146067500D01*
G75*
G02*
X113301000Y-146167500I-100000J0D01*
G01*
X113101000Y-146167500D01*
G75*
G02*
X113001000Y-146067500I0J100000D01*
G01*
G37*
G36*
G01*
X113501000Y-146067500D02*
X113501000Y-144692500D01*
G75*
G02*
X113601000Y-144592500I100000J0D01*
G01*
X113801000Y-144592500D01*
G75*
G02*
X113901000Y-144692500I0J-100000D01*
G01*
X113901000Y-146067500D01*
G75*
G02*
X113801000Y-146167500I-100000J0D01*
G01*
X113601000Y-146167500D01*
G75*
G02*
X113501000Y-146067500I0J100000D01*
G01*
G37*
G36*
G01*
X114001000Y-146067500D02*
X114001000Y-144692500D01*
G75*
G02*
X114101000Y-144592500I100000J0D01*
G01*
X114301000Y-144592500D01*
G75*
G02*
X114401000Y-144692500I0J-100000D01*
G01*
X114401000Y-146067500D01*
G75*
G02*
X114301000Y-146167500I-100000J0D01*
G01*
X114101000Y-146167500D01*
G75*
G02*
X114001000Y-146067500I0J100000D01*
G01*
G37*
G36*
G01*
X114501000Y-146067500D02*
X114501000Y-144692500D01*
G75*
G02*
X114601000Y-144592500I100000J0D01*
G01*
X114801000Y-144592500D01*
G75*
G02*
X114901000Y-144692500I0J-100000D01*
G01*
X114901000Y-146067500D01*
G75*
G02*
X114801000Y-146167500I-100000J0D01*
G01*
X114601000Y-146167500D01*
G75*
G02*
X114501000Y-146067500I0J100000D01*
G01*
G37*
G36*
G01*
X115001000Y-146067500D02*
X115001000Y-144692500D01*
G75*
G02*
X115101000Y-144592500I100000J0D01*
G01*
X115301000Y-144592500D01*
G75*
G02*
X115401000Y-144692500I0J-100000D01*
G01*
X115401000Y-146067500D01*
G75*
G02*
X115301000Y-146167500I-100000J0D01*
G01*
X115101000Y-146167500D01*
G75*
G02*
X115001000Y-146067500I0J100000D01*
G01*
G37*
G36*
G01*
X115501000Y-146067500D02*
X115501000Y-144692500D01*
G75*
G02*
X115601000Y-144592500I100000J0D01*
G01*
X115801000Y-144592500D01*
G75*
G02*
X115901000Y-144692500I0J-100000D01*
G01*
X115901000Y-146067500D01*
G75*
G02*
X115801000Y-146167500I-100000J0D01*
G01*
X115601000Y-146167500D01*
G75*
G02*
X115501000Y-146067500I0J100000D01*
G01*
G37*
G36*
G01*
X116001000Y-146067500D02*
X116001000Y-144692500D01*
G75*
G02*
X116101000Y-144592500I100000J0D01*
G01*
X116301000Y-144592500D01*
G75*
G02*
X116401000Y-144692500I0J-100000D01*
G01*
X116401000Y-146067500D01*
G75*
G02*
X116301000Y-146167500I-100000J0D01*
G01*
X116101000Y-146167500D01*
G75*
G02*
X116001000Y-146067500I0J100000D01*
G01*
G37*
G36*
G01*
X116501000Y-146067500D02*
X116501000Y-144692500D01*
G75*
G02*
X116601000Y-144592500I100000J0D01*
G01*
X116801000Y-144592500D01*
G75*
G02*
X116901000Y-144692500I0J-100000D01*
G01*
X116901000Y-146067500D01*
G75*
G02*
X116801000Y-146167500I-100000J0D01*
G01*
X116601000Y-146167500D01*
G75*
G02*
X116501000Y-146067500I0J100000D01*
G01*
G37*
G36*
G01*
X117001000Y-146067500D02*
X117001000Y-144692500D01*
G75*
G02*
X117101000Y-144592500I100000J0D01*
G01*
X117301000Y-144592500D01*
G75*
G02*
X117401000Y-144692500I0J-100000D01*
G01*
X117401000Y-146067500D01*
G75*
G02*
X117301000Y-146167500I-100000J0D01*
G01*
X117101000Y-146167500D01*
G75*
G02*
X117001000Y-146067500I0J100000D01*
G01*
G37*
G36*
G01*
X117501000Y-146067500D02*
X117501000Y-144692500D01*
G75*
G02*
X117601000Y-144592500I100000J0D01*
G01*
X117801000Y-144592500D01*
G75*
G02*
X117901000Y-144692500I0J-100000D01*
G01*
X117901000Y-146067500D01*
G75*
G02*
X117801000Y-146167500I-100000J0D01*
G01*
X117601000Y-146167500D01*
G75*
G02*
X117501000Y-146067500I0J100000D01*
G01*
G37*
G36*
G01*
X118001000Y-146067500D02*
X118001000Y-144692500D01*
G75*
G02*
X118101000Y-144592500I100000J0D01*
G01*
X118301000Y-144592500D01*
G75*
G02*
X118401000Y-144692500I0J-100000D01*
G01*
X118401000Y-146067500D01*
G75*
G02*
X118301000Y-146167500I-100000J0D01*
G01*
X118101000Y-146167500D01*
G75*
G02*
X118001000Y-146067500I0J100000D01*
G01*
G37*
G36*
G01*
X118501000Y-146067500D02*
X118501000Y-144692500D01*
G75*
G02*
X118601000Y-144592500I100000J0D01*
G01*
X118801000Y-144592500D01*
G75*
G02*
X118901000Y-144692500I0J-100000D01*
G01*
X118901000Y-146067500D01*
G75*
G02*
X118801000Y-146167500I-100000J0D01*
G01*
X118601000Y-146167500D01*
G75*
G02*
X118501000Y-146067500I0J100000D01*
G01*
G37*
G36*
G01*
X119326000Y-146892500D02*
X119326000Y-146692500D01*
G75*
G02*
X119426000Y-146592500I100000J0D01*
G01*
X120801000Y-146592500D01*
G75*
G02*
X120901000Y-146692500I0J-100000D01*
G01*
X120901000Y-146892500D01*
G75*
G02*
X120801000Y-146992500I-100000J0D01*
G01*
X119426000Y-146992500D01*
G75*
G02*
X119326000Y-146892500I0J100000D01*
G01*
G37*
G36*
G01*
X119326000Y-147392500D02*
X119326000Y-147192500D01*
G75*
G02*
X119426000Y-147092500I100000J0D01*
G01*
X120801000Y-147092500D01*
G75*
G02*
X120901000Y-147192500I0J-100000D01*
G01*
X120901000Y-147392500D01*
G75*
G02*
X120801000Y-147492500I-100000J0D01*
G01*
X119426000Y-147492500D01*
G75*
G02*
X119326000Y-147392500I0J100000D01*
G01*
G37*
G36*
G01*
X119326000Y-147892500D02*
X119326000Y-147692500D01*
G75*
G02*
X119426000Y-147592500I100000J0D01*
G01*
X120801000Y-147592500D01*
G75*
G02*
X120901000Y-147692500I0J-100000D01*
G01*
X120901000Y-147892500D01*
G75*
G02*
X120801000Y-147992500I-100000J0D01*
G01*
X119426000Y-147992500D01*
G75*
G02*
X119326000Y-147892500I0J100000D01*
G01*
G37*
G36*
G01*
X119326000Y-148392500D02*
X119326000Y-148192500D01*
G75*
G02*
X119426000Y-148092500I100000J0D01*
G01*
X120801000Y-148092500D01*
G75*
G02*
X120901000Y-148192500I0J-100000D01*
G01*
X120901000Y-148392500D01*
G75*
G02*
X120801000Y-148492500I-100000J0D01*
G01*
X119426000Y-148492500D01*
G75*
G02*
X119326000Y-148392500I0J100000D01*
G01*
G37*
G36*
G01*
X119326000Y-148892500D02*
X119326000Y-148692500D01*
G75*
G02*
X119426000Y-148592500I100000J0D01*
G01*
X120801000Y-148592500D01*
G75*
G02*
X120901000Y-148692500I0J-100000D01*
G01*
X120901000Y-148892500D01*
G75*
G02*
X120801000Y-148992500I-100000J0D01*
G01*
X119426000Y-148992500D01*
G75*
G02*
X119326000Y-148892500I0J100000D01*
G01*
G37*
G36*
G01*
X119326000Y-149392500D02*
X119326000Y-149192500D01*
G75*
G02*
X119426000Y-149092500I100000J0D01*
G01*
X120801000Y-149092500D01*
G75*
G02*
X120901000Y-149192500I0J-100000D01*
G01*
X120901000Y-149392500D01*
G75*
G02*
X120801000Y-149492500I-100000J0D01*
G01*
X119426000Y-149492500D01*
G75*
G02*
X119326000Y-149392500I0J100000D01*
G01*
G37*
G36*
G01*
X119326000Y-149892500D02*
X119326000Y-149692500D01*
G75*
G02*
X119426000Y-149592500I100000J0D01*
G01*
X120801000Y-149592500D01*
G75*
G02*
X120901000Y-149692500I0J-100000D01*
G01*
X120901000Y-149892500D01*
G75*
G02*
X120801000Y-149992500I-100000J0D01*
G01*
X119426000Y-149992500D01*
G75*
G02*
X119326000Y-149892500I0J100000D01*
G01*
G37*
G36*
G01*
X119326000Y-150392500D02*
X119326000Y-150192500D01*
G75*
G02*
X119426000Y-150092500I100000J0D01*
G01*
X120801000Y-150092500D01*
G75*
G02*
X120901000Y-150192500I0J-100000D01*
G01*
X120901000Y-150392500D01*
G75*
G02*
X120801000Y-150492500I-100000J0D01*
G01*
X119426000Y-150492500D01*
G75*
G02*
X119326000Y-150392500I0J100000D01*
G01*
G37*
G36*
G01*
X119326000Y-150892500D02*
X119326000Y-150692500D01*
G75*
G02*
X119426000Y-150592500I100000J0D01*
G01*
X120801000Y-150592500D01*
G75*
G02*
X120901000Y-150692500I0J-100000D01*
G01*
X120901000Y-150892500D01*
G75*
G02*
X120801000Y-150992500I-100000J0D01*
G01*
X119426000Y-150992500D01*
G75*
G02*
X119326000Y-150892500I0J100000D01*
G01*
G37*
G36*
G01*
X119326000Y-151392500D02*
X119326000Y-151192500D01*
G75*
G02*
X119426000Y-151092500I100000J0D01*
G01*
X120801000Y-151092500D01*
G75*
G02*
X120901000Y-151192500I0J-100000D01*
G01*
X120901000Y-151392500D01*
G75*
G02*
X120801000Y-151492500I-100000J0D01*
G01*
X119426000Y-151492500D01*
G75*
G02*
X119326000Y-151392500I0J100000D01*
G01*
G37*
G36*
G01*
X119326000Y-151892500D02*
X119326000Y-151692500D01*
G75*
G02*
X119426000Y-151592500I100000J0D01*
G01*
X120801000Y-151592500D01*
G75*
G02*
X120901000Y-151692500I0J-100000D01*
G01*
X120901000Y-151892500D01*
G75*
G02*
X120801000Y-151992500I-100000J0D01*
G01*
X119426000Y-151992500D01*
G75*
G02*
X119326000Y-151892500I0J100000D01*
G01*
G37*
G36*
G01*
X119326000Y-152392500D02*
X119326000Y-152192500D01*
G75*
G02*
X119426000Y-152092500I100000J0D01*
G01*
X120801000Y-152092500D01*
G75*
G02*
X120901000Y-152192500I0J-100000D01*
G01*
X120901000Y-152392500D01*
G75*
G02*
X120801000Y-152492500I-100000J0D01*
G01*
X119426000Y-152492500D01*
G75*
G02*
X119326000Y-152392500I0J100000D01*
G01*
G37*
G36*
G01*
X118501000Y-154392500D02*
X118501000Y-153017500D01*
G75*
G02*
X118601000Y-152917500I100000J0D01*
G01*
X118801000Y-152917500D01*
G75*
G02*
X118901000Y-153017500I0J-100000D01*
G01*
X118901000Y-154392500D01*
G75*
G02*
X118801000Y-154492500I-100000J0D01*
G01*
X118601000Y-154492500D01*
G75*
G02*
X118501000Y-154392500I0J100000D01*
G01*
G37*
G36*
G01*
X118001000Y-154392500D02*
X118001000Y-153017500D01*
G75*
G02*
X118101000Y-152917500I100000J0D01*
G01*
X118301000Y-152917500D01*
G75*
G02*
X118401000Y-153017500I0J-100000D01*
G01*
X118401000Y-154392500D01*
G75*
G02*
X118301000Y-154492500I-100000J0D01*
G01*
X118101000Y-154492500D01*
G75*
G02*
X118001000Y-154392500I0J100000D01*
G01*
G37*
G36*
G01*
X117501000Y-154392500D02*
X117501000Y-153017500D01*
G75*
G02*
X117601000Y-152917500I100000J0D01*
G01*
X117801000Y-152917500D01*
G75*
G02*
X117901000Y-153017500I0J-100000D01*
G01*
X117901000Y-154392500D01*
G75*
G02*
X117801000Y-154492500I-100000J0D01*
G01*
X117601000Y-154492500D01*
G75*
G02*
X117501000Y-154392500I0J100000D01*
G01*
G37*
G36*
G01*
X117001000Y-154392500D02*
X117001000Y-153017500D01*
G75*
G02*
X117101000Y-152917500I100000J0D01*
G01*
X117301000Y-152917500D01*
G75*
G02*
X117401000Y-153017500I0J-100000D01*
G01*
X117401000Y-154392500D01*
G75*
G02*
X117301000Y-154492500I-100000J0D01*
G01*
X117101000Y-154492500D01*
G75*
G02*
X117001000Y-154392500I0J100000D01*
G01*
G37*
G36*
G01*
X116501000Y-154392500D02*
X116501000Y-153017500D01*
G75*
G02*
X116601000Y-152917500I100000J0D01*
G01*
X116801000Y-152917500D01*
G75*
G02*
X116901000Y-153017500I0J-100000D01*
G01*
X116901000Y-154392500D01*
G75*
G02*
X116801000Y-154492500I-100000J0D01*
G01*
X116601000Y-154492500D01*
G75*
G02*
X116501000Y-154392500I0J100000D01*
G01*
G37*
G36*
G01*
X116001000Y-154392500D02*
X116001000Y-153017500D01*
G75*
G02*
X116101000Y-152917500I100000J0D01*
G01*
X116301000Y-152917500D01*
G75*
G02*
X116401000Y-153017500I0J-100000D01*
G01*
X116401000Y-154392500D01*
G75*
G02*
X116301000Y-154492500I-100000J0D01*
G01*
X116101000Y-154492500D01*
G75*
G02*
X116001000Y-154392500I0J100000D01*
G01*
G37*
G36*
G01*
X115501000Y-154392500D02*
X115501000Y-153017500D01*
G75*
G02*
X115601000Y-152917500I100000J0D01*
G01*
X115801000Y-152917500D01*
G75*
G02*
X115901000Y-153017500I0J-100000D01*
G01*
X115901000Y-154392500D01*
G75*
G02*
X115801000Y-154492500I-100000J0D01*
G01*
X115601000Y-154492500D01*
G75*
G02*
X115501000Y-154392500I0J100000D01*
G01*
G37*
G36*
G01*
X115001000Y-154392500D02*
X115001000Y-153017500D01*
G75*
G02*
X115101000Y-152917500I100000J0D01*
G01*
X115301000Y-152917500D01*
G75*
G02*
X115401000Y-153017500I0J-100000D01*
G01*
X115401000Y-154392500D01*
G75*
G02*
X115301000Y-154492500I-100000J0D01*
G01*
X115101000Y-154492500D01*
G75*
G02*
X115001000Y-154392500I0J100000D01*
G01*
G37*
G36*
G01*
X114501000Y-154392500D02*
X114501000Y-153017500D01*
G75*
G02*
X114601000Y-152917500I100000J0D01*
G01*
X114801000Y-152917500D01*
G75*
G02*
X114901000Y-153017500I0J-100000D01*
G01*
X114901000Y-154392500D01*
G75*
G02*
X114801000Y-154492500I-100000J0D01*
G01*
X114601000Y-154492500D01*
G75*
G02*
X114501000Y-154392500I0J100000D01*
G01*
G37*
G36*
G01*
X114001000Y-154392500D02*
X114001000Y-153017500D01*
G75*
G02*
X114101000Y-152917500I100000J0D01*
G01*
X114301000Y-152917500D01*
G75*
G02*
X114401000Y-153017500I0J-100000D01*
G01*
X114401000Y-154392500D01*
G75*
G02*
X114301000Y-154492500I-100000J0D01*
G01*
X114101000Y-154492500D01*
G75*
G02*
X114001000Y-154392500I0J100000D01*
G01*
G37*
G36*
G01*
X113501000Y-154392500D02*
X113501000Y-153017500D01*
G75*
G02*
X113601000Y-152917500I100000J0D01*
G01*
X113801000Y-152917500D01*
G75*
G02*
X113901000Y-153017500I0J-100000D01*
G01*
X113901000Y-154392500D01*
G75*
G02*
X113801000Y-154492500I-100000J0D01*
G01*
X113601000Y-154492500D01*
G75*
G02*
X113501000Y-154392500I0J100000D01*
G01*
G37*
G36*
G01*
X113001000Y-154392500D02*
X113001000Y-153017500D01*
G75*
G02*
X113101000Y-152917500I100000J0D01*
G01*
X113301000Y-152917500D01*
G75*
G02*
X113401000Y-153017500I0J-100000D01*
G01*
X113401000Y-154392500D01*
G75*
G02*
X113301000Y-154492500I-100000J0D01*
G01*
X113101000Y-154492500D01*
G75*
G02*
X113001000Y-154392500I0J100000D01*
G01*
G37*
G36*
G01*
X111001000Y-152392500D02*
X111001000Y-152192500D01*
G75*
G02*
X111101000Y-152092500I100000J0D01*
G01*
X112476000Y-152092500D01*
G75*
G02*
X112576000Y-152192500I0J-100000D01*
G01*
X112576000Y-152392500D01*
G75*
G02*
X112476000Y-152492500I-100000J0D01*
G01*
X111101000Y-152492500D01*
G75*
G02*
X111001000Y-152392500I0J100000D01*
G01*
G37*
G36*
G01*
X111001000Y-151892500D02*
X111001000Y-151692500D01*
G75*
G02*
X111101000Y-151592500I100000J0D01*
G01*
X112476000Y-151592500D01*
G75*
G02*
X112576000Y-151692500I0J-100000D01*
G01*
X112576000Y-151892500D01*
G75*
G02*
X112476000Y-151992500I-100000J0D01*
G01*
X111101000Y-151992500D01*
G75*
G02*
X111001000Y-151892500I0J100000D01*
G01*
G37*
G36*
G01*
X111001000Y-151392500D02*
X111001000Y-151192500D01*
G75*
G02*
X111101000Y-151092500I100000J0D01*
G01*
X112476000Y-151092500D01*
G75*
G02*
X112576000Y-151192500I0J-100000D01*
G01*
X112576000Y-151392500D01*
G75*
G02*
X112476000Y-151492500I-100000J0D01*
G01*
X111101000Y-151492500D01*
G75*
G02*
X111001000Y-151392500I0J100000D01*
G01*
G37*
G36*
G01*
X111001000Y-150892500D02*
X111001000Y-150692500D01*
G75*
G02*
X111101000Y-150592500I100000J0D01*
G01*
X112476000Y-150592500D01*
G75*
G02*
X112576000Y-150692500I0J-100000D01*
G01*
X112576000Y-150892500D01*
G75*
G02*
X112476000Y-150992500I-100000J0D01*
G01*
X111101000Y-150992500D01*
G75*
G02*
X111001000Y-150892500I0J100000D01*
G01*
G37*
G36*
G01*
X111001000Y-150392500D02*
X111001000Y-150192500D01*
G75*
G02*
X111101000Y-150092500I100000J0D01*
G01*
X112476000Y-150092500D01*
G75*
G02*
X112576000Y-150192500I0J-100000D01*
G01*
X112576000Y-150392500D01*
G75*
G02*
X112476000Y-150492500I-100000J0D01*
G01*
X111101000Y-150492500D01*
G75*
G02*
X111001000Y-150392500I0J100000D01*
G01*
G37*
G36*
G01*
X111001000Y-149892500D02*
X111001000Y-149692500D01*
G75*
G02*
X111101000Y-149592500I100000J0D01*
G01*
X112476000Y-149592500D01*
G75*
G02*
X112576000Y-149692500I0J-100000D01*
G01*
X112576000Y-149892500D01*
G75*
G02*
X112476000Y-149992500I-100000J0D01*
G01*
X111101000Y-149992500D01*
G75*
G02*
X111001000Y-149892500I0J100000D01*
G01*
G37*
G36*
G01*
X111001000Y-149392500D02*
X111001000Y-149192500D01*
G75*
G02*
X111101000Y-149092500I100000J0D01*
G01*
X112476000Y-149092500D01*
G75*
G02*
X112576000Y-149192500I0J-100000D01*
G01*
X112576000Y-149392500D01*
G75*
G02*
X112476000Y-149492500I-100000J0D01*
G01*
X111101000Y-149492500D01*
G75*
G02*
X111001000Y-149392500I0J100000D01*
G01*
G37*
G36*
G01*
X111001000Y-148892500D02*
X111001000Y-148692500D01*
G75*
G02*
X111101000Y-148592500I100000J0D01*
G01*
X112476000Y-148592500D01*
G75*
G02*
X112576000Y-148692500I0J-100000D01*
G01*
X112576000Y-148892500D01*
G75*
G02*
X112476000Y-148992500I-100000J0D01*
G01*
X111101000Y-148992500D01*
G75*
G02*
X111001000Y-148892500I0J100000D01*
G01*
G37*
G36*
G01*
X111001000Y-148392500D02*
X111001000Y-148192500D01*
G75*
G02*
X111101000Y-148092500I100000J0D01*
G01*
X112476000Y-148092500D01*
G75*
G02*
X112576000Y-148192500I0J-100000D01*
G01*
X112576000Y-148392500D01*
G75*
G02*
X112476000Y-148492500I-100000J0D01*
G01*
X111101000Y-148492500D01*
G75*
G02*
X111001000Y-148392500I0J100000D01*
G01*
G37*
G36*
G01*
X111001000Y-147892500D02*
X111001000Y-147692500D01*
G75*
G02*
X111101000Y-147592500I100000J0D01*
G01*
X112476000Y-147592500D01*
G75*
G02*
X112576000Y-147692500I0J-100000D01*
G01*
X112576000Y-147892500D01*
G75*
G02*
X112476000Y-147992500I-100000J0D01*
G01*
X111101000Y-147992500D01*
G75*
G02*
X111001000Y-147892500I0J100000D01*
G01*
G37*
G36*
G01*
X111001000Y-147392500D02*
X111001000Y-147192500D01*
G75*
G02*
X111101000Y-147092500I100000J0D01*
G01*
X112476000Y-147092500D01*
G75*
G02*
X112576000Y-147192500I0J-100000D01*
G01*
X112576000Y-147392500D01*
G75*
G02*
X112476000Y-147492500I-100000J0D01*
G01*
X111101000Y-147492500D01*
G75*
G02*
X111001000Y-147392500I0J100000D01*
G01*
G37*
G36*
G01*
X111001000Y-146892500D02*
X111001000Y-146692500D01*
G75*
G02*
X111101000Y-146592500I100000J0D01*
G01*
X112476000Y-146592500D01*
G75*
G02*
X112576000Y-146692500I0J-100000D01*
G01*
X112576000Y-146892500D01*
G75*
G02*
X112476000Y-146992500I-100000J0D01*
G01*
X111101000Y-146992500D01*
G75*
G02*
X111001000Y-146892500I0J100000D01*
G01*
G37*
%TD*%
%TO.C,U16*%
G36*
G01*
X117046000Y-174042510D02*
X117396000Y-174042510D01*
G75*
G02*
X117571000Y-174217510I0J-175000D01*
G01*
X117571000Y-176017510D01*
G75*
G02*
X117396000Y-176192510I-175000J0D01*
G01*
X117046000Y-176192510D01*
G75*
G02*
X116871000Y-176017510I0J175000D01*
G01*
X116871000Y-174217510D01*
G75*
G02*
X117046000Y-174042510I175000J0D01*
G01*
G37*
G36*
G01*
X115776000Y-174042510D02*
X116126000Y-174042510D01*
G75*
G02*
X116301000Y-174217510I0J-175000D01*
G01*
X116301000Y-176017510D01*
G75*
G02*
X116126000Y-176192510I-175000J0D01*
G01*
X115776000Y-176192510D01*
G75*
G02*
X115601000Y-176017510I0J175000D01*
G01*
X115601000Y-174217510D01*
G75*
G02*
X115776000Y-174042510I175000J0D01*
G01*
G37*
G36*
G01*
X114506000Y-174042510D02*
X114856000Y-174042510D01*
G75*
G02*
X115031000Y-174217510I0J-175000D01*
G01*
X115031000Y-176017510D01*
G75*
G02*
X114856000Y-176192510I-175000J0D01*
G01*
X114506000Y-176192510D01*
G75*
G02*
X114331000Y-176017510I0J175000D01*
G01*
X114331000Y-174217510D01*
G75*
G02*
X114506000Y-174042510I175000J0D01*
G01*
G37*
G36*
G01*
X113236000Y-174042510D02*
X113586000Y-174042510D01*
G75*
G02*
X113761000Y-174217510I0J-175000D01*
G01*
X113761000Y-176017510D01*
G75*
G02*
X113586000Y-176192510I-175000J0D01*
G01*
X113236000Y-176192510D01*
G75*
G02*
X113061000Y-176017510I0J175000D01*
G01*
X113061000Y-174217510D01*
G75*
G02*
X113236000Y-174042510I175000J0D01*
G01*
G37*
G36*
G01*
X111966000Y-174042510D02*
X112316000Y-174042510D01*
G75*
G02*
X112491000Y-174217510I0J-175000D01*
G01*
X112491000Y-176017510D01*
G75*
G02*
X112316000Y-176192510I-175000J0D01*
G01*
X111966000Y-176192510D01*
G75*
G02*
X111791000Y-176017510I0J175000D01*
G01*
X111791000Y-174217510D01*
G75*
G02*
X111966000Y-174042510I175000J0D01*
G01*
G37*
G36*
G01*
X110696000Y-174042510D02*
X111046000Y-174042510D01*
G75*
G02*
X111221000Y-174217510I0J-175000D01*
G01*
X111221000Y-176017510D01*
G75*
G02*
X111046000Y-176192510I-175000J0D01*
G01*
X110696000Y-176192510D01*
G75*
G02*
X110521000Y-176017510I0J175000D01*
G01*
X110521000Y-174217510D01*
G75*
G02*
X110696000Y-174042510I175000J0D01*
G01*
G37*
G36*
G01*
X109426000Y-174042510D02*
X109776000Y-174042510D01*
G75*
G02*
X109951000Y-174217510I0J-175000D01*
G01*
X109951000Y-176017510D01*
G75*
G02*
X109776000Y-176192510I-175000J0D01*
G01*
X109426000Y-176192510D01*
G75*
G02*
X109251000Y-176017510I0J175000D01*
G01*
X109251000Y-174217510D01*
G75*
G02*
X109426000Y-174042510I175000J0D01*
G01*
G37*
G36*
G01*
X108156000Y-174042510D02*
X108506000Y-174042510D01*
G75*
G02*
X108681000Y-174217510I0J-175000D01*
G01*
X108681000Y-176017510D01*
G75*
G02*
X108506000Y-176192510I-175000J0D01*
G01*
X108156000Y-176192510D01*
G75*
G02*
X107981000Y-176017510I0J175000D01*
G01*
X107981000Y-174217510D01*
G75*
G02*
X108156000Y-174042510I175000J0D01*
G01*
G37*
G36*
G01*
X108156000Y-164742510D02*
X108506000Y-164742510D01*
G75*
G02*
X108681000Y-164917510I0J-175000D01*
G01*
X108681000Y-166717510D01*
G75*
G02*
X108506000Y-166892510I-175000J0D01*
G01*
X108156000Y-166892510D01*
G75*
G02*
X107981000Y-166717510I0J175000D01*
G01*
X107981000Y-164917510D01*
G75*
G02*
X108156000Y-164742510I175000J0D01*
G01*
G37*
G36*
G01*
X109426000Y-164742510D02*
X109776000Y-164742510D01*
G75*
G02*
X109951000Y-164917510I0J-175000D01*
G01*
X109951000Y-166717510D01*
G75*
G02*
X109776000Y-166892510I-175000J0D01*
G01*
X109426000Y-166892510D01*
G75*
G02*
X109251000Y-166717510I0J175000D01*
G01*
X109251000Y-164917510D01*
G75*
G02*
X109426000Y-164742510I175000J0D01*
G01*
G37*
G36*
G01*
X110696000Y-164742510D02*
X111046000Y-164742510D01*
G75*
G02*
X111221000Y-164917510I0J-175000D01*
G01*
X111221000Y-166717510D01*
G75*
G02*
X111046000Y-166892510I-175000J0D01*
G01*
X110696000Y-166892510D01*
G75*
G02*
X110521000Y-166717510I0J175000D01*
G01*
X110521000Y-164917510D01*
G75*
G02*
X110696000Y-164742510I175000J0D01*
G01*
G37*
G36*
G01*
X111966000Y-164742510D02*
X112316000Y-164742510D01*
G75*
G02*
X112491000Y-164917510I0J-175000D01*
G01*
X112491000Y-166717510D01*
G75*
G02*
X112316000Y-166892510I-175000J0D01*
G01*
X111966000Y-166892510D01*
G75*
G02*
X111791000Y-166717510I0J175000D01*
G01*
X111791000Y-164917510D01*
G75*
G02*
X111966000Y-164742510I175000J0D01*
G01*
G37*
G36*
G01*
X113236000Y-164742510D02*
X113586000Y-164742510D01*
G75*
G02*
X113761000Y-164917510I0J-175000D01*
G01*
X113761000Y-166717510D01*
G75*
G02*
X113586000Y-166892510I-175000J0D01*
G01*
X113236000Y-166892510D01*
G75*
G02*
X113061000Y-166717510I0J175000D01*
G01*
X113061000Y-164917510D01*
G75*
G02*
X113236000Y-164742510I175000J0D01*
G01*
G37*
G36*
G01*
X114506000Y-164742510D02*
X114856000Y-164742510D01*
G75*
G02*
X115031000Y-164917510I0J-175000D01*
G01*
X115031000Y-166717510D01*
G75*
G02*
X114856000Y-166892510I-175000J0D01*
G01*
X114506000Y-166892510D01*
G75*
G02*
X114331000Y-166717510I0J175000D01*
G01*
X114331000Y-164917510D01*
G75*
G02*
X114506000Y-164742510I175000J0D01*
G01*
G37*
G36*
G01*
X115776000Y-164742510D02*
X116126000Y-164742510D01*
G75*
G02*
X116301000Y-164917510I0J-175000D01*
G01*
X116301000Y-166717510D01*
G75*
G02*
X116126000Y-166892510I-175000J0D01*
G01*
X115776000Y-166892510D01*
G75*
G02*
X115601000Y-166717510I0J175000D01*
G01*
X115601000Y-164917510D01*
G75*
G02*
X115776000Y-164742510I175000J0D01*
G01*
G37*
G36*
G01*
X117046000Y-164742510D02*
X117396000Y-164742510D01*
G75*
G02*
X117571000Y-164917510I0J-175000D01*
G01*
X117571000Y-166717510D01*
G75*
G02*
X117396000Y-166892510I-175000J0D01*
G01*
X117046000Y-166892510D01*
G75*
G02*
X116871000Y-166717510I0J175000D01*
G01*
X116871000Y-164917510D01*
G75*
G02*
X117046000Y-164742510I175000J0D01*
G01*
G37*
%TD*%
D13*
%TO.C,U15*%
X128651000Y-167640000D03*
X133731000Y-175260000D03*
X131191000Y-167640000D03*
X131191000Y-175260000D03*
X133731000Y-167640000D03*
G36*
G01*
X129451000Y-176110000D02*
X127851000Y-176110000D01*
G75*
G02*
X127801000Y-176060000I0J50000D01*
G01*
X127801000Y-174460000D01*
G75*
G02*
X127851000Y-174410000I50000J0D01*
G01*
X129451000Y-174410000D01*
G75*
G02*
X129501000Y-174460000I0J-50000D01*
G01*
X129501000Y-176060000D01*
G75*
G02*
X129451000Y-176110000I-50000J0D01*
G01*
G37*
%TD*%
%TO.C,U6*%
G36*
G01*
X146102000Y-121046000D02*
X146102000Y-115246000D01*
G75*
G02*
X146152000Y-115196000I50000J0D01*
G01*
X152552000Y-115196000D01*
G75*
G02*
X152602000Y-115246000I0J-50000D01*
G01*
X152602000Y-121046000D01*
G75*
G02*
X152552000Y-121096000I-50000J0D01*
G01*
X146152000Y-121096000D01*
G75*
G02*
X146102000Y-121046000I0J50000D01*
G01*
G37*
G36*
G01*
X141902000Y-121026000D02*
X141902000Y-119826000D01*
G75*
G02*
X141952000Y-119776000I50000J0D01*
G01*
X144152000Y-119776000D01*
G75*
G02*
X144202000Y-119826000I0J-50000D01*
G01*
X144202000Y-121026000D01*
G75*
G02*
X144152000Y-121076000I-50000J0D01*
G01*
X141952000Y-121076000D01*
G75*
G02*
X141902000Y-121026000I0J50000D01*
G01*
G37*
G36*
G01*
X141902000Y-116466000D02*
X141902000Y-115266000D01*
G75*
G02*
X141952000Y-115216000I50000J0D01*
G01*
X144152000Y-115216000D01*
G75*
G02*
X144202000Y-115266000I0J-50000D01*
G01*
X144202000Y-116466000D01*
G75*
G02*
X144152000Y-116516000I-50000J0D01*
G01*
X141952000Y-116516000D01*
G75*
G02*
X141902000Y-116466000I0J50000D01*
G01*
G37*
%TD*%
D11*
%TO.C,TP14*%
X120904000Y-120777000D03*
G36*
G01*
X119214000Y-121677000D02*
X117514000Y-121677000D01*
G75*
G02*
X117464000Y-121627000I0J50000D01*
G01*
X117464000Y-119927000D01*
G75*
G02*
X117514000Y-119877000I50000J0D01*
G01*
X119214000Y-119877000D01*
G75*
G02*
X119264000Y-119927000I0J-50000D01*
G01*
X119264000Y-121627000D01*
G75*
G02*
X119214000Y-121677000I-50000J0D01*
G01*
G37*
%TD*%
D14*
%TO.C,R77*%
X271907000Y-168148000D03*
D15*
X302387000Y-168148000D03*
%TD*%
D14*
%TO.C,R75*%
X271907000Y-157988000D03*
D15*
X302387000Y-157988000D03*
%TD*%
D14*
%TO.C,R74*%
X298577000Y-93218000D03*
D15*
X298577000Y-123698000D03*
%TD*%
D14*
%TO.C,R73*%
X287782000Y-93218000D03*
D15*
X287782000Y-123698000D03*
%TD*%
%TO.C,R72*%
G36*
G01*
X161182000Y-145769250D02*
X161182000Y-144806750D01*
G75*
G02*
X161450750Y-144538000I268750J0D01*
G01*
X161988250Y-144538000D01*
G75*
G02*
X162257000Y-144806750I0J-268750D01*
G01*
X162257000Y-145769250D01*
G75*
G02*
X161988250Y-146038000I-268750J0D01*
G01*
X161450750Y-146038000D01*
G75*
G02*
X161182000Y-145769250I0J268750D01*
G01*
G37*
G36*
G01*
X159307000Y-145769250D02*
X159307000Y-144806750D01*
G75*
G02*
X159575750Y-144538000I268750J0D01*
G01*
X160113250Y-144538000D01*
G75*
G02*
X160382000Y-144806750I0J-268750D01*
G01*
X160382000Y-145769250D01*
G75*
G02*
X160113250Y-146038000I-268750J0D01*
G01*
X159575750Y-146038000D01*
G75*
G02*
X159307000Y-145769250I0J268750D01*
G01*
G37*
%TD*%
%TO.C,R71*%
G36*
G01*
X161182000Y-166724250D02*
X161182000Y-165761750D01*
G75*
G02*
X161450750Y-165493000I268750J0D01*
G01*
X161988250Y-165493000D01*
G75*
G02*
X162257000Y-165761750I0J-268750D01*
G01*
X162257000Y-166724250D01*
G75*
G02*
X161988250Y-166993000I-268750J0D01*
G01*
X161450750Y-166993000D01*
G75*
G02*
X161182000Y-166724250I0J268750D01*
G01*
G37*
G36*
G01*
X159307000Y-166724250D02*
X159307000Y-165761750D01*
G75*
G02*
X159575750Y-165493000I268750J0D01*
G01*
X160113250Y-165493000D01*
G75*
G02*
X160382000Y-165761750I0J-268750D01*
G01*
X160382000Y-166724250D01*
G75*
G02*
X160113250Y-166993000I-268750J0D01*
G01*
X159575750Y-166993000D01*
G75*
G02*
X159307000Y-166724250I0J268750D01*
G01*
G37*
%TD*%
%TO.C,R70*%
G36*
G01*
X160382000Y-151156750D02*
X160382000Y-152119250D01*
G75*
G02*
X160113250Y-152388000I-268750J0D01*
G01*
X159575750Y-152388000D01*
G75*
G02*
X159307000Y-152119250I0J268750D01*
G01*
X159307000Y-151156750D01*
G75*
G02*
X159575750Y-150888000I268750J0D01*
G01*
X160113250Y-150888000D01*
G75*
G02*
X160382000Y-151156750I0J-268750D01*
G01*
G37*
G36*
G01*
X162257000Y-151156750D02*
X162257000Y-152119250D01*
G75*
G02*
X161988250Y-152388000I-268750J0D01*
G01*
X161450750Y-152388000D01*
G75*
G02*
X161182000Y-152119250I0J268750D01*
G01*
X161182000Y-151156750D01*
G75*
G02*
X161450750Y-150888000I268750J0D01*
G01*
X161988250Y-150888000D01*
G75*
G02*
X162257000Y-151156750I0J-268750D01*
G01*
G37*
%TD*%
%TO.C,R69*%
G36*
G01*
X160382000Y-172111750D02*
X160382000Y-173074250D01*
G75*
G02*
X160113250Y-173343000I-268750J0D01*
G01*
X159575750Y-173343000D01*
G75*
G02*
X159307000Y-173074250I0J268750D01*
G01*
X159307000Y-172111750D01*
G75*
G02*
X159575750Y-171843000I268750J0D01*
G01*
X160113250Y-171843000D01*
G75*
G02*
X160382000Y-172111750I0J-268750D01*
G01*
G37*
G36*
G01*
X162257000Y-172111750D02*
X162257000Y-173074250D01*
G75*
G02*
X161988250Y-173343000I-268750J0D01*
G01*
X161450750Y-173343000D01*
G75*
G02*
X161182000Y-173074250I0J268750D01*
G01*
X161182000Y-172111750D01*
G75*
G02*
X161450750Y-171843000I268750J0D01*
G01*
X161988250Y-171843000D01*
G75*
G02*
X162257000Y-172111750I0J-268750D01*
G01*
G37*
%TD*%
%TO.C,R68*%
G36*
G01*
X156572000Y-147346750D02*
X156572000Y-148309250D01*
G75*
G02*
X156303250Y-148578000I-268750J0D01*
G01*
X155765750Y-148578000D01*
G75*
G02*
X155497000Y-148309250I0J268750D01*
G01*
X155497000Y-147346750D01*
G75*
G02*
X155765750Y-147078000I268750J0D01*
G01*
X156303250Y-147078000D01*
G75*
G02*
X156572000Y-147346750I0J-268750D01*
G01*
G37*
G36*
G01*
X158447000Y-147346750D02*
X158447000Y-148309250D01*
G75*
G02*
X158178250Y-148578000I-268750J0D01*
G01*
X157640750Y-148578000D01*
G75*
G02*
X157372000Y-148309250I0J268750D01*
G01*
X157372000Y-147346750D01*
G75*
G02*
X157640750Y-147078000I268750J0D01*
G01*
X158178250Y-147078000D01*
G75*
G02*
X158447000Y-147346750I0J-268750D01*
G01*
G37*
%TD*%
%TO.C,R67*%
G36*
G01*
X156572000Y-167666750D02*
X156572000Y-168629250D01*
G75*
G02*
X156303250Y-168898000I-268750J0D01*
G01*
X155765750Y-168898000D01*
G75*
G02*
X155497000Y-168629250I0J268750D01*
G01*
X155497000Y-167666750D01*
G75*
G02*
X155765750Y-167398000I268750J0D01*
G01*
X156303250Y-167398000D01*
G75*
G02*
X156572000Y-167666750I0J-268750D01*
G01*
G37*
G36*
G01*
X158447000Y-167666750D02*
X158447000Y-168629250D01*
G75*
G02*
X158178250Y-168898000I-268750J0D01*
G01*
X157640750Y-168898000D01*
G75*
G02*
X157372000Y-168629250I0J268750D01*
G01*
X157372000Y-167666750D01*
G75*
G02*
X157640750Y-167398000I268750J0D01*
G01*
X158178250Y-167398000D01*
G75*
G02*
X158447000Y-167666750I0J-268750D01*
G01*
G37*
%TD*%
%TO.C,R65*%
G36*
G01*
X159112000Y-135916750D02*
X159112000Y-136879250D01*
G75*
G02*
X158843250Y-137148000I-268750J0D01*
G01*
X158305750Y-137148000D01*
G75*
G02*
X158037000Y-136879250I0J268750D01*
G01*
X158037000Y-135916750D01*
G75*
G02*
X158305750Y-135648000I268750J0D01*
G01*
X158843250Y-135648000D01*
G75*
G02*
X159112000Y-135916750I0J-268750D01*
G01*
G37*
G36*
G01*
X160987000Y-135916750D02*
X160987000Y-136879250D01*
G75*
G02*
X160718250Y-137148000I-268750J0D01*
G01*
X160180750Y-137148000D01*
G75*
G02*
X159912000Y-136879250I0J268750D01*
G01*
X159912000Y-135916750D01*
G75*
G02*
X160180750Y-135648000I268750J0D01*
G01*
X160718250Y-135648000D01*
G75*
G02*
X160987000Y-135916750I0J-268750D01*
G01*
G37*
%TD*%
%TO.C,R64*%
G36*
G01*
X159112000Y-133376750D02*
X159112000Y-134339250D01*
G75*
G02*
X158843250Y-134608000I-268750J0D01*
G01*
X158305750Y-134608000D01*
G75*
G02*
X158037000Y-134339250I0J268750D01*
G01*
X158037000Y-133376750D01*
G75*
G02*
X158305750Y-133108000I268750J0D01*
G01*
X158843250Y-133108000D01*
G75*
G02*
X159112000Y-133376750I0J-268750D01*
G01*
G37*
G36*
G01*
X160987000Y-133376750D02*
X160987000Y-134339250D01*
G75*
G02*
X160718250Y-134608000I-268750J0D01*
G01*
X160180750Y-134608000D01*
G75*
G02*
X159912000Y-134339250I0J268750D01*
G01*
X159912000Y-133376750D01*
G75*
G02*
X160180750Y-133108000I268750J0D01*
G01*
X160718250Y-133108000D01*
G75*
G02*
X160987000Y-133376750I0J-268750D01*
G01*
G37*
%TD*%
%TO.C,R63*%
G36*
G01*
X159112000Y-123851750D02*
X159112000Y-124814250D01*
G75*
G02*
X158843250Y-125083000I-268750J0D01*
G01*
X158305750Y-125083000D01*
G75*
G02*
X158037000Y-124814250I0J268750D01*
G01*
X158037000Y-123851750D01*
G75*
G02*
X158305750Y-123583000I268750J0D01*
G01*
X158843250Y-123583000D01*
G75*
G02*
X159112000Y-123851750I0J-268750D01*
G01*
G37*
G36*
G01*
X160987000Y-123851750D02*
X160987000Y-124814250D01*
G75*
G02*
X160718250Y-125083000I-268750J0D01*
G01*
X160180750Y-125083000D01*
G75*
G02*
X159912000Y-124814250I0J268750D01*
G01*
X159912000Y-123851750D01*
G75*
G02*
X160180750Y-123583000I268750J0D01*
G01*
X160718250Y-123583000D01*
G75*
G02*
X160987000Y-123851750I0J-268750D01*
G01*
G37*
%TD*%
%TO.C,R62*%
G36*
G01*
X159112000Y-121311750D02*
X159112000Y-122274250D01*
G75*
G02*
X158843250Y-122543000I-268750J0D01*
G01*
X158305750Y-122543000D01*
G75*
G02*
X158037000Y-122274250I0J268750D01*
G01*
X158037000Y-121311750D01*
G75*
G02*
X158305750Y-121043000I268750J0D01*
G01*
X158843250Y-121043000D01*
G75*
G02*
X159112000Y-121311750I0J-268750D01*
G01*
G37*
G36*
G01*
X160987000Y-121311750D02*
X160987000Y-122274250D01*
G75*
G02*
X160718250Y-122543000I-268750J0D01*
G01*
X160180750Y-122543000D01*
G75*
G02*
X159912000Y-122274250I0J268750D01*
G01*
X159912000Y-121311750D01*
G75*
G02*
X160180750Y-121043000I268750J0D01*
G01*
X160718250Y-121043000D01*
G75*
G02*
X160987000Y-121311750I0J-268750D01*
G01*
G37*
%TD*%
%TO.C,R59*%
G36*
G01*
X158896000Y-181773750D02*
X158896000Y-180811250D01*
G75*
G02*
X159164750Y-180542500I268750J0D01*
G01*
X159702250Y-180542500D01*
G75*
G02*
X159971000Y-180811250I0J-268750D01*
G01*
X159971000Y-181773750D01*
G75*
G02*
X159702250Y-182042500I-268750J0D01*
G01*
X159164750Y-182042500D01*
G75*
G02*
X158896000Y-181773750I0J268750D01*
G01*
G37*
G36*
G01*
X157021000Y-181773750D02*
X157021000Y-180811250D01*
G75*
G02*
X157289750Y-180542500I268750J0D01*
G01*
X157827250Y-180542500D01*
G75*
G02*
X158096000Y-180811250I0J-268750D01*
G01*
X158096000Y-181773750D01*
G75*
G02*
X157827250Y-182042500I-268750J0D01*
G01*
X157289750Y-182042500D01*
G75*
G02*
X157021000Y-181773750I0J268750D01*
G01*
G37*
%TD*%
%TO.C,R58*%
G36*
G01*
X113646000Y-136996250D02*
X113646000Y-137958750D01*
G75*
G02*
X113377250Y-138227500I-268750J0D01*
G01*
X112839750Y-138227500D01*
G75*
G02*
X112571000Y-137958750I0J268750D01*
G01*
X112571000Y-136996250D01*
G75*
G02*
X112839750Y-136727500I268750J0D01*
G01*
X113377250Y-136727500D01*
G75*
G02*
X113646000Y-136996250I0J-268750D01*
G01*
G37*
G36*
G01*
X115521000Y-136996250D02*
X115521000Y-137958750D01*
G75*
G02*
X115252250Y-138227500I-268750J0D01*
G01*
X114714750Y-138227500D01*
G75*
G02*
X114446000Y-137958750I0J268750D01*
G01*
X114446000Y-136996250D01*
G75*
G02*
X114714750Y-136727500I268750J0D01*
G01*
X115252250Y-136727500D01*
G75*
G02*
X115521000Y-136996250I0J-268750D01*
G01*
G37*
%TD*%
%TO.C,R53*%
G36*
G01*
X121431000Y-161453750D02*
X121431000Y-160491250D01*
G75*
G02*
X121699750Y-160222500I268750J0D01*
G01*
X122237250Y-160222500D01*
G75*
G02*
X122506000Y-160491250I0J-268750D01*
G01*
X122506000Y-161453750D01*
G75*
G02*
X122237250Y-161722500I-268750J0D01*
G01*
X121699750Y-161722500D01*
G75*
G02*
X121431000Y-161453750I0J268750D01*
G01*
G37*
G36*
G01*
X119556000Y-161453750D02*
X119556000Y-160491250D01*
G75*
G02*
X119824750Y-160222500I268750J0D01*
G01*
X120362250Y-160222500D01*
G75*
G02*
X120631000Y-160491250I0J-268750D01*
G01*
X120631000Y-161453750D01*
G75*
G02*
X120362250Y-161722500I-268750J0D01*
G01*
X119824750Y-161722500D01*
G75*
G02*
X119556000Y-161453750I0J268750D01*
G01*
G37*
%TD*%
%TO.C,R52*%
G36*
G01*
X74022000Y-159538750D02*
X74022000Y-160501250D01*
G75*
G02*
X73753250Y-160770000I-268750J0D01*
G01*
X73215750Y-160770000D01*
G75*
G02*
X72947000Y-160501250I0J268750D01*
G01*
X72947000Y-159538750D01*
G75*
G02*
X73215750Y-159270000I268750J0D01*
G01*
X73753250Y-159270000D01*
G75*
G02*
X74022000Y-159538750I0J-268750D01*
G01*
G37*
G36*
G01*
X75897000Y-159538750D02*
X75897000Y-160501250D01*
G75*
G02*
X75628250Y-160770000I-268750J0D01*
G01*
X75090750Y-160770000D01*
G75*
G02*
X74822000Y-160501250I0J268750D01*
G01*
X74822000Y-159538750D01*
G75*
G02*
X75090750Y-159270000I268750J0D01*
G01*
X75628250Y-159270000D01*
G75*
G02*
X75897000Y-159538750I0J-268750D01*
G01*
G37*
%TD*%
%TO.C,R51*%
G36*
G01*
X114979500Y-127344250D02*
X114979500Y-128306750D01*
G75*
G02*
X114710750Y-128575500I-268750J0D01*
G01*
X114173250Y-128575500D01*
G75*
G02*
X113904500Y-128306750I0J268750D01*
G01*
X113904500Y-127344250D01*
G75*
G02*
X114173250Y-127075500I268750J0D01*
G01*
X114710750Y-127075500D01*
G75*
G02*
X114979500Y-127344250I0J-268750D01*
G01*
G37*
G36*
G01*
X116854500Y-127344250D02*
X116854500Y-128306750D01*
G75*
G02*
X116585750Y-128575500I-268750J0D01*
G01*
X116048250Y-128575500D01*
G75*
G02*
X115779500Y-128306750I0J268750D01*
G01*
X115779500Y-127344250D01*
G75*
G02*
X116048250Y-127075500I268750J0D01*
G01*
X116585750Y-127075500D01*
G75*
G02*
X116854500Y-127344250I0J-268750D01*
G01*
G37*
%TD*%
%TO.C,R50*%
G36*
G01*
X112604500Y-131481750D02*
X112604500Y-130519250D01*
G75*
G02*
X112873250Y-130250500I268750J0D01*
G01*
X113410750Y-130250500D01*
G75*
G02*
X113679500Y-130519250I0J-268750D01*
G01*
X113679500Y-131481750D01*
G75*
G02*
X113410750Y-131750500I-268750J0D01*
G01*
X112873250Y-131750500D01*
G75*
G02*
X112604500Y-131481750I0J268750D01*
G01*
G37*
G36*
G01*
X110729500Y-131481750D02*
X110729500Y-130519250D01*
G75*
G02*
X110998250Y-130250500I268750J0D01*
G01*
X111535750Y-130250500D01*
G75*
G02*
X111804500Y-130519250I0J-268750D01*
G01*
X111804500Y-131481750D01*
G75*
G02*
X111535750Y-131750500I-268750J0D01*
G01*
X110998250Y-131750500D01*
G75*
G02*
X110729500Y-131481750I0J268750D01*
G01*
G37*
%TD*%
%TO.C,R49*%
G36*
G01*
X103247000Y-122264250D02*
X103247000Y-123226750D01*
G75*
G02*
X102978250Y-123495500I-268750J0D01*
G01*
X102440750Y-123495500D01*
G75*
G02*
X102172000Y-123226750I0J268750D01*
G01*
X102172000Y-122264250D01*
G75*
G02*
X102440750Y-121995500I268750J0D01*
G01*
X102978250Y-121995500D01*
G75*
G02*
X103247000Y-122264250I0J-268750D01*
G01*
G37*
G36*
G01*
X105122000Y-122264250D02*
X105122000Y-123226750D01*
G75*
G02*
X104853250Y-123495500I-268750J0D01*
G01*
X104315750Y-123495500D01*
G75*
G02*
X104047000Y-123226750I0J268750D01*
G01*
X104047000Y-122264250D01*
G75*
G02*
X104315750Y-121995500I268750J0D01*
G01*
X104853250Y-121995500D01*
G75*
G02*
X105122000Y-122264250I0J-268750D01*
G01*
G37*
%TD*%
%TO.C,R48*%
G36*
G01*
X98967000Y-128941750D02*
X98967000Y-127979250D01*
G75*
G02*
X99235750Y-127710500I268750J0D01*
G01*
X99773250Y-127710500D01*
G75*
G02*
X100042000Y-127979250I0J-268750D01*
G01*
X100042000Y-128941750D01*
G75*
G02*
X99773250Y-129210500I-268750J0D01*
G01*
X99235750Y-129210500D01*
G75*
G02*
X98967000Y-128941750I0J268750D01*
G01*
G37*
G36*
G01*
X97092000Y-128941750D02*
X97092000Y-127979250D01*
G75*
G02*
X97360750Y-127710500I268750J0D01*
G01*
X97898250Y-127710500D01*
G75*
G02*
X98167000Y-127979250I0J-268750D01*
G01*
X98167000Y-128941750D01*
G75*
G02*
X97898250Y-129210500I-268750J0D01*
G01*
X97360750Y-129210500D01*
G75*
G02*
X97092000Y-128941750I0J268750D01*
G01*
G37*
%TD*%
%TO.C,R47*%
G36*
G01*
X98967000Y-125766750D02*
X98967000Y-124804250D01*
G75*
G02*
X99235750Y-124535500I268750J0D01*
G01*
X99773250Y-124535500D01*
G75*
G02*
X100042000Y-124804250I0J-268750D01*
G01*
X100042000Y-125766750D01*
G75*
G02*
X99773250Y-126035500I-268750J0D01*
G01*
X99235750Y-126035500D01*
G75*
G02*
X98967000Y-125766750I0J268750D01*
G01*
G37*
G36*
G01*
X97092000Y-125766750D02*
X97092000Y-124804250D01*
G75*
G02*
X97360750Y-124535500I268750J0D01*
G01*
X97898250Y-124535500D01*
G75*
G02*
X98167000Y-124804250I0J-268750D01*
G01*
X98167000Y-125766750D01*
G75*
G02*
X97898250Y-126035500I-268750J0D01*
G01*
X97360750Y-126035500D01*
G75*
G02*
X97092000Y-125766750I0J268750D01*
G01*
G37*
%TD*%
%TO.C,R34*%
G36*
G01*
X92048250Y-171939000D02*
X91085750Y-171939000D01*
G75*
G02*
X90817000Y-171670250I0J268750D01*
G01*
X90817000Y-171132750D01*
G75*
G02*
X91085750Y-170864000I268750J0D01*
G01*
X92048250Y-170864000D01*
G75*
G02*
X92317000Y-171132750I0J-268750D01*
G01*
X92317000Y-171670250D01*
G75*
G02*
X92048250Y-171939000I-268750J0D01*
G01*
G37*
G36*
G01*
X92048250Y-173814000D02*
X91085750Y-173814000D01*
G75*
G02*
X90817000Y-173545250I0J268750D01*
G01*
X90817000Y-173007750D01*
G75*
G02*
X91085750Y-172739000I268750J0D01*
G01*
X92048250Y-172739000D01*
G75*
G02*
X92317000Y-173007750I0J-268750D01*
G01*
X92317000Y-173545250D01*
G75*
G02*
X92048250Y-173814000I-268750J0D01*
G01*
G37*
%TD*%
%TO.C,R33*%
G36*
G01*
X92064250Y-168105500D02*
X91101750Y-168105500D01*
G75*
G02*
X90833000Y-167836750I0J268750D01*
G01*
X90833000Y-167299250D01*
G75*
G02*
X91101750Y-167030500I268750J0D01*
G01*
X92064250Y-167030500D01*
G75*
G02*
X92333000Y-167299250I0J-268750D01*
G01*
X92333000Y-167836750D01*
G75*
G02*
X92064250Y-168105500I-268750J0D01*
G01*
G37*
G36*
G01*
X92064250Y-169980500D02*
X91101750Y-169980500D01*
G75*
G02*
X90833000Y-169711750I0J268750D01*
G01*
X90833000Y-169174250D01*
G75*
G02*
X91101750Y-168905500I268750J0D01*
G01*
X92064250Y-168905500D01*
G75*
G02*
X92333000Y-169174250I0J-268750D01*
G01*
X92333000Y-169711750D01*
G75*
G02*
X92064250Y-169980500I-268750J0D01*
G01*
G37*
%TD*%
%TO.C,R30*%
G36*
G01*
X124994750Y-174072500D02*
X125957250Y-174072500D01*
G75*
G02*
X126226000Y-174341250I0J-268750D01*
G01*
X126226000Y-174878750D01*
G75*
G02*
X125957250Y-175147500I-268750J0D01*
G01*
X124994750Y-175147500D01*
G75*
G02*
X124726000Y-174878750I0J268750D01*
G01*
X124726000Y-174341250D01*
G75*
G02*
X124994750Y-174072500I268750J0D01*
G01*
G37*
G36*
G01*
X124994750Y-172197500D02*
X125957250Y-172197500D01*
G75*
G02*
X126226000Y-172466250I0J-268750D01*
G01*
X126226000Y-173003750D01*
G75*
G02*
X125957250Y-173272500I-268750J0D01*
G01*
X124994750Y-173272500D01*
G75*
G02*
X124726000Y-173003750I0J268750D01*
G01*
X124726000Y-172466250D01*
G75*
G02*
X124994750Y-172197500I268750J0D01*
G01*
G37*
%TD*%
%TO.C,R29*%
G36*
G01*
X138576000Y-177963750D02*
X138576000Y-177001250D01*
G75*
G02*
X138844750Y-176732500I268750J0D01*
G01*
X139382250Y-176732500D01*
G75*
G02*
X139651000Y-177001250I0J-268750D01*
G01*
X139651000Y-177963750D01*
G75*
G02*
X139382250Y-178232500I-268750J0D01*
G01*
X138844750Y-178232500D01*
G75*
G02*
X138576000Y-177963750I0J268750D01*
G01*
G37*
G36*
G01*
X136701000Y-177963750D02*
X136701000Y-177001250D01*
G75*
G02*
X136969750Y-176732500I268750J0D01*
G01*
X137507250Y-176732500D01*
G75*
G02*
X137776000Y-177001250I0J-268750D01*
G01*
X137776000Y-177963750D01*
G75*
G02*
X137507250Y-178232500I-268750J0D01*
G01*
X136969750Y-178232500D01*
G75*
G02*
X136701000Y-177963750I0J268750D01*
G01*
G37*
%TD*%
%TO.C,R28*%
G36*
G01*
X132696000Y-164301250D02*
X132696000Y-165263750D01*
G75*
G02*
X132427250Y-165532500I-268750J0D01*
G01*
X131889750Y-165532500D01*
G75*
G02*
X131621000Y-165263750I0J268750D01*
G01*
X131621000Y-164301250D01*
G75*
G02*
X131889750Y-164032500I268750J0D01*
G01*
X132427250Y-164032500D01*
G75*
G02*
X132696000Y-164301250I0J-268750D01*
G01*
G37*
G36*
G01*
X134571000Y-164301250D02*
X134571000Y-165263750D01*
G75*
G02*
X134302250Y-165532500I-268750J0D01*
G01*
X133764750Y-165532500D01*
G75*
G02*
X133496000Y-165263750I0J268750D01*
G01*
X133496000Y-164301250D01*
G75*
G02*
X133764750Y-164032500I268750J0D01*
G01*
X134302250Y-164032500D01*
G75*
G02*
X134571000Y-164301250I0J-268750D01*
G01*
G37*
%TD*%
%TO.C,R27*%
G36*
G01*
X124994750Y-167087500D02*
X125957250Y-167087500D01*
G75*
G02*
X126226000Y-167356250I0J-268750D01*
G01*
X126226000Y-167893750D01*
G75*
G02*
X125957250Y-168162500I-268750J0D01*
G01*
X124994750Y-168162500D01*
G75*
G02*
X124726000Y-167893750I0J268750D01*
G01*
X124726000Y-167356250D01*
G75*
G02*
X124994750Y-167087500I268750J0D01*
G01*
G37*
G36*
G01*
X124994750Y-165212500D02*
X125957250Y-165212500D01*
G75*
G02*
X126226000Y-165481250I0J-268750D01*
G01*
X126226000Y-166018750D01*
G75*
G02*
X125957250Y-166287500I-268750J0D01*
G01*
X124994750Y-166287500D01*
G75*
G02*
X124726000Y-166018750I0J268750D01*
G01*
X124726000Y-165481250D01*
G75*
G02*
X124994750Y-165212500I268750J0D01*
G01*
G37*
%TD*%
%TO.C,R26*%
G36*
G01*
X152299750Y-171897500D02*
X153262250Y-171897500D01*
G75*
G02*
X153531000Y-172166250I0J-268750D01*
G01*
X153531000Y-172703750D01*
G75*
G02*
X153262250Y-172972500I-268750J0D01*
G01*
X152299750Y-172972500D01*
G75*
G02*
X152031000Y-172703750I0J268750D01*
G01*
X152031000Y-172166250D01*
G75*
G02*
X152299750Y-171897500I268750J0D01*
G01*
G37*
G36*
G01*
X152299750Y-170022500D02*
X153262250Y-170022500D01*
G75*
G02*
X153531000Y-170291250I0J-268750D01*
G01*
X153531000Y-170828750D01*
G75*
G02*
X153262250Y-171097500I-268750J0D01*
G01*
X152299750Y-171097500D01*
G75*
G02*
X152031000Y-170828750I0J268750D01*
G01*
X152031000Y-170291250D01*
G75*
G02*
X152299750Y-170022500I268750J0D01*
G01*
G37*
%TD*%
%TO.C,R22*%
G36*
G01*
X80671750Y-177819000D02*
X81634250Y-177819000D01*
G75*
G02*
X81903000Y-178087750I0J-268750D01*
G01*
X81903000Y-178625250D01*
G75*
G02*
X81634250Y-178894000I-268750J0D01*
G01*
X80671750Y-178894000D01*
G75*
G02*
X80403000Y-178625250I0J268750D01*
G01*
X80403000Y-178087750D01*
G75*
G02*
X80671750Y-177819000I268750J0D01*
G01*
G37*
G36*
G01*
X80671750Y-175944000D02*
X81634250Y-175944000D01*
G75*
G02*
X81903000Y-176212750I0J-268750D01*
G01*
X81903000Y-176750250D01*
G75*
G02*
X81634250Y-177019000I-268750J0D01*
G01*
X80671750Y-177019000D01*
G75*
G02*
X80403000Y-176750250I0J268750D01*
G01*
X80403000Y-176212750D01*
G75*
G02*
X80671750Y-175944000I268750J0D01*
G01*
G37*
%TD*%
%TO.C,R21*%
G36*
G01*
X90524250Y-177019000D02*
X89561750Y-177019000D01*
G75*
G02*
X89293000Y-176750250I0J268750D01*
G01*
X89293000Y-176212750D01*
G75*
G02*
X89561750Y-175944000I268750J0D01*
G01*
X90524250Y-175944000D01*
G75*
G02*
X90793000Y-176212750I0J-268750D01*
G01*
X90793000Y-176750250D01*
G75*
G02*
X90524250Y-177019000I-268750J0D01*
G01*
G37*
G36*
G01*
X90524250Y-178894000D02*
X89561750Y-178894000D01*
G75*
G02*
X89293000Y-178625250I0J268750D01*
G01*
X89293000Y-178087750D01*
G75*
G02*
X89561750Y-177819000I268750J0D01*
G01*
X90524250Y-177819000D01*
G75*
G02*
X90793000Y-178087750I0J-268750D01*
G01*
X90793000Y-178625250D01*
G75*
G02*
X90524250Y-178894000I-268750J0D01*
G01*
G37*
%TD*%
%TO.C,R20*%
G36*
G01*
X84174250Y-177019000D02*
X83211750Y-177019000D01*
G75*
G02*
X82943000Y-176750250I0J268750D01*
G01*
X82943000Y-176212750D01*
G75*
G02*
X83211750Y-175944000I268750J0D01*
G01*
X84174250Y-175944000D01*
G75*
G02*
X84443000Y-176212750I0J-268750D01*
G01*
X84443000Y-176750250D01*
G75*
G02*
X84174250Y-177019000I-268750J0D01*
G01*
G37*
G36*
G01*
X84174250Y-178894000D02*
X83211750Y-178894000D01*
G75*
G02*
X82943000Y-178625250I0J268750D01*
G01*
X82943000Y-178087750D01*
G75*
G02*
X83211750Y-177819000I268750J0D01*
G01*
X84174250Y-177819000D01*
G75*
G02*
X84443000Y-178087750I0J-268750D01*
G01*
X84443000Y-178625250D01*
G75*
G02*
X84174250Y-178894000I-268750J0D01*
G01*
G37*
%TD*%
%TO.C,R18*%
G36*
G01*
X78483000Y-167412750D02*
X78483000Y-168375250D01*
G75*
G02*
X78214250Y-168644000I-268750J0D01*
G01*
X77676750Y-168644000D01*
G75*
G02*
X77408000Y-168375250I0J268750D01*
G01*
X77408000Y-167412750D01*
G75*
G02*
X77676750Y-167144000I268750J0D01*
G01*
X78214250Y-167144000D01*
G75*
G02*
X78483000Y-167412750I0J-268750D01*
G01*
G37*
G36*
G01*
X80358000Y-167412750D02*
X80358000Y-168375250D01*
G75*
G02*
X80089250Y-168644000I-268750J0D01*
G01*
X79551750Y-168644000D01*
G75*
G02*
X79283000Y-168375250I0J268750D01*
G01*
X79283000Y-167412750D01*
G75*
G02*
X79551750Y-167144000I268750J0D01*
G01*
X80089250Y-167144000D01*
G75*
G02*
X80358000Y-167412750I0J-268750D01*
G01*
G37*
%TD*%
%TO.C,R17*%
G36*
G01*
X87738000Y-173762750D02*
X87738000Y-174725250D01*
G75*
G02*
X87469250Y-174994000I-268750J0D01*
G01*
X86931750Y-174994000D01*
G75*
G02*
X86663000Y-174725250I0J268750D01*
G01*
X86663000Y-173762750D01*
G75*
G02*
X86931750Y-173494000I268750J0D01*
G01*
X87469250Y-173494000D01*
G75*
G02*
X87738000Y-173762750I0J-268750D01*
G01*
G37*
G36*
G01*
X89613000Y-173762750D02*
X89613000Y-174725250D01*
G75*
G02*
X89344250Y-174994000I-268750J0D01*
G01*
X88806750Y-174994000D01*
G75*
G02*
X88538000Y-174725250I0J268750D01*
G01*
X88538000Y-173762750D01*
G75*
G02*
X88806750Y-173494000I268750J0D01*
G01*
X89344250Y-173494000D01*
G75*
G02*
X89613000Y-173762750I0J-268750D01*
G01*
G37*
%TD*%
%TO.C,R16*%
G36*
G01*
X73707000Y-142139750D02*
X73707000Y-143102250D01*
G75*
G02*
X73438250Y-143371000I-268750J0D01*
G01*
X72900750Y-143371000D01*
G75*
G02*
X72632000Y-143102250I0J268750D01*
G01*
X72632000Y-142139750D01*
G75*
G02*
X72900750Y-141871000I268750J0D01*
G01*
X73438250Y-141871000D01*
G75*
G02*
X73707000Y-142139750I0J-268750D01*
G01*
G37*
G36*
G01*
X75582000Y-142139750D02*
X75582000Y-143102250D01*
G75*
G02*
X75313250Y-143371000I-268750J0D01*
G01*
X74775750Y-143371000D01*
G75*
G02*
X74507000Y-143102250I0J268750D01*
G01*
X74507000Y-142139750D01*
G75*
G02*
X74775750Y-141871000I268750J0D01*
G01*
X75313250Y-141871000D01*
G75*
G02*
X75582000Y-142139750I0J-268750D01*
G01*
G37*
%TD*%
%TO.C,R13*%
G36*
G01*
X148489750Y-171897500D02*
X149452250Y-171897500D01*
G75*
G02*
X149721000Y-172166250I0J-268750D01*
G01*
X149721000Y-172703750D01*
G75*
G02*
X149452250Y-172972500I-268750J0D01*
G01*
X148489750Y-172972500D01*
G75*
G02*
X148221000Y-172703750I0J268750D01*
G01*
X148221000Y-172166250D01*
G75*
G02*
X148489750Y-171897500I268750J0D01*
G01*
G37*
G36*
G01*
X148489750Y-170022500D02*
X149452250Y-170022500D01*
G75*
G02*
X149721000Y-170291250I0J-268750D01*
G01*
X149721000Y-170828750D01*
G75*
G02*
X149452250Y-171097500I-268750J0D01*
G01*
X148489750Y-171097500D01*
G75*
G02*
X148221000Y-170828750I0J268750D01*
G01*
X148221000Y-170291250D01*
G75*
G02*
X148489750Y-170022500I268750J0D01*
G01*
G37*
%TD*%
%TO.C,R12*%
G36*
G01*
X144679750Y-171897500D02*
X145642250Y-171897500D01*
G75*
G02*
X145911000Y-172166250I0J-268750D01*
G01*
X145911000Y-172703750D01*
G75*
G02*
X145642250Y-172972500I-268750J0D01*
G01*
X144679750Y-172972500D01*
G75*
G02*
X144411000Y-172703750I0J268750D01*
G01*
X144411000Y-172166250D01*
G75*
G02*
X144679750Y-171897500I268750J0D01*
G01*
G37*
G36*
G01*
X144679750Y-170022500D02*
X145642250Y-170022500D01*
G75*
G02*
X145911000Y-170291250I0J-268750D01*
G01*
X145911000Y-170828750D01*
G75*
G02*
X145642250Y-171097500I-268750J0D01*
G01*
X144679750Y-171097500D01*
G75*
G02*
X144411000Y-170828750I0J268750D01*
G01*
X144411000Y-170291250D01*
G75*
G02*
X144679750Y-170022500I268750J0D01*
G01*
G37*
%TD*%
%TO.C,R11*%
G36*
G01*
X74022000Y-153950750D02*
X74022000Y-154913250D01*
G75*
G02*
X73753250Y-155182000I-268750J0D01*
G01*
X73215750Y-155182000D01*
G75*
G02*
X72947000Y-154913250I0J268750D01*
G01*
X72947000Y-153950750D01*
G75*
G02*
X73215750Y-153682000I268750J0D01*
G01*
X73753250Y-153682000D01*
G75*
G02*
X74022000Y-153950750I0J-268750D01*
G01*
G37*
G36*
G01*
X75897000Y-153950750D02*
X75897000Y-154913250D01*
G75*
G02*
X75628250Y-155182000I-268750J0D01*
G01*
X75090750Y-155182000D01*
G75*
G02*
X74822000Y-154913250I0J268750D01*
G01*
X74822000Y-153950750D01*
G75*
G02*
X75090750Y-153682000I268750J0D01*
G01*
X75628250Y-153682000D01*
G75*
G02*
X75897000Y-153950750I0J-268750D01*
G01*
G37*
%TD*%
%TO.C,R10*%
G36*
G01*
X73755500Y-136551750D02*
X73755500Y-137514250D01*
G75*
G02*
X73486750Y-137783000I-268750J0D01*
G01*
X72949250Y-137783000D01*
G75*
G02*
X72680500Y-137514250I0J268750D01*
G01*
X72680500Y-136551750D01*
G75*
G02*
X72949250Y-136283000I268750J0D01*
G01*
X73486750Y-136283000D01*
G75*
G02*
X73755500Y-136551750I0J-268750D01*
G01*
G37*
G36*
G01*
X75630500Y-136551750D02*
X75630500Y-137514250D01*
G75*
G02*
X75361750Y-137783000I-268750J0D01*
G01*
X74824250Y-137783000D01*
G75*
G02*
X74555500Y-137514250I0J268750D01*
G01*
X74555500Y-136551750D01*
G75*
G02*
X74824250Y-136283000I268750J0D01*
G01*
X75361750Y-136283000D01*
G75*
G02*
X75630500Y-136551750I0J-268750D01*
G01*
G37*
%TD*%
%TO.C,R9*%
G36*
G01*
X89770000Y-156617750D02*
X89770000Y-157580250D01*
G75*
G02*
X89501250Y-157849000I-268750J0D01*
G01*
X88963750Y-157849000D01*
G75*
G02*
X88695000Y-157580250I0J268750D01*
G01*
X88695000Y-156617750D01*
G75*
G02*
X88963750Y-156349000I268750J0D01*
G01*
X89501250Y-156349000D01*
G75*
G02*
X89770000Y-156617750I0J-268750D01*
G01*
G37*
G36*
G01*
X91645000Y-156617750D02*
X91645000Y-157580250D01*
G75*
G02*
X91376250Y-157849000I-268750J0D01*
G01*
X90838750Y-157849000D01*
G75*
G02*
X90570000Y-157580250I0J268750D01*
G01*
X90570000Y-156617750D01*
G75*
G02*
X90838750Y-156349000I268750J0D01*
G01*
X91376250Y-156349000D01*
G75*
G02*
X91645000Y-156617750I0J-268750D01*
G01*
G37*
%TD*%
%TO.C,R8*%
G36*
G01*
X127534750Y-156292500D02*
X128497250Y-156292500D01*
G75*
G02*
X128766000Y-156561250I0J-268750D01*
G01*
X128766000Y-157098750D01*
G75*
G02*
X128497250Y-157367500I-268750J0D01*
G01*
X127534750Y-157367500D01*
G75*
G02*
X127266000Y-157098750I0J268750D01*
G01*
X127266000Y-156561250D01*
G75*
G02*
X127534750Y-156292500I268750J0D01*
G01*
G37*
G36*
G01*
X127534750Y-154417500D02*
X128497250Y-154417500D01*
G75*
G02*
X128766000Y-154686250I0J-268750D01*
G01*
X128766000Y-155223750D01*
G75*
G02*
X128497250Y-155492500I-268750J0D01*
G01*
X127534750Y-155492500D01*
G75*
G02*
X127266000Y-155223750I0J268750D01*
G01*
X127266000Y-154686250D01*
G75*
G02*
X127534750Y-154417500I268750J0D01*
G01*
G37*
%TD*%
%TO.C,R7*%
G36*
G01*
X89770000Y-154585750D02*
X89770000Y-155548250D01*
G75*
G02*
X89501250Y-155817000I-268750J0D01*
G01*
X88963750Y-155817000D01*
G75*
G02*
X88695000Y-155548250I0J268750D01*
G01*
X88695000Y-154585750D01*
G75*
G02*
X88963750Y-154317000I268750J0D01*
G01*
X89501250Y-154317000D01*
G75*
G02*
X89770000Y-154585750I0J-268750D01*
G01*
G37*
G36*
G01*
X91645000Y-154585750D02*
X91645000Y-155548250D01*
G75*
G02*
X91376250Y-155817000I-268750J0D01*
G01*
X90838750Y-155817000D01*
G75*
G02*
X90570000Y-155548250I0J268750D01*
G01*
X90570000Y-154585750D01*
G75*
G02*
X90838750Y-154317000I268750J0D01*
G01*
X91376250Y-154317000D01*
G75*
G02*
X91645000Y-154585750I0J-268750D01*
G01*
G37*
%TD*%
%TO.C,R6*%
G36*
G01*
X89963000Y-138837750D02*
X89963000Y-139800250D01*
G75*
G02*
X89694250Y-140069000I-268750J0D01*
G01*
X89156750Y-140069000D01*
G75*
G02*
X88888000Y-139800250I0J268750D01*
G01*
X88888000Y-138837750D01*
G75*
G02*
X89156750Y-138569000I268750J0D01*
G01*
X89694250Y-138569000D01*
G75*
G02*
X89963000Y-138837750I0J-268750D01*
G01*
G37*
G36*
G01*
X91838000Y-138837750D02*
X91838000Y-139800250D01*
G75*
G02*
X91569250Y-140069000I-268750J0D01*
G01*
X91031750Y-140069000D01*
G75*
G02*
X90763000Y-139800250I0J268750D01*
G01*
X90763000Y-138837750D01*
G75*
G02*
X91031750Y-138569000I268750J0D01*
G01*
X91569250Y-138569000D01*
G75*
G02*
X91838000Y-138837750I0J-268750D01*
G01*
G37*
%TD*%
%TO.C,R5*%
G36*
G01*
X89963000Y-136805750D02*
X89963000Y-137768250D01*
G75*
G02*
X89694250Y-138037000I-268750J0D01*
G01*
X89156750Y-138037000D01*
G75*
G02*
X88888000Y-137768250I0J268750D01*
G01*
X88888000Y-136805750D01*
G75*
G02*
X89156750Y-136537000I268750J0D01*
G01*
X89694250Y-136537000D01*
G75*
G02*
X89963000Y-136805750I0J-268750D01*
G01*
G37*
G36*
G01*
X91838000Y-136805750D02*
X91838000Y-137768250D01*
G75*
G02*
X91569250Y-138037000I-268750J0D01*
G01*
X91031750Y-138037000D01*
G75*
G02*
X90763000Y-137768250I0J268750D01*
G01*
X90763000Y-136805750D01*
G75*
G02*
X91031750Y-136537000I268750J0D01*
G01*
X91569250Y-136537000D01*
G75*
G02*
X91838000Y-136805750I0J-268750D01*
G01*
G37*
%TD*%
%TO.C,R4*%
G36*
G01*
X162597000Y-129578000D02*
X162597000Y-131788000D01*
G75*
G02*
X162327000Y-132058000I-270000J0D01*
G01*
X161517000Y-132058000D01*
G75*
G02*
X161247000Y-131788000I0J270000D01*
G01*
X161247000Y-129578000D01*
G75*
G02*
X161517000Y-129308000I270000J0D01*
G01*
X162327000Y-129308000D01*
G75*
G02*
X162597000Y-129578000I0J-270000D01*
G01*
G37*
G36*
G01*
X165397000Y-129578000D02*
X165397000Y-131788000D01*
G75*
G02*
X165127000Y-132058000I-270000J0D01*
G01*
X164317000Y-132058000D01*
G75*
G02*
X164047000Y-131788000I0J270000D01*
G01*
X164047000Y-129578000D01*
G75*
G02*
X164317000Y-129308000I270000J0D01*
G01*
X165127000Y-129308000D01*
G75*
G02*
X165397000Y-129578000I0J-270000D01*
G01*
G37*
%TD*%
%TO.C,R3*%
G36*
G01*
X162597000Y-117513000D02*
X162597000Y-119723000D01*
G75*
G02*
X162327000Y-119993000I-270000J0D01*
G01*
X161517000Y-119993000D01*
G75*
G02*
X161247000Y-119723000I0J270000D01*
G01*
X161247000Y-117513000D01*
G75*
G02*
X161517000Y-117243000I270000J0D01*
G01*
X162327000Y-117243000D01*
G75*
G02*
X162597000Y-117513000I0J-270000D01*
G01*
G37*
G36*
G01*
X165397000Y-117513000D02*
X165397000Y-119723000D01*
G75*
G02*
X165127000Y-119993000I-270000J0D01*
G01*
X164317000Y-119993000D01*
G75*
G02*
X164047000Y-119723000I0J270000D01*
G01*
X164047000Y-117513000D01*
G75*
G02*
X164317000Y-117243000I270000J0D01*
G01*
X165127000Y-117243000D01*
G75*
G02*
X165397000Y-117513000I0J-270000D01*
G01*
G37*
%TD*%
D18*
%TO.C,R2*%
X177800000Y-137033000D03*
D19*
X177800000Y-129413000D03*
%TD*%
D18*
%TO.C,R1*%
X177800000Y-124968000D03*
D19*
X177800000Y-117348000D03*
%TD*%
%TO.C,Q24*%
G36*
G01*
X161282000Y-148863000D02*
X161282000Y-148063000D01*
G75*
G02*
X161332000Y-148013000I50000J0D01*
G01*
X162232000Y-148013000D01*
G75*
G02*
X162282000Y-148063000I0J-50000D01*
G01*
X162282000Y-148863000D01*
G75*
G02*
X162232000Y-148913000I-50000J0D01*
G01*
X161332000Y-148913000D01*
G75*
G02*
X161282000Y-148863000I0J50000D01*
G01*
G37*
G36*
G01*
X159282000Y-149813000D02*
X159282000Y-149013000D01*
G75*
G02*
X159332000Y-148963000I50000J0D01*
G01*
X160232000Y-148963000D01*
G75*
G02*
X160282000Y-149013000I0J-50000D01*
G01*
X160282000Y-149813000D01*
G75*
G02*
X160232000Y-149863000I-50000J0D01*
G01*
X159332000Y-149863000D01*
G75*
G02*
X159282000Y-149813000I0J50000D01*
G01*
G37*
G36*
G01*
X159282000Y-147913000D02*
X159282000Y-147113000D01*
G75*
G02*
X159332000Y-147063000I50000J0D01*
G01*
X160232000Y-147063000D01*
G75*
G02*
X160282000Y-147113000I0J-50000D01*
G01*
X160282000Y-147913000D01*
G75*
G02*
X160232000Y-147963000I-50000J0D01*
G01*
X159332000Y-147963000D01*
G75*
G02*
X159282000Y-147913000I0J50000D01*
G01*
G37*
%TD*%
%TO.C,Q22*%
G36*
G01*
X163722000Y-133993000D02*
X162922000Y-133993000D01*
G75*
G02*
X162872000Y-133943000I0J50000D01*
G01*
X162872000Y-133043000D01*
G75*
G02*
X162922000Y-132993000I50000J0D01*
G01*
X163722000Y-132993000D01*
G75*
G02*
X163772000Y-133043000I0J-50000D01*
G01*
X163772000Y-133943000D01*
G75*
G02*
X163722000Y-133993000I-50000J0D01*
G01*
G37*
G36*
G01*
X164672000Y-135993000D02*
X163872000Y-135993000D01*
G75*
G02*
X163822000Y-135943000I0J50000D01*
G01*
X163822000Y-135043000D01*
G75*
G02*
X163872000Y-134993000I50000J0D01*
G01*
X164672000Y-134993000D01*
G75*
G02*
X164722000Y-135043000I0J-50000D01*
G01*
X164722000Y-135943000D01*
G75*
G02*
X164672000Y-135993000I-50000J0D01*
G01*
G37*
G36*
G01*
X162772000Y-135993000D02*
X161972000Y-135993000D01*
G75*
G02*
X161922000Y-135943000I0J50000D01*
G01*
X161922000Y-135043000D01*
G75*
G02*
X161972000Y-134993000I50000J0D01*
G01*
X162772000Y-134993000D01*
G75*
G02*
X162822000Y-135043000I0J-50000D01*
G01*
X162822000Y-135943000D01*
G75*
G02*
X162772000Y-135993000I-50000J0D01*
G01*
G37*
%TD*%
%TO.C,Q21*%
G36*
G01*
X163722000Y-121928000D02*
X162922000Y-121928000D01*
G75*
G02*
X162872000Y-121878000I0J50000D01*
G01*
X162872000Y-120978000D01*
G75*
G02*
X162922000Y-120928000I50000J0D01*
G01*
X163722000Y-120928000D01*
G75*
G02*
X163772000Y-120978000I0J-50000D01*
G01*
X163772000Y-121878000D01*
G75*
G02*
X163722000Y-121928000I-50000J0D01*
G01*
G37*
G36*
G01*
X164672000Y-123928000D02*
X163872000Y-123928000D01*
G75*
G02*
X163822000Y-123878000I0J50000D01*
G01*
X163822000Y-122978000D01*
G75*
G02*
X163872000Y-122928000I50000J0D01*
G01*
X164672000Y-122928000D01*
G75*
G02*
X164722000Y-122978000I0J-50000D01*
G01*
X164722000Y-123878000D01*
G75*
G02*
X164672000Y-123928000I-50000J0D01*
G01*
G37*
G36*
G01*
X162772000Y-123928000D02*
X161972000Y-123928000D01*
G75*
G02*
X161922000Y-123878000I0J50000D01*
G01*
X161922000Y-122978000D01*
G75*
G02*
X161972000Y-122928000I50000J0D01*
G01*
X162772000Y-122928000D01*
G75*
G02*
X162822000Y-122978000I0J-50000D01*
G01*
X162822000Y-123878000D01*
G75*
G02*
X162772000Y-123928000I-50000J0D01*
G01*
G37*
%TD*%
%TO.C,Q20*%
G36*
G01*
X151746000Y-175807500D02*
X152546000Y-175807500D01*
G75*
G02*
X152596000Y-175857500I0J-50000D01*
G01*
X152596000Y-176757500D01*
G75*
G02*
X152546000Y-176807500I-50000J0D01*
G01*
X151746000Y-176807500D01*
G75*
G02*
X151696000Y-176757500I0J50000D01*
G01*
X151696000Y-175857500D01*
G75*
G02*
X151746000Y-175807500I50000J0D01*
G01*
G37*
G36*
G01*
X150796000Y-173807500D02*
X151596000Y-173807500D01*
G75*
G02*
X151646000Y-173857500I0J-50000D01*
G01*
X151646000Y-174757500D01*
G75*
G02*
X151596000Y-174807500I-50000J0D01*
G01*
X150796000Y-174807500D01*
G75*
G02*
X150746000Y-174757500I0J50000D01*
G01*
X150746000Y-173857500D01*
G75*
G02*
X150796000Y-173807500I50000J0D01*
G01*
G37*
G36*
G01*
X152696000Y-173807500D02*
X153496000Y-173807500D01*
G75*
G02*
X153546000Y-173857500I0J-50000D01*
G01*
X153546000Y-174757500D01*
G75*
G02*
X153496000Y-174807500I-50000J0D01*
G01*
X152696000Y-174807500D01*
G75*
G02*
X152646000Y-174757500I0J50000D01*
G01*
X152646000Y-173857500D01*
G75*
G02*
X152696000Y-173807500I50000J0D01*
G01*
G37*
%TD*%
%TO.C,Q19*%
G36*
G01*
X147936000Y-175807500D02*
X148736000Y-175807500D01*
G75*
G02*
X148786000Y-175857500I0J-50000D01*
G01*
X148786000Y-176757500D01*
G75*
G02*
X148736000Y-176807500I-50000J0D01*
G01*
X147936000Y-176807500D01*
G75*
G02*
X147886000Y-176757500I0J50000D01*
G01*
X147886000Y-175857500D01*
G75*
G02*
X147936000Y-175807500I50000J0D01*
G01*
G37*
G36*
G01*
X146986000Y-173807500D02*
X147786000Y-173807500D01*
G75*
G02*
X147836000Y-173857500I0J-50000D01*
G01*
X147836000Y-174757500D01*
G75*
G02*
X147786000Y-174807500I-50000J0D01*
G01*
X146986000Y-174807500D01*
G75*
G02*
X146936000Y-174757500I0J50000D01*
G01*
X146936000Y-173857500D01*
G75*
G02*
X146986000Y-173807500I50000J0D01*
G01*
G37*
G36*
G01*
X148886000Y-173807500D02*
X149686000Y-173807500D01*
G75*
G02*
X149736000Y-173857500I0J-50000D01*
G01*
X149736000Y-174757500D01*
G75*
G02*
X149686000Y-174807500I-50000J0D01*
G01*
X148886000Y-174807500D01*
G75*
G02*
X148836000Y-174757500I0J50000D01*
G01*
X148836000Y-173857500D01*
G75*
G02*
X148886000Y-173807500I50000J0D01*
G01*
G37*
%TD*%
%TO.C,Q18*%
G36*
G01*
X144126000Y-175807500D02*
X144926000Y-175807500D01*
G75*
G02*
X144976000Y-175857500I0J-50000D01*
G01*
X144976000Y-176757500D01*
G75*
G02*
X144926000Y-176807500I-50000J0D01*
G01*
X144126000Y-176807500D01*
G75*
G02*
X144076000Y-176757500I0J50000D01*
G01*
X144076000Y-175857500D01*
G75*
G02*
X144126000Y-175807500I50000J0D01*
G01*
G37*
G36*
G01*
X143176000Y-173807500D02*
X143976000Y-173807500D01*
G75*
G02*
X144026000Y-173857500I0J-50000D01*
G01*
X144026000Y-174757500D01*
G75*
G02*
X143976000Y-174807500I-50000J0D01*
G01*
X143176000Y-174807500D01*
G75*
G02*
X143126000Y-174757500I0J50000D01*
G01*
X143126000Y-173857500D01*
G75*
G02*
X143176000Y-173807500I50000J0D01*
G01*
G37*
G36*
G01*
X145076000Y-173807500D02*
X145876000Y-173807500D01*
G75*
G02*
X145926000Y-173857500I0J-50000D01*
G01*
X145926000Y-174757500D01*
G75*
G02*
X145876000Y-174807500I-50000J0D01*
G01*
X145076000Y-174807500D01*
G75*
G02*
X145026000Y-174757500I0J50000D01*
G01*
X145026000Y-173857500D01*
G75*
G02*
X145076000Y-173807500I50000J0D01*
G01*
G37*
%TD*%
D12*
%TO.C,J10*%
X313182000Y-131953000D03*
X313182000Y-124333000D03*
X313182000Y-116713000D03*
X313182000Y-109093000D03*
%TD*%
%TO.C,J9*%
X313182000Y-166497000D03*
X313182000Y-158877000D03*
X313182000Y-151257000D03*
X313182000Y-143637000D03*
%TD*%
D20*
%TO.C,J8*%
X145916000Y-181292500D03*
X148416000Y-181292500D03*
X150916000Y-181292500D03*
G36*
G01*
X154316000Y-180532205D02*
X154316000Y-182052795D01*
G75*
G02*
X154051295Y-182317500I-264705J0D01*
G01*
X152780705Y-182317500D01*
G75*
G02*
X152516000Y-182052795I0J264705D01*
G01*
X152516000Y-180532205D01*
G75*
G02*
X152780705Y-180267500I264705J0D01*
G01*
X154051295Y-180267500D01*
G75*
G02*
X154316000Y-180532205I0J-264705D01*
G01*
G37*
%TD*%
D21*
%TO.C,J7*%
X129961000Y-181262500D03*
G36*
G01*
X133361000Y-180477205D02*
X133361000Y-182047795D01*
G75*
G02*
X133096295Y-182312500I-264705J0D01*
G01*
X131825705Y-182312500D01*
G75*
G02*
X131561000Y-182047795I0J264705D01*
G01*
X131561000Y-180477205D01*
G75*
G02*
X131825705Y-180212500I264705J0D01*
G01*
X133096295Y-180212500D01*
G75*
G02*
X133361000Y-180477205I0J-264705D01*
G01*
G37*
%TD*%
D20*
%TO.C,J6*%
X109086000Y-181292500D03*
X111586000Y-181292500D03*
X114086000Y-181292500D03*
G36*
G01*
X117486000Y-180532205D02*
X117486000Y-182052795D01*
G75*
G02*
X117221295Y-182317500I-264705J0D01*
G01*
X115950705Y-182317500D01*
G75*
G02*
X115686000Y-182052795I0J264705D01*
G01*
X115686000Y-180532205D01*
G75*
G02*
X115950705Y-180267500I264705J0D01*
G01*
X117221295Y-180267500D01*
G75*
G02*
X117486000Y-180532205I0J-264705D01*
G01*
G37*
%TD*%
D22*
%TO.C,J4*%
X71247000Y-71017543D03*
G36*
G01*
X72032295Y-74417543D02*
X70461705Y-74417543D01*
G75*
G02*
X70197000Y-74152838I0J264705D01*
G01*
X70197000Y-72882248D01*
G75*
G02*
X70461705Y-72617543I264705J0D01*
G01*
X72032295Y-72617543D01*
G75*
G02*
X72297000Y-72882248I0J-264705D01*
G01*
X72297000Y-74152838D01*
G75*
G02*
X72032295Y-74417543I-264705J0D01*
G01*
G37*
%TD*%
D15*
%TO.C,C76*%
X83392000Y-65913000D03*
G36*
G01*
X89642000Y-64713000D02*
X89642000Y-67113000D01*
G75*
G02*
X89592000Y-67163000I-50000J0D01*
G01*
X87192000Y-67163000D01*
G75*
G02*
X87142000Y-67113000I0J50000D01*
G01*
X87142000Y-64713000D01*
G75*
G02*
X87192000Y-64663000I50000J0D01*
G01*
X89592000Y-64663000D01*
G75*
G02*
X89642000Y-64713000I0J-50000D01*
G01*
G37*
%TD*%
%TO.C,C75*%
G36*
G01*
X138662000Y-115897952D02*
X138662000Y-113972048D01*
G75*
G02*
X138924048Y-113710000I262048J0D01*
G01*
X140574952Y-113710000D01*
G75*
G02*
X140837000Y-113972048I0J-262048D01*
G01*
X140837000Y-115897952D01*
G75*
G02*
X140574952Y-116160000I-262048J0D01*
G01*
X138924048Y-116160000D01*
G75*
G02*
X138662000Y-115897952I0J262048D01*
G01*
G37*
G36*
G01*
X133737000Y-115897952D02*
X133737000Y-113972048D01*
G75*
G02*
X133999048Y-113710000I262048J0D01*
G01*
X135649952Y-113710000D01*
G75*
G02*
X135912000Y-113972048I0J-262048D01*
G01*
X135912000Y-115897952D01*
G75*
G02*
X135649952Y-116160000I-262048J0D01*
G01*
X133999048Y-116160000D01*
G75*
G02*
X133737000Y-115897952I0J262048D01*
G01*
G37*
%TD*%
D23*
%TO.C,C73*%
X306992000Y-174498000D03*
X316992000Y-174498000D03*
%TD*%
D15*
%TO.C,C72*%
X239522000Y-146163000D03*
X239522000Y-161163000D03*
%TD*%
%TO.C,C71*%
G36*
G01*
X126264750Y-131527500D02*
X127227250Y-131527500D01*
G75*
G02*
X127496000Y-131796250I0J-268750D01*
G01*
X127496000Y-132333750D01*
G75*
G02*
X127227250Y-132602500I-268750J0D01*
G01*
X126264750Y-132602500D01*
G75*
G02*
X125996000Y-132333750I0J268750D01*
G01*
X125996000Y-131796250D01*
G75*
G02*
X126264750Y-131527500I268750J0D01*
G01*
G37*
G36*
G01*
X126264750Y-129652500D02*
X127227250Y-129652500D01*
G75*
G02*
X127496000Y-129921250I0J-268750D01*
G01*
X127496000Y-130458750D01*
G75*
G02*
X127227250Y-130727500I-268750J0D01*
G01*
X126264750Y-130727500D01*
G75*
G02*
X125996000Y-130458750I0J268750D01*
G01*
X125996000Y-129921250D01*
G75*
G02*
X126264750Y-129652500I268750J0D01*
G01*
G37*
%TD*%
%TO.C,C70*%
G36*
G01*
X125711000Y-134837250D02*
X125711000Y-135799750D01*
G75*
G02*
X125442250Y-136068500I-268750J0D01*
G01*
X124904750Y-136068500D01*
G75*
G02*
X124636000Y-135799750I0J268750D01*
G01*
X124636000Y-134837250D01*
G75*
G02*
X124904750Y-134568500I268750J0D01*
G01*
X125442250Y-134568500D01*
G75*
G02*
X125711000Y-134837250I0J-268750D01*
G01*
G37*
G36*
G01*
X127586000Y-134837250D02*
X127586000Y-135799750D01*
G75*
G02*
X127317250Y-136068500I-268750J0D01*
G01*
X126779750Y-136068500D01*
G75*
G02*
X126511000Y-135799750I0J268750D01*
G01*
X126511000Y-134837250D01*
G75*
G02*
X126779750Y-134568500I268750J0D01*
G01*
X127317250Y-134568500D01*
G75*
G02*
X127586000Y-134837250I0J-268750D01*
G01*
G37*
%TD*%
D24*
%TO.C,C69*%
X257937000Y-115726000D03*
G36*
G01*
X269987000Y-113726000D02*
X269987000Y-117726000D01*
G75*
G02*
X269937000Y-117776000I-50000J0D01*
G01*
X265937000Y-117776000D01*
G75*
G02*
X265887000Y-117726000I0J50000D01*
G01*
X265887000Y-113726000D01*
G75*
G02*
X265937000Y-113676000I50000J0D01*
G01*
X269937000Y-113676000D01*
G75*
G02*
X269987000Y-113726000I0J-50000D01*
G01*
G37*
%TD*%
%TO.C,C67*%
G36*
G01*
X127867000Y-123115048D02*
X127867000Y-125040952D01*
G75*
G02*
X127604952Y-125303000I-262048J0D01*
G01*
X125954048Y-125303000D01*
G75*
G02*
X125692000Y-125040952I0J262048D01*
G01*
X125692000Y-123115048D01*
G75*
G02*
X125954048Y-122853000I262048J0D01*
G01*
X127604952Y-122853000D01*
G75*
G02*
X127867000Y-123115048I0J-262048D01*
G01*
G37*
G36*
G01*
X132792000Y-123115048D02*
X132792000Y-125040952D01*
G75*
G02*
X132529952Y-125303000I-262048J0D01*
G01*
X130879048Y-125303000D01*
G75*
G02*
X130617000Y-125040952I0J262048D01*
G01*
X130617000Y-123115048D01*
G75*
G02*
X130879048Y-122853000I262048J0D01*
G01*
X132529952Y-122853000D01*
G75*
G02*
X132792000Y-123115048I0J-262048D01*
G01*
G37*
%TD*%
%TO.C,C66*%
G36*
G01*
X119279750Y-175342500D02*
X120242250Y-175342500D01*
G75*
G02*
X120511000Y-175611250I0J-268750D01*
G01*
X120511000Y-176148750D01*
G75*
G02*
X120242250Y-176417500I-268750J0D01*
G01*
X119279750Y-176417500D01*
G75*
G02*
X119011000Y-176148750I0J268750D01*
G01*
X119011000Y-175611250D01*
G75*
G02*
X119279750Y-175342500I268750J0D01*
G01*
G37*
G36*
G01*
X119279750Y-173467500D02*
X120242250Y-173467500D01*
G75*
G02*
X120511000Y-173736250I0J-268750D01*
G01*
X120511000Y-174273750D01*
G75*
G02*
X120242250Y-174542500I-268750J0D01*
G01*
X119279750Y-174542500D01*
G75*
G02*
X119011000Y-174273750I0J268750D01*
G01*
X119011000Y-173736250D01*
G75*
G02*
X119279750Y-173467500I268750J0D01*
G01*
G37*
%TD*%
%TO.C,C65*%
G36*
G01*
X120242250Y-166257510D02*
X119279750Y-166257510D01*
G75*
G02*
X119011000Y-165988760I0J268750D01*
G01*
X119011000Y-165451260D01*
G75*
G02*
X119279750Y-165182510I268750J0D01*
G01*
X120242250Y-165182510D01*
G75*
G02*
X120511000Y-165451260I0J-268750D01*
G01*
X120511000Y-165988760D01*
G75*
G02*
X120242250Y-166257510I-268750J0D01*
G01*
G37*
G36*
G01*
X120242250Y-168132510D02*
X119279750Y-168132510D01*
G75*
G02*
X119011000Y-167863760I0J268750D01*
G01*
X119011000Y-167326260D01*
G75*
G02*
X119279750Y-167057510I268750J0D01*
G01*
X120242250Y-167057510D01*
G75*
G02*
X120511000Y-167326260I0J-268750D01*
G01*
X120511000Y-167863760D01*
G75*
G02*
X120242250Y-168132510I-268750J0D01*
G01*
G37*
%TD*%
%TO.C,C64*%
G36*
G01*
X106399250Y-154032000D02*
X105436750Y-154032000D01*
G75*
G02*
X105168000Y-153763250I0J268750D01*
G01*
X105168000Y-153225750D01*
G75*
G02*
X105436750Y-152957000I268750J0D01*
G01*
X106399250Y-152957000D01*
G75*
G02*
X106668000Y-153225750I0J-268750D01*
G01*
X106668000Y-153763250D01*
G75*
G02*
X106399250Y-154032000I-268750J0D01*
G01*
G37*
G36*
G01*
X106399250Y-155907000D02*
X105436750Y-155907000D01*
G75*
G02*
X105168000Y-155638250I0J268750D01*
G01*
X105168000Y-155100750D01*
G75*
G02*
X105436750Y-154832000I268750J0D01*
G01*
X106399250Y-154832000D01*
G75*
G02*
X106668000Y-155100750I0J-268750D01*
G01*
X106668000Y-155638250D01*
G75*
G02*
X106399250Y-155907000I-268750J0D01*
G01*
G37*
%TD*%
%TO.C,C63*%
G36*
G01*
X107468750Y-154832000D02*
X108431250Y-154832000D01*
G75*
G02*
X108700000Y-155100750I0J-268750D01*
G01*
X108700000Y-155638250D01*
G75*
G02*
X108431250Y-155907000I-268750J0D01*
G01*
X107468750Y-155907000D01*
G75*
G02*
X107200000Y-155638250I0J268750D01*
G01*
X107200000Y-155100750D01*
G75*
G02*
X107468750Y-154832000I268750J0D01*
G01*
G37*
G36*
G01*
X107468750Y-152957000D02*
X108431250Y-152957000D01*
G75*
G02*
X108700000Y-153225750I0J-268750D01*
G01*
X108700000Y-153763250D01*
G75*
G02*
X108431250Y-154032000I-268750J0D01*
G01*
X107468750Y-154032000D01*
G75*
G02*
X107200000Y-153763250I0J268750D01*
G01*
X107200000Y-153225750D01*
G75*
G02*
X107468750Y-152957000I268750J0D01*
G01*
G37*
%TD*%
%TO.C,C62*%
G36*
G01*
X122073750Y-146132500D02*
X123036250Y-146132500D01*
G75*
G02*
X123305000Y-146401250I0J-268750D01*
G01*
X123305000Y-146938750D01*
G75*
G02*
X123036250Y-147207500I-268750J0D01*
G01*
X122073750Y-147207500D01*
G75*
G02*
X121805000Y-146938750I0J268750D01*
G01*
X121805000Y-146401250D01*
G75*
G02*
X122073750Y-146132500I268750J0D01*
G01*
G37*
G36*
G01*
X122073750Y-144257500D02*
X123036250Y-144257500D01*
G75*
G02*
X123305000Y-144526250I0J-268750D01*
G01*
X123305000Y-145063750D01*
G75*
G02*
X123036250Y-145332500I-268750J0D01*
G01*
X122073750Y-145332500D01*
G75*
G02*
X121805000Y-145063750I0J268750D01*
G01*
X121805000Y-144526250D01*
G75*
G02*
X122073750Y-144257500I268750J0D01*
G01*
G37*
%TD*%
%TO.C,C61*%
G36*
G01*
X119234000Y-155538250D02*
X119234000Y-156500750D01*
G75*
G02*
X118965250Y-156769500I-268750J0D01*
G01*
X118427750Y-156769500D01*
G75*
G02*
X118159000Y-156500750I0J268750D01*
G01*
X118159000Y-155538250D01*
G75*
G02*
X118427750Y-155269500I268750J0D01*
G01*
X118965250Y-155269500D01*
G75*
G02*
X119234000Y-155538250I0J-268750D01*
G01*
G37*
G36*
G01*
X121109000Y-155538250D02*
X121109000Y-156500750D01*
G75*
G02*
X120840250Y-156769500I-268750J0D01*
G01*
X120302750Y-156769500D01*
G75*
G02*
X120034000Y-156500750I0J268750D01*
G01*
X120034000Y-155538250D01*
G75*
G02*
X120302750Y-155269500I268750J0D01*
G01*
X120840250Y-155269500D01*
G75*
G02*
X121109000Y-155538250I0J-268750D01*
G01*
G37*
%TD*%
%TO.C,C60*%
G36*
G01*
X106340750Y-132035500D02*
X107303250Y-132035500D01*
G75*
G02*
X107572000Y-132304250I0J-268750D01*
G01*
X107572000Y-132841750D01*
G75*
G02*
X107303250Y-133110500I-268750J0D01*
G01*
X106340750Y-133110500D01*
G75*
G02*
X106072000Y-132841750I0J268750D01*
G01*
X106072000Y-132304250D01*
G75*
G02*
X106340750Y-132035500I268750J0D01*
G01*
G37*
G36*
G01*
X106340750Y-130160500D02*
X107303250Y-130160500D01*
G75*
G02*
X107572000Y-130429250I0J-268750D01*
G01*
X107572000Y-130966750D01*
G75*
G02*
X107303250Y-131235500I-268750J0D01*
G01*
X106340750Y-131235500D01*
G75*
G02*
X106072000Y-130966750I0J268750D01*
G01*
X106072000Y-130429250D01*
G75*
G02*
X106340750Y-130160500I268750J0D01*
G01*
G37*
%TD*%
%TO.C,C59*%
G36*
G01*
X111969500Y-123226750D02*
X111969500Y-122264250D01*
G75*
G02*
X112238250Y-121995500I268750J0D01*
G01*
X112775750Y-121995500D01*
G75*
G02*
X113044500Y-122264250I0J-268750D01*
G01*
X113044500Y-123226750D01*
G75*
G02*
X112775750Y-123495500I-268750J0D01*
G01*
X112238250Y-123495500D01*
G75*
G02*
X111969500Y-123226750I0J268750D01*
G01*
G37*
G36*
G01*
X110094500Y-123226750D02*
X110094500Y-122264250D01*
G75*
G02*
X110363250Y-121995500I268750J0D01*
G01*
X110900750Y-121995500D01*
G75*
G02*
X111169500Y-122264250I0J-268750D01*
G01*
X111169500Y-123226750D01*
G75*
G02*
X110900750Y-123495500I-268750J0D01*
G01*
X110363250Y-123495500D01*
G75*
G02*
X110094500Y-123226750I0J268750D01*
G01*
G37*
%TD*%
%TO.C,C50*%
G36*
G01*
X112795000Y-143673750D02*
X112795000Y-142711250D01*
G75*
G02*
X113063750Y-142442500I268750J0D01*
G01*
X113601250Y-142442500D01*
G75*
G02*
X113870000Y-142711250I0J-268750D01*
G01*
X113870000Y-143673750D01*
G75*
G02*
X113601250Y-143942500I-268750J0D01*
G01*
X113063750Y-143942500D01*
G75*
G02*
X112795000Y-143673750I0J268750D01*
G01*
G37*
G36*
G01*
X110920000Y-143673750D02*
X110920000Y-142711250D01*
G75*
G02*
X111188750Y-142442500I268750J0D01*
G01*
X111726250Y-142442500D01*
G75*
G02*
X111995000Y-142711250I0J-268750D01*
G01*
X111995000Y-143673750D01*
G75*
G02*
X111726250Y-143942500I-268750J0D01*
G01*
X111188750Y-143942500D01*
G75*
G02*
X110920000Y-143673750I0J268750D01*
G01*
G37*
%TD*%
%TO.C,C49*%
G36*
G01*
X107628500Y-139536250D02*
X107628500Y-140498750D01*
G75*
G02*
X107359750Y-140767500I-268750J0D01*
G01*
X106822250Y-140767500D01*
G75*
G02*
X106553500Y-140498750I0J268750D01*
G01*
X106553500Y-139536250D01*
G75*
G02*
X106822250Y-139267500I268750J0D01*
G01*
X107359750Y-139267500D01*
G75*
G02*
X107628500Y-139536250I0J-268750D01*
G01*
G37*
G36*
G01*
X109503500Y-139536250D02*
X109503500Y-140498750D01*
G75*
G02*
X109234750Y-140767500I-268750J0D01*
G01*
X108697250Y-140767500D01*
G75*
G02*
X108428500Y-140498750I0J268750D01*
G01*
X108428500Y-139536250D01*
G75*
G02*
X108697250Y-139267500I268750J0D01*
G01*
X109234750Y-139267500D01*
G75*
G02*
X109503500Y-139536250I0J-268750D01*
G01*
G37*
%TD*%
%TO.C,C40*%
G36*
G01*
X145047000Y-113981000D02*
X145047000Y-112671000D01*
G75*
G02*
X145317000Y-112401000I270000J0D01*
G01*
X146127000Y-112401000D01*
G75*
G02*
X146397000Y-112671000I0J-270000D01*
G01*
X146397000Y-113981000D01*
G75*
G02*
X146127000Y-114251000I-270000J0D01*
G01*
X145317000Y-114251000D01*
G75*
G02*
X145047000Y-113981000I0J270000D01*
G01*
G37*
G36*
G01*
X142247000Y-113981000D02*
X142247000Y-112671000D01*
G75*
G02*
X142517000Y-112401000I270000J0D01*
G01*
X143327000Y-112401000D01*
G75*
G02*
X143597000Y-112671000I0J-270000D01*
G01*
X143597000Y-113981000D01*
G75*
G02*
X143327000Y-114251000I-270000J0D01*
G01*
X142517000Y-114251000D01*
G75*
G02*
X142247000Y-113981000I0J270000D01*
G01*
G37*
%TD*%
%TO.C,C39*%
G36*
G01*
X101232259Y-150715506D02*
X101630007Y-150317759D01*
G75*
G02*
X101974721Y-150317759I172357J-172357D01*
G01*
X102319435Y-150662473D01*
G75*
G02*
X102319435Y-151007187I-172357J-172357D01*
G01*
X101921687Y-151404935D01*
G75*
G02*
X101576973Y-151404935I-172357J172357D01*
G01*
X101232259Y-151060221D01*
G75*
G02*
X101232259Y-150715507I172357J172357D01*
G01*
G37*
G36*
G01*
X100118565Y-149601812D02*
X100516313Y-149204065D01*
G75*
G02*
X100861027Y-149204065I172357J-172357D01*
G01*
X101205741Y-149548779D01*
G75*
G02*
X101205741Y-149893493I-172357J-172357D01*
G01*
X100807993Y-150291241D01*
G75*
G02*
X100463279Y-150291241I-172357J172357D01*
G01*
X100118565Y-149946527D01*
G75*
G02*
X100118565Y-149601813I172357J172357D01*
G01*
G37*
%TD*%
D15*
%TO.C,C35*%
X264922000Y-146163000D03*
X264922000Y-161163000D03*
%TD*%
%TO.C,C33*%
X258572000Y-146163000D03*
X258572000Y-161163000D03*
%TD*%
%TO.C,C31*%
X252222000Y-146163000D03*
X252222000Y-161163000D03*
%TD*%
%TO.C,C29*%
X245872000Y-146163000D03*
X245872000Y-161163000D03*
%TD*%
%TO.C,C26*%
G36*
G01*
X128886000Y-164301250D02*
X128886000Y-165263750D01*
G75*
G02*
X128617250Y-165532500I-268750J0D01*
G01*
X128079750Y-165532500D01*
G75*
G02*
X127811000Y-165263750I0J268750D01*
G01*
X127811000Y-164301250D01*
G75*
G02*
X128079750Y-164032500I268750J0D01*
G01*
X128617250Y-164032500D01*
G75*
G02*
X128886000Y-164301250I0J-268750D01*
G01*
G37*
G36*
G01*
X130761000Y-164301250D02*
X130761000Y-165263750D01*
G75*
G02*
X130492250Y-165532500I-268750J0D01*
G01*
X129954750Y-165532500D01*
G75*
G02*
X129686000Y-165263750I0J268750D01*
G01*
X129686000Y-164301250D01*
G75*
G02*
X129954750Y-164032500I268750J0D01*
G01*
X130492250Y-164032500D01*
G75*
G02*
X130761000Y-164301250I0J-268750D01*
G01*
G37*
%TD*%
%TO.C,C24*%
G36*
G01*
X82928000Y-167412750D02*
X82928000Y-168375250D01*
G75*
G02*
X82659250Y-168644000I-268750J0D01*
G01*
X82121750Y-168644000D01*
G75*
G02*
X81853000Y-168375250I0J268750D01*
G01*
X81853000Y-167412750D01*
G75*
G02*
X82121750Y-167144000I268750J0D01*
G01*
X82659250Y-167144000D01*
G75*
G02*
X82928000Y-167412750I0J-268750D01*
G01*
G37*
G36*
G01*
X84803000Y-167412750D02*
X84803000Y-168375250D01*
G75*
G02*
X84534250Y-168644000I-268750J0D01*
G01*
X83996750Y-168644000D01*
G75*
G02*
X83728000Y-168375250I0J268750D01*
G01*
X83728000Y-167412750D01*
G75*
G02*
X83996750Y-167144000I268750J0D01*
G01*
X84534250Y-167144000D01*
G75*
G02*
X84803000Y-167412750I0J-268750D01*
G01*
G37*
%TD*%
%TO.C,C22*%
G36*
G01*
X92101750Y-177819000D02*
X93064250Y-177819000D01*
G75*
G02*
X93333000Y-178087750I0J-268750D01*
G01*
X93333000Y-178625250D01*
G75*
G02*
X93064250Y-178894000I-268750J0D01*
G01*
X92101750Y-178894000D01*
G75*
G02*
X91833000Y-178625250I0J268750D01*
G01*
X91833000Y-178087750D01*
G75*
G02*
X92101750Y-177819000I268750J0D01*
G01*
G37*
G36*
G01*
X92101750Y-175944000D02*
X93064250Y-175944000D01*
G75*
G02*
X93333000Y-176212750I0J-268750D01*
G01*
X93333000Y-176750250D01*
G75*
G02*
X93064250Y-177019000I-268750J0D01*
G01*
X92101750Y-177019000D01*
G75*
G02*
X91833000Y-176750250I0J268750D01*
G01*
X91833000Y-176212750D01*
G75*
G02*
X92101750Y-175944000I268750J0D01*
G01*
G37*
%TD*%
%TO.C,C15*%
G36*
G01*
X106920741Y-144178494D02*
X106522993Y-144576241D01*
G75*
G02*
X106178279Y-144576241I-172357J172357D01*
G01*
X105833565Y-144231527D01*
G75*
G02*
X105833565Y-143886813I172357J172357D01*
G01*
X106231313Y-143489065D01*
G75*
G02*
X106576027Y-143489065I172357J-172357D01*
G01*
X106920741Y-143833779D01*
G75*
G02*
X106920741Y-144178493I-172357J-172357D01*
G01*
G37*
G36*
G01*
X108034435Y-145292188D02*
X107636687Y-145689935D01*
G75*
G02*
X107291973Y-145689935I-172357J172357D01*
G01*
X106947259Y-145345221D01*
G75*
G02*
X106947259Y-145000507I172357J172357D01*
G01*
X107345007Y-144602759D01*
G75*
G02*
X107689721Y-144602759I172357J-172357D01*
G01*
X108034435Y-144947473D01*
G75*
G02*
X108034435Y-145292187I-172357J-172357D01*
G01*
G37*
%TD*%
%TO.C,C14*%
G36*
G01*
X89659500Y-128516250D02*
X89659500Y-127553750D01*
G75*
G02*
X89928250Y-127285000I268750J0D01*
G01*
X90465750Y-127285000D01*
G75*
G02*
X90734500Y-127553750I0J-268750D01*
G01*
X90734500Y-128516250D01*
G75*
G02*
X90465750Y-128785000I-268750J0D01*
G01*
X89928250Y-128785000D01*
G75*
G02*
X89659500Y-128516250I0J268750D01*
G01*
G37*
G36*
G01*
X87784500Y-128516250D02*
X87784500Y-127553750D01*
G75*
G02*
X88053250Y-127285000I268750J0D01*
G01*
X88590750Y-127285000D01*
G75*
G02*
X88859500Y-127553750I0J-268750D01*
G01*
X88859500Y-128516250D01*
G75*
G02*
X88590750Y-128785000I-268750J0D01*
G01*
X88053250Y-128785000D01*
G75*
G02*
X87784500Y-128516250I0J268750D01*
G01*
G37*
%TD*%
%TO.C,C13*%
G36*
G01*
X71179500Y-77877750D02*
X71179500Y-78840250D01*
G75*
G02*
X70910750Y-79109000I-268750J0D01*
G01*
X70373250Y-79109000D01*
G75*
G02*
X70104500Y-78840250I0J268750D01*
G01*
X70104500Y-77877750D01*
G75*
G02*
X70373250Y-77609000I268750J0D01*
G01*
X70910750Y-77609000D01*
G75*
G02*
X71179500Y-77877750I0J-268750D01*
G01*
G37*
G36*
G01*
X73054500Y-77877750D02*
X73054500Y-78840250D01*
G75*
G02*
X72785750Y-79109000I-268750J0D01*
G01*
X72248250Y-79109000D01*
G75*
G02*
X71979500Y-78840250I0J268750D01*
G01*
X71979500Y-77877750D01*
G75*
G02*
X72248250Y-77609000I268750J0D01*
G01*
X72785750Y-77609000D01*
G75*
G02*
X73054500Y-77877750I0J-268750D01*
G01*
G37*
%TD*%
%TO.C,C12*%
G36*
G01*
X89659500Y-122293250D02*
X89659500Y-121330750D01*
G75*
G02*
X89928250Y-121062000I268750J0D01*
G01*
X90465750Y-121062000D01*
G75*
G02*
X90734500Y-121330750I0J-268750D01*
G01*
X90734500Y-122293250D01*
G75*
G02*
X90465750Y-122562000I-268750J0D01*
G01*
X89928250Y-122562000D01*
G75*
G02*
X89659500Y-122293250I0J268750D01*
G01*
G37*
G36*
G01*
X87784500Y-122293250D02*
X87784500Y-121330750D01*
G75*
G02*
X88053250Y-121062000I268750J0D01*
G01*
X88590750Y-121062000D01*
G75*
G02*
X88859500Y-121330750I0J-268750D01*
G01*
X88859500Y-122293250D01*
G75*
G02*
X88590750Y-122562000I-268750J0D01*
G01*
X88053250Y-122562000D01*
G75*
G02*
X87784500Y-122293250I0J268750D01*
G01*
G37*
%TD*%
%TO.C,C11*%
G36*
G01*
X76347000Y-123988750D02*
X76347000Y-123026250D01*
G75*
G02*
X76615750Y-122757500I268750J0D01*
G01*
X77153250Y-122757500D01*
G75*
G02*
X77422000Y-123026250I0J-268750D01*
G01*
X77422000Y-123988750D01*
G75*
G02*
X77153250Y-124257500I-268750J0D01*
G01*
X76615750Y-124257500D01*
G75*
G02*
X76347000Y-123988750I0J268750D01*
G01*
G37*
G36*
G01*
X74472000Y-123988750D02*
X74472000Y-123026250D01*
G75*
G02*
X74740750Y-122757500I268750J0D01*
G01*
X75278250Y-122757500D01*
G75*
G02*
X75547000Y-123026250I0J-268750D01*
G01*
X75547000Y-123988750D01*
G75*
G02*
X75278250Y-124257500I-268750J0D01*
G01*
X74740750Y-124257500D01*
G75*
G02*
X74472000Y-123988750I0J268750D01*
G01*
G37*
%TD*%
%TO.C,C10*%
G36*
G01*
X74702750Y-157626000D02*
X75665250Y-157626000D01*
G75*
G02*
X75934000Y-157894750I0J-268750D01*
G01*
X75934000Y-158432250D01*
G75*
G02*
X75665250Y-158701000I-268750J0D01*
G01*
X74702750Y-158701000D01*
G75*
G02*
X74434000Y-158432250I0J268750D01*
G01*
X74434000Y-157894750D01*
G75*
G02*
X74702750Y-157626000I268750J0D01*
G01*
G37*
G36*
G01*
X74702750Y-155751000D02*
X75665250Y-155751000D01*
G75*
G02*
X75934000Y-156019750I0J-268750D01*
G01*
X75934000Y-156557250D01*
G75*
G02*
X75665250Y-156826000I-268750J0D01*
G01*
X74702750Y-156826000D01*
G75*
G02*
X74434000Y-156557250I0J268750D01*
G01*
X74434000Y-156019750D01*
G75*
G02*
X74702750Y-155751000I268750J0D01*
G01*
G37*
%TD*%
%TO.C,C9*%
G36*
G01*
X77705000Y-149251750D02*
X77705000Y-150214250D01*
G75*
G02*
X77436250Y-150483000I-268750J0D01*
G01*
X76898750Y-150483000D01*
G75*
G02*
X76630000Y-150214250I0J268750D01*
G01*
X76630000Y-149251750D01*
G75*
G02*
X76898750Y-148983000I268750J0D01*
G01*
X77436250Y-148983000D01*
G75*
G02*
X77705000Y-149251750I0J-268750D01*
G01*
G37*
G36*
G01*
X79580000Y-149251750D02*
X79580000Y-150214250D01*
G75*
G02*
X79311250Y-150483000I-268750J0D01*
G01*
X78773750Y-150483000D01*
G75*
G02*
X78505000Y-150214250I0J268750D01*
G01*
X78505000Y-149251750D01*
G75*
G02*
X78773750Y-148983000I268750J0D01*
G01*
X79311250Y-148983000D01*
G75*
G02*
X79580000Y-149251750I0J-268750D01*
G01*
G37*
%TD*%
%TO.C,C8*%
G36*
G01*
X87611000Y-149378750D02*
X87611000Y-150341250D01*
G75*
G02*
X87342250Y-150610000I-268750J0D01*
G01*
X86804750Y-150610000D01*
G75*
G02*
X86536000Y-150341250I0J268750D01*
G01*
X86536000Y-149378750D01*
G75*
G02*
X86804750Y-149110000I268750J0D01*
G01*
X87342250Y-149110000D01*
G75*
G02*
X87611000Y-149378750I0J-268750D01*
G01*
G37*
G36*
G01*
X89486000Y-149378750D02*
X89486000Y-150341250D01*
G75*
G02*
X89217250Y-150610000I-268750J0D01*
G01*
X88679750Y-150610000D01*
G75*
G02*
X88411000Y-150341250I0J268750D01*
G01*
X88411000Y-149378750D01*
G75*
G02*
X88679750Y-149110000I268750J0D01*
G01*
X89217250Y-149110000D01*
G75*
G02*
X89486000Y-149378750I0J-268750D01*
G01*
G37*
%TD*%
%TO.C,U7*%
G36*
G01*
X89884500Y-125507000D02*
X90534500Y-125507000D01*
G75*
G02*
X90584500Y-125557000I0J-50000D01*
G01*
X90584500Y-126617000D01*
G75*
G02*
X90534500Y-126667000I-50000J0D01*
G01*
X89884500Y-126667000D01*
G75*
G02*
X89834500Y-126617000I0J50000D01*
G01*
X89834500Y-125557000D01*
G75*
G02*
X89884500Y-125507000I50000J0D01*
G01*
G37*
G36*
G01*
X87984500Y-125507000D02*
X88634500Y-125507000D01*
G75*
G02*
X88684500Y-125557000I0J-50000D01*
G01*
X88684500Y-126617000D01*
G75*
G02*
X88634500Y-126667000I-50000J0D01*
G01*
X87984500Y-126667000D01*
G75*
G02*
X87934500Y-126617000I0J50000D01*
G01*
X87934500Y-125557000D01*
G75*
G02*
X87984500Y-125507000I50000J0D01*
G01*
G37*
G36*
G01*
X87984500Y-123307000D02*
X88634500Y-123307000D01*
G75*
G02*
X88684500Y-123357000I0J-50000D01*
G01*
X88684500Y-124417000D01*
G75*
G02*
X88634500Y-124467000I-50000J0D01*
G01*
X87984500Y-124467000D01*
G75*
G02*
X87934500Y-124417000I0J50000D01*
G01*
X87934500Y-123357000D01*
G75*
G02*
X87984500Y-123307000I50000J0D01*
G01*
G37*
G36*
G01*
X88934500Y-123307000D02*
X89584500Y-123307000D01*
G75*
G02*
X89634500Y-123357000I0J-50000D01*
G01*
X89634500Y-124417000D01*
G75*
G02*
X89584500Y-124467000I-50000J0D01*
G01*
X88934500Y-124467000D01*
G75*
G02*
X88884500Y-124417000I0J50000D01*
G01*
X88884500Y-123357000D01*
G75*
G02*
X88934500Y-123307000I50000J0D01*
G01*
G37*
G36*
G01*
X89884500Y-123307000D02*
X90534500Y-123307000D01*
G75*
G02*
X90584500Y-123357000I0J-50000D01*
G01*
X90584500Y-124417000D01*
G75*
G02*
X90534500Y-124467000I-50000J0D01*
G01*
X89884500Y-124467000D01*
G75*
G02*
X89834500Y-124417000I0J50000D01*
G01*
X89834500Y-123357000D01*
G75*
G02*
X89884500Y-123307000I50000J0D01*
G01*
G37*
%TD*%
%TO.C,U14*%
G36*
G01*
X132807000Y-119913000D02*
X132807000Y-121413000D01*
G75*
G02*
X132757000Y-121463000I-50000J0D01*
G01*
X130757000Y-121463000D01*
G75*
G02*
X130707000Y-121413000I0J50000D01*
G01*
X130707000Y-119913000D01*
G75*
G02*
X130757000Y-119863000I50000J0D01*
G01*
X132757000Y-119863000D01*
G75*
G02*
X132807000Y-119913000I0J-50000D01*
G01*
G37*
G36*
G01*
X132807000Y-115313000D02*
X132807000Y-116813000D01*
G75*
G02*
X132757000Y-116863000I-50000J0D01*
G01*
X130757000Y-116863000D01*
G75*
G02*
X130707000Y-116813000I0J50000D01*
G01*
X130707000Y-115313000D01*
G75*
G02*
X130757000Y-115263000I50000J0D01*
G01*
X132757000Y-115263000D01*
G75*
G02*
X132807000Y-115313000I0J-50000D01*
G01*
G37*
G36*
G01*
X132807000Y-117613000D02*
X132807000Y-119113000D01*
G75*
G02*
X132757000Y-119163000I-50000J0D01*
G01*
X130757000Y-119163000D01*
G75*
G02*
X130707000Y-119113000I0J50000D01*
G01*
X130707000Y-117613000D01*
G75*
G02*
X130757000Y-117563000I50000J0D01*
G01*
X132757000Y-117563000D01*
G75*
G02*
X132807000Y-117613000I0J-50000D01*
G01*
G37*
G36*
G01*
X126507000Y-116463000D02*
X126507000Y-120263000D01*
G75*
G02*
X126457000Y-120313000I-50000J0D01*
G01*
X124457000Y-120313000D01*
G75*
G02*
X124407000Y-120263000I0J50000D01*
G01*
X124407000Y-116463000D01*
G75*
G02*
X124457000Y-116413000I50000J0D01*
G01*
X126457000Y-116413000D01*
G75*
G02*
X126507000Y-116463000I0J-50000D01*
G01*
G37*
%TD*%
D11*
%TO.C,J5*%
X137541000Y-145097500D03*
X135001000Y-145097500D03*
X132461000Y-145097500D03*
G36*
G01*
X130771000Y-145997500D02*
X129071000Y-145997500D01*
G75*
G02*
X129021000Y-145947500I0J50000D01*
G01*
X129021000Y-144247500D01*
G75*
G02*
X129071000Y-144197500I50000J0D01*
G01*
X130771000Y-144197500D01*
G75*
G02*
X130821000Y-144247500I0J-50000D01*
G01*
X130821000Y-145947500D01*
G75*
G02*
X130771000Y-145997500I-50000J0D01*
G01*
G37*
%TD*%
%TO.C,Q17*%
G36*
G01*
X115779500Y-124150500D02*
X114979500Y-124150500D01*
G75*
G02*
X114929500Y-124100500I0J50000D01*
G01*
X114929500Y-123200500D01*
G75*
G02*
X114979500Y-123150500I50000J0D01*
G01*
X115779500Y-123150500D01*
G75*
G02*
X115829500Y-123200500I0J-50000D01*
G01*
X115829500Y-124100500D01*
G75*
G02*
X115779500Y-124150500I-50000J0D01*
G01*
G37*
G36*
G01*
X116729500Y-126150500D02*
X115929500Y-126150500D01*
G75*
G02*
X115879500Y-126100500I0J50000D01*
G01*
X115879500Y-125200500D01*
G75*
G02*
X115929500Y-125150500I50000J0D01*
G01*
X116729500Y-125150500D01*
G75*
G02*
X116779500Y-125200500I0J-50000D01*
G01*
X116779500Y-126100500D01*
G75*
G02*
X116729500Y-126150500I-50000J0D01*
G01*
G37*
G36*
G01*
X114829500Y-126150500D02*
X114029500Y-126150500D01*
G75*
G02*
X113979500Y-126100500I0J50000D01*
G01*
X113979500Y-125200500D01*
G75*
G02*
X114029500Y-125150500I50000J0D01*
G01*
X114829500Y-125150500D01*
G75*
G02*
X114879500Y-125200500I0J-50000D01*
G01*
X114879500Y-126100500D01*
G75*
G02*
X114829500Y-126150500I-50000J0D01*
G01*
G37*
%TD*%
D13*
%TO.C,U8*%
X172085000Y-146050000D03*
X164465000Y-153670000D03*
X172085000Y-148590000D03*
X164465000Y-151130000D03*
X172085000Y-151130000D03*
X164465000Y-148590000D03*
X172085000Y-153670000D03*
G36*
G01*
X163615000Y-146850000D02*
X163615000Y-145250000D01*
G75*
G02*
X163665000Y-145200000I50000J0D01*
G01*
X165265000Y-145200000D01*
G75*
G02*
X165315000Y-145250000I0J-50000D01*
G01*
X165315000Y-146850000D01*
G75*
G02*
X165265000Y-146900000I-50000J0D01*
G01*
X163665000Y-146900000D01*
G75*
G02*
X163615000Y-146850000I0J50000D01*
G01*
G37*
%TD*%
%TO.C,Q10*%
G36*
G01*
X152158000Y-107110000D02*
X153658000Y-107110000D01*
G75*
G02*
X153708000Y-107160000I0J-50000D01*
G01*
X153708000Y-108660000D01*
G75*
G02*
X153658000Y-108710000I-50000J0D01*
G01*
X152158000Y-108710000D01*
G75*
G02*
X152108000Y-108660000I0J50000D01*
G01*
X152108000Y-107160000D01*
G75*
G02*
X152158000Y-107110000I50000J0D01*
G01*
G37*
D25*
X147828000Y-107910000D03*
X150368000Y-107910000D03*
%TD*%
%TO.C,Q9*%
G36*
G01*
X159397000Y-107110000D02*
X160897000Y-107110000D01*
G75*
G02*
X160947000Y-107160000I0J-50000D01*
G01*
X160947000Y-108660000D01*
G75*
G02*
X160897000Y-108710000I-50000J0D01*
G01*
X159397000Y-108710000D01*
G75*
G02*
X159347000Y-108660000I0J50000D01*
G01*
X159347000Y-107160000D01*
G75*
G02*
X159397000Y-107110000I50000J0D01*
G01*
G37*
X155067000Y-107910000D03*
X157607000Y-107910000D03*
%TD*%
%TO.C,Q8*%
G36*
G01*
X169176000Y-107150000D02*
X170676000Y-107150000D01*
G75*
G02*
X170726000Y-107200000I0J-50000D01*
G01*
X170726000Y-108700000D01*
G75*
G02*
X170676000Y-108750000I-50000J0D01*
G01*
X169176000Y-108750000D01*
G75*
G02*
X169126000Y-108700000I0J50000D01*
G01*
X169126000Y-107200000D01*
G75*
G02*
X169176000Y-107150000I50000J0D01*
G01*
G37*
X164846000Y-107950000D03*
X167386000Y-107950000D03*
%TD*%
%TO.C,Q7*%
G36*
G01*
X176542000Y-107150000D02*
X178042000Y-107150000D01*
G75*
G02*
X178092000Y-107200000I0J-50000D01*
G01*
X178092000Y-108700000D01*
G75*
G02*
X178042000Y-108750000I-50000J0D01*
G01*
X176542000Y-108750000D01*
G75*
G02*
X176492000Y-108700000I0J50000D01*
G01*
X176492000Y-107200000D01*
G75*
G02*
X176542000Y-107150000I50000J0D01*
G01*
G37*
X172212000Y-107950000D03*
X174752000Y-107950000D03*
%TD*%
%TO.C,Q6*%
G36*
G01*
X119418000Y-109232000D02*
X119418000Y-110732000D01*
G75*
G02*
X119368000Y-110782000I-50000J0D01*
G01*
X117868000Y-110782000D01*
G75*
G02*
X117818000Y-110732000I0J50000D01*
G01*
X117818000Y-109232000D01*
G75*
G02*
X117868000Y-109182000I50000J0D01*
G01*
X119368000Y-109182000D01*
G75*
G02*
X119418000Y-109232000I0J-50000D01*
G01*
G37*
X118618000Y-104902000D03*
X118618000Y-107442000D03*
%TD*%
%TO.C,Q5*%
G36*
G01*
X124371000Y-109232000D02*
X124371000Y-110732000D01*
G75*
G02*
X124321000Y-110782000I-50000J0D01*
G01*
X122821000Y-110782000D01*
G75*
G02*
X122771000Y-110732000I0J50000D01*
G01*
X122771000Y-109232000D01*
G75*
G02*
X122821000Y-109182000I50000J0D01*
G01*
X124321000Y-109182000D01*
G75*
G02*
X124371000Y-109232000I0J-50000D01*
G01*
G37*
X123571000Y-104902000D03*
X123571000Y-107442000D03*
%TD*%
D11*
%TO.C,TP12*%
X131191000Y-155892500D03*
G36*
G01*
X132881000Y-154992500D02*
X134581000Y-154992500D01*
G75*
G02*
X134631000Y-155042500I0J-50000D01*
G01*
X134631000Y-156742500D01*
G75*
G02*
X134581000Y-156792500I-50000J0D01*
G01*
X132881000Y-156792500D01*
G75*
G02*
X132831000Y-156742500I0J50000D01*
G01*
X132831000Y-155042500D01*
G75*
G02*
X132881000Y-154992500I50000J0D01*
G01*
G37*
%TD*%
D15*
%TO.C,C21*%
X211307000Y-151638000D03*
X233807000Y-151638000D03*
%TD*%
%TO.C,D28*%
G36*
G01*
X115932000Y-130150500D02*
X115932000Y-131850500D01*
G75*
G02*
X115882000Y-131900500I-50000J0D01*
G01*
X114582000Y-131900500D01*
G75*
G02*
X114532000Y-131850500I0J50000D01*
G01*
X114532000Y-130150500D01*
G75*
G02*
X114582000Y-130100500I50000J0D01*
G01*
X115882000Y-130100500D01*
G75*
G02*
X115932000Y-130150500I0J-50000D01*
G01*
G37*
G36*
G01*
X119432000Y-130150500D02*
X119432000Y-131850500D01*
G75*
G02*
X119382000Y-131900500I-50000J0D01*
G01*
X118082000Y-131900500D01*
G75*
G02*
X118032000Y-131850500I0J50000D01*
G01*
X118032000Y-130150500D01*
G75*
G02*
X118082000Y-130100500I50000J0D01*
G01*
X119382000Y-130100500D01*
G75*
G02*
X119432000Y-130150500I0J-50000D01*
G01*
G37*
%TD*%
%TO.C,D27*%
G36*
G01*
X105151000Y-125588000D02*
X103451000Y-125588000D01*
G75*
G02*
X103401000Y-125538000I0J50000D01*
G01*
X103401000Y-124238000D01*
G75*
G02*
X103451000Y-124188000I50000J0D01*
G01*
X105151000Y-124188000D01*
G75*
G02*
X105201000Y-124238000I0J-50000D01*
G01*
X105201000Y-125538000D01*
G75*
G02*
X105151000Y-125588000I-50000J0D01*
G01*
G37*
G36*
G01*
X105151000Y-129088000D02*
X103451000Y-129088000D01*
G75*
G02*
X103401000Y-129038000I0J50000D01*
G01*
X103401000Y-127738000D01*
G75*
G02*
X103451000Y-127688000I50000J0D01*
G01*
X105151000Y-127688000D01*
G75*
G02*
X105201000Y-127738000I0J-50000D01*
G01*
X105201000Y-129038000D01*
G75*
G02*
X105151000Y-129088000I-50000J0D01*
G01*
G37*
%TD*%
%TO.C,D26*%
G36*
G01*
X100911000Y-127688000D02*
X102611000Y-127688000D01*
G75*
G02*
X102661000Y-127738000I0J-50000D01*
G01*
X102661000Y-129038000D01*
G75*
G02*
X102611000Y-129088000I-50000J0D01*
G01*
X100911000Y-129088000D01*
G75*
G02*
X100861000Y-129038000I0J50000D01*
G01*
X100861000Y-127738000D01*
G75*
G02*
X100911000Y-127688000I50000J0D01*
G01*
G37*
G36*
G01*
X100911000Y-124188000D02*
X102611000Y-124188000D01*
G75*
G02*
X102661000Y-124238000I0J-50000D01*
G01*
X102661000Y-125538000D01*
G75*
G02*
X102611000Y-125588000I-50000J0D01*
G01*
X100911000Y-125588000D01*
G75*
G02*
X100861000Y-125538000I0J50000D01*
G01*
X100861000Y-124238000D01*
G75*
G02*
X100911000Y-124188000I50000J0D01*
G01*
G37*
%TD*%
D24*
%TO.C,C3*%
X231107000Y-78388000D03*
G36*
G01*
X219057000Y-80388000D02*
X219057000Y-76388000D01*
G75*
G02*
X219107000Y-76338000I50000J0D01*
G01*
X223107000Y-76338000D01*
G75*
G02*
X223157000Y-76388000I0J-50000D01*
G01*
X223157000Y-80388000D01*
G75*
G02*
X223107000Y-80438000I-50000J0D01*
G01*
X219107000Y-80438000D01*
G75*
G02*
X219057000Y-80388000I0J50000D01*
G01*
G37*
%TD*%
%TO.C,C2*%
G36*
G01*
X270147000Y-76613000D02*
X270147000Y-80613000D01*
G75*
G02*
X270097000Y-80663000I-50000J0D01*
G01*
X266097000Y-80663000D01*
G75*
G02*
X266047000Y-80613000I0J50000D01*
G01*
X266047000Y-76613000D01*
G75*
G02*
X266097000Y-76563000I50000J0D01*
G01*
X270097000Y-76563000D01*
G75*
G02*
X270147000Y-76613000I0J-50000D01*
G01*
G37*
X258097000Y-78613000D03*
%TD*%
%TO.C,C1*%
X231107000Y-115853000D03*
G36*
G01*
X219057000Y-117853000D02*
X219057000Y-113853000D01*
G75*
G02*
X219107000Y-113803000I50000J0D01*
G01*
X223107000Y-113803000D01*
G75*
G02*
X223157000Y-113853000I0J-50000D01*
G01*
X223157000Y-117853000D01*
G75*
G02*
X223107000Y-117903000I-50000J0D01*
G01*
X219107000Y-117903000D01*
G75*
G02*
X219057000Y-117853000I0J50000D01*
G01*
G37*
%TD*%
%TO.C,U13*%
G36*
X72972908Y-128215173D02*
G01*
X72962000Y-128183999D01*
X72962000Y-126451000D01*
X72980826Y-126411908D01*
X73012000Y-126401000D01*
X76137001Y-126401000D01*
X76176093Y-126419826D01*
X76187001Y-126451000D01*
X76187001Y-126817500D01*
X77612000Y-126817501D01*
X77651092Y-126836327D01*
X77662000Y-126867501D01*
X77662000Y-127767500D01*
X77643173Y-127806592D01*
X77611999Y-127817500D01*
X76187000Y-127817499D01*
X76187000Y-128183999D01*
X76168174Y-128223091D01*
X76137000Y-128233999D01*
X73012000Y-128233999D01*
X72972908Y-128215173D01*
G37*
G36*
G01*
X77662000Y-125367500D02*
X77662000Y-126267500D01*
G75*
G02*
X77612000Y-126317500I-50000J0D01*
G01*
X76312000Y-126317500D01*
G75*
G02*
X76262000Y-126267500I0J50000D01*
G01*
X76262000Y-125367500D01*
G75*
G02*
X76312000Y-125317500I50000J0D01*
G01*
X77612000Y-125317500D01*
G75*
G02*
X77662000Y-125367500I0J-50000D01*
G01*
G37*
G36*
G01*
X77662000Y-128367500D02*
X77662000Y-129267500D01*
G75*
G02*
X77612000Y-129317500I-50000J0D01*
G01*
X76312000Y-129317500D01*
G75*
G02*
X76262000Y-129267500I0J50000D01*
G01*
X76262000Y-128367500D01*
G75*
G02*
X76312000Y-128317500I50000J0D01*
G01*
X77612000Y-128317500D01*
G75*
G02*
X77662000Y-128367500I0J-50000D01*
G01*
G37*
%TD*%
%TO.C,U5*%
G36*
G01*
X87368000Y-177819000D02*
X87368000Y-177019000D01*
G75*
G02*
X87418000Y-176969000I50000J0D01*
G01*
X88318000Y-176969000D01*
G75*
G02*
X88368000Y-177019000I0J-50000D01*
G01*
X88368000Y-177819000D01*
G75*
G02*
X88318000Y-177869000I-50000J0D01*
G01*
X87418000Y-177869000D01*
G75*
G02*
X87368000Y-177819000I0J50000D01*
G01*
G37*
G36*
G01*
X85368000Y-178769000D02*
X85368000Y-177969000D01*
G75*
G02*
X85418000Y-177919000I50000J0D01*
G01*
X86318000Y-177919000D01*
G75*
G02*
X86368000Y-177969000I0J-50000D01*
G01*
X86368000Y-178769000D01*
G75*
G02*
X86318000Y-178819000I-50000J0D01*
G01*
X85418000Y-178819000D01*
G75*
G02*
X85368000Y-178769000I0J50000D01*
G01*
G37*
G36*
G01*
X85368000Y-176869000D02*
X85368000Y-176069000D01*
G75*
G02*
X85418000Y-176019000I50000J0D01*
G01*
X86318000Y-176019000D01*
G75*
G02*
X86368000Y-176069000I0J-50000D01*
G01*
X86368000Y-176869000D01*
G75*
G02*
X86318000Y-176919000I-50000J0D01*
G01*
X85418000Y-176919000D01*
G75*
G02*
X85368000Y-176869000I0J50000D01*
G01*
G37*
%TD*%
D11*
%TO.C,TP11*%
X303022000Y-130683000D03*
G36*
G01*
X302122000Y-128993000D02*
X302122000Y-127293000D01*
G75*
G02*
X302172000Y-127243000I50000J0D01*
G01*
X303872000Y-127243000D01*
G75*
G02*
X303922000Y-127293000I0J-50000D01*
G01*
X303922000Y-128993000D01*
G75*
G02*
X303872000Y-129043000I-50000J0D01*
G01*
X302172000Y-129043000D01*
G75*
G02*
X302122000Y-128993000I0J50000D01*
G01*
G37*
%TD*%
%TO.C,TP7*%
X254762000Y-179578000D03*
G36*
G01*
X256452000Y-178678000D02*
X258152000Y-178678000D01*
G75*
G02*
X258202000Y-178728000I0J-50000D01*
G01*
X258202000Y-180428000D01*
G75*
G02*
X258152000Y-180478000I-50000J0D01*
G01*
X256452000Y-180478000D01*
G75*
G02*
X256402000Y-180428000I0J50000D01*
G01*
X256402000Y-178728000D01*
G75*
G02*
X256452000Y-178678000I50000J0D01*
G01*
G37*
%TD*%
%TO.C,TP6*%
X266827000Y-140455000D03*
G36*
G01*
X265927000Y-138765000D02*
X265927000Y-137065000D01*
G75*
G02*
X265977000Y-137015000I50000J0D01*
G01*
X267677000Y-137015000D01*
G75*
G02*
X267727000Y-137065000I0J-50000D01*
G01*
X267727000Y-138765000D01*
G75*
G02*
X267677000Y-138815000I-50000J0D01*
G01*
X265977000Y-138815000D01*
G75*
G02*
X265927000Y-138765000I0J50000D01*
G01*
G37*
%TD*%
%TO.C,TP5*%
X165227000Y-182118000D03*
G36*
G01*
X166917000Y-181218000D02*
X168617000Y-181218000D01*
G75*
G02*
X168667000Y-181268000I0J-50000D01*
G01*
X168667000Y-182968000D01*
G75*
G02*
X168617000Y-183018000I-50000J0D01*
G01*
X166917000Y-183018000D01*
G75*
G02*
X166867000Y-182968000I0J50000D01*
G01*
X166867000Y-181268000D01*
G75*
G02*
X166917000Y-181218000I50000J0D01*
G01*
G37*
%TD*%
%TO.C,TP4*%
X173482000Y-182118000D03*
G36*
G01*
X175172000Y-181218000D02*
X176872000Y-181218000D01*
G75*
G02*
X176922000Y-181268000I0J-50000D01*
G01*
X176922000Y-182968000D01*
G75*
G02*
X176872000Y-183018000I-50000J0D01*
G01*
X175172000Y-183018000D01*
G75*
G02*
X175122000Y-182968000I0J50000D01*
G01*
X175122000Y-181268000D01*
G75*
G02*
X175172000Y-181218000I50000J0D01*
G01*
G37*
%TD*%
%TO.C,TP3*%
X290322000Y-80645000D03*
G36*
G01*
X292012000Y-79745000D02*
X293712000Y-79745000D01*
G75*
G02*
X293762000Y-79795000I0J-50000D01*
G01*
X293762000Y-81495000D01*
G75*
G02*
X293712000Y-81545000I-50000J0D01*
G01*
X292012000Y-81545000D01*
G75*
G02*
X291962000Y-81495000I0J50000D01*
G01*
X291962000Y-79795000D01*
G75*
G02*
X292012000Y-79745000I50000J0D01*
G01*
G37*
%TD*%
%TO.C,TP2*%
X276987000Y-96393000D03*
G36*
G01*
X278677000Y-95493000D02*
X280377000Y-95493000D01*
G75*
G02*
X280427000Y-95543000I0J-50000D01*
G01*
X280427000Y-97243000D01*
G75*
G02*
X280377000Y-97293000I-50000J0D01*
G01*
X278677000Y-97293000D01*
G75*
G02*
X278627000Y-97243000I0J50000D01*
G01*
X278627000Y-95543000D01*
G75*
G02*
X278677000Y-95493000I50000J0D01*
G01*
G37*
%TD*%
%TO.C,TP1*%
X245745000Y-131826000D03*
G36*
G01*
X244055000Y-132726000D02*
X242355000Y-132726000D01*
G75*
G02*
X242305000Y-132676000I0J50000D01*
G01*
X242305000Y-130976000D01*
G75*
G02*
X242355000Y-130926000I50000J0D01*
G01*
X244055000Y-130926000D01*
G75*
G02*
X244105000Y-130976000I0J-50000D01*
G01*
X244105000Y-132676000D01*
G75*
G02*
X244055000Y-132726000I-50000J0D01*
G01*
G37*
%TD*%
D14*
%TO.C,R19*%
X237617000Y-168783000D03*
D15*
X268097000Y-168783000D03*
%TD*%
%TO.C,Q16*%
G36*
G01*
X95242000Y-172739000D02*
X95242000Y-171939000D01*
G75*
G02*
X95292000Y-171889000I50000J0D01*
G01*
X96192000Y-171889000D01*
G75*
G02*
X96242000Y-171939000I0J-50000D01*
G01*
X96242000Y-172739000D01*
G75*
G02*
X96192000Y-172789000I-50000J0D01*
G01*
X95292000Y-172789000D01*
G75*
G02*
X95242000Y-172739000I0J50000D01*
G01*
G37*
G36*
G01*
X93242000Y-173689000D02*
X93242000Y-172889000D01*
G75*
G02*
X93292000Y-172839000I50000J0D01*
G01*
X94192000Y-172839000D01*
G75*
G02*
X94242000Y-172889000I0J-50000D01*
G01*
X94242000Y-173689000D01*
G75*
G02*
X94192000Y-173739000I-50000J0D01*
G01*
X93292000Y-173739000D01*
G75*
G02*
X93242000Y-173689000I0J50000D01*
G01*
G37*
G36*
G01*
X93242000Y-171789000D02*
X93242000Y-170989000D01*
G75*
G02*
X93292000Y-170939000I50000J0D01*
G01*
X94192000Y-170939000D01*
G75*
G02*
X94242000Y-170989000I0J-50000D01*
G01*
X94242000Y-171789000D01*
G75*
G02*
X94192000Y-171839000I-50000J0D01*
G01*
X93292000Y-171839000D01*
G75*
G02*
X93242000Y-171789000I0J50000D01*
G01*
G37*
%TD*%
%TO.C,Q15*%
G36*
G01*
X95258000Y-168905500D02*
X95258000Y-168105500D01*
G75*
G02*
X95308000Y-168055500I50000J0D01*
G01*
X96208000Y-168055500D01*
G75*
G02*
X96258000Y-168105500I0J-50000D01*
G01*
X96258000Y-168905500D01*
G75*
G02*
X96208000Y-168955500I-50000J0D01*
G01*
X95308000Y-168955500D01*
G75*
G02*
X95258000Y-168905500I0J50000D01*
G01*
G37*
G36*
G01*
X93258000Y-169855500D02*
X93258000Y-169055500D01*
G75*
G02*
X93308000Y-169005500I50000J0D01*
G01*
X94208000Y-169005500D01*
G75*
G02*
X94258000Y-169055500I0J-50000D01*
G01*
X94258000Y-169855500D01*
G75*
G02*
X94208000Y-169905500I-50000J0D01*
G01*
X93308000Y-169905500D01*
G75*
G02*
X93258000Y-169855500I0J50000D01*
G01*
G37*
G36*
G01*
X93258000Y-167955500D02*
X93258000Y-167155500D01*
G75*
G02*
X93308000Y-167105500I50000J0D01*
G01*
X94208000Y-167105500D01*
G75*
G02*
X94258000Y-167155500I0J-50000D01*
G01*
X94258000Y-167955500D01*
G75*
G02*
X94208000Y-168005500I-50000J0D01*
G01*
X93308000Y-168005500D01*
G75*
G02*
X93258000Y-167955500I0J50000D01*
G01*
G37*
%TD*%
D11*
%TO.C,JP1*%
X88138000Y-168529000D03*
G36*
G01*
X89038000Y-170219000D02*
X89038000Y-171919000D01*
G75*
G02*
X88988000Y-171969000I-50000J0D01*
G01*
X87288000Y-171969000D01*
G75*
G02*
X87238000Y-171919000I0J50000D01*
G01*
X87238000Y-170219000D01*
G75*
G02*
X87288000Y-170169000I50000J0D01*
G01*
X88988000Y-170169000D01*
G75*
G02*
X89038000Y-170219000I0J-50000D01*
G01*
G37*
%TD*%
D15*
%TO.C,C34*%
X291592000Y-135368000D03*
X291592000Y-150368000D03*
%TD*%
%TO.C,C32*%
X278892000Y-135368000D03*
X278892000Y-150368000D03*
%TD*%
%TO.C,C30*%
X297942000Y-135368000D03*
X297942000Y-150368000D03*
%TD*%
%TO.C,C28*%
X285242000Y-135368000D03*
X285242000Y-150368000D03*
%TD*%
%TO.C,C27*%
X272542000Y-135368000D03*
X272542000Y-150368000D03*
%TD*%
%TO.C,C25*%
X280402000Y-129413000D03*
X295402000Y-129413000D03*
%TD*%
D23*
%TO.C,C23*%
X247617000Y-176403000D03*
X237617000Y-176403000D03*
%TD*%
%TO.C,U12*%
G36*
G01*
X110831000Y-124908000D02*
X110831000Y-124558000D01*
G75*
G02*
X111006000Y-124383000I175000J0D01*
G01*
X112706000Y-124383000D01*
G75*
G02*
X112881000Y-124558000I0J-175000D01*
G01*
X112881000Y-124908000D01*
G75*
G02*
X112706000Y-125083000I-175000J0D01*
G01*
X111006000Y-125083000D01*
G75*
G02*
X110831000Y-124908000I0J175000D01*
G01*
G37*
G36*
G01*
X110831000Y-126178000D02*
X110831000Y-125828000D01*
G75*
G02*
X111006000Y-125653000I175000J0D01*
G01*
X112706000Y-125653000D01*
G75*
G02*
X112881000Y-125828000I0J-175000D01*
G01*
X112881000Y-126178000D01*
G75*
G02*
X112706000Y-126353000I-175000J0D01*
G01*
X111006000Y-126353000D01*
G75*
G02*
X110831000Y-126178000I0J175000D01*
G01*
G37*
G36*
G01*
X110831000Y-127448000D02*
X110831000Y-127098000D01*
G75*
G02*
X111006000Y-126923000I175000J0D01*
G01*
X112706000Y-126923000D01*
G75*
G02*
X112881000Y-127098000I0J-175000D01*
G01*
X112881000Y-127448000D01*
G75*
G02*
X112706000Y-127623000I-175000J0D01*
G01*
X111006000Y-127623000D01*
G75*
G02*
X110831000Y-127448000I0J175000D01*
G01*
G37*
G36*
G01*
X110831000Y-128718000D02*
X110831000Y-128368000D01*
G75*
G02*
X111006000Y-128193000I175000J0D01*
G01*
X112706000Y-128193000D01*
G75*
G02*
X112881000Y-128368000I0J-175000D01*
G01*
X112881000Y-128718000D01*
G75*
G02*
X112706000Y-128893000I-175000J0D01*
G01*
X111006000Y-128893000D01*
G75*
G02*
X110831000Y-128718000I0J175000D01*
G01*
G37*
G36*
G01*
X105881000Y-128718000D02*
X105881000Y-128368000D01*
G75*
G02*
X106056000Y-128193000I175000J0D01*
G01*
X107756000Y-128193000D01*
G75*
G02*
X107931000Y-128368000I0J-175000D01*
G01*
X107931000Y-128718000D01*
G75*
G02*
X107756000Y-128893000I-175000J0D01*
G01*
X106056000Y-128893000D01*
G75*
G02*
X105881000Y-128718000I0J175000D01*
G01*
G37*
G36*
G01*
X105881000Y-127448000D02*
X105881000Y-127098000D01*
G75*
G02*
X106056000Y-126923000I175000J0D01*
G01*
X107756000Y-126923000D01*
G75*
G02*
X107931000Y-127098000I0J-175000D01*
G01*
X107931000Y-127448000D01*
G75*
G02*
X107756000Y-127623000I-175000J0D01*
G01*
X106056000Y-127623000D01*
G75*
G02*
X105881000Y-127448000I0J175000D01*
G01*
G37*
G36*
G01*
X105881000Y-126178000D02*
X105881000Y-125828000D01*
G75*
G02*
X106056000Y-125653000I175000J0D01*
G01*
X107756000Y-125653000D01*
G75*
G02*
X107931000Y-125828000I0J-175000D01*
G01*
X107931000Y-126178000D01*
G75*
G02*
X107756000Y-126353000I-175000J0D01*
G01*
X106056000Y-126353000D01*
G75*
G02*
X105881000Y-126178000I0J175000D01*
G01*
G37*
G36*
G01*
X105881000Y-124908000D02*
X105881000Y-124558000D01*
G75*
G02*
X106056000Y-124383000I175000J0D01*
G01*
X107756000Y-124383000D01*
G75*
G02*
X107931000Y-124558000I0J-175000D01*
G01*
X107931000Y-124908000D01*
G75*
G02*
X107756000Y-125083000I-175000J0D01*
G01*
X106056000Y-125083000D01*
G75*
G02*
X105881000Y-124908000I0J175000D01*
G01*
G37*
%TD*%
%TO.C,U4*%
G36*
G01*
X86246000Y-153163000D02*
X86246000Y-151383000D01*
G75*
G02*
X86296000Y-151333000I50000J0D01*
G01*
X87816000Y-151333000D01*
G75*
G02*
X87866000Y-151383000I0J-50000D01*
G01*
X87866000Y-153163000D01*
G75*
G02*
X87816000Y-153213000I-50000J0D01*
G01*
X86296000Y-153213000D01*
G75*
G02*
X86246000Y-153163000I0J50000D01*
G01*
G37*
G36*
G01*
X86246000Y-155703000D02*
X86246000Y-153923000D01*
G75*
G02*
X86296000Y-153873000I50000J0D01*
G01*
X87816000Y-153873000D01*
G75*
G02*
X87866000Y-153923000I0J-50000D01*
G01*
X87866000Y-155703000D01*
G75*
G02*
X87816000Y-155753000I-50000J0D01*
G01*
X86296000Y-155753000D01*
G75*
G02*
X86246000Y-155703000I0J50000D01*
G01*
G37*
G36*
G01*
X86246000Y-158243000D02*
X86246000Y-156463000D01*
G75*
G02*
X86296000Y-156413000I50000J0D01*
G01*
X87816000Y-156413000D01*
G75*
G02*
X87866000Y-156463000I0J-50000D01*
G01*
X87866000Y-158243000D01*
G75*
G02*
X87816000Y-158293000I-50000J0D01*
G01*
X86296000Y-158293000D01*
G75*
G02*
X86246000Y-158243000I0J50000D01*
G01*
G37*
G36*
G01*
X86246000Y-160783000D02*
X86246000Y-159003000D01*
G75*
G02*
X86296000Y-158953000I50000J0D01*
G01*
X87816000Y-158953000D01*
G75*
G02*
X87866000Y-159003000I0J-50000D01*
G01*
X87866000Y-160783000D01*
G75*
G02*
X87816000Y-160833000I-50000J0D01*
G01*
X86296000Y-160833000D01*
G75*
G02*
X86246000Y-160783000I0J50000D01*
G01*
G37*
G36*
G01*
X76726000Y-160783000D02*
X76726000Y-159003000D01*
G75*
G02*
X76776000Y-158953000I50000J0D01*
G01*
X78296000Y-158953000D01*
G75*
G02*
X78346000Y-159003000I0J-50000D01*
G01*
X78346000Y-160783000D01*
G75*
G02*
X78296000Y-160833000I-50000J0D01*
G01*
X76776000Y-160833000D01*
G75*
G02*
X76726000Y-160783000I0J50000D01*
G01*
G37*
G36*
G01*
X76726000Y-158243000D02*
X76726000Y-156463000D01*
G75*
G02*
X76776000Y-156413000I50000J0D01*
G01*
X78296000Y-156413000D01*
G75*
G02*
X78346000Y-156463000I0J-50000D01*
G01*
X78346000Y-158243000D01*
G75*
G02*
X78296000Y-158293000I-50000J0D01*
G01*
X76776000Y-158293000D01*
G75*
G02*
X76726000Y-158243000I0J50000D01*
G01*
G37*
G36*
G01*
X76726000Y-155688000D02*
X76726000Y-153938000D01*
G75*
G02*
X76776000Y-153888000I50000J0D01*
G01*
X78296000Y-153888000D01*
G75*
G02*
X78346000Y-153938000I0J-50000D01*
G01*
X78346000Y-155688000D01*
G75*
G02*
X78296000Y-155738000I-50000J0D01*
G01*
X76776000Y-155738000D01*
G75*
G02*
X76726000Y-155688000I0J50000D01*
G01*
G37*
G36*
G01*
X76726000Y-153163000D02*
X76726000Y-151383000D01*
G75*
G02*
X76776000Y-151333000I50000J0D01*
G01*
X78296000Y-151333000D01*
G75*
G02*
X78346000Y-151383000I0J-50000D01*
G01*
X78346000Y-153163000D01*
G75*
G02*
X78296000Y-153213000I-50000J0D01*
G01*
X76776000Y-153213000D01*
G75*
G02*
X76726000Y-153163000I0J50000D01*
G01*
G37*
%TD*%
D13*
%TO.C,U2*%
X175260000Y-130810000D03*
X167640000Y-135890000D03*
X175260000Y-133350000D03*
X167640000Y-133350000D03*
X175260000Y-135890000D03*
G36*
G01*
X166790000Y-131610000D02*
X166790000Y-130010000D01*
G75*
G02*
X166840000Y-129960000I50000J0D01*
G01*
X168440000Y-129960000D01*
G75*
G02*
X168490000Y-130010000I0J-50000D01*
G01*
X168490000Y-131610000D01*
G75*
G02*
X168440000Y-131660000I-50000J0D01*
G01*
X166840000Y-131660000D01*
G75*
G02*
X166790000Y-131610000I0J50000D01*
G01*
G37*
%TD*%
%TO.C,U1*%
X175260000Y-118745000D03*
X167640000Y-123825000D03*
X175260000Y-121285000D03*
X167640000Y-121285000D03*
X175260000Y-123825000D03*
G36*
G01*
X166790000Y-119545000D02*
X166790000Y-117945000D01*
G75*
G02*
X166840000Y-117895000I50000J0D01*
G01*
X168440000Y-117895000D01*
G75*
G02*
X168490000Y-117945000I0J-50000D01*
G01*
X168490000Y-119545000D01*
G75*
G02*
X168440000Y-119595000I-50000J0D01*
G01*
X166840000Y-119595000D01*
G75*
G02*
X166790000Y-119545000I0J50000D01*
G01*
G37*
%TD*%
D17*
%TO.C,T3*%
X152560000Y-84295000D03*
X157560000Y-84295000D03*
X167560000Y-84295000D03*
X172560000Y-84295000D03*
X172560000Y-64295000D03*
X152560000Y-64295000D03*
%TD*%
D18*
%TO.C,R42*%
X147955000Y-97750000D03*
D19*
X147955000Y-92670000D03*
%TD*%
D18*
%TO.C,R41*%
X160655000Y-92710000D03*
D19*
X160655000Y-97790000D03*
%TD*%
D18*
%TO.C,R40*%
X165100000Y-97790000D03*
D19*
X165100000Y-92710000D03*
%TD*%
D18*
%TO.C,R39*%
X177800000Y-92710000D03*
D19*
X177800000Y-97790000D03*
%TD*%
D18*
%TO.C,R38*%
X114554000Y-109855000D03*
D19*
X114554000Y-104775000D03*
%TD*%
D18*
%TO.C,R37*%
X126873000Y-104775000D03*
D19*
X126873000Y-109855000D03*
%TD*%
%TO.C,R24*%
G36*
G01*
X303843483Y-78343000D02*
X300930517Y-78343000D01*
G75*
G02*
X300662000Y-78074483I0J268517D01*
G01*
X300662000Y-77161517D01*
G75*
G02*
X300930517Y-76893000I268517J0D01*
G01*
X303843483Y-76893000D01*
G75*
G02*
X304112000Y-77161517I0J-268517D01*
G01*
X304112000Y-78074483D01*
G75*
G02*
X303843483Y-78343000I-268517J0D01*
G01*
G37*
G36*
G01*
X303843483Y-84143000D02*
X300930517Y-84143000D01*
G75*
G02*
X300662000Y-83874483I0J268517D01*
G01*
X300662000Y-82961517D01*
G75*
G02*
X300930517Y-82693000I268517J0D01*
G01*
X303843483Y-82693000D01*
G75*
G02*
X304112000Y-82961517I0J-268517D01*
G01*
X304112000Y-83874483D01*
G75*
G02*
X303843483Y-84143000I-268517J0D01*
G01*
G37*
%TD*%
D13*
%TO.C,R15*%
X174625000Y-175133000D03*
D26*
X164465000Y-175133000D03*
%TD*%
D13*
%TO.C,R14*%
X174752000Y-157353000D03*
D26*
X164592000Y-157353000D03*
%TD*%
D27*
%TO.C,Q2*%
X203200000Y-164233000D03*
X203200000Y-169683000D03*
G36*
G01*
X205450000Y-176433000D02*
X200950000Y-176433000D01*
G75*
G02*
X200900000Y-176383000I0J50000D01*
G01*
X200900000Y-173883000D01*
G75*
G02*
X200950000Y-173833000I50000J0D01*
G01*
X205450000Y-173833000D01*
G75*
G02*
X205500000Y-173883000I0J-50000D01*
G01*
X205500000Y-176383000D01*
G75*
G02*
X205450000Y-176433000I-50000J0D01*
G01*
G37*
%TD*%
%TO.C,Q1*%
X203200000Y-145233000D03*
X203200000Y-150683000D03*
G36*
G01*
X205450000Y-157433000D02*
X200950000Y-157433000D01*
G75*
G02*
X200900000Y-157383000I0J50000D01*
G01*
X200900000Y-154883000D01*
G75*
G02*
X200950000Y-154833000I50000J0D01*
G01*
X205450000Y-154833000D01*
G75*
G02*
X205500000Y-154883000I0J-50000D01*
G01*
X205500000Y-157383000D01*
G75*
G02*
X205450000Y-157433000I-50000J0D01*
G01*
G37*
%TD*%
D12*
%TO.C,J3*%
X313182000Y-97028000D03*
X313182000Y-89408000D03*
X313182000Y-81788000D03*
%TD*%
D13*
%TO.C,D21*%
X153035000Y-90170000D03*
G36*
G01*
X153835000Y-98640000D02*
X152235000Y-98640000D01*
G75*
G02*
X152185000Y-98590000I0J50000D01*
G01*
X152185000Y-96990000D01*
G75*
G02*
X152235000Y-96940000I50000J0D01*
G01*
X153835000Y-96940000D01*
G75*
G02*
X153885000Y-96990000I0J-50000D01*
G01*
X153885000Y-98590000D01*
G75*
G02*
X153835000Y-98640000I-50000J0D01*
G01*
G37*
%TD*%
%TO.C,D20*%
X155575000Y-97790000D03*
G36*
G01*
X154775000Y-89320000D02*
X156375000Y-89320000D01*
G75*
G02*
X156425000Y-89370000I0J-50000D01*
G01*
X156425000Y-90970000D01*
G75*
G02*
X156375000Y-91020000I-50000J0D01*
G01*
X154775000Y-91020000D01*
G75*
G02*
X154725000Y-90970000I0J50000D01*
G01*
X154725000Y-89370000D01*
G75*
G02*
X154775000Y-89320000I50000J0D01*
G01*
G37*
%TD*%
%TO.C,D19*%
X170180000Y-90170000D03*
G36*
G01*
X170980000Y-98640000D02*
X169380000Y-98640000D01*
G75*
G02*
X169330000Y-98590000I0J50000D01*
G01*
X169330000Y-96990000D01*
G75*
G02*
X169380000Y-96940000I50000J0D01*
G01*
X170980000Y-96940000D01*
G75*
G02*
X171030000Y-96990000I0J-50000D01*
G01*
X171030000Y-98590000D01*
G75*
G02*
X170980000Y-98640000I-50000J0D01*
G01*
G37*
%TD*%
%TO.C,D18*%
X172720000Y-97790000D03*
G36*
G01*
X171920000Y-89320000D02*
X173520000Y-89320000D01*
G75*
G02*
X173570000Y-89370000I0J-50000D01*
G01*
X173570000Y-90970000D01*
G75*
G02*
X173520000Y-91020000I-50000J0D01*
G01*
X171920000Y-91020000D01*
G75*
G02*
X171870000Y-90970000I0J50000D01*
G01*
X171870000Y-89370000D01*
G75*
G02*
X171920000Y-89320000I50000J0D01*
G01*
G37*
%TD*%
%TO.C,D13*%
X150495000Y-97750000D03*
G36*
G01*
X149695000Y-89280000D02*
X151295000Y-89280000D01*
G75*
G02*
X151345000Y-89330000I0J-50000D01*
G01*
X151345000Y-90930000D01*
G75*
G02*
X151295000Y-90980000I-50000J0D01*
G01*
X149695000Y-90980000D01*
G75*
G02*
X149645000Y-90930000I0J50000D01*
G01*
X149645000Y-89330000D01*
G75*
G02*
X149695000Y-89280000I50000J0D01*
G01*
G37*
%TD*%
%TO.C,D12*%
X158115000Y-90130000D03*
G36*
G01*
X158915000Y-98600000D02*
X157315000Y-98600000D01*
G75*
G02*
X157265000Y-98550000I0J50000D01*
G01*
X157265000Y-96950000D01*
G75*
G02*
X157315000Y-96900000I50000J0D01*
G01*
X158915000Y-96900000D01*
G75*
G02*
X158965000Y-96950000I0J-50000D01*
G01*
X158965000Y-98550000D01*
G75*
G02*
X158915000Y-98600000I-50000J0D01*
G01*
G37*
%TD*%
%TO.C,D11*%
X167640000Y-97790000D03*
G36*
G01*
X166840000Y-89320000D02*
X168440000Y-89320000D01*
G75*
G02*
X168490000Y-89370000I0J-50000D01*
G01*
X168490000Y-90970000D01*
G75*
G02*
X168440000Y-91020000I-50000J0D01*
G01*
X166840000Y-91020000D01*
G75*
G02*
X166790000Y-90970000I0J50000D01*
G01*
X166790000Y-89370000D01*
G75*
G02*
X166840000Y-89320000I50000J0D01*
G01*
G37*
%TD*%
%TO.C,D10*%
X175260000Y-90170000D03*
G36*
G01*
X176060000Y-98640000D02*
X174460000Y-98640000D01*
G75*
G02*
X174410000Y-98590000I0J50000D01*
G01*
X174410000Y-96990000D01*
G75*
G02*
X174460000Y-96940000I50000J0D01*
G01*
X176060000Y-96940000D01*
G75*
G02*
X176110000Y-96990000I0J-50000D01*
G01*
X176110000Y-98590000D01*
G75*
G02*
X176060000Y-98640000I-50000J0D01*
G01*
G37*
%TD*%
%TO.C,D9*%
X112014000Y-104902000D03*
G36*
G01*
X112814000Y-113372000D02*
X111214000Y-113372000D01*
G75*
G02*
X111164000Y-113322000I0J50000D01*
G01*
X111164000Y-111722000D01*
G75*
G02*
X111214000Y-111672000I50000J0D01*
G01*
X112814000Y-111672000D01*
G75*
G02*
X112864000Y-111722000I0J-50000D01*
G01*
X112864000Y-113322000D01*
G75*
G02*
X112814000Y-113372000I-50000J0D01*
G01*
G37*
%TD*%
%TO.C,D8*%
X129413000Y-112522000D03*
G36*
G01*
X128613000Y-104052000D02*
X130213000Y-104052000D01*
G75*
G02*
X130263000Y-104102000I0J-50000D01*
G01*
X130263000Y-105702000D01*
G75*
G02*
X130213000Y-105752000I-50000J0D01*
G01*
X128613000Y-105752000D01*
G75*
G02*
X128563000Y-105702000I0J50000D01*
G01*
X128563000Y-104102000D01*
G75*
G02*
X128613000Y-104052000I50000J0D01*
G01*
G37*
%TD*%
%TO.C,D7*%
G36*
G01*
X89207000Y-96898000D02*
X89207000Y-99698000D01*
G75*
G02*
X89157000Y-99748000I-50000J0D01*
G01*
X86357000Y-99748000D01*
G75*
G02*
X86307000Y-99698000I0J50000D01*
G01*
X86307000Y-96898000D01*
G75*
G02*
X86357000Y-96848000I50000J0D01*
G01*
X89157000Y-96848000D01*
G75*
G02*
X89207000Y-96898000I0J-50000D01*
G01*
G37*
D28*
X82677000Y-98298000D03*
X77597000Y-98298000D03*
X72517000Y-98298000D03*
%TD*%
D29*
%TO.C,D6*%
X109347000Y-102108000D03*
G36*
G01*
X120457000Y-101208000D02*
X120457000Y-103008000D01*
G75*
G02*
X120407000Y-103058000I-50000J0D01*
G01*
X118607000Y-103058000D01*
G75*
G02*
X118557000Y-103008000I0J50000D01*
G01*
X118557000Y-101208000D01*
G75*
G02*
X118607000Y-101158000I50000J0D01*
G01*
X120407000Y-101158000D01*
G75*
G02*
X120457000Y-101208000I0J-50000D01*
G01*
G37*
%TD*%
%TO.C,D5*%
X122047000Y-102108000D03*
G36*
G01*
X133157000Y-101208000D02*
X133157000Y-103008000D01*
G75*
G02*
X133107000Y-103058000I-50000J0D01*
G01*
X131307000Y-103058000D01*
G75*
G02*
X131257000Y-103008000I0J50000D01*
G01*
X131257000Y-101208000D01*
G75*
G02*
X131307000Y-101158000I50000J0D01*
G01*
X133107000Y-101158000D01*
G75*
G02*
X133157000Y-101208000I0J-50000D01*
G01*
G37*
%TD*%
D27*
%TO.C,D4*%
X203200000Y-126233000D03*
G36*
G01*
X205450000Y-138433000D02*
X200950000Y-138433000D01*
G75*
G02*
X200900000Y-138383000I0J50000D01*
G01*
X200900000Y-135883000D01*
G75*
G02*
X200950000Y-135833000I50000J0D01*
G01*
X205450000Y-135833000D01*
G75*
G02*
X205500000Y-135883000I0J-50000D01*
G01*
X205500000Y-138383000D01*
G75*
G02*
X205450000Y-138433000I-50000J0D01*
G01*
G37*
%TD*%
%TO.C,D3*%
X203200000Y-88233000D03*
X203200000Y-93683000D03*
G36*
G01*
X205450000Y-100433000D02*
X200950000Y-100433000D01*
G75*
G02*
X200900000Y-100383000I0J50000D01*
G01*
X200900000Y-97883000D01*
G75*
G02*
X200950000Y-97833000I50000J0D01*
G01*
X205450000Y-97833000D01*
G75*
G02*
X205500000Y-97883000I0J-50000D01*
G01*
X205500000Y-100383000D01*
G75*
G02*
X205450000Y-100433000I-50000J0D01*
G01*
G37*
%TD*%
%TO.C,D2*%
X203200000Y-107233000D03*
G36*
G01*
X205450000Y-119433000D02*
X200950000Y-119433000D01*
G75*
G02*
X200900000Y-119383000I0J50000D01*
G01*
X200900000Y-116883000D01*
G75*
G02*
X200950000Y-116833000I50000J0D01*
G01*
X205450000Y-116833000D01*
G75*
G02*
X205500000Y-116883000I0J-50000D01*
G01*
X205500000Y-119383000D01*
G75*
G02*
X205450000Y-119433000I-50000J0D01*
G01*
G37*
%TD*%
%TO.C,D1*%
X203200000Y-69233000D03*
X203200000Y-74683000D03*
G36*
G01*
X205450000Y-81433000D02*
X200950000Y-81433000D01*
G75*
G02*
X200900000Y-81383000I0J50000D01*
G01*
X200900000Y-78883000D01*
G75*
G02*
X200950000Y-78833000I50000J0D01*
G01*
X205450000Y-78833000D01*
G75*
G02*
X205500000Y-78883000I0J-50000D01*
G01*
X205500000Y-81383000D01*
G75*
G02*
X205450000Y-81433000I-50000J0D01*
G01*
G37*
%TD*%
D26*
%TO.C,C54*%
X149265000Y-102235000D03*
G36*
G01*
X152615000Y-101435000D02*
X152615000Y-103035000D01*
G75*
G02*
X152565000Y-103085000I-50000J0D01*
G01*
X150965000Y-103085000D01*
G75*
G02*
X150915000Y-103035000I0J50000D01*
G01*
X150915000Y-101435000D01*
G75*
G02*
X150965000Y-101385000I50000J0D01*
G01*
X152565000Y-101385000D01*
G75*
G02*
X152615000Y-101435000I0J-50000D01*
G01*
G37*
%TD*%
%TO.C,C53*%
X156250000Y-102235000D03*
G36*
G01*
X159600000Y-101435000D02*
X159600000Y-103035000D01*
G75*
G02*
X159550000Y-103085000I-50000J0D01*
G01*
X157950000Y-103085000D01*
G75*
G02*
X157900000Y-103035000I0J50000D01*
G01*
X157900000Y-101435000D01*
G75*
G02*
X157950000Y-101385000I50000J0D01*
G01*
X159550000Y-101385000D01*
G75*
G02*
X159600000Y-101435000I0J-50000D01*
G01*
G37*
%TD*%
%TO.C,C52*%
X166410000Y-102362000D03*
G36*
G01*
X169760000Y-101562000D02*
X169760000Y-103162000D01*
G75*
G02*
X169710000Y-103212000I-50000J0D01*
G01*
X168110000Y-103212000D01*
G75*
G02*
X168060000Y-103162000I0J50000D01*
G01*
X168060000Y-101562000D01*
G75*
G02*
X168110000Y-101512000I50000J0D01*
G01*
X169710000Y-101512000D01*
G75*
G02*
X169760000Y-101562000I0J-50000D01*
G01*
G37*
%TD*%
%TO.C,C51*%
X173395000Y-102362000D03*
G36*
G01*
X176745000Y-101562000D02*
X176745000Y-103162000D01*
G75*
G02*
X176695000Y-103212000I-50000J0D01*
G01*
X175095000Y-103212000D01*
G75*
G02*
X175045000Y-103162000I0J50000D01*
G01*
X175045000Y-101562000D01*
G75*
G02*
X175095000Y-101512000I50000J0D01*
G01*
X176695000Y-101512000D01*
G75*
G02*
X176745000Y-101562000I0J-50000D01*
G01*
G37*
%TD*%
D15*
%TO.C,C47*%
X72597000Y-108458000D03*
G36*
G01*
X78847000Y-107258000D02*
X78847000Y-109658000D01*
G75*
G02*
X78797000Y-109708000I-50000J0D01*
G01*
X76397000Y-109708000D01*
G75*
G02*
X76347000Y-109658000I0J50000D01*
G01*
X76347000Y-107258000D01*
G75*
G02*
X76397000Y-107208000I50000J0D01*
G01*
X78797000Y-107208000D01*
G75*
G02*
X78847000Y-107258000I0J-50000D01*
G01*
G37*
%TD*%
D23*
%TO.C,C46*%
X100537000Y-105918000D03*
G36*
G01*
X106587000Y-104918000D02*
X106587000Y-106918000D01*
G75*
G02*
X106537000Y-106968000I-50000J0D01*
G01*
X104537000Y-106968000D01*
G75*
G02*
X104487000Y-106918000I0J50000D01*
G01*
X104487000Y-104918000D01*
G75*
G02*
X104537000Y-104868000I50000J0D01*
G01*
X106537000Y-104868000D01*
G75*
G02*
X106587000Y-104918000I0J-50000D01*
G01*
G37*
%TD*%
%TO.C,C45*%
X136097000Y-105918000D03*
G36*
G01*
X142147000Y-104918000D02*
X142147000Y-106918000D01*
G75*
G02*
X142097000Y-106968000I-50000J0D01*
G01*
X140097000Y-106968000D01*
G75*
G02*
X140047000Y-106918000I0J50000D01*
G01*
X140047000Y-104918000D01*
G75*
G02*
X140097000Y-104868000I50000J0D01*
G01*
X142097000Y-104868000D01*
G75*
G02*
X142147000Y-104918000I0J-50000D01*
G01*
G37*
%TD*%
D15*
%TO.C,C36*%
X211307000Y-163068000D03*
X233807000Y-163068000D03*
%TD*%
%TO.C,C20*%
X211307000Y-140208000D03*
X233807000Y-140208000D03*
%TD*%
D26*
%TO.C,C19*%
X176530000Y-171251250D03*
G36*
G01*
X175730000Y-167901250D02*
X177330000Y-167901250D01*
G75*
G02*
X177380000Y-167951250I0J-50000D01*
G01*
X177380000Y-169551250D01*
G75*
G02*
X177330000Y-169601250I-50000J0D01*
G01*
X175730000Y-169601250D01*
G75*
G02*
X175680000Y-169551250I0J50000D01*
G01*
X175680000Y-167951250D01*
G75*
G02*
X175730000Y-167901250I50000J0D01*
G01*
G37*
%TD*%
%TO.C,C18*%
X176530000Y-165536250D03*
G36*
G01*
X175730000Y-162186250D02*
X177330000Y-162186250D01*
G75*
G02*
X177380000Y-162236250I0J-50000D01*
G01*
X177380000Y-163836250D01*
G75*
G02*
X177330000Y-163886250I-50000J0D01*
G01*
X175730000Y-163886250D01*
G75*
G02*
X175680000Y-163836250I0J50000D01*
G01*
X175680000Y-162236250D01*
G75*
G02*
X175730000Y-162186250I50000J0D01*
G01*
G37*
%TD*%
%TO.C,C17*%
X176530000Y-153670000D03*
G36*
G01*
X175730000Y-150320000D02*
X177330000Y-150320000D01*
G75*
G02*
X177380000Y-150370000I0J-50000D01*
G01*
X177380000Y-151970000D01*
G75*
G02*
X177330000Y-152020000I-50000J0D01*
G01*
X175730000Y-152020000D01*
G75*
G02*
X175680000Y-151970000I0J50000D01*
G01*
X175680000Y-150370000D01*
G75*
G02*
X175730000Y-150320000I50000J0D01*
G01*
G37*
%TD*%
%TO.C,C16*%
X176530000Y-147955000D03*
G36*
G01*
X175730000Y-144605000D02*
X177330000Y-144605000D01*
G75*
G02*
X177380000Y-144655000I0J-50000D01*
G01*
X177380000Y-146255000D01*
G75*
G02*
X177330000Y-146305000I-50000J0D01*
G01*
X175730000Y-146305000D01*
G75*
G02*
X175680000Y-146255000I0J50000D01*
G01*
X175680000Y-144655000D01*
G75*
G02*
X175730000Y-144605000I50000J0D01*
G01*
G37*
%TD*%
M02*
