M48
; DRILL file {KiCad 5.99.0-unknown-1f9723c~101~ubuntu18.04.1} date Sat Jun 20 02:36:54 2020
; FORMAT={-:-/ absolute / inch / decimal}
; #@! TF.CreationDate,2020-06-20T02:36:54+03:00
; #@! TF.GenerationSoftware,Kicad,Pcbnew,5.99.0-unknown-1f9723c~101~ubuntu18.04.1
FMAT,2
INCH
T1C0.0157
T2C0.0276
T3C0.0300
T4C0.0315
T5C0.0354
T6C0.0374
T7C0.0394
T8C0.0472
T9C0.0551
T10C0.0591
T11C0.0787
T12C0.0866
%
G90
G05
T1
X2.575Y-7.72
X2.605Y-7.14
X2.605Y-7.36
X2.625Y-6.455
X2.645Y-6.485
X2.6501Y-6.8901
X2.7425Y-7.6925
X2.8078Y-7.5435
X2.85Y-6.46
X2.87Y-6.49
X2.89Y-6.865
X2.8922Y-6.8324
X2.895Y-7.355
X2.915Y-8.055
X2.915Y-8.215
X2.93Y-7.445
X2.965Y-7.85
X2.9875Y-7.4475
X3.005Y-6.945
X3.01Y-7.695
X3.03Y-6.97
X3.05Y-7.335
X3.089Y-7.3392
X3.1Y-6.515
X3.107Y-6.4732
X3.11Y-8.285
X3.2264Y-7.9255
X3.23Y-7.57
X3.23Y-7.795
X3.385Y-8.28
X3.41Y-6.49
X3.495Y-6.86
X3.6Y-6.125
X3.62Y-5.65
X3.62Y-8.055
X3.625Y-8.25
X3.665Y-7.555
X3.665Y-7.705
X3.695Y-6.93
X3.725Y-7.015
X3.725Y-7.925
X3.745Y-5.045
X3.745Y-5.15
X3.755Y-6.865
X3.775Y-5.28
X3.79Y-7.075
X3.8Y-7.815
X3.805Y-7.37
X3.815Y-7.59
X3.82Y-6.8
X3.88Y-7.07
X3.88Y-7.46
X3.89Y-6.73
X3.9Y-5.325
X3.905Y-5.52
X3.94Y-7.01
X3.95Y-7.73
X3.98Y-6.695
X4.045Y-6.755
X4.055Y-6.895
X4.065Y-7.34
X4.095Y-6.83
X4.105Y-6.145
X4.13Y-6.59
X4.13Y-6.745
X4.18Y-6.22
X4.2Y-7.15
X4.2Y-7.325
X4.205Y-8.145
X4.225Y-7.5
X4.245Y-6.555
X4.245Y-7.045
X4.2495Y-7.4224
X4.255Y-6.97
X4.2587Y-7.0013
X4.27Y-7.54
X4.2721Y-7.4005
X4.285Y-6.45
X4.2854Y-7.37
X4.325Y-7.37
X4.34Y-5.52
X4.355Y-7.34
X4.36Y-6.58
X4.455Y-7.36
X4.51Y-5.845
X4.54Y-7.805
X4.5463Y-6.5975
X4.5484Y-6.5346
X4.5487Y-6.566
X4.5496Y-6.6498
X4.55Y-5.87
X4.55Y-7.35
X4.555Y-5.54
X4.5654Y-6.6225
X4.5704Y-6.6744
X4.5764Y-6.7161
X4.58Y-5.85
X4.605Y-6.145
X4.61Y-6.195
X4.6139Y-5.2998
X4.645Y-5.305
X4.655Y-6.105
X4.68Y-6.73
X4.68Y-7.445
X4.68Y-7.495
X4.7Y-7.415
X4.705Y-7.47
X4.72Y-6.55
X4.73Y-7.27
X4.734Y-7.0846
X4.76Y-6.81
X4.775Y-6.75
X4.775Y-6.875
X4.8Y-7.11
X4.805Y-6.8995
X4.82Y-7.82
X4.8246Y-7.0789
X4.8308Y-6.9241
X4.8469Y-6.5549
X4.8569Y-6.9688
X4.8583Y-7.0767
X4.8599Y-7.018
X4.8618Y-6.9318
X4.8708Y-6.5796
X4.8716Y-7.0477
X4.8743Y-6.6288
X4.8783Y-6.9924
X4.89Y-6.705
X4.8952Y-6.6548
X4.8969Y-6.603
X4.905Y-7.445
X4.905Y-7.495
X4.916Y-6.6804
X4.92Y-7.415
X4.93Y-7.47
X4.98Y-8.145
X5.01Y-6.47
X5.01Y-6.545
X5.03Y-6.705
X5.055Y-7.495
X5.06Y-7.8
X5.07Y-6.57
X5.105Y-6.495
X5.11Y-6.895
X5.135Y-6.585
X5.145Y-6.62
X5.1502Y-6.6548
X5.17Y-5.185
X5.1709Y-7.4452
X5.18Y-8.145
X5.192Y-7.4698
X5.2Y-5.21
X5.2025Y-7.4147
X5.205Y-6.51
X5.225Y-7.285
X5.235Y-7.025
X5.2465Y-7.0854
X5.26Y-7.67
X5.2696Y-7.0
X5.2796Y-6.6804
X5.295Y-7.525
X5.3Y-7.02
X5.305Y-6.555
X5.3364Y-7.0484
X5.375Y-6.56
X5.385Y-6.94
X5.3999Y-7.0853
X5.405Y-7.445
X5.405Y-7.495
X5.435Y-6.945
X5.445Y-7.435
X5.45Y-6.555
X5.47Y-6.945
X5.505Y-7.695
X5.529Y-6.8162
X5.53Y-6.57
X5.56Y-6.555
X5.565Y-6.81
X5.595Y-6.535
X5.6Y-6.8
X5.655Y-7.695
X5.705Y-6.97
X5.7216Y-7.0484
X5.73Y-6.995
X5.7438Y-7.0238
X5.805Y-7.7
X5.815Y-5.31
X5.83Y-5.06
X6.0149Y-6.7041
X6.019Y-7.146
X6.025Y-7.2
X6.0395Y-6.729
X8.9141Y-6.0562
X8.945Y-6.05
T2
X4.58Y-4.7244
X4.58Y-4.9244
X7.0Y-4.62
X7.0Y-4.92
X6.5Y-3.65
X6.5Y-3.85
X5.825Y-3.6484
X5.825Y-3.8484
X3.78Y-4.7309
X3.78Y-4.9309
X5.65Y-3.65
X5.65Y-3.85
X5.15Y-3.6484
X5.15Y-3.8484
X7.0Y-3.65
X7.0Y-3.85
X6.325Y-3.65
X6.325Y-3.85
X4.975Y-3.65
X4.975Y-3.85
X7.0Y-5.095
X7.0Y-5.395
X4.475Y-3.6484
X4.475Y-3.8484
T3
X2.6581Y-4.8497
X2.6581Y-5.4403
X3.0519Y-4.8497
X3.0519Y-5.4403
T4
X2.6464Y-7.77
X2.655Y-5.845
X2.705Y-7.42
X2.7164Y-6.895
X2.8542Y-7.4208
X3.03Y-6.62
X3.08Y-6.07
X3.2141Y-6.3791
X3.23Y-6.295
X3.26Y-6.54
X3.3131Y-6.3457
X3.3292Y-6.5308
X3.33Y-7.695
X3.3381Y-5.9457
X3.355Y-7.445
X3.38Y-7.62
X3.405Y-7.97
X3.605Y-7.82
X3.68Y-5.97
X3.88Y-5.87
X3.93Y-6.595
X3.955Y-7.32
X3.98Y-5.07
X4.005Y-7.245
X4.03Y-6.395
X4.055Y-5.795
X4.055Y-7.695
X4.105Y-7.195
X4.13Y-8.045
X4.18Y-6.495
X4.2374Y-6.6413
X4.32Y-5.78
X4.3278Y-8.0487
X4.33Y-5.87
X4.355Y-6.345
X4.355Y-7.695
X4.455Y-5.145
X4.48Y-6.07
X4.48Y-7.295
X4.51Y-7.7388
X4.63Y-6.375
X4.655Y-7.87
X4.69Y-6.845
X4.73Y-5.445
X4.73Y-7.545
X4.755Y-5.895
X4.835Y-6.155
X5.13Y-5.77
X5.18Y-7.895
X5.27Y-5.97
X5.375Y-7.945
X5.38Y-5.895
X5.48Y-5.445
X5.48Y-7.32
X5.555Y-5.47
X5.635Y-6.08
X6.205Y-6.745
X6.23Y-5.945
X6.23Y-7.395
X6.23Y-8.02
X6.505Y-4.945
X6.505Y-5.395
X6.93Y-4.5287
X6.985Y-7.69
X6.9858Y-4.4873
X7.0Y-7.545
X7.025Y-7.335
X7.0518Y-7.5639
X7.0646Y-4.4458
X7.0713Y-7.411
X7.0816Y-4.4982
X7.1006Y-7.5382
X7.1077Y-7.3643
X7.115Y-7.835
X7.155Y-7.095
X7.1589Y-6.5245
X7.18Y-7.145
X7.1865Y-6.433
X7.219Y-6.0189
X7.23Y-5.32
X7.2317Y-5.6909
X7.2546Y-5.6407
X7.28Y-5.27
X7.311Y-5.6387
X7.355Y-6.72
X7.48Y-6.645
X7.48Y-7.395
X7.505Y-3.295
X7.505Y-6.32
X7.505Y-6.995
X7.73Y-3.295
X7.805Y-6.32
X7.805Y-6.645
X7.805Y-6.995
X7.805Y-7.395
X9.105Y-5.845
X9.105Y-5.92
X9.105Y-5.995
X9.105Y-6.07
X9.18Y-5.845
X9.18Y-5.92
X9.18Y-5.995
X9.18Y-6.07
X9.255Y-5.845
X9.255Y-5.92
X9.255Y-5.995
X9.255Y-6.07
X5.45Y-3.55
X5.45Y-3.85
X5.15Y-4.2484
X5.25Y-4.2484
X5.35Y-4.2484
X6.95Y-5.9516
X6.95Y-6.05
X5.4766Y-4.03
X5.575Y-4.03
X3.955Y-4.7259
X3.955Y-4.8259
X3.955Y-4.9259
X6.125Y-3.55
X6.125Y-3.85
X4.495Y-4.2484
X4.595Y-4.2484
X4.695Y-4.2484
X5.8766Y-4.025
X5.975Y-4.025
X6.475Y-7.15
X6.475Y-7.25
X6.475Y-7.35
X6.475Y-7.45
X6.775Y-7.15
X6.775Y-7.25
X6.775Y-7.35
X6.775Y-7.45
X5.55Y-3.55
X5.55Y-3.85
X6.7Y-3.55
X6.7Y-3.85
X4.43Y-4.7309
X4.43Y-4.8309
X4.43Y-4.9309
X6.95Y-7.8
X6.95Y-7.8984
X6.9Y-3.55
X6.9Y-3.85
X6.475Y-7.825
X6.475Y-7.925
X6.475Y-8.025
X6.475Y-8.125
X6.775Y-7.825
X6.775Y-7.925
X6.775Y-8.025
X6.775Y-8.125
X4.675Y-3.55
X4.675Y-3.85
X6.475Y-6.895
X6.875Y-6.895
X4.775Y-3.55
X4.775Y-3.85
X5.925Y-3.5484
X5.925Y-3.8484
X6.8Y-3.55
X6.8Y-3.85
X6.48Y-7.595
X6.88Y-7.595
X6.105Y-4.2484
X6.205Y-4.2484
X6.305Y-4.2484
X4.855Y-7.6825
X4.855Y-7.9825
X4.955Y-7.6825
X4.955Y-7.9825
X5.055Y-7.6825
X5.055Y-7.9825
X4.105Y-4.7309
X4.105Y-5.0309
X6.6Y-5.15
X6.6Y-5.25
X6.6Y-5.35
X6.9Y-5.15
X6.9Y-5.25
X6.9Y-5.35
X6.48Y-6.195
X6.88Y-6.195
X5.2016Y-4.025
X5.3Y-4.025
X6.8266Y-4.03
X6.925Y-4.03
X6.95Y-5.7266
X6.95Y-5.825
X6.95Y-6.4188
X6.95Y-6.5172
X4.575Y-3.5484
X4.575Y-3.8484
X6.025Y-3.55
X6.025Y-3.85
X6.95Y-7.35
X6.95Y-7.4484
X5.43Y-4.2484
X5.53Y-4.2484
X5.63Y-4.2484
X6.95Y-6.6437
X6.95Y-6.7422
X4.23Y-4.7309
X4.23Y-5.0309
X4.5516Y-4.025
X4.65Y-4.025
X4.875Y-3.5484
X4.875Y-3.8484
X6.475Y-5.75
X6.475Y-5.85
X6.475Y-5.95
X6.475Y-6.05
X6.775Y-5.75
X6.775Y-5.85
X6.775Y-5.95
X6.775Y-6.05
X4.785Y-4.2484
X4.885Y-4.2484
X4.985Y-4.2484
X6.49Y-4.25
X6.59Y-4.25
X6.69Y-4.25
X6.95Y-8.025
X6.95Y-8.1234
X6.1516Y-4.025
X6.25Y-4.025
X6.225Y-3.5484
X6.225Y-3.8484
X5.25Y-3.5484
X5.25Y-3.8484
X6.48Y-8.27
X6.88Y-8.27
X5.82Y-4.2484
X5.92Y-4.2484
X6.02Y-4.2484
X6.475Y-6.45
X6.475Y-6.55
X6.475Y-6.65
X6.475Y-6.75
X6.775Y-6.45
X6.775Y-6.55
X6.775Y-6.65
X6.775Y-6.75
X6.6Y-4.675
X6.6Y-4.775
X6.6Y-4.875
X6.9Y-4.675
X6.9Y-4.775
X6.9Y-4.875
X6.78Y-4.25
X6.88Y-4.25
X6.98Y-4.25
X4.8266Y-4.025
X4.925Y-4.025
X6.95Y-7.125
X6.95Y-7.2234
X5.35Y-3.5484
X5.35Y-3.8484
X6.5516Y-4.03
X6.65Y-4.03
X6.6Y-3.55
X6.6Y-3.85
T5
X4.53Y-4.545
X4.93Y-4.545
X3.655Y-4.7059
X3.655Y-5.1059
T6
X5.5347Y-8.22
X5.6331Y-8.22
X5.7316Y-8.22
X5.83Y-8.22
X4.0847Y-8.22
X4.1831Y-8.22
X4.2816Y-8.22
X4.38Y-8.22
T7
X9.63Y-5.195
X9.73Y-5.195
X6.0063Y-2.5313
X6.0063Y-3.3187
X6.2031Y-3.3187
X6.5969Y-3.3187
X6.7937Y-2.5313
X6.7937Y-3.3187
X3.805Y-5.395
X3.905Y-5.395
X3.63Y-7.345
X3.73Y-7.345
X12.155Y-4.97
X12.155Y-5.07
X9.58Y-6.47
X9.58Y-6.8637
X4.1331Y-4.4309
X4.33Y-4.4309
X8.255Y-8.195
X8.355Y-8.195
X4.955Y-7.22
X5.055Y-7.22
X8.88Y-5.77
X8.98Y-5.77
X4.6313Y-2.5313
X4.6313Y-3.3187
X4.8281Y-3.3187
X5.2219Y-3.3187
X5.4187Y-2.5313
X5.4187Y-3.3187
X11.2363Y-6.32
X11.63Y-6.32
X2.58Y-5.6716
X2.58Y-5.77
X9.655Y-5.845
X9.755Y-5.845
X2.9329Y-2.875
X2.9329Y-3.8868
X3.1297Y-3.8868
X3.7203Y-3.8868
X3.9171Y-2.875
X3.9171Y-3.8868
X10.48Y-5.77
X10.48Y-5.87
X8.23Y-6.545
X8.23Y-6.645
X8.23Y-5.795
X8.23Y-5.895
X4.905Y-6.3
X4.905Y-6.4
X5.005Y-6.3
X5.005Y-6.4
X5.105Y-6.3
X5.105Y-6.4
X5.205Y-6.3
X5.205Y-6.4
X5.305Y-6.3
X5.305Y-6.4
X5.405Y-6.3
X5.405Y-6.4
X4.9066Y-8.2188
X5.005Y-8.2188
X3.6831Y-4.4309
X3.88Y-4.4309
X9.58Y-7.595
X9.58Y-7.9887
X8.23Y-7.295
X8.23Y-7.395
X9.129Y-8.2513
X9.229Y-8.2513
X4.23Y-5.395
X4.33Y-5.395
X3.352Y-7.345
X3.452Y-7.345
X4.905Y-6.795
X5.005Y-6.795
X5.105Y-6.795
X5.205Y-6.795
T8
X3.845Y-4.64
X4.34Y-4.65
X4.735Y-4.65
X5.285Y-5.035
X7.03Y-5.32
X7.0518Y-4.82
X7.4331Y-3.4031
X7.48Y-3.695
X7.5336Y-2.8236
X7.555Y-2.47
X7.555Y-2.595
X7.705Y-3.12
X7.73Y-3.42
X7.78Y-3.695
X7.805Y-2.47
X7.805Y-2.845
X7.83Y-2.57
X9.805Y-6.32
X11.005Y-6.32
X12.305Y-3.995
X12.305Y-4.295
X12.305Y-4.595
X11.255Y-7.12
X11.8456Y-7.12
X11.255Y-7.62
X11.8456Y-7.62
X11.08Y-5.3794
X11.08Y-5.97
X11.83Y-5.3794
X11.83Y-5.97
X11.33Y-5.3794
X11.33Y-5.97
X8.4442Y-7.275
X9.33Y-7.275
X10.83Y-5.3794
X10.83Y-5.97
X11.255Y-7.37
X11.8456Y-7.37
X11.58Y-5.3794
X11.58Y-5.97
X9.805Y-8.12
X11.005Y-8.12
X9.805Y-7.17
X11.005Y-7.17
X11.855Y-3.2544
X11.855Y-3.845
X12.305Y-2.895
X12.305Y-3.195
X12.305Y-3.495
X11.48Y-2.445
X11.48Y-3.645
X2.83Y-4.3841
X2.83Y-4.5809
X11.48Y-3.82
X11.48Y-5.02
X11.255Y-8.12
X11.8456Y-8.12
X8.4442Y-6.375
X9.33Y-6.375
X2.88Y-5.77
X3.0769Y-5.77
X11.255Y-7.87
X11.8456Y-7.87
X8.4442Y-6.825
X9.33Y-6.825
X12.305Y-6.92
X12.305Y-7.22
X12.305Y-7.52
X12.305Y-7.82
X9.805Y-6.745
X11.005Y-6.745
X12.305Y-5.52
X12.305Y-5.82
X12.305Y-6.12
X12.305Y-6.42
X8.4442Y-7.725
X9.33Y-7.725
X9.805Y-7.695
X11.005Y-7.695
T9
X3.33Y-4.3809
X3.33Y-4.5809
X3.33Y-4.7809
X3.33Y-4.9809
T10
X8.0Y-6.2169
X8.0Y-6.4315
X8.0Y-6.6461
X8.0Y-2.4768
X8.0Y-2.6913
X8.0Y-2.9059
X8.0Y-3.2248
X8.0Y-3.4394
X8.0Y-3.6539
X8.0Y-3.9728
X8.0Y-4.402
X8.0Y-5.4689
X8.0Y-5.6835
X8.0Y-5.898
X8.0Y-6.965
X8.0Y-7.1795
X8.0Y-7.3941
X8.0Y-4.7209
X8.0Y-5.15
X8.0Y-7.713
X8.0Y-7.9276
X8.0Y-8.1421
T11
X9.58Y-7.795
X10.155Y-7.17
X11.58Y-4.295
T12
X8.725Y-4.5611
X9.1187Y-4.5611
X10.205Y-4.5561
X10.5987Y-4.5561
X8.725Y-3.0861
X9.1187Y-3.0861
X10.2113Y-3.0811
X10.605Y-3.0811
T0
M30
