%TF.GenerationSoftware,KiCad,Pcbnew,5.99.0-unknown-1f9723c~101~ubuntu18.04.1*%
%TF.CreationDate,2020-06-20T02:36:48+03:00*%
%TF.ProjectId,WaveUltrasonics,57617665-556c-4747-9261-736f6e696373,rev?*%
%TF.SameCoordinates,Original*%
%TF.FileFunction,Soldermask,Bot*%
%TF.FilePolarity,Negative*%
%FSLAX46Y46*%
G04 Gerber Fmt 4.6, Leading zero omitted, Abs format (unit mm)*
G04 Created by KiCad (PCBNEW 5.99.0-unknown-1f9723c~101~ubuntu18.04.1) date 2020-06-20 02:36:48*
%MOMM*%
%LPD*%
G01*
G04 APERTURE LIST*
%TA.AperFunction,Profile*%
%ADD10C,0.050000*%
%TD*%
%ADD11O,1.800000X1.800000*%
%ADD12C,1.624000*%
%ADD13C,1.900000*%
%ADD14O,1.700000X1.700000*%
%ADD15O,2.500000X2.500000*%
%ADD16C,2.500000*%
%ADD17O,1.500000X1.500000*%
%ADD18C,1.500000*%
%ADD19C,2.600000*%
%ADD20O,1.800000X2.050000*%
%ADD21O,1.800000X2.100000*%
%ADD22O,2.100000X1.800000*%
%ADD23C,2.100000*%
%ADD24C,4.100000*%
%ADD25C,1.600000*%
%ADD26C,1.700000*%
%ADD27O,4.600000X2.600000*%
%ADD28C,2.900000*%
%ADD29O,1.900000X1.900000*%
G04 APERTURE END LIST*
D10*
X246500000Y-96393000D02*
G75*
G03*
X246500000Y-96393000I-1500000J0D01*
G01*
X61500000Y-63000000D02*
G75*
G02*
X66500000Y-58000000I5000000J0D01*
G01*
X68000000Y-63000000D02*
G75*
G03*
X68000000Y-63000000I-1500000J0D01*
G01*
X68000000Y-208000000D02*
G75*
G03*
X68000000Y-208000000I-1500000J0D01*
G01*
X66500000Y-213000000D02*
G75*
G02*
X61500000Y-208000000I0J5000000D01*
G01*
X320000000Y-63000000D02*
G75*
G03*
X320000000Y-63000000I-1500000J0D01*
G01*
X320000000Y-208000000D02*
G75*
G03*
X320000000Y-208000000I-1500000J0D01*
G01*
X323500000Y-208000000D02*
G75*
G02*
X318500000Y-213000000I-5000000J0D01*
G01*
X318500000Y-58000000D02*
G75*
G02*
X323500000Y-63000000I0J-5000000D01*
G01*
X61500000Y-208000000D02*
X61500000Y-63000000D01*
X318500000Y-213000000D02*
X66500000Y-213000000D01*
X323500000Y-63000000D02*
X323500000Y-208000000D01*
X66500000Y-58000000D02*
X318500000Y-58000000D01*
D11*
%TO.C,J2*%
X137287000Y-160020000D03*
X137287000Y-162560000D03*
X134747000Y-160020000D03*
X134747000Y-162560000D03*
X132207000Y-160020000D03*
X132207000Y-162560000D03*
X129667000Y-160020000D03*
X129667000Y-162560000D03*
X127127000Y-160020000D03*
X127127000Y-162560000D03*
X124587000Y-160020000D03*
G36*
G01*
X125437000Y-163460000D02*
X123737000Y-163460000D01*
G75*
G02*
X123687000Y-163410000I0J50000D01*
G01*
X123687000Y-161710000D01*
G75*
G02*
X123737000Y-161660000I50000J0D01*
G01*
X125437000Y-161660000D01*
G75*
G02*
X125487000Y-161710000I0J-50000D01*
G01*
X125487000Y-163410000D01*
G75*
G02*
X125437000Y-163460000I-50000J0D01*
G01*
G37*
%TD*%
D12*
%TO.C,L1*%
X67517000Y-138183000D03*
X77517000Y-138183000D03*
X77517000Y-123183000D03*
X67517000Y-123183000D03*
%TD*%
D13*
%TO.C,T2*%
X74495000Y-98725250D03*
X79495000Y-98725250D03*
X94495000Y-98725250D03*
X99495000Y-98725250D03*
X99495000Y-73025250D03*
X74495000Y-73025250D03*
%TD*%
D14*
%TO.C,U15*%
X123317000Y-195135500D03*
X128397000Y-202755500D03*
X125857000Y-195135500D03*
X125857000Y-202755500D03*
X128397000Y-195135500D03*
G36*
G01*
X124117000Y-203605500D02*
X122517000Y-203605500D01*
G75*
G02*
X122467000Y-203555500I0J50000D01*
G01*
X122467000Y-201955500D01*
G75*
G02*
X122517000Y-201905500I50000J0D01*
G01*
X124117000Y-201905500D01*
G75*
G02*
X124167000Y-201955500I0J-50000D01*
G01*
X124167000Y-203555500D01*
G75*
G02*
X124117000Y-203605500I-50000J0D01*
G01*
G37*
%TD*%
D11*
%TO.C,TP14*%
X109982000Y-137033000D03*
G36*
G01*
X108292000Y-137933000D02*
X106592000Y-137933000D01*
G75*
G02*
X106542000Y-137883000I0J50000D01*
G01*
X106542000Y-136183000D01*
G75*
G02*
X106592000Y-136133000I50000J0D01*
G01*
X108292000Y-136133000D01*
G75*
G02*
X108342000Y-136183000I0J-50000D01*
G01*
X108342000Y-137883000D01*
G75*
G02*
X108292000Y-137933000I-50000J0D01*
G01*
G37*
%TD*%
%TO.C,TP13*%
X96647000Y-137033000D03*
G36*
G01*
X98337000Y-136133000D02*
X100037000Y-136133000D01*
G75*
G02*
X100087000Y-136183000I0J-50000D01*
G01*
X100087000Y-137883000D01*
G75*
G02*
X100037000Y-137933000I-50000J0D01*
G01*
X98337000Y-137933000D01*
G75*
G02*
X98287000Y-137883000I0J50000D01*
G01*
X98287000Y-136183000D01*
G75*
G02*
X98337000Y-136133000I50000J0D01*
G01*
G37*
%TD*%
D15*
%TO.C,R77*%
X249047000Y-171323000D03*
D16*
X279527000Y-171323000D03*
%TD*%
D15*
%TO.C,R76*%
X249047000Y-182118000D03*
D16*
X279527000Y-182118000D03*
%TD*%
D15*
%TO.C,R75*%
X249047000Y-160528000D03*
D16*
X279527000Y-160528000D03*
%TD*%
D15*
%TO.C,R74*%
X291592000Y-62103000D03*
D16*
X291592000Y-92583000D03*
%TD*%
D15*
%TO.C,R73*%
X291592000Y-127508000D03*
D16*
X291592000Y-97028000D03*
%TD*%
D17*
%TO.C,R2*%
X177800000Y-137033000D03*
D18*
X177800000Y-129413000D03*
%TD*%
D17*
%TO.C,R1*%
X177800000Y-124968000D03*
D18*
X177800000Y-117348000D03*
%TD*%
D19*
%TO.C,J10*%
X312547000Y-163068000D03*
X312547000Y-155448000D03*
X312547000Y-147828000D03*
X312547000Y-140208000D03*
%TD*%
%TO.C,J9*%
X312547000Y-198628000D03*
X312547000Y-191008000D03*
X312547000Y-183388000D03*
X312547000Y-175768000D03*
%TD*%
D20*
%TO.C,J8*%
X140582000Y-208788000D03*
X143082000Y-208788000D03*
X145582000Y-208788000D03*
G36*
G01*
X148982000Y-208027705D02*
X148982000Y-209548295D01*
G75*
G02*
X148717295Y-209813000I-264705J0D01*
G01*
X147446705Y-209813000D01*
G75*
G02*
X147182000Y-209548295I0J264705D01*
G01*
X147182000Y-208027705D01*
G75*
G02*
X147446705Y-207763000I264705J0D01*
G01*
X148717295Y-207763000D01*
G75*
G02*
X148982000Y-208027705I0J-264705D01*
G01*
G37*
%TD*%
D21*
%TO.C,J7*%
X124627000Y-208758000D03*
G36*
G01*
X128027000Y-207972705D02*
X128027000Y-209543295D01*
G75*
G02*
X127762295Y-209808000I-264705J0D01*
G01*
X126491705Y-209808000D01*
G75*
G02*
X126227000Y-209543295I0J264705D01*
G01*
X126227000Y-207972705D01*
G75*
G02*
X126491705Y-207708000I264705J0D01*
G01*
X127762295Y-207708000D01*
G75*
G02*
X128027000Y-207972705I0J-264705D01*
G01*
G37*
%TD*%
D20*
%TO.C,J6*%
X103752000Y-208788000D03*
X106252000Y-208788000D03*
X108752000Y-208788000D03*
G36*
G01*
X112152000Y-208027705D02*
X112152000Y-209548295D01*
G75*
G02*
X111887295Y-209813000I-264705J0D01*
G01*
X110616705Y-209813000D01*
G75*
G02*
X110352000Y-209548295I0J264705D01*
G01*
X110352000Y-208027705D01*
G75*
G02*
X110616705Y-207763000I264705J0D01*
G01*
X111887295Y-207763000D01*
G75*
G02*
X112152000Y-208027705I0J-264705D01*
G01*
G37*
%TD*%
D22*
%TO.C,J4*%
X65532000Y-144058000D03*
G36*
G01*
X66317295Y-147458000D02*
X64746705Y-147458000D01*
G75*
G02*
X64482000Y-147193295I0J264705D01*
G01*
X64482000Y-145922705D01*
G75*
G02*
X64746705Y-145658000I264705J0D01*
G01*
X66317295Y-145658000D01*
G75*
G02*
X66582000Y-145922705I0J-264705D01*
G01*
X66582000Y-147193295D01*
G75*
G02*
X66317295Y-147458000I-264705J0D01*
G01*
G37*
%TD*%
D16*
%TO.C,C76*%
X78152000Y-146558000D03*
G36*
G01*
X71902000Y-147758000D02*
X71902000Y-145358000D01*
G75*
G02*
X71952000Y-145308000I50000J0D01*
G01*
X74352000Y-145308000D01*
G75*
G02*
X74402000Y-145358000I0J-50000D01*
G01*
X74402000Y-147758000D01*
G75*
G02*
X74352000Y-147808000I-50000J0D01*
G01*
X71952000Y-147808000D01*
G75*
G02*
X71902000Y-147758000I0J50000D01*
G01*
G37*
%TD*%
D23*
%TO.C,C73*%
X285402000Y-160528000D03*
X295402000Y-160528000D03*
%TD*%
D16*
%TO.C,C72*%
X300877000Y-180848000D03*
X285877000Y-180848000D03*
%TD*%
D24*
%TO.C,C69*%
X259207000Y-115726000D03*
G36*
G01*
X271257000Y-113726000D02*
X271257000Y-117726000D01*
G75*
G02*
X271207000Y-117776000I-50000J0D01*
G01*
X267207000Y-117776000D01*
G75*
G02*
X267157000Y-117726000I0J50000D01*
G01*
X267157000Y-113726000D01*
G75*
G02*
X267207000Y-113676000I50000J0D01*
G01*
X271207000Y-113676000D01*
G75*
G02*
X271257000Y-113726000I0J-50000D01*
G01*
G37*
%TD*%
D16*
%TO.C,C35*%
X300877000Y-206248000D03*
X285877000Y-206248000D03*
%TD*%
%TO.C,C33*%
X300877000Y-199898000D03*
X285877000Y-199898000D03*
%TD*%
%TO.C,C31*%
X300877000Y-193548000D03*
X285877000Y-193548000D03*
%TD*%
%TO.C,C29*%
X300877000Y-187198000D03*
X285877000Y-187198000D03*
%TD*%
D11*
%TO.C,J5*%
X132207000Y-172593000D03*
X129667000Y-172593000D03*
X127127000Y-172593000D03*
G36*
G01*
X125437000Y-173493000D02*
X123737000Y-173493000D01*
G75*
G02*
X123687000Y-173443000I0J50000D01*
G01*
X123687000Y-171743000D01*
G75*
G02*
X123737000Y-171693000I50000J0D01*
G01*
X125437000Y-171693000D01*
G75*
G02*
X125487000Y-171743000I0J-50000D01*
G01*
X125487000Y-173443000D01*
G75*
G02*
X125437000Y-173493000I-50000J0D01*
G01*
G37*
%TD*%
D14*
%TO.C,U8*%
X172085000Y-146050000D03*
X164465000Y-153670000D03*
X172085000Y-148590000D03*
X164465000Y-151130000D03*
X172085000Y-151130000D03*
X164465000Y-148590000D03*
X172085000Y-153670000D03*
G36*
G01*
X163615000Y-146850000D02*
X163615000Y-145250000D01*
G75*
G02*
X163665000Y-145200000I50000J0D01*
G01*
X165265000Y-145200000D01*
G75*
G02*
X165315000Y-145250000I0J-50000D01*
G01*
X165315000Y-146850000D01*
G75*
G02*
X165265000Y-146900000I-50000J0D01*
G01*
X163665000Y-146900000D01*
G75*
G02*
X163615000Y-146850000I0J50000D01*
G01*
G37*
%TD*%
%TO.C,Q14*%
G36*
G01*
X118503000Y-107110000D02*
X120003000Y-107110000D01*
G75*
G02*
X120053000Y-107160000I0J-50000D01*
G01*
X120053000Y-108660000D01*
G75*
G02*
X120003000Y-108710000I-50000J0D01*
G01*
X118503000Y-108710000D01*
G75*
G02*
X118453000Y-108660000I0J50000D01*
G01*
X118453000Y-107160000D01*
G75*
G02*
X118503000Y-107110000I50000J0D01*
G01*
G37*
D25*
X114173000Y-107910000D03*
X116713000Y-107910000D03*
%TD*%
%TO.C,Q13*%
G36*
G01*
X125869000Y-107110000D02*
X127369000Y-107110000D01*
G75*
G02*
X127419000Y-107160000I0J-50000D01*
G01*
X127419000Y-108660000D01*
G75*
G02*
X127369000Y-108710000I-50000J0D01*
G01*
X125869000Y-108710000D01*
G75*
G02*
X125819000Y-108660000I0J50000D01*
G01*
X125819000Y-107160000D01*
G75*
G02*
X125869000Y-107110000I50000J0D01*
G01*
G37*
X121539000Y-107910000D03*
X124079000Y-107910000D03*
%TD*%
%TO.C,Q12*%
G36*
G01*
X135140000Y-107110000D02*
X136640000Y-107110000D01*
G75*
G02*
X136690000Y-107160000I0J-50000D01*
G01*
X136690000Y-108660000D01*
G75*
G02*
X136640000Y-108710000I-50000J0D01*
G01*
X135140000Y-108710000D01*
G75*
G02*
X135090000Y-108660000I0J50000D01*
G01*
X135090000Y-107160000D01*
G75*
G02*
X135140000Y-107110000I50000J0D01*
G01*
G37*
X130810000Y-107910000D03*
X133350000Y-107910000D03*
%TD*%
%TO.C,Q11*%
G36*
G01*
X142252000Y-107110000D02*
X143752000Y-107110000D01*
G75*
G02*
X143802000Y-107160000I0J-50000D01*
G01*
X143802000Y-108660000D01*
G75*
G02*
X143752000Y-108710000I-50000J0D01*
G01*
X142252000Y-108710000D01*
G75*
G02*
X142202000Y-108660000I0J50000D01*
G01*
X142202000Y-107160000D01*
G75*
G02*
X142252000Y-107110000I50000J0D01*
G01*
G37*
X137922000Y-107910000D03*
X140462000Y-107910000D03*
%TD*%
%TO.C,Q10*%
G36*
G01*
X152158000Y-107110000D02*
X153658000Y-107110000D01*
G75*
G02*
X153708000Y-107160000I0J-50000D01*
G01*
X153708000Y-108660000D01*
G75*
G02*
X153658000Y-108710000I-50000J0D01*
G01*
X152158000Y-108710000D01*
G75*
G02*
X152108000Y-108660000I0J50000D01*
G01*
X152108000Y-107160000D01*
G75*
G02*
X152158000Y-107110000I50000J0D01*
G01*
G37*
X147828000Y-107910000D03*
X150368000Y-107910000D03*
%TD*%
%TO.C,Q9*%
G36*
G01*
X159397000Y-107110000D02*
X160897000Y-107110000D01*
G75*
G02*
X160947000Y-107160000I0J-50000D01*
G01*
X160947000Y-108660000D01*
G75*
G02*
X160897000Y-108710000I-50000J0D01*
G01*
X159397000Y-108710000D01*
G75*
G02*
X159347000Y-108660000I0J50000D01*
G01*
X159347000Y-107160000D01*
G75*
G02*
X159397000Y-107110000I50000J0D01*
G01*
G37*
X155067000Y-107910000D03*
X157607000Y-107910000D03*
%TD*%
%TO.C,Q8*%
G36*
G01*
X169176000Y-107150000D02*
X170676000Y-107150000D01*
G75*
G02*
X170726000Y-107200000I0J-50000D01*
G01*
X170726000Y-108700000D01*
G75*
G02*
X170676000Y-108750000I-50000J0D01*
G01*
X169176000Y-108750000D01*
G75*
G02*
X169126000Y-108700000I0J50000D01*
G01*
X169126000Y-107200000D01*
G75*
G02*
X169176000Y-107150000I50000J0D01*
G01*
G37*
X164846000Y-107950000D03*
X167386000Y-107950000D03*
%TD*%
%TO.C,Q7*%
G36*
G01*
X176542000Y-107150000D02*
X178042000Y-107150000D01*
G75*
G02*
X178092000Y-107200000I0J-50000D01*
G01*
X178092000Y-108700000D01*
G75*
G02*
X178042000Y-108750000I-50000J0D01*
G01*
X176542000Y-108750000D01*
G75*
G02*
X176492000Y-108700000I0J50000D01*
G01*
X176492000Y-107200000D01*
G75*
G02*
X176542000Y-107150000I50000J0D01*
G01*
G37*
X172212000Y-107950000D03*
X174752000Y-107950000D03*
%TD*%
%TO.C,Q6*%
G36*
G01*
X101257000Y-124368250D02*
X101257000Y-125868250D01*
G75*
G02*
X101207000Y-125918250I-50000J0D01*
G01*
X99707000Y-125918250D01*
G75*
G02*
X99657000Y-125868250I0J50000D01*
G01*
X99657000Y-124368250D01*
G75*
G02*
X99707000Y-124318250I50000J0D01*
G01*
X101207000Y-124318250D01*
G75*
G02*
X101257000Y-124368250I0J-50000D01*
G01*
G37*
X100457000Y-120038250D03*
X100457000Y-122578250D03*
%TD*%
%TO.C,Q5*%
G36*
G01*
X113322000Y-124495250D02*
X113322000Y-125995250D01*
G75*
G02*
X113272000Y-126045250I-50000J0D01*
G01*
X111772000Y-126045250D01*
G75*
G02*
X111722000Y-125995250I0J50000D01*
G01*
X111722000Y-124495250D01*
G75*
G02*
X111772000Y-124445250I50000J0D01*
G01*
X113272000Y-124445250D01*
G75*
G02*
X113322000Y-124495250I0J-50000D01*
G01*
G37*
X112522000Y-120165250D03*
X112522000Y-122705250D03*
%TD*%
D11*
%TO.C,TP12*%
X125857000Y-183388000D03*
G36*
G01*
X127547000Y-182488000D02*
X129247000Y-182488000D01*
G75*
G02*
X129297000Y-182538000I0J-50000D01*
G01*
X129297000Y-184238000D01*
G75*
G02*
X129247000Y-184288000I-50000J0D01*
G01*
X127547000Y-184288000D01*
G75*
G02*
X127497000Y-184238000I0J50000D01*
G01*
X127497000Y-182538000D01*
G75*
G02*
X127547000Y-182488000I50000J0D01*
G01*
G37*
%TD*%
D16*
%TO.C,C38*%
X214482000Y-196215000D03*
X236982000Y-196215000D03*
%TD*%
%TO.C,C21*%
X214482000Y-173355000D03*
X236982000Y-173355000D03*
%TD*%
D24*
%TO.C,C3*%
X231615000Y-78388000D03*
G36*
G01*
X219565000Y-80388000D02*
X219565000Y-76388000D01*
G75*
G02*
X219615000Y-76338000I50000J0D01*
G01*
X223615000Y-76338000D01*
G75*
G02*
X223665000Y-76388000I0J-50000D01*
G01*
X223665000Y-80388000D01*
G75*
G02*
X223615000Y-80438000I-50000J0D01*
G01*
X219615000Y-80438000D01*
G75*
G02*
X219565000Y-80388000I0J50000D01*
G01*
G37*
%TD*%
%TO.C,C2*%
G36*
G01*
X271417000Y-76261000D02*
X271417000Y-80261000D01*
G75*
G02*
X271367000Y-80311000I-50000J0D01*
G01*
X267367000Y-80311000D01*
G75*
G02*
X267317000Y-80261000I0J50000D01*
G01*
X267317000Y-76261000D01*
G75*
G02*
X267367000Y-76211000I50000J0D01*
G01*
X271367000Y-76211000D01*
G75*
G02*
X271417000Y-76261000I0J-50000D01*
G01*
G37*
X259367000Y-78261000D03*
%TD*%
%TO.C,C1*%
X231615000Y-115853000D03*
G36*
G01*
X219565000Y-117853000D02*
X219565000Y-113853000D01*
G75*
G02*
X219615000Y-113803000I50000J0D01*
G01*
X223615000Y-113803000D01*
G75*
G02*
X223665000Y-113853000I0J-50000D01*
G01*
X223665000Y-117853000D01*
G75*
G02*
X223615000Y-117903000I-50000J0D01*
G01*
X219615000Y-117903000D01*
G75*
G02*
X219565000Y-117853000I0J50000D01*
G01*
G37*
%TD*%
D11*
%TO.C,TP11*%
X308737000Y-126238000D03*
G36*
G01*
X309637000Y-127928000D02*
X309637000Y-129628000D01*
G75*
G02*
X309587000Y-129678000I-50000J0D01*
G01*
X307887000Y-129678000D01*
G75*
G02*
X307837000Y-129628000I0J50000D01*
G01*
X307837000Y-127928000D01*
G75*
G02*
X307887000Y-127878000I50000J0D01*
G01*
X309587000Y-127878000D01*
G75*
G02*
X309637000Y-127928000I0J-50000D01*
G01*
G37*
%TD*%
%TO.C,TP10*%
X212217000Y-208153000D03*
G36*
G01*
X210527000Y-209053000D02*
X208827000Y-209053000D01*
G75*
G02*
X208777000Y-209003000I0J50000D01*
G01*
X208777000Y-207303000D01*
G75*
G02*
X208827000Y-207253000I50000J0D01*
G01*
X210527000Y-207253000D01*
G75*
G02*
X210577000Y-207303000I0J-50000D01*
G01*
X210577000Y-209003000D01*
G75*
G02*
X210527000Y-209053000I-50000J0D01*
G01*
G37*
%TD*%
%TO.C,TP9*%
X209042000Y-185293000D03*
G36*
G01*
X209942000Y-186983000D02*
X209942000Y-188683000D01*
G75*
G02*
X209892000Y-188733000I-50000J0D01*
G01*
X208192000Y-188733000D01*
G75*
G02*
X208142000Y-188683000I0J50000D01*
G01*
X208142000Y-186983000D01*
G75*
G02*
X208192000Y-186933000I50000J0D01*
G01*
X209892000Y-186933000D01*
G75*
G02*
X209942000Y-186983000I0J-50000D01*
G01*
G37*
%TD*%
%TO.C,TP8*%
X234417000Y-209583000D03*
G36*
G01*
X232727000Y-210483000D02*
X231027000Y-210483000D01*
G75*
G02*
X230977000Y-210433000I0J50000D01*
G01*
X230977000Y-208733000D01*
G75*
G02*
X231027000Y-208683000I50000J0D01*
G01*
X232727000Y-208683000D01*
G75*
G02*
X232777000Y-208733000I0J-50000D01*
G01*
X232777000Y-210433000D01*
G75*
G02*
X232727000Y-210483000I-50000J0D01*
G01*
G37*
%TD*%
%TO.C,TP7*%
X245237000Y-148463000D03*
G36*
G01*
X246927000Y-147563000D02*
X248627000Y-147563000D01*
G75*
G02*
X248677000Y-147613000I0J-50000D01*
G01*
X248677000Y-149313000D01*
G75*
G02*
X248627000Y-149363000I-50000J0D01*
G01*
X246927000Y-149363000D01*
G75*
G02*
X246877000Y-149313000I0J50000D01*
G01*
X246877000Y-147613000D01*
G75*
G02*
X246927000Y-147563000I50000J0D01*
G01*
G37*
%TD*%
%TO.C,TP6*%
X266192000Y-149098000D03*
G36*
G01*
X265292000Y-147408000D02*
X265292000Y-145708000D01*
G75*
G02*
X265342000Y-145658000I50000J0D01*
G01*
X267042000Y-145658000D01*
G75*
G02*
X267092000Y-145708000I0J-50000D01*
G01*
X267092000Y-147408000D01*
G75*
G02*
X267042000Y-147458000I-50000J0D01*
G01*
X265342000Y-147458000D01*
G75*
G02*
X265292000Y-147408000I0J50000D01*
G01*
G37*
%TD*%
%TO.C,TP5*%
X209042000Y-168783000D03*
G36*
G01*
X208142000Y-167093000D02*
X208142000Y-165393000D01*
G75*
G02*
X208192000Y-165343000I50000J0D01*
G01*
X209892000Y-165343000D01*
G75*
G02*
X209942000Y-165393000I0J-50000D01*
G01*
X209942000Y-167093000D01*
G75*
G02*
X209892000Y-167143000I-50000J0D01*
G01*
X208192000Y-167143000D01*
G75*
G02*
X208142000Y-167093000I0J50000D01*
G01*
G37*
%TD*%
%TO.C,TP4*%
X209042000Y-149733000D03*
G36*
G01*
X208142000Y-148043000D02*
X208142000Y-146343000D01*
G75*
G02*
X208192000Y-146293000I50000J0D01*
G01*
X209892000Y-146293000D01*
G75*
G02*
X209942000Y-146343000I0J-50000D01*
G01*
X209942000Y-148043000D01*
G75*
G02*
X209892000Y-148093000I-50000J0D01*
G01*
X208192000Y-148093000D01*
G75*
G02*
X208142000Y-148043000I0J50000D01*
G01*
G37*
%TD*%
%TO.C,TP3*%
X225552000Y-146558000D03*
G36*
G01*
X227242000Y-145658000D02*
X228942000Y-145658000D01*
G75*
G02*
X228992000Y-145708000I0J-50000D01*
G01*
X228992000Y-147408000D01*
G75*
G02*
X228942000Y-147458000I-50000J0D01*
G01*
X227242000Y-147458000D01*
G75*
G02*
X227192000Y-147408000I0J50000D01*
G01*
X227192000Y-145708000D01*
G75*
G02*
X227242000Y-145658000I50000J0D01*
G01*
G37*
%TD*%
%TO.C,TP2*%
X94742000Y-186563000D03*
G36*
G01*
X93052000Y-187463000D02*
X91352000Y-187463000D01*
G75*
G02*
X91302000Y-187413000I0J50000D01*
G01*
X91302000Y-185713000D01*
G75*
G02*
X91352000Y-185663000I50000J0D01*
G01*
X93052000Y-185663000D01*
G75*
G02*
X93102000Y-185713000I0J-50000D01*
G01*
X93102000Y-187413000D01*
G75*
G02*
X93052000Y-187463000I-50000J0D01*
G01*
G37*
%TD*%
%TO.C,TP1*%
X247142000Y-131953000D03*
G36*
G01*
X245452000Y-132853000D02*
X243752000Y-132853000D01*
G75*
G02*
X243702000Y-132803000I0J50000D01*
G01*
X243702000Y-131103000D01*
G75*
G02*
X243752000Y-131053000I50000J0D01*
G01*
X245452000Y-131053000D01*
G75*
G02*
X245502000Y-131103000I0J-50000D01*
G01*
X245502000Y-132803000D01*
G75*
G02*
X245452000Y-132853000I-50000J0D01*
G01*
G37*
%TD*%
D15*
%TO.C,R25*%
X249047000Y-195453000D03*
D16*
X279527000Y-195453000D03*
%TD*%
D15*
%TO.C,R19*%
X249047000Y-206248000D03*
D16*
X279527000Y-206248000D03*
%TD*%
D11*
%TO.C,JP1*%
X85142000Y-186563000D03*
G36*
G01*
X86832000Y-185663000D02*
X88532000Y-185663000D01*
G75*
G02*
X88582000Y-185713000I0J-50000D01*
G01*
X88582000Y-187413000D01*
G75*
G02*
X88532000Y-187463000I-50000J0D01*
G01*
X86832000Y-187463000D01*
G75*
G02*
X86782000Y-187413000I0J50000D01*
G01*
X86782000Y-185713000D01*
G75*
G02*
X86832000Y-185663000I50000J0D01*
G01*
G37*
%TD*%
D23*
%TO.C,C37*%
X243332000Y-202913000D03*
X243332000Y-192913000D03*
%TD*%
D16*
%TO.C,C34*%
X294132000Y-136638000D03*
X294132000Y-151638000D03*
%TD*%
%TO.C,C32*%
X281432000Y-136638000D03*
X281432000Y-151638000D03*
%TD*%
%TO.C,C30*%
X300482000Y-136638000D03*
X300482000Y-151638000D03*
%TD*%
%TO.C,C28*%
X287782000Y-136638000D03*
X287782000Y-151638000D03*
%TD*%
%TO.C,C27*%
X275082000Y-136638000D03*
X275082000Y-151638000D03*
%TD*%
%TO.C,C25*%
X301117000Y-82663000D03*
X301117000Y-97663000D03*
%TD*%
D23*
%TO.C,C23*%
X243332000Y-174338000D03*
X243332000Y-164338000D03*
%TD*%
D14*
%TO.C,U11*%
X172085000Y-198755000D03*
X164465000Y-206375000D03*
X172085000Y-201295000D03*
X164465000Y-203835000D03*
X172085000Y-203835000D03*
X164465000Y-201295000D03*
X172085000Y-206375000D03*
G36*
G01*
X163615000Y-199555000D02*
X163615000Y-197955000D01*
G75*
G02*
X163665000Y-197905000I50000J0D01*
G01*
X165265000Y-197905000D01*
G75*
G02*
X165315000Y-197955000I0J-50000D01*
G01*
X165315000Y-199555000D01*
G75*
G02*
X165265000Y-199605000I-50000J0D01*
G01*
X163665000Y-199605000D01*
G75*
G02*
X163615000Y-199555000I0J50000D01*
G01*
G37*
%TD*%
%TO.C,U10*%
X172085000Y-181610000D03*
X164465000Y-189230000D03*
X172085000Y-184150000D03*
X164465000Y-186690000D03*
X172085000Y-186690000D03*
X164465000Y-184150000D03*
X172085000Y-189230000D03*
G36*
G01*
X163615000Y-182410000D02*
X163615000Y-180810000D01*
G75*
G02*
X163665000Y-180760000I50000J0D01*
G01*
X165265000Y-180760000D01*
G75*
G02*
X165315000Y-180810000I0J-50000D01*
G01*
X165315000Y-182410000D01*
G75*
G02*
X165265000Y-182460000I-50000J0D01*
G01*
X163665000Y-182460000D01*
G75*
G02*
X163615000Y-182410000I0J50000D01*
G01*
G37*
%TD*%
%TO.C,U9*%
X172085000Y-163830000D03*
X164465000Y-171450000D03*
X172085000Y-166370000D03*
X164465000Y-168910000D03*
X172085000Y-168910000D03*
X164465000Y-166370000D03*
X172085000Y-171450000D03*
G36*
G01*
X163615000Y-164630000D02*
X163615000Y-163030000D01*
G75*
G02*
X163665000Y-162980000I50000J0D01*
G01*
X165265000Y-162980000D01*
G75*
G02*
X165315000Y-163030000I0J-50000D01*
G01*
X165315000Y-164630000D01*
G75*
G02*
X165265000Y-164680000I-50000J0D01*
G01*
X163665000Y-164680000D01*
G75*
G02*
X163615000Y-164630000I0J50000D01*
G01*
G37*
%TD*%
%TO.C,U2*%
X175260000Y-130810000D03*
X167640000Y-135890000D03*
X175260000Y-133350000D03*
X167640000Y-133350000D03*
X175260000Y-135890000D03*
G36*
G01*
X166790000Y-131610000D02*
X166790000Y-130010000D01*
G75*
G02*
X166840000Y-129960000I50000J0D01*
G01*
X168440000Y-129960000D01*
G75*
G02*
X168490000Y-130010000I0J-50000D01*
G01*
X168490000Y-131610000D01*
G75*
G02*
X168440000Y-131660000I-50000J0D01*
G01*
X166840000Y-131660000D01*
G75*
G02*
X166790000Y-131610000I0J50000D01*
G01*
G37*
%TD*%
%TO.C,U1*%
X175260000Y-118745000D03*
X167640000Y-123825000D03*
X175260000Y-121285000D03*
X167640000Y-121285000D03*
X175260000Y-123825000D03*
G36*
G01*
X166790000Y-119545000D02*
X166790000Y-117945000D01*
G75*
G02*
X166840000Y-117895000I50000J0D01*
G01*
X168440000Y-117895000D01*
G75*
G02*
X168490000Y-117945000I0J-50000D01*
G01*
X168490000Y-119545000D01*
G75*
G02*
X168440000Y-119595000I-50000J0D01*
G01*
X166840000Y-119595000D01*
G75*
G02*
X166790000Y-119545000I0J50000D01*
G01*
G37*
%TD*%
D13*
%TO.C,T4*%
X117635000Y-84295000D03*
X122635000Y-84295000D03*
X132635000Y-84295000D03*
X137635000Y-84295000D03*
X137635000Y-64295000D03*
X117635000Y-64295000D03*
%TD*%
%TO.C,T3*%
X152560000Y-84295000D03*
X157560000Y-84295000D03*
X167560000Y-84295000D03*
X172560000Y-84295000D03*
X172560000Y-64295000D03*
X152560000Y-64295000D03*
%TD*%
D17*
%TO.C,R46*%
X113665000Y-97750000D03*
D18*
X113665000Y-92670000D03*
%TD*%
D17*
%TO.C,R45*%
X126365000Y-92710000D03*
D18*
X126365000Y-97790000D03*
%TD*%
D17*
%TO.C,R44*%
X130810000Y-97750000D03*
D18*
X130810000Y-92670000D03*
%TD*%
D17*
%TO.C,R43*%
X143510000Y-92710000D03*
D18*
X143510000Y-97790000D03*
%TD*%
D17*
%TO.C,R42*%
X147955000Y-97750000D03*
D18*
X147955000Y-92670000D03*
%TD*%
D17*
%TO.C,R41*%
X160655000Y-92710000D03*
D18*
X160655000Y-97790000D03*
%TD*%
D17*
%TO.C,R40*%
X165100000Y-97790000D03*
D18*
X165100000Y-92710000D03*
%TD*%
D17*
%TO.C,R39*%
X177800000Y-92710000D03*
D18*
X177800000Y-97790000D03*
%TD*%
D17*
%TO.C,R38*%
X96012000Y-120165250D03*
D18*
X96012000Y-125245250D03*
%TD*%
D17*
%TO.C,R37*%
X116332000Y-125080000D03*
D18*
X116332000Y-120000000D03*
%TD*%
D14*
%TO.C,R32*%
X164592000Y-210058000D03*
D26*
X174752000Y-210058000D03*
%TD*%
D14*
%TO.C,R31*%
X164592000Y-192913000D03*
D26*
X174752000Y-192913000D03*
%TD*%
D14*
%TO.C,R15*%
X174625000Y-175133000D03*
D26*
X164465000Y-175133000D03*
%TD*%
D14*
%TO.C,R14*%
X174752000Y-157353000D03*
D26*
X164592000Y-157353000D03*
%TD*%
%TO.C,Q4*%
G36*
G01*
X205450000Y-208110000D02*
X200950000Y-208110000D01*
G75*
G02*
X200900000Y-208060000I0J50000D01*
G01*
X200900000Y-205560000D01*
G75*
G02*
X200950000Y-205510000I50000J0D01*
G01*
X205450000Y-205510000D01*
G75*
G02*
X205500000Y-205560000I0J-50000D01*
G01*
X205500000Y-208060000D01*
G75*
G02*
X205450000Y-208110000I-50000J0D01*
G01*
G37*
D27*
X203200000Y-201360000D03*
X203200000Y-195910000D03*
%TD*%
%TO.C,Q3*%
X203200000Y-176910000D03*
X203200000Y-182360000D03*
G36*
G01*
X205450000Y-189110000D02*
X200950000Y-189110000D01*
G75*
G02*
X200900000Y-189060000I0J50000D01*
G01*
X200900000Y-186560000D01*
G75*
G02*
X200950000Y-186510000I50000J0D01*
G01*
X205450000Y-186510000D01*
G75*
G02*
X205500000Y-186560000I0J-50000D01*
G01*
X205500000Y-189060000D01*
G75*
G02*
X205450000Y-189110000I-50000J0D01*
G01*
G37*
%TD*%
%TO.C,Q2*%
X203200000Y-157910000D03*
X203200000Y-163360000D03*
G36*
G01*
X205450000Y-170110000D02*
X200950000Y-170110000D01*
G75*
G02*
X200900000Y-170060000I0J50000D01*
G01*
X200900000Y-167560000D01*
G75*
G02*
X200950000Y-167510000I50000J0D01*
G01*
X205450000Y-167510000D01*
G75*
G02*
X205500000Y-167560000I0J-50000D01*
G01*
X205500000Y-170060000D01*
G75*
G02*
X205450000Y-170110000I-50000J0D01*
G01*
G37*
%TD*%
%TO.C,Q1*%
X203200000Y-138910000D03*
X203200000Y-144360000D03*
G36*
G01*
X205450000Y-151110000D02*
X200950000Y-151110000D01*
G75*
G02*
X200900000Y-151060000I0J50000D01*
G01*
X200900000Y-148560000D01*
G75*
G02*
X200950000Y-148510000I50000J0D01*
G01*
X205450000Y-148510000D01*
G75*
G02*
X205500000Y-148560000I0J-50000D01*
G01*
X205500000Y-151060000D01*
G75*
G02*
X205450000Y-151110000I-50000J0D01*
G01*
G37*
%TD*%
D19*
%TO.C,J3*%
X312547000Y-116713000D03*
X312547000Y-109093000D03*
X312547000Y-101473000D03*
%TD*%
%TO.C,J1*%
X312547000Y-88773000D03*
X312547000Y-81153000D03*
X312547000Y-73533000D03*
%TD*%
D14*
%TO.C,D25*%
X118745000Y-90170000D03*
G36*
G01*
X119545000Y-98640000D02*
X117945000Y-98640000D01*
G75*
G02*
X117895000Y-98590000I0J50000D01*
G01*
X117895000Y-96990000D01*
G75*
G02*
X117945000Y-96940000I50000J0D01*
G01*
X119545000Y-96940000D01*
G75*
G02*
X119595000Y-96990000I0J-50000D01*
G01*
X119595000Y-98590000D01*
G75*
G02*
X119545000Y-98640000I-50000J0D01*
G01*
G37*
%TD*%
%TO.C,D24*%
X121285000Y-97790000D03*
G36*
G01*
X120485000Y-89320000D02*
X122085000Y-89320000D01*
G75*
G02*
X122135000Y-89370000I0J-50000D01*
G01*
X122135000Y-90970000D01*
G75*
G02*
X122085000Y-91020000I-50000J0D01*
G01*
X120485000Y-91020000D01*
G75*
G02*
X120435000Y-90970000I0J50000D01*
G01*
X120435000Y-89370000D01*
G75*
G02*
X120485000Y-89320000I50000J0D01*
G01*
G37*
%TD*%
%TO.C,D23*%
X135890000Y-90130000D03*
G36*
G01*
X136690000Y-98600000D02*
X135090000Y-98600000D01*
G75*
G02*
X135040000Y-98550000I0J50000D01*
G01*
X135040000Y-96950000D01*
G75*
G02*
X135090000Y-96900000I50000J0D01*
G01*
X136690000Y-96900000D01*
G75*
G02*
X136740000Y-96950000I0J-50000D01*
G01*
X136740000Y-98550000D01*
G75*
G02*
X136690000Y-98600000I-50000J0D01*
G01*
G37*
%TD*%
%TO.C,D22*%
X138430000Y-97790000D03*
G36*
G01*
X137630000Y-89320000D02*
X139230000Y-89320000D01*
G75*
G02*
X139280000Y-89370000I0J-50000D01*
G01*
X139280000Y-90970000D01*
G75*
G02*
X139230000Y-91020000I-50000J0D01*
G01*
X137630000Y-91020000D01*
G75*
G02*
X137580000Y-90970000I0J50000D01*
G01*
X137580000Y-89370000D01*
G75*
G02*
X137630000Y-89320000I50000J0D01*
G01*
G37*
%TD*%
%TO.C,D21*%
X153035000Y-90170000D03*
G36*
G01*
X153835000Y-98640000D02*
X152235000Y-98640000D01*
G75*
G02*
X152185000Y-98590000I0J50000D01*
G01*
X152185000Y-96990000D01*
G75*
G02*
X152235000Y-96940000I50000J0D01*
G01*
X153835000Y-96940000D01*
G75*
G02*
X153885000Y-96990000I0J-50000D01*
G01*
X153885000Y-98590000D01*
G75*
G02*
X153835000Y-98640000I-50000J0D01*
G01*
G37*
%TD*%
%TO.C,D20*%
X155575000Y-97790000D03*
G36*
G01*
X154775000Y-89320000D02*
X156375000Y-89320000D01*
G75*
G02*
X156425000Y-89370000I0J-50000D01*
G01*
X156425000Y-90970000D01*
G75*
G02*
X156375000Y-91020000I-50000J0D01*
G01*
X154775000Y-91020000D01*
G75*
G02*
X154725000Y-90970000I0J50000D01*
G01*
X154725000Y-89370000D01*
G75*
G02*
X154775000Y-89320000I50000J0D01*
G01*
G37*
%TD*%
%TO.C,D19*%
X170180000Y-90170000D03*
G36*
G01*
X170980000Y-98640000D02*
X169380000Y-98640000D01*
G75*
G02*
X169330000Y-98590000I0J50000D01*
G01*
X169330000Y-96990000D01*
G75*
G02*
X169380000Y-96940000I50000J0D01*
G01*
X170980000Y-96940000D01*
G75*
G02*
X171030000Y-96990000I0J-50000D01*
G01*
X171030000Y-98590000D01*
G75*
G02*
X170980000Y-98640000I-50000J0D01*
G01*
G37*
%TD*%
%TO.C,D18*%
X172720000Y-97790000D03*
G36*
G01*
X171920000Y-89320000D02*
X173520000Y-89320000D01*
G75*
G02*
X173570000Y-89370000I0J-50000D01*
G01*
X173570000Y-90970000D01*
G75*
G02*
X173520000Y-91020000I-50000J0D01*
G01*
X171920000Y-91020000D01*
G75*
G02*
X171870000Y-90970000I0J50000D01*
G01*
X171870000Y-89370000D01*
G75*
G02*
X171920000Y-89320000I50000J0D01*
G01*
G37*
%TD*%
%TO.C,D17*%
X116205000Y-97750000D03*
G36*
G01*
X115405000Y-89280000D02*
X117005000Y-89280000D01*
G75*
G02*
X117055000Y-89330000I0J-50000D01*
G01*
X117055000Y-90930000D01*
G75*
G02*
X117005000Y-90980000I-50000J0D01*
G01*
X115405000Y-90980000D01*
G75*
G02*
X115355000Y-90930000I0J50000D01*
G01*
X115355000Y-89330000D01*
G75*
G02*
X115405000Y-89280000I50000J0D01*
G01*
G37*
%TD*%
%TO.C,D16*%
X123825000Y-90130000D03*
G36*
G01*
X124625000Y-98600000D02*
X123025000Y-98600000D01*
G75*
G02*
X122975000Y-98550000I0J50000D01*
G01*
X122975000Y-96950000D01*
G75*
G02*
X123025000Y-96900000I50000J0D01*
G01*
X124625000Y-96900000D01*
G75*
G02*
X124675000Y-96950000I0J-50000D01*
G01*
X124675000Y-98550000D01*
G75*
G02*
X124625000Y-98600000I-50000J0D01*
G01*
G37*
%TD*%
%TO.C,D15*%
X133350000Y-97750000D03*
G36*
G01*
X132550000Y-89280000D02*
X134150000Y-89280000D01*
G75*
G02*
X134200000Y-89330000I0J-50000D01*
G01*
X134200000Y-90930000D01*
G75*
G02*
X134150000Y-90980000I-50000J0D01*
G01*
X132550000Y-90980000D01*
G75*
G02*
X132500000Y-90930000I0J50000D01*
G01*
X132500000Y-89330000D01*
G75*
G02*
X132550000Y-89280000I50000J0D01*
G01*
G37*
%TD*%
%TO.C,D14*%
X140970000Y-90170000D03*
G36*
G01*
X141770000Y-98640000D02*
X140170000Y-98640000D01*
G75*
G02*
X140120000Y-98590000I0J50000D01*
G01*
X140120000Y-96990000D01*
G75*
G02*
X140170000Y-96940000I50000J0D01*
G01*
X141770000Y-96940000D01*
G75*
G02*
X141820000Y-96990000I0J-50000D01*
G01*
X141820000Y-98590000D01*
G75*
G02*
X141770000Y-98640000I-50000J0D01*
G01*
G37*
%TD*%
%TO.C,D13*%
X150495000Y-97750000D03*
G36*
G01*
X149695000Y-89280000D02*
X151295000Y-89280000D01*
G75*
G02*
X151345000Y-89330000I0J-50000D01*
G01*
X151345000Y-90930000D01*
G75*
G02*
X151295000Y-90980000I-50000J0D01*
G01*
X149695000Y-90980000D01*
G75*
G02*
X149645000Y-90930000I0J50000D01*
G01*
X149645000Y-89330000D01*
G75*
G02*
X149695000Y-89280000I50000J0D01*
G01*
G37*
%TD*%
%TO.C,D12*%
X158115000Y-90130000D03*
G36*
G01*
X158915000Y-98600000D02*
X157315000Y-98600000D01*
G75*
G02*
X157265000Y-98550000I0J50000D01*
G01*
X157265000Y-96950000D01*
G75*
G02*
X157315000Y-96900000I50000J0D01*
G01*
X158915000Y-96900000D01*
G75*
G02*
X158965000Y-96950000I0J-50000D01*
G01*
X158965000Y-98550000D01*
G75*
G02*
X158915000Y-98600000I-50000J0D01*
G01*
G37*
%TD*%
%TO.C,D11*%
X167640000Y-97790000D03*
G36*
G01*
X166840000Y-89320000D02*
X168440000Y-89320000D01*
G75*
G02*
X168490000Y-89370000I0J-50000D01*
G01*
X168490000Y-90970000D01*
G75*
G02*
X168440000Y-91020000I-50000J0D01*
G01*
X166840000Y-91020000D01*
G75*
G02*
X166790000Y-90970000I0J50000D01*
G01*
X166790000Y-89370000D01*
G75*
G02*
X166840000Y-89320000I50000J0D01*
G01*
G37*
%TD*%
%TO.C,D10*%
X175260000Y-90170000D03*
G36*
G01*
X176060000Y-98640000D02*
X174460000Y-98640000D01*
G75*
G02*
X174410000Y-98590000I0J50000D01*
G01*
X174410000Y-96990000D01*
G75*
G02*
X174460000Y-96940000I50000J0D01*
G01*
X176060000Y-96940000D01*
G75*
G02*
X176110000Y-96990000I0J-50000D01*
G01*
X176110000Y-98590000D01*
G75*
G02*
X176060000Y-98640000I-50000J0D01*
G01*
G37*
%TD*%
%TO.C,D9*%
X104267000Y-127785250D03*
G36*
G01*
X103467000Y-119315250D02*
X105067000Y-119315250D01*
G75*
G02*
X105117000Y-119365250I0J-50000D01*
G01*
X105117000Y-120965250D01*
G75*
G02*
X105067000Y-121015250I-50000J0D01*
G01*
X103467000Y-121015250D01*
G75*
G02*
X103417000Y-120965250I0J50000D01*
G01*
X103417000Y-119365250D01*
G75*
G02*
X103467000Y-119315250I50000J0D01*
G01*
G37*
%TD*%
%TO.C,D8*%
X107442000Y-120165250D03*
G36*
G01*
X108242000Y-128635250D02*
X106642000Y-128635250D01*
G75*
G02*
X106592000Y-128585250I0J50000D01*
G01*
X106592000Y-126985250D01*
G75*
G02*
X106642000Y-126935250I50000J0D01*
G01*
X108242000Y-126935250D01*
G75*
G02*
X108292000Y-126985250I0J-50000D01*
G01*
X108292000Y-128585250D01*
G75*
G02*
X108242000Y-128635250I-50000J0D01*
G01*
G37*
%TD*%
%TO.C,D7*%
G36*
G01*
X85982000Y-127965250D02*
X83182000Y-127965250D01*
G75*
G02*
X83132000Y-127915250I0J50000D01*
G01*
X83132000Y-125115250D01*
G75*
G02*
X83182000Y-125065250I50000J0D01*
G01*
X85982000Y-125065250D01*
G75*
G02*
X86032000Y-125115250I0J-50000D01*
G01*
X86032000Y-127915250D01*
G75*
G02*
X85982000Y-127965250I-50000J0D01*
G01*
G37*
D28*
X84582000Y-121435250D03*
X84582000Y-116355250D03*
X84582000Y-111275250D03*
%TD*%
D29*
%TO.C,D6*%
X92837000Y-129690250D03*
G36*
G01*
X91937000Y-118580250D02*
X93737000Y-118580250D01*
G75*
G02*
X93787000Y-118630250I0J-50000D01*
G01*
X93787000Y-120430250D01*
G75*
G02*
X93737000Y-120480250I-50000J0D01*
G01*
X91937000Y-120480250D01*
G75*
G02*
X91887000Y-120430250I0J50000D01*
G01*
X91887000Y-118630250D01*
G75*
G02*
X91937000Y-118580250I50000J0D01*
G01*
G37*
%TD*%
%TO.C,D5*%
X115062000Y-115443000D03*
G36*
G01*
X126172000Y-114543000D02*
X126172000Y-116343000D01*
G75*
G02*
X126122000Y-116393000I-50000J0D01*
G01*
X124322000Y-116393000D01*
G75*
G02*
X124272000Y-116343000I0J50000D01*
G01*
X124272000Y-114543000D01*
G75*
G02*
X124322000Y-114493000I50000J0D01*
G01*
X126122000Y-114493000D01*
G75*
G02*
X126172000Y-114543000I0J-50000D01*
G01*
G37*
%TD*%
D27*
%TO.C,D4*%
X203200000Y-119910000D03*
G36*
G01*
X205450000Y-132110000D02*
X200950000Y-132110000D01*
G75*
G02*
X200900000Y-132060000I0J50000D01*
G01*
X200900000Y-129560000D01*
G75*
G02*
X200950000Y-129510000I50000J0D01*
G01*
X205450000Y-129510000D01*
G75*
G02*
X205500000Y-129560000I0J-50000D01*
G01*
X205500000Y-132060000D01*
G75*
G02*
X205450000Y-132110000I-50000J0D01*
G01*
G37*
%TD*%
%TO.C,D3*%
X203200000Y-81910000D03*
X203200000Y-87360000D03*
G36*
G01*
X205450000Y-94110000D02*
X200950000Y-94110000D01*
G75*
G02*
X200900000Y-94060000I0J50000D01*
G01*
X200900000Y-91560000D01*
G75*
G02*
X200950000Y-91510000I50000J0D01*
G01*
X205450000Y-91510000D01*
G75*
G02*
X205500000Y-91560000I0J-50000D01*
G01*
X205500000Y-94060000D01*
G75*
G02*
X205450000Y-94110000I-50000J0D01*
G01*
G37*
%TD*%
%TO.C,D2*%
X203200000Y-100910000D03*
G36*
G01*
X205450000Y-113110000D02*
X200950000Y-113110000D01*
G75*
G02*
X200900000Y-113060000I0J50000D01*
G01*
X200900000Y-110560000D01*
G75*
G02*
X200950000Y-110510000I50000J0D01*
G01*
X205450000Y-110510000D01*
G75*
G02*
X205500000Y-110560000I0J-50000D01*
G01*
X205500000Y-113060000D01*
G75*
G02*
X205450000Y-113110000I-50000J0D01*
G01*
G37*
%TD*%
%TO.C,D1*%
X203200000Y-62910000D03*
X203200000Y-68360000D03*
G36*
G01*
X205450000Y-75110000D02*
X200950000Y-75110000D01*
G75*
G02*
X200900000Y-75060000I0J50000D01*
G01*
X200900000Y-72560000D01*
G75*
G02*
X200950000Y-72510000I50000J0D01*
G01*
X205450000Y-72510000D01*
G75*
G02*
X205500000Y-72560000I0J-50000D01*
G01*
X205500000Y-75060000D01*
G75*
G02*
X205450000Y-75110000I-50000J0D01*
G01*
G37*
%TD*%
D26*
%TO.C,C58*%
X115610000Y-102235000D03*
G36*
G01*
X118960000Y-101435000D02*
X118960000Y-103035000D01*
G75*
G02*
X118910000Y-103085000I-50000J0D01*
G01*
X117310000Y-103085000D01*
G75*
G02*
X117260000Y-103035000I0J50000D01*
G01*
X117260000Y-101435000D01*
G75*
G02*
X117310000Y-101385000I50000J0D01*
G01*
X118910000Y-101385000D01*
G75*
G02*
X118960000Y-101435000I0J-50000D01*
G01*
G37*
%TD*%
%TO.C,C57*%
X122595000Y-102235000D03*
G36*
G01*
X125945000Y-101435000D02*
X125945000Y-103035000D01*
G75*
G02*
X125895000Y-103085000I-50000J0D01*
G01*
X124295000Y-103085000D01*
G75*
G02*
X124245000Y-103035000I0J50000D01*
G01*
X124245000Y-101435000D01*
G75*
G02*
X124295000Y-101385000I50000J0D01*
G01*
X125895000Y-101385000D01*
G75*
G02*
X125945000Y-101435000I0J-50000D01*
G01*
G37*
%TD*%
%TO.C,C56*%
X132120000Y-102235000D03*
G36*
G01*
X135470000Y-101435000D02*
X135470000Y-103035000D01*
G75*
G02*
X135420000Y-103085000I-50000J0D01*
G01*
X133820000Y-103085000D01*
G75*
G02*
X133770000Y-103035000I0J50000D01*
G01*
X133770000Y-101435000D01*
G75*
G02*
X133820000Y-101385000I50000J0D01*
G01*
X135420000Y-101385000D01*
G75*
G02*
X135470000Y-101435000I0J-50000D01*
G01*
G37*
%TD*%
%TO.C,C55*%
X139105000Y-102362000D03*
G36*
G01*
X142455000Y-101562000D02*
X142455000Y-103162000D01*
G75*
G02*
X142405000Y-103212000I-50000J0D01*
G01*
X140805000Y-103212000D01*
G75*
G02*
X140755000Y-103162000I0J50000D01*
G01*
X140755000Y-101562000D01*
G75*
G02*
X140805000Y-101512000I50000J0D01*
G01*
X142405000Y-101512000D01*
G75*
G02*
X142455000Y-101562000I0J-50000D01*
G01*
G37*
%TD*%
%TO.C,C54*%
X149265000Y-102235000D03*
G36*
G01*
X152615000Y-101435000D02*
X152615000Y-103035000D01*
G75*
G02*
X152565000Y-103085000I-50000J0D01*
G01*
X150965000Y-103085000D01*
G75*
G02*
X150915000Y-103035000I0J50000D01*
G01*
X150915000Y-101435000D01*
G75*
G02*
X150965000Y-101385000I50000J0D01*
G01*
X152565000Y-101385000D01*
G75*
G02*
X152615000Y-101435000I0J-50000D01*
G01*
G37*
%TD*%
%TO.C,C53*%
X156250000Y-102235000D03*
G36*
G01*
X159600000Y-101435000D02*
X159600000Y-103035000D01*
G75*
G02*
X159550000Y-103085000I-50000J0D01*
G01*
X157950000Y-103085000D01*
G75*
G02*
X157900000Y-103035000I0J50000D01*
G01*
X157900000Y-101435000D01*
G75*
G02*
X157950000Y-101385000I50000J0D01*
G01*
X159550000Y-101385000D01*
G75*
G02*
X159600000Y-101435000I0J-50000D01*
G01*
G37*
%TD*%
%TO.C,C52*%
X166410000Y-102362000D03*
G36*
G01*
X169760000Y-101562000D02*
X169760000Y-103162000D01*
G75*
G02*
X169710000Y-103212000I-50000J0D01*
G01*
X168110000Y-103212000D01*
G75*
G02*
X168060000Y-103162000I0J50000D01*
G01*
X168060000Y-101562000D01*
G75*
G02*
X168110000Y-101512000I50000J0D01*
G01*
X169710000Y-101512000D01*
G75*
G02*
X169760000Y-101562000I0J-50000D01*
G01*
G37*
%TD*%
%TO.C,C51*%
X173395000Y-102362000D03*
G36*
G01*
X176745000Y-101562000D02*
X176745000Y-103162000D01*
G75*
G02*
X176695000Y-103212000I-50000J0D01*
G01*
X175095000Y-103212000D01*
G75*
G02*
X175045000Y-103162000I0J50000D01*
G01*
X175045000Y-101562000D01*
G75*
G02*
X175095000Y-101512000I50000J0D01*
G01*
X176695000Y-101512000D01*
G75*
G02*
X176745000Y-101562000I0J-50000D01*
G01*
G37*
%TD*%
D16*
%TO.C,C47*%
X71882000Y-111355250D03*
G36*
G01*
X73082000Y-117605250D02*
X70682000Y-117605250D01*
G75*
G02*
X70632000Y-117555250I0J50000D01*
G01*
X70632000Y-115155250D01*
G75*
G02*
X70682000Y-115105250I50000J0D01*
G01*
X73082000Y-115105250D01*
G75*
G02*
X73132000Y-115155250I0J-50000D01*
G01*
X73132000Y-117555250D01*
G75*
G02*
X73082000Y-117605250I-50000J0D01*
G01*
G37*
%TD*%
D23*
%TO.C,C46*%
X93552000Y-112545250D03*
G36*
G01*
X99602000Y-111545250D02*
X99602000Y-113545250D01*
G75*
G02*
X99552000Y-113595250I-50000J0D01*
G01*
X97552000Y-113595250D01*
G75*
G02*
X97502000Y-113545250I0J50000D01*
G01*
X97502000Y-111545250D01*
G75*
G02*
X97552000Y-111495250I50000J0D01*
G01*
X99552000Y-111495250D01*
G75*
G02*
X99602000Y-111545250I0J-50000D01*
G01*
G37*
%TD*%
%TO.C,C45*%
X104982000Y-112545250D03*
G36*
G01*
X111032000Y-111545250D02*
X111032000Y-113545250D01*
G75*
G02*
X110982000Y-113595250I-50000J0D01*
G01*
X108982000Y-113595250D01*
G75*
G02*
X108932000Y-113545250I0J50000D01*
G01*
X108932000Y-111545250D01*
G75*
G02*
X108982000Y-111495250I50000J0D01*
G01*
X110982000Y-111495250D01*
G75*
G02*
X111032000Y-111545250I0J-50000D01*
G01*
G37*
%TD*%
D26*
%TO.C,C44*%
X176530000Y-206335000D03*
G36*
G01*
X175730000Y-202985000D02*
X177330000Y-202985000D01*
G75*
G02*
X177380000Y-203035000I0J-50000D01*
G01*
X177380000Y-204635000D01*
G75*
G02*
X177330000Y-204685000I-50000J0D01*
G01*
X175730000Y-204685000D01*
G75*
G02*
X175680000Y-204635000I0J50000D01*
G01*
X175680000Y-203035000D01*
G75*
G02*
X175730000Y-202985000I50000J0D01*
G01*
G37*
%TD*%
%TO.C,C43*%
X176530000Y-200620000D03*
G36*
G01*
X175730000Y-197270000D02*
X177330000Y-197270000D01*
G75*
G02*
X177380000Y-197320000I0J-50000D01*
G01*
X177380000Y-198920000D01*
G75*
G02*
X177330000Y-198970000I-50000J0D01*
G01*
X175730000Y-198970000D01*
G75*
G02*
X175680000Y-198920000I0J50000D01*
G01*
X175680000Y-197320000D01*
G75*
G02*
X175730000Y-197270000I50000J0D01*
G01*
G37*
%TD*%
%TO.C,C42*%
X176530000Y-189190000D03*
G36*
G01*
X175730000Y-185840000D02*
X177330000Y-185840000D01*
G75*
G02*
X177380000Y-185890000I0J-50000D01*
G01*
X177380000Y-187490000D01*
G75*
G02*
X177330000Y-187540000I-50000J0D01*
G01*
X175730000Y-187540000D01*
G75*
G02*
X175680000Y-187490000I0J50000D01*
G01*
X175680000Y-185890000D01*
G75*
G02*
X175730000Y-185840000I50000J0D01*
G01*
G37*
%TD*%
%TO.C,C41*%
X176530000Y-183475000D03*
G36*
G01*
X175730000Y-180125000D02*
X177330000Y-180125000D01*
G75*
G02*
X177380000Y-180175000I0J-50000D01*
G01*
X177380000Y-181775000D01*
G75*
G02*
X177330000Y-181825000I-50000J0D01*
G01*
X175730000Y-181825000D01*
G75*
G02*
X175680000Y-181775000I0J50000D01*
G01*
X175680000Y-180175000D01*
G75*
G02*
X175730000Y-180125000I50000J0D01*
G01*
G37*
%TD*%
D16*
%TO.C,C36*%
X214482000Y-184785000D03*
X236982000Y-184785000D03*
%TD*%
%TO.C,C20*%
X214482000Y-161925000D03*
X236982000Y-161925000D03*
%TD*%
D26*
%TO.C,C19*%
X176530000Y-171251250D03*
G36*
G01*
X175730000Y-167901250D02*
X177330000Y-167901250D01*
G75*
G02*
X177380000Y-167951250I0J-50000D01*
G01*
X177380000Y-169551250D01*
G75*
G02*
X177330000Y-169601250I-50000J0D01*
G01*
X175730000Y-169601250D01*
G75*
G02*
X175680000Y-169551250I0J50000D01*
G01*
X175680000Y-167951250D01*
G75*
G02*
X175730000Y-167901250I50000J0D01*
G01*
G37*
%TD*%
%TO.C,C18*%
X176530000Y-165536250D03*
G36*
G01*
X175730000Y-162186250D02*
X177330000Y-162186250D01*
G75*
G02*
X177380000Y-162236250I0J-50000D01*
G01*
X177380000Y-163836250D01*
G75*
G02*
X177330000Y-163886250I-50000J0D01*
G01*
X175730000Y-163886250D01*
G75*
G02*
X175680000Y-163836250I0J50000D01*
G01*
X175680000Y-162236250D01*
G75*
G02*
X175730000Y-162186250I50000J0D01*
G01*
G37*
%TD*%
%TO.C,C17*%
X176530000Y-153670000D03*
G36*
G01*
X175730000Y-150320000D02*
X177330000Y-150320000D01*
G75*
G02*
X177380000Y-150370000I0J-50000D01*
G01*
X177380000Y-151970000D01*
G75*
G02*
X177330000Y-152020000I-50000J0D01*
G01*
X175730000Y-152020000D01*
G75*
G02*
X175680000Y-151970000I0J50000D01*
G01*
X175680000Y-150370000D01*
G75*
G02*
X175730000Y-150320000I50000J0D01*
G01*
G37*
%TD*%
%TO.C,C16*%
X176530000Y-147955000D03*
G36*
G01*
X175730000Y-144605000D02*
X177330000Y-144605000D01*
G75*
G02*
X177380000Y-144655000I0J-50000D01*
G01*
X177380000Y-146255000D01*
G75*
G02*
X177330000Y-146305000I-50000J0D01*
G01*
X175730000Y-146305000D01*
G75*
G02*
X175680000Y-146255000I0J50000D01*
G01*
X175680000Y-144655000D01*
G75*
G02*
X175730000Y-144605000I50000J0D01*
G01*
G37*
%TD*%
M02*
