%TF.GenerationSoftware,KiCad,Pcbnew,5.99.0-unknown-1f9723c~101~ubuntu18.04.1*%
%TF.CreationDate,2020-06-08T02:15:51+03:00*%
%TF.ProjectId,WaveUltrasonics,57617665-556c-4747-9261-736f6e696373,rev?*%
%TF.SameCoordinates,Original*%
%TF.FileFunction,Legend,Bot*%
%TF.FilePolarity,Positive*%
%FSLAX46Y46*%
G04 Gerber Fmt 4.6, Leading zero omitted, Abs format (unit mm)*
G04 Created by KiCad (PCBNEW 5.99.0-unknown-1f9723c~101~ubuntu18.04.1) date 2020-06-08 02:15:51*
%MOMM*%
%LPD*%
G01*
G04 APERTURE LIST*
%ADD10C,0.450000*%
%TA.AperFunction,Profile*%
%ADD11C,0.050000*%
%TD*%
G04 APERTURE END LIST*
D10*
X352304761Y-210680952D02*
X353495238Y-210680952D01*
X353495238Y-208180952D01*
X350400000Y-210680952D02*
X350400000Y-209371428D01*
X350519047Y-209133333D01*
X350757142Y-209014285D01*
X351233333Y-209014285D01*
X351471428Y-209133333D01*
X350400000Y-210561904D02*
X350638095Y-210680952D01*
X351233333Y-210680952D01*
X351471428Y-210561904D01*
X351590476Y-210323809D01*
X351590476Y-210085714D01*
X351471428Y-209847619D01*
X351233333Y-209728571D01*
X350638095Y-209728571D01*
X350400000Y-209609523D01*
X349566666Y-209014285D02*
X348614285Y-209014285D01*
X349209523Y-208180952D02*
X349209523Y-210323809D01*
X349090476Y-210561904D01*
X348852380Y-210680952D01*
X348614285Y-210680952D01*
X348138095Y-209014285D02*
X347185714Y-209014285D01*
X347780952Y-208180952D02*
X347780952Y-210323809D01*
X347661904Y-210561904D01*
X347423809Y-210680952D01*
X347185714Y-210680952D01*
X346352380Y-210680952D02*
X346352380Y-209014285D01*
X346352380Y-208180952D02*
X346471428Y-208300000D01*
X346352380Y-208419047D01*
X346233333Y-208300000D01*
X346352380Y-208180952D01*
X346352380Y-208419047D01*
X344090476Y-210561904D02*
X344328571Y-210680952D01*
X344804761Y-210680952D01*
X345042857Y-210561904D01*
X345161904Y-210442857D01*
X345280952Y-210204761D01*
X345280952Y-209490476D01*
X345161904Y-209252380D01*
X345042857Y-209133333D01*
X344804761Y-209014285D01*
X344328571Y-209014285D01*
X344090476Y-209133333D01*
X342066666Y-210561904D02*
X342304761Y-210680952D01*
X342780952Y-210680952D01*
X343019047Y-210561904D01*
X343138095Y-210323809D01*
X343138095Y-209371428D01*
X343019047Y-209133333D01*
X342780952Y-209014285D01*
X342304761Y-209014285D01*
X342066666Y-209133333D01*
X341947619Y-209371428D01*
X341947619Y-209609523D01*
X343138095Y-209847619D01*
X339209523Y-209014285D02*
X338614285Y-210680952D01*
X338019047Y-209014285D01*
X335757142Y-210680952D02*
X337185714Y-210680952D01*
X336471428Y-210680952D02*
X336471428Y-208180952D01*
X336709523Y-208538095D01*
X336947619Y-208776190D01*
X337185714Y-208895238D01*
X334685714Y-210442857D02*
X334566666Y-210561904D01*
X334685714Y-210680952D01*
X334804761Y-210561904D01*
X334685714Y-210442857D01*
X334685714Y-210680952D01*
X332185714Y-210680952D02*
X333614285Y-210680952D01*
X332900000Y-210680952D02*
X332900000Y-208180952D01*
X333138095Y-208538095D01*
X333376190Y-208776190D01*
X333614285Y-208895238D01*
D11*
X246500000Y-105000000D02*
G75*
G03*
X246500000Y-105000000I-1500000J0D01*
G01*
X61500000Y-63000000D02*
G75*
G02*
X66500000Y-58000000I5000000J0D01*
G01*
X68000000Y-63000000D02*
G75*
G03*
X68000000Y-63000000I-1500000J0D01*
G01*
X68000000Y-208000000D02*
G75*
G03*
X68000000Y-208000000I-1500000J0D01*
G01*
X66500000Y-213000000D02*
G75*
G02*
X61500000Y-208000000I0J5000000D01*
G01*
X358000000Y-63000000D02*
G75*
G03*
X358000000Y-63000000I-1500000J0D01*
G01*
X358000000Y-208000000D02*
G75*
G03*
X358000000Y-208000000I-1500000J0D01*
G01*
X361500000Y-208000000D02*
G75*
G02*
X356500000Y-213000000I-5000000J0D01*
G01*
X356500000Y-58000000D02*
G75*
G02*
X361500000Y-63000000I0J-5000000D01*
G01*
X61500000Y-208000000D02*
X61500000Y-63000000D01*
X356500000Y-213000000D02*
X66500000Y-213000000D01*
X361500000Y-63000000D02*
X361500000Y-208000000D01*
X66500000Y-58000000D02*
X356500000Y-58000000D01*
M02*
