%TF.GenerationSoftware,KiCad,Pcbnew,5.99.0-unknown-1f9723c~101~ubuntu18.04.1*%
%TF.CreationDate,2020-06-08T02:15:51+03:00*%
%TF.ProjectId,WaveUltrasonics,57617665-556c-4747-9261-736f6e696373,rev?*%
%TF.SameCoordinates,Original*%
%TF.FileFunction,Soldermask,Top*%
%TF.FilePolarity,Negative*%
%FSLAX46Y46*%
G04 Gerber Fmt 4.6, Leading zero omitted, Abs format (unit mm)*
G04 Created by KiCad (PCBNEW 5.99.0-unknown-1f9723c~101~ubuntu18.04.1) date 2020-06-08 02:15:51*
%MOMM*%
%LPD*%
G01*
G04 APERTURE LIST*
%TA.AperFunction,Profile*%
%ADD10C,0.050000*%
%TD*%
%ADD11O,1.800000X1.800000*%
%ADD12C,1.700000*%
%ADD13C,2.350000*%
%ADD14O,1.700000X1.700000*%
%ADD15C,1.600000*%
%ADD16O,2.500000X2.500000*%
%ADD17C,2.500000*%
%ADD18C,4.100000*%
%ADD19C,2.100000*%
%ADD20C,6.100000*%
%ADD21C,1.900000*%
%ADD22O,1.500000X1.500000*%
%ADD23C,1.500000*%
%ADD24O,4.600000X2.600000*%
%ADD25C,2.600000*%
%ADD26C,2.900000*%
%ADD27O,1.900000X1.900000*%
G04 APERTURE END LIST*
D10*
X246500000Y-105000000D02*
G75*
G03*
X246500000Y-105000000I-1500000J0D01*
G01*
X61500000Y-63000000D02*
G75*
G02*
X66500000Y-58000000I5000000J0D01*
G01*
X68000000Y-63000000D02*
G75*
G03*
X68000000Y-63000000I-1500000J0D01*
G01*
X68000000Y-208000000D02*
G75*
G03*
X68000000Y-208000000I-1500000J0D01*
G01*
X66500000Y-213000000D02*
G75*
G02*
X61500000Y-208000000I0J5000000D01*
G01*
X358000000Y-63000000D02*
G75*
G03*
X358000000Y-63000000I-1500000J0D01*
G01*
X358000000Y-208000000D02*
G75*
G03*
X358000000Y-208000000I-1500000J0D01*
G01*
X361500000Y-208000000D02*
G75*
G02*
X356500000Y-213000000I-5000000J0D01*
G01*
X356500000Y-58000000D02*
G75*
G02*
X361500000Y-63000000I0J-5000000D01*
G01*
X61500000Y-208000000D02*
X61500000Y-63000000D01*
X356500000Y-213000000D02*
X66500000Y-213000000D01*
X361500000Y-63000000D02*
X361500000Y-208000000D01*
X66500000Y-58000000D02*
X356500000Y-58000000D01*
%TO.C,R60*%
G36*
G01*
X103486000Y-183798738D02*
X103486000Y-184755262D01*
G75*
G02*
X103214262Y-185027000I-271738J0D01*
G01*
X102507738Y-185027000D01*
G75*
G02*
X102236000Y-184755262I0J271738D01*
G01*
X102236000Y-183798738D01*
G75*
G02*
X102507738Y-183527000I271738J0D01*
G01*
X103214262Y-183527000D01*
G75*
G02*
X103486000Y-183798738I0J-271738D01*
G01*
G37*
G36*
G01*
X105536000Y-183798738D02*
X105536000Y-184755262D01*
G75*
G02*
X105264262Y-185027000I-271738J0D01*
G01*
X104557738Y-185027000D01*
G75*
G02*
X104286000Y-184755262I0J271738D01*
G01*
X104286000Y-183798738D01*
G75*
G02*
X104557738Y-183527000I271738J0D01*
G01*
X105264262Y-183527000D01*
G75*
G02*
X105536000Y-183798738I0J-271738D01*
G01*
G37*
%TD*%
%TO.C,R59*%
G36*
G01*
X103486000Y-185957738D02*
X103486000Y-186914262D01*
G75*
G02*
X103214262Y-187186000I-271738J0D01*
G01*
X102507738Y-187186000D01*
G75*
G02*
X102236000Y-186914262I0J271738D01*
G01*
X102236000Y-185957738D01*
G75*
G02*
X102507738Y-185686000I271738J0D01*
G01*
X103214262Y-185686000D01*
G75*
G02*
X103486000Y-185957738I0J-271738D01*
G01*
G37*
G36*
G01*
X105536000Y-185957738D02*
X105536000Y-186914262D01*
G75*
G02*
X105264262Y-187186000I-271738J0D01*
G01*
X104557738Y-187186000D01*
G75*
G02*
X104286000Y-186914262I0J271738D01*
G01*
X104286000Y-185957738D01*
G75*
G02*
X104557738Y-185686000I271738J0D01*
G01*
X105264262Y-185686000D01*
G75*
G02*
X105536000Y-185957738I0J-271738D01*
G01*
G37*
%TD*%
%TO.C,D30*%
G36*
G01*
X100222000Y-184755262D02*
X100222000Y-183798738D01*
G75*
G02*
X100493738Y-183527000I271738J0D01*
G01*
X101200262Y-183527000D01*
G75*
G02*
X101472000Y-183798738I0J-271738D01*
G01*
X101472000Y-184755262D01*
G75*
G02*
X101200262Y-185027000I-271738J0D01*
G01*
X100493738Y-185027000D01*
G75*
G02*
X100222000Y-184755262I0J271738D01*
G01*
G37*
G36*
G01*
X98172000Y-184755262D02*
X98172000Y-183798738D01*
G75*
G02*
X98443738Y-183527000I271738J0D01*
G01*
X99150262Y-183527000D01*
G75*
G02*
X99422000Y-183798738I0J-271738D01*
G01*
X99422000Y-184755262D01*
G75*
G02*
X99150262Y-185027000I-271738J0D01*
G01*
X98443738Y-185027000D01*
G75*
G02*
X98172000Y-184755262I0J271738D01*
G01*
G37*
%TD*%
%TO.C,D29*%
G36*
G01*
X100222000Y-186914262D02*
X100222000Y-185957738D01*
G75*
G02*
X100493738Y-185686000I271738J0D01*
G01*
X101200262Y-185686000D01*
G75*
G02*
X101472000Y-185957738I0J-271738D01*
G01*
X101472000Y-186914262D01*
G75*
G02*
X101200262Y-187186000I-271738J0D01*
G01*
X100493738Y-187186000D01*
G75*
G02*
X100222000Y-186914262I0J271738D01*
G01*
G37*
G36*
G01*
X98172000Y-186914262D02*
X98172000Y-185957738D01*
G75*
G02*
X98443738Y-185686000I271738J0D01*
G01*
X99150262Y-185686000D01*
G75*
G02*
X99422000Y-185957738I0J-271738D01*
G01*
X99422000Y-186914262D01*
G75*
G02*
X99150262Y-187186000I-271738J0D01*
G01*
X98443738Y-187186000D01*
G75*
G02*
X98172000Y-186914262I0J271738D01*
G01*
G37*
%TD*%
D11*
%TO.C,J6*%
X111496010Y-205984010D03*
X114036010Y-205984010D03*
X116576010Y-205984010D03*
G36*
G01*
X118266010Y-205084010D02*
X119966010Y-205084010D01*
G75*
G02*
X120016010Y-205134010I0J-50000D01*
G01*
X120016010Y-206834010D01*
G75*
G02*
X119966010Y-206884010I-50000J0D01*
G01*
X118266010Y-206884010D01*
G75*
G02*
X118216010Y-206834010I0J50000D01*
G01*
X118216010Y-205134010D01*
G75*
G02*
X118266010Y-205084010I50000J0D01*
G01*
G37*
%TD*%
%TO.C,U16*%
G36*
G01*
X117290010Y-198544010D02*
X117640010Y-198544010D01*
G75*
G02*
X117815010Y-198719010I0J-175000D01*
G01*
X117815010Y-200419010D01*
G75*
G02*
X117640010Y-200594010I-175000J0D01*
G01*
X117290010Y-200594010D01*
G75*
G02*
X117115010Y-200419010I0J175000D01*
G01*
X117115010Y-198719010D01*
G75*
G02*
X117290010Y-198544010I175000J0D01*
G01*
G37*
G36*
G01*
X116020010Y-198544010D02*
X116370010Y-198544010D01*
G75*
G02*
X116545010Y-198719010I0J-175000D01*
G01*
X116545010Y-200419010D01*
G75*
G02*
X116370010Y-200594010I-175000J0D01*
G01*
X116020010Y-200594010D01*
G75*
G02*
X115845010Y-200419010I0J175000D01*
G01*
X115845010Y-198719010D01*
G75*
G02*
X116020010Y-198544010I175000J0D01*
G01*
G37*
G36*
G01*
X114750010Y-198544010D02*
X115100010Y-198544010D01*
G75*
G02*
X115275010Y-198719010I0J-175000D01*
G01*
X115275010Y-200419010D01*
G75*
G02*
X115100010Y-200594010I-175000J0D01*
G01*
X114750010Y-200594010D01*
G75*
G02*
X114575010Y-200419010I0J175000D01*
G01*
X114575010Y-198719010D01*
G75*
G02*
X114750010Y-198544010I175000J0D01*
G01*
G37*
G36*
G01*
X113480010Y-198544010D02*
X113830010Y-198544010D01*
G75*
G02*
X114005010Y-198719010I0J-175000D01*
G01*
X114005010Y-200419010D01*
G75*
G02*
X113830010Y-200594010I-175000J0D01*
G01*
X113480010Y-200594010D01*
G75*
G02*
X113305010Y-200419010I0J175000D01*
G01*
X113305010Y-198719010D01*
G75*
G02*
X113480010Y-198544010I175000J0D01*
G01*
G37*
G36*
G01*
X113480010Y-193594010D02*
X113830010Y-193594010D01*
G75*
G02*
X114005010Y-193769010I0J-175000D01*
G01*
X114005010Y-195469010D01*
G75*
G02*
X113830010Y-195644010I-175000J0D01*
G01*
X113480010Y-195644010D01*
G75*
G02*
X113305010Y-195469010I0J175000D01*
G01*
X113305010Y-193769010D01*
G75*
G02*
X113480010Y-193594010I175000J0D01*
G01*
G37*
G36*
G01*
X114750010Y-193594010D02*
X115100010Y-193594010D01*
G75*
G02*
X115275010Y-193769010I0J-175000D01*
G01*
X115275010Y-195469010D01*
G75*
G02*
X115100010Y-195644010I-175000J0D01*
G01*
X114750010Y-195644010D01*
G75*
G02*
X114575010Y-195469010I0J175000D01*
G01*
X114575010Y-193769010D01*
G75*
G02*
X114750010Y-193594010I175000J0D01*
G01*
G37*
G36*
G01*
X116020010Y-193594010D02*
X116370010Y-193594010D01*
G75*
G02*
X116545010Y-193769010I0J-175000D01*
G01*
X116545010Y-195469010D01*
G75*
G02*
X116370010Y-195644010I-175000J0D01*
G01*
X116020010Y-195644010D01*
G75*
G02*
X115845010Y-195469010I0J175000D01*
G01*
X115845010Y-193769010D01*
G75*
G02*
X116020010Y-193594010I175000J0D01*
G01*
G37*
G36*
G01*
X117290010Y-193594010D02*
X117640010Y-193594010D01*
G75*
G02*
X117815010Y-193769010I0J-175000D01*
G01*
X117815010Y-195469010D01*
G75*
G02*
X117640010Y-195644010I-175000J0D01*
G01*
X117290010Y-195644010D01*
G75*
G02*
X117115010Y-195469010I0J175000D01*
G01*
X117115010Y-193769010D01*
G75*
G02*
X117290010Y-193594010I175000J0D01*
G01*
G37*
%TD*%
%TO.C,U7*%
G36*
G01*
X92065000Y-161683000D02*
X92715000Y-161683000D01*
G75*
G02*
X92765000Y-161733000I0J-50000D01*
G01*
X92765000Y-162793000D01*
G75*
G02*
X92715000Y-162843000I-50000J0D01*
G01*
X92065000Y-162843000D01*
G75*
G02*
X92015000Y-162793000I0J50000D01*
G01*
X92015000Y-161733000D01*
G75*
G02*
X92065000Y-161683000I50000J0D01*
G01*
G37*
G36*
G01*
X90165000Y-161683000D02*
X90815000Y-161683000D01*
G75*
G02*
X90865000Y-161733000I0J-50000D01*
G01*
X90865000Y-162793000D01*
G75*
G02*
X90815000Y-162843000I-50000J0D01*
G01*
X90165000Y-162843000D01*
G75*
G02*
X90115000Y-162793000I0J50000D01*
G01*
X90115000Y-161733000D01*
G75*
G02*
X90165000Y-161683000I50000J0D01*
G01*
G37*
G36*
G01*
X90165000Y-159483000D02*
X90815000Y-159483000D01*
G75*
G02*
X90865000Y-159533000I0J-50000D01*
G01*
X90865000Y-160593000D01*
G75*
G02*
X90815000Y-160643000I-50000J0D01*
G01*
X90165000Y-160643000D01*
G75*
G02*
X90115000Y-160593000I0J50000D01*
G01*
X90115000Y-159533000D01*
G75*
G02*
X90165000Y-159483000I50000J0D01*
G01*
G37*
G36*
G01*
X91115000Y-159483000D02*
X91765000Y-159483000D01*
G75*
G02*
X91815000Y-159533000I0J-50000D01*
G01*
X91815000Y-160593000D01*
G75*
G02*
X91765000Y-160643000I-50000J0D01*
G01*
X91115000Y-160643000D01*
G75*
G02*
X91065000Y-160593000I0J50000D01*
G01*
X91065000Y-159533000D01*
G75*
G02*
X91115000Y-159483000I50000J0D01*
G01*
G37*
G36*
G01*
X92065000Y-159483000D02*
X92715000Y-159483000D01*
G75*
G02*
X92765000Y-159533000I0J-50000D01*
G01*
X92765000Y-160593000D01*
G75*
G02*
X92715000Y-160643000I-50000J0D01*
G01*
X92065000Y-160643000D01*
G75*
G02*
X92015000Y-160593000I0J50000D01*
G01*
X92015000Y-159533000D01*
G75*
G02*
X92065000Y-159483000I50000J0D01*
G01*
G37*
%TD*%
%TO.C,C66*%
G36*
G01*
X115960010Y-202652272D02*
X115960010Y-201695748D01*
G75*
G02*
X116231748Y-201424010I271738J0D01*
G01*
X116938272Y-201424010D01*
G75*
G02*
X117210010Y-201695748I0J-271738D01*
G01*
X117210010Y-202652272D01*
G75*
G02*
X116938272Y-202924010I-271738J0D01*
G01*
X116231748Y-202924010D01*
G75*
G02*
X115960010Y-202652272I0J271738D01*
G01*
G37*
G36*
G01*
X113910010Y-202652272D02*
X113910010Y-201695748D01*
G75*
G02*
X114181748Y-201424010I271738J0D01*
G01*
X114888272Y-201424010D01*
G75*
G02*
X115160010Y-201695748I0J-271738D01*
G01*
X115160010Y-202652272D01*
G75*
G02*
X114888272Y-202924010I-271738J0D01*
G01*
X114181748Y-202924010D01*
G75*
G02*
X113910010Y-202652272I0J271738D01*
G01*
G37*
%TD*%
%TO.C,C65*%
G36*
G01*
X115960010Y-191857272D02*
X115960010Y-190900748D01*
G75*
G02*
X116231748Y-190629010I271738J0D01*
G01*
X116938272Y-190629010D01*
G75*
G02*
X117210010Y-190900748I0J-271738D01*
G01*
X117210010Y-191857272D01*
G75*
G02*
X116938272Y-192129010I-271738J0D01*
G01*
X116231748Y-192129010D01*
G75*
G02*
X115960010Y-191857272I0J271738D01*
G01*
G37*
G36*
G01*
X113910010Y-191857272D02*
X113910010Y-190900748D01*
G75*
G02*
X114181748Y-190629010I271738J0D01*
G01*
X114888272Y-190629010D01*
G75*
G02*
X115160010Y-190900748I0J-271738D01*
G01*
X115160010Y-191857272D01*
G75*
G02*
X114888272Y-192129010I-271738J0D01*
G01*
X114181748Y-192129010D01*
G75*
G02*
X113910010Y-191857272I0J271738D01*
G01*
G37*
%TD*%
%TO.C,C40*%
G36*
G01*
X136831110Y-130270000D02*
X138758890Y-130270000D01*
G75*
G02*
X139020000Y-130531110I0J-261110D01*
G01*
X139020000Y-132358890D01*
G75*
G02*
X138758890Y-132620000I-261110J0D01*
G01*
X136831110Y-132620000D01*
G75*
G02*
X136570000Y-132358890I0J261110D01*
G01*
X136570000Y-130531110D01*
G75*
G02*
X136831110Y-130270000I261110J0D01*
G01*
G37*
G36*
G01*
X136831110Y-125170000D02*
X138758890Y-125170000D01*
G75*
G02*
X139020000Y-125431110I0J-261110D01*
G01*
X139020000Y-127258890D01*
G75*
G02*
X138758890Y-127520000I-261110J0D01*
G01*
X136831110Y-127520000D01*
G75*
G02*
X136570000Y-127258890I0J261110D01*
G01*
X136570000Y-125431110D01*
G75*
G02*
X136831110Y-125170000I261110J0D01*
G01*
G37*
%TD*%
%TO.C,C14*%
G36*
G01*
X91840000Y-164689262D02*
X91840000Y-163732738D01*
G75*
G02*
X92111738Y-163461000I271738J0D01*
G01*
X92818262Y-163461000D01*
G75*
G02*
X93090000Y-163732738I0J-271738D01*
G01*
X93090000Y-164689262D01*
G75*
G02*
X92818262Y-164961000I-271738J0D01*
G01*
X92111738Y-164961000D01*
G75*
G02*
X91840000Y-164689262I0J271738D01*
G01*
G37*
G36*
G01*
X89790000Y-164689262D02*
X89790000Y-163732738D01*
G75*
G02*
X90061738Y-163461000I271738J0D01*
G01*
X90768262Y-163461000D01*
G75*
G02*
X91040000Y-163732738I0J-271738D01*
G01*
X91040000Y-164689262D01*
G75*
G02*
X90768262Y-164961000I-271738J0D01*
G01*
X90061738Y-164961000D01*
G75*
G02*
X89790000Y-164689262I0J271738D01*
G01*
G37*
%TD*%
%TO.C,C12*%
G36*
G01*
X119663738Y-153943000D02*
X120620262Y-153943000D01*
G75*
G02*
X120892000Y-154214738I0J-271738D01*
G01*
X120892000Y-154921262D01*
G75*
G02*
X120620262Y-155193000I-271738J0D01*
G01*
X119663738Y-155193000D01*
G75*
G02*
X119392000Y-154921262I0J271738D01*
G01*
X119392000Y-154214738D01*
G75*
G02*
X119663738Y-153943000I271738J0D01*
G01*
G37*
G36*
G01*
X119663738Y-151893000D02*
X120620262Y-151893000D01*
G75*
G02*
X120892000Y-152164738I0J-271738D01*
G01*
X120892000Y-152871262D01*
G75*
G02*
X120620262Y-153143000I-271738J0D01*
G01*
X119663738Y-153143000D01*
G75*
G02*
X119392000Y-152871262I0J271738D01*
G01*
X119392000Y-152164738D01*
G75*
G02*
X119663738Y-151893000I271738J0D01*
G01*
G37*
%TD*%
%TO.C,U6*%
G36*
G01*
X135010000Y-130445000D02*
X135010000Y-131945000D01*
G75*
G02*
X134960000Y-131995000I-50000J0D01*
G01*
X132960000Y-131995000D01*
G75*
G02*
X132910000Y-131945000I0J50000D01*
G01*
X132910000Y-130445000D01*
G75*
G02*
X132960000Y-130395000I50000J0D01*
G01*
X134960000Y-130395000D01*
G75*
G02*
X135010000Y-130445000I0J-50000D01*
G01*
G37*
G36*
G01*
X135010000Y-125845000D02*
X135010000Y-127345000D01*
G75*
G02*
X134960000Y-127395000I-50000J0D01*
G01*
X132960000Y-127395000D01*
G75*
G02*
X132910000Y-127345000I0J50000D01*
G01*
X132910000Y-125845000D01*
G75*
G02*
X132960000Y-125795000I50000J0D01*
G01*
X134960000Y-125795000D01*
G75*
G02*
X135010000Y-125845000I0J-50000D01*
G01*
G37*
G36*
G01*
X135010000Y-128145000D02*
X135010000Y-129645000D01*
G75*
G02*
X134960000Y-129695000I-50000J0D01*
G01*
X132960000Y-129695000D01*
G75*
G02*
X132910000Y-129645000I0J50000D01*
G01*
X132910000Y-128145000D01*
G75*
G02*
X132960000Y-128095000I50000J0D01*
G01*
X134960000Y-128095000D01*
G75*
G02*
X135010000Y-128145000I0J-50000D01*
G01*
G37*
G36*
G01*
X128710000Y-126995000D02*
X128710000Y-130795000D01*
G75*
G02*
X128660000Y-130845000I-50000J0D01*
G01*
X126660000Y-130845000D01*
G75*
G02*
X126610000Y-130795000I0J50000D01*
G01*
X126610000Y-126995000D01*
G75*
G02*
X126660000Y-126945000I50000J0D01*
G01*
X128660000Y-126945000D01*
G75*
G02*
X128710000Y-126995000I0J-50000D01*
G01*
G37*
%TD*%
%TO.C,C13*%
G36*
G01*
X132185000Y-135583890D02*
X132185000Y-133656110D01*
G75*
G02*
X132446110Y-133395000I261110J0D01*
G01*
X134273890Y-133395000D01*
G75*
G02*
X134535000Y-133656110I0J-261110D01*
G01*
X134535000Y-135583890D01*
G75*
G02*
X134273890Y-135845000I-261110J0D01*
G01*
X132446110Y-135845000D01*
G75*
G02*
X132185000Y-135583890I0J261110D01*
G01*
G37*
G36*
G01*
X127085000Y-135583890D02*
X127085000Y-133656110D01*
G75*
G02*
X127346110Y-133395000I261110J0D01*
G01*
X129173890Y-133395000D01*
G75*
G02*
X129435000Y-133656110I0J-261110D01*
G01*
X129435000Y-135583890D01*
G75*
G02*
X129173890Y-135845000I-261110J0D01*
G01*
X127346110Y-135845000D01*
G75*
G02*
X127085000Y-135583890I0J261110D01*
G01*
G37*
%TD*%
%TO.C,U14*%
G36*
G01*
X115290000Y-136915000D02*
X113790000Y-136915000D01*
G75*
G02*
X113740000Y-136865000I0J50000D01*
G01*
X113740000Y-134865000D01*
G75*
G02*
X113790000Y-134815000I50000J0D01*
G01*
X115290000Y-134815000D01*
G75*
G02*
X115340000Y-134865000I0J-50000D01*
G01*
X115340000Y-136865000D01*
G75*
G02*
X115290000Y-136915000I-50000J0D01*
G01*
G37*
G36*
G01*
X119890000Y-136915000D02*
X118390000Y-136915000D01*
G75*
G02*
X118340000Y-136865000I0J50000D01*
G01*
X118340000Y-134865000D01*
G75*
G02*
X118390000Y-134815000I50000J0D01*
G01*
X119890000Y-134815000D01*
G75*
G02*
X119940000Y-134865000I0J-50000D01*
G01*
X119940000Y-136865000D01*
G75*
G02*
X119890000Y-136915000I-50000J0D01*
G01*
G37*
G36*
G01*
X117590000Y-136915000D02*
X116090000Y-136915000D01*
G75*
G02*
X116040000Y-136865000I0J50000D01*
G01*
X116040000Y-134865000D01*
G75*
G02*
X116090000Y-134815000I50000J0D01*
G01*
X117590000Y-134815000D01*
G75*
G02*
X117640000Y-134865000I0J-50000D01*
G01*
X117640000Y-136865000D01*
G75*
G02*
X117590000Y-136915000I-50000J0D01*
G01*
G37*
G36*
G01*
X118740000Y-130615000D02*
X114940000Y-130615000D01*
G75*
G02*
X114890000Y-130565000I0J50000D01*
G01*
X114890000Y-128565000D01*
G75*
G02*
X114940000Y-128515000I50000J0D01*
G01*
X118740000Y-128515000D01*
G75*
G02*
X118790000Y-128565000I0J-50000D01*
G01*
X118790000Y-130565000D01*
G75*
G02*
X118740000Y-130615000I-50000J0D01*
G01*
G37*
%TD*%
%TO.C,C67*%
G36*
G01*
X112290000Y-138736110D02*
X112290000Y-140663890D01*
G75*
G02*
X112028890Y-140925000I-261110J0D01*
G01*
X110201110Y-140925000D01*
G75*
G02*
X109940000Y-140663890I0J261110D01*
G01*
X109940000Y-138736110D01*
G75*
G02*
X110201110Y-138475000I261110J0D01*
G01*
X112028890Y-138475000D01*
G75*
G02*
X112290000Y-138736110I0J-261110D01*
G01*
G37*
G36*
G01*
X117390000Y-138736110D02*
X117390000Y-140663890D01*
G75*
G02*
X117128890Y-140925000I-261110J0D01*
G01*
X115301110Y-140925000D01*
G75*
G02*
X115040000Y-140663890I0J261110D01*
G01*
X115040000Y-138736110D01*
G75*
G02*
X115301110Y-138475000I261110J0D01*
G01*
X117128890Y-138475000D01*
G75*
G02*
X117390000Y-138736110I0J-261110D01*
G01*
G37*
%TD*%
D12*
%TO.C,C48*%
X69295000Y-134770250D03*
X74295000Y-134770250D03*
%TD*%
D13*
%TO.C,J4*%
X69850000Y-124650250D03*
X69850000Y-129650250D03*
%TD*%
D11*
%TO.C,J5*%
X114681000Y-150495000D03*
X112141000Y-150495000D03*
X109601000Y-150495000D03*
G36*
G01*
X107911000Y-151395000D02*
X106211000Y-151395000D01*
G75*
G02*
X106161000Y-151345000I0J50000D01*
G01*
X106161000Y-149645000D01*
G75*
G02*
X106211000Y-149595000I50000J0D01*
G01*
X107911000Y-149595000D01*
G75*
G02*
X107961000Y-149645000I0J-50000D01*
G01*
X107961000Y-151345000D01*
G75*
G02*
X107911000Y-151395000I-50000J0D01*
G01*
G37*
%TD*%
%TO.C,J2*%
X143129000Y-152146000D03*
X143129000Y-154686000D03*
X140589000Y-152146000D03*
X140589000Y-154686000D03*
X138049000Y-152146000D03*
X138049000Y-154686000D03*
X135509000Y-152146000D03*
X135509000Y-154686000D03*
X132969000Y-152146000D03*
X132969000Y-154686000D03*
X130429000Y-152146000D03*
X130429000Y-154686000D03*
X127889000Y-152146000D03*
X127889000Y-154686000D03*
X125349000Y-152146000D03*
G36*
G01*
X126199000Y-155586000D02*
X124499000Y-155586000D01*
G75*
G02*
X124449000Y-155536000I0J50000D01*
G01*
X124449000Y-153836000D01*
G75*
G02*
X124499000Y-153786000I50000J0D01*
G01*
X126199000Y-153786000D01*
G75*
G02*
X126249000Y-153836000I0J-50000D01*
G01*
X126249000Y-155536000D01*
G75*
G02*
X126199000Y-155586000I-50000J0D01*
G01*
G37*
%TD*%
%TO.C,Y1*%
G36*
G01*
X105305330Y-170212564D02*
X104315381Y-169222614D01*
G75*
G02*
X104315381Y-169151904I35355J35355D01*
G01*
X105446752Y-168020533D01*
G75*
G02*
X105517462Y-168020533I35355J-35355D01*
G01*
X106507411Y-169010482D01*
G75*
G02*
X106507411Y-169081192I-35355J-35355D01*
G01*
X105376040Y-170212563D01*
G75*
G02*
X105305330Y-170212563I-35355J35355D01*
G01*
G37*
G36*
G01*
X107002386Y-171909620D02*
X106012437Y-170919670D01*
G75*
G02*
X106012437Y-170848960I35355J35355D01*
G01*
X107143808Y-169717589D01*
G75*
G02*
X107214518Y-169717589I35355J-35355D01*
G01*
X108204467Y-170707538D01*
G75*
G02*
X108204467Y-170778248I-35355J-35355D01*
G01*
X107073096Y-171909619D01*
G75*
G02*
X107002386Y-171909619I-35355J35355D01*
G01*
G37*
G36*
G01*
X104032538Y-174879468D02*
X103042589Y-173889518D01*
G75*
G02*
X103042589Y-173818808I35355J35355D01*
G01*
X104173960Y-172687437D01*
G75*
G02*
X104244670Y-172687437I35355J-35355D01*
G01*
X105234619Y-173677386D01*
G75*
G02*
X105234619Y-173748096I-35355J-35355D01*
G01*
X104103248Y-174879467D01*
G75*
G02*
X104032538Y-174879467I-35355J35355D01*
G01*
G37*
G36*
G01*
X102406193Y-173199382D02*
X101328562Y-172121751D01*
G75*
G02*
X101328562Y-172051041I35355J35355D01*
G01*
X102406193Y-170973410D01*
G75*
G02*
X102476903Y-170973410I35355J-35355D01*
G01*
X103554534Y-172051041D01*
G75*
G02*
X103554534Y-172121751I-35355J-35355D01*
G01*
X102476903Y-173199382D01*
G75*
G02*
X102406193Y-173199382I-35355J35355D01*
G01*
G37*
%TD*%
%TO.C,U15*%
G36*
G01*
X113255000Y-169880000D02*
X113255000Y-168505000D01*
G75*
G02*
X113355000Y-168405000I100000J0D01*
G01*
X113555000Y-168405000D01*
G75*
G02*
X113655000Y-168505000I0J-100000D01*
G01*
X113655000Y-169880000D01*
G75*
G02*
X113555000Y-169980000I-100000J0D01*
G01*
X113355000Y-169980000D01*
G75*
G02*
X113255000Y-169880000I0J100000D01*
G01*
G37*
G36*
G01*
X113755000Y-169880000D02*
X113755000Y-168505000D01*
G75*
G02*
X113855000Y-168405000I100000J0D01*
G01*
X114055000Y-168405000D01*
G75*
G02*
X114155000Y-168505000I0J-100000D01*
G01*
X114155000Y-169880000D01*
G75*
G02*
X114055000Y-169980000I-100000J0D01*
G01*
X113855000Y-169980000D01*
G75*
G02*
X113755000Y-169880000I0J100000D01*
G01*
G37*
G36*
G01*
X114255000Y-169880000D02*
X114255000Y-168505000D01*
G75*
G02*
X114355000Y-168405000I100000J0D01*
G01*
X114555000Y-168405000D01*
G75*
G02*
X114655000Y-168505000I0J-100000D01*
G01*
X114655000Y-169880000D01*
G75*
G02*
X114555000Y-169980000I-100000J0D01*
G01*
X114355000Y-169980000D01*
G75*
G02*
X114255000Y-169880000I0J100000D01*
G01*
G37*
G36*
G01*
X114755000Y-169880000D02*
X114755000Y-168505000D01*
G75*
G02*
X114855000Y-168405000I100000J0D01*
G01*
X115055000Y-168405000D01*
G75*
G02*
X115155000Y-168505000I0J-100000D01*
G01*
X115155000Y-169880000D01*
G75*
G02*
X115055000Y-169980000I-100000J0D01*
G01*
X114855000Y-169980000D01*
G75*
G02*
X114755000Y-169880000I0J100000D01*
G01*
G37*
G36*
G01*
X115255000Y-169880000D02*
X115255000Y-168505000D01*
G75*
G02*
X115355000Y-168405000I100000J0D01*
G01*
X115555000Y-168405000D01*
G75*
G02*
X115655000Y-168505000I0J-100000D01*
G01*
X115655000Y-169880000D01*
G75*
G02*
X115555000Y-169980000I-100000J0D01*
G01*
X115355000Y-169980000D01*
G75*
G02*
X115255000Y-169880000I0J100000D01*
G01*
G37*
G36*
G01*
X115755000Y-169880000D02*
X115755000Y-168505000D01*
G75*
G02*
X115855000Y-168405000I100000J0D01*
G01*
X116055000Y-168405000D01*
G75*
G02*
X116155000Y-168505000I0J-100000D01*
G01*
X116155000Y-169880000D01*
G75*
G02*
X116055000Y-169980000I-100000J0D01*
G01*
X115855000Y-169980000D01*
G75*
G02*
X115755000Y-169880000I0J100000D01*
G01*
G37*
G36*
G01*
X116255000Y-169880000D02*
X116255000Y-168505000D01*
G75*
G02*
X116355000Y-168405000I100000J0D01*
G01*
X116555000Y-168405000D01*
G75*
G02*
X116655000Y-168505000I0J-100000D01*
G01*
X116655000Y-169880000D01*
G75*
G02*
X116555000Y-169980000I-100000J0D01*
G01*
X116355000Y-169980000D01*
G75*
G02*
X116255000Y-169880000I0J100000D01*
G01*
G37*
G36*
G01*
X116755000Y-169880000D02*
X116755000Y-168505000D01*
G75*
G02*
X116855000Y-168405000I100000J0D01*
G01*
X117055000Y-168405000D01*
G75*
G02*
X117155000Y-168505000I0J-100000D01*
G01*
X117155000Y-169880000D01*
G75*
G02*
X117055000Y-169980000I-100000J0D01*
G01*
X116855000Y-169980000D01*
G75*
G02*
X116755000Y-169880000I0J100000D01*
G01*
G37*
G36*
G01*
X117255000Y-169880000D02*
X117255000Y-168505000D01*
G75*
G02*
X117355000Y-168405000I100000J0D01*
G01*
X117555000Y-168405000D01*
G75*
G02*
X117655000Y-168505000I0J-100000D01*
G01*
X117655000Y-169880000D01*
G75*
G02*
X117555000Y-169980000I-100000J0D01*
G01*
X117355000Y-169980000D01*
G75*
G02*
X117255000Y-169880000I0J100000D01*
G01*
G37*
G36*
G01*
X117755000Y-169880000D02*
X117755000Y-168505000D01*
G75*
G02*
X117855000Y-168405000I100000J0D01*
G01*
X118055000Y-168405000D01*
G75*
G02*
X118155000Y-168505000I0J-100000D01*
G01*
X118155000Y-169880000D01*
G75*
G02*
X118055000Y-169980000I-100000J0D01*
G01*
X117855000Y-169980000D01*
G75*
G02*
X117755000Y-169880000I0J100000D01*
G01*
G37*
G36*
G01*
X118255000Y-169880000D02*
X118255000Y-168505000D01*
G75*
G02*
X118355000Y-168405000I100000J0D01*
G01*
X118555000Y-168405000D01*
G75*
G02*
X118655000Y-168505000I0J-100000D01*
G01*
X118655000Y-169880000D01*
G75*
G02*
X118555000Y-169980000I-100000J0D01*
G01*
X118355000Y-169980000D01*
G75*
G02*
X118255000Y-169880000I0J100000D01*
G01*
G37*
G36*
G01*
X118755000Y-169880000D02*
X118755000Y-168505000D01*
G75*
G02*
X118855000Y-168405000I100000J0D01*
G01*
X119055000Y-168405000D01*
G75*
G02*
X119155000Y-168505000I0J-100000D01*
G01*
X119155000Y-169880000D01*
G75*
G02*
X119055000Y-169980000I-100000J0D01*
G01*
X118855000Y-169980000D01*
G75*
G02*
X118755000Y-169880000I0J100000D01*
G01*
G37*
G36*
G01*
X119580000Y-170705000D02*
X119580000Y-170505000D01*
G75*
G02*
X119680000Y-170405000I100000J0D01*
G01*
X121055000Y-170405000D01*
G75*
G02*
X121155000Y-170505000I0J-100000D01*
G01*
X121155000Y-170705000D01*
G75*
G02*
X121055000Y-170805000I-100000J0D01*
G01*
X119680000Y-170805000D01*
G75*
G02*
X119580000Y-170705000I0J100000D01*
G01*
G37*
G36*
G01*
X119580000Y-171205000D02*
X119580000Y-171005000D01*
G75*
G02*
X119680000Y-170905000I100000J0D01*
G01*
X121055000Y-170905000D01*
G75*
G02*
X121155000Y-171005000I0J-100000D01*
G01*
X121155000Y-171205000D01*
G75*
G02*
X121055000Y-171305000I-100000J0D01*
G01*
X119680000Y-171305000D01*
G75*
G02*
X119580000Y-171205000I0J100000D01*
G01*
G37*
G36*
G01*
X119580000Y-171705000D02*
X119580000Y-171505000D01*
G75*
G02*
X119680000Y-171405000I100000J0D01*
G01*
X121055000Y-171405000D01*
G75*
G02*
X121155000Y-171505000I0J-100000D01*
G01*
X121155000Y-171705000D01*
G75*
G02*
X121055000Y-171805000I-100000J0D01*
G01*
X119680000Y-171805000D01*
G75*
G02*
X119580000Y-171705000I0J100000D01*
G01*
G37*
G36*
G01*
X119580000Y-172205000D02*
X119580000Y-172005000D01*
G75*
G02*
X119680000Y-171905000I100000J0D01*
G01*
X121055000Y-171905000D01*
G75*
G02*
X121155000Y-172005000I0J-100000D01*
G01*
X121155000Y-172205000D01*
G75*
G02*
X121055000Y-172305000I-100000J0D01*
G01*
X119680000Y-172305000D01*
G75*
G02*
X119580000Y-172205000I0J100000D01*
G01*
G37*
G36*
G01*
X119580000Y-172705000D02*
X119580000Y-172505000D01*
G75*
G02*
X119680000Y-172405000I100000J0D01*
G01*
X121055000Y-172405000D01*
G75*
G02*
X121155000Y-172505000I0J-100000D01*
G01*
X121155000Y-172705000D01*
G75*
G02*
X121055000Y-172805000I-100000J0D01*
G01*
X119680000Y-172805000D01*
G75*
G02*
X119580000Y-172705000I0J100000D01*
G01*
G37*
G36*
G01*
X119580000Y-173205000D02*
X119580000Y-173005000D01*
G75*
G02*
X119680000Y-172905000I100000J0D01*
G01*
X121055000Y-172905000D01*
G75*
G02*
X121155000Y-173005000I0J-100000D01*
G01*
X121155000Y-173205000D01*
G75*
G02*
X121055000Y-173305000I-100000J0D01*
G01*
X119680000Y-173305000D01*
G75*
G02*
X119580000Y-173205000I0J100000D01*
G01*
G37*
G36*
G01*
X119580000Y-173705000D02*
X119580000Y-173505000D01*
G75*
G02*
X119680000Y-173405000I100000J0D01*
G01*
X121055000Y-173405000D01*
G75*
G02*
X121155000Y-173505000I0J-100000D01*
G01*
X121155000Y-173705000D01*
G75*
G02*
X121055000Y-173805000I-100000J0D01*
G01*
X119680000Y-173805000D01*
G75*
G02*
X119580000Y-173705000I0J100000D01*
G01*
G37*
G36*
G01*
X119580000Y-174205000D02*
X119580000Y-174005000D01*
G75*
G02*
X119680000Y-173905000I100000J0D01*
G01*
X121055000Y-173905000D01*
G75*
G02*
X121155000Y-174005000I0J-100000D01*
G01*
X121155000Y-174205000D01*
G75*
G02*
X121055000Y-174305000I-100000J0D01*
G01*
X119680000Y-174305000D01*
G75*
G02*
X119580000Y-174205000I0J100000D01*
G01*
G37*
G36*
G01*
X119580000Y-174705000D02*
X119580000Y-174505000D01*
G75*
G02*
X119680000Y-174405000I100000J0D01*
G01*
X121055000Y-174405000D01*
G75*
G02*
X121155000Y-174505000I0J-100000D01*
G01*
X121155000Y-174705000D01*
G75*
G02*
X121055000Y-174805000I-100000J0D01*
G01*
X119680000Y-174805000D01*
G75*
G02*
X119580000Y-174705000I0J100000D01*
G01*
G37*
G36*
G01*
X119580000Y-175205000D02*
X119580000Y-175005000D01*
G75*
G02*
X119680000Y-174905000I100000J0D01*
G01*
X121055000Y-174905000D01*
G75*
G02*
X121155000Y-175005000I0J-100000D01*
G01*
X121155000Y-175205000D01*
G75*
G02*
X121055000Y-175305000I-100000J0D01*
G01*
X119680000Y-175305000D01*
G75*
G02*
X119580000Y-175205000I0J100000D01*
G01*
G37*
G36*
G01*
X119580000Y-175705000D02*
X119580000Y-175505000D01*
G75*
G02*
X119680000Y-175405000I100000J0D01*
G01*
X121055000Y-175405000D01*
G75*
G02*
X121155000Y-175505000I0J-100000D01*
G01*
X121155000Y-175705000D01*
G75*
G02*
X121055000Y-175805000I-100000J0D01*
G01*
X119680000Y-175805000D01*
G75*
G02*
X119580000Y-175705000I0J100000D01*
G01*
G37*
G36*
G01*
X119580000Y-176205000D02*
X119580000Y-176005000D01*
G75*
G02*
X119680000Y-175905000I100000J0D01*
G01*
X121055000Y-175905000D01*
G75*
G02*
X121155000Y-176005000I0J-100000D01*
G01*
X121155000Y-176205000D01*
G75*
G02*
X121055000Y-176305000I-100000J0D01*
G01*
X119680000Y-176305000D01*
G75*
G02*
X119580000Y-176205000I0J100000D01*
G01*
G37*
G36*
G01*
X118755000Y-178205000D02*
X118755000Y-176830000D01*
G75*
G02*
X118855000Y-176730000I100000J0D01*
G01*
X119055000Y-176730000D01*
G75*
G02*
X119155000Y-176830000I0J-100000D01*
G01*
X119155000Y-178205000D01*
G75*
G02*
X119055000Y-178305000I-100000J0D01*
G01*
X118855000Y-178305000D01*
G75*
G02*
X118755000Y-178205000I0J100000D01*
G01*
G37*
G36*
G01*
X118255000Y-178205000D02*
X118255000Y-176830000D01*
G75*
G02*
X118355000Y-176730000I100000J0D01*
G01*
X118555000Y-176730000D01*
G75*
G02*
X118655000Y-176830000I0J-100000D01*
G01*
X118655000Y-178205000D01*
G75*
G02*
X118555000Y-178305000I-100000J0D01*
G01*
X118355000Y-178305000D01*
G75*
G02*
X118255000Y-178205000I0J100000D01*
G01*
G37*
G36*
G01*
X117755000Y-178205000D02*
X117755000Y-176830000D01*
G75*
G02*
X117855000Y-176730000I100000J0D01*
G01*
X118055000Y-176730000D01*
G75*
G02*
X118155000Y-176830000I0J-100000D01*
G01*
X118155000Y-178205000D01*
G75*
G02*
X118055000Y-178305000I-100000J0D01*
G01*
X117855000Y-178305000D01*
G75*
G02*
X117755000Y-178205000I0J100000D01*
G01*
G37*
G36*
G01*
X117255000Y-178205000D02*
X117255000Y-176830000D01*
G75*
G02*
X117355000Y-176730000I100000J0D01*
G01*
X117555000Y-176730000D01*
G75*
G02*
X117655000Y-176830000I0J-100000D01*
G01*
X117655000Y-178205000D01*
G75*
G02*
X117555000Y-178305000I-100000J0D01*
G01*
X117355000Y-178305000D01*
G75*
G02*
X117255000Y-178205000I0J100000D01*
G01*
G37*
G36*
G01*
X116755000Y-178205000D02*
X116755000Y-176830000D01*
G75*
G02*
X116855000Y-176730000I100000J0D01*
G01*
X117055000Y-176730000D01*
G75*
G02*
X117155000Y-176830000I0J-100000D01*
G01*
X117155000Y-178205000D01*
G75*
G02*
X117055000Y-178305000I-100000J0D01*
G01*
X116855000Y-178305000D01*
G75*
G02*
X116755000Y-178205000I0J100000D01*
G01*
G37*
G36*
G01*
X116255000Y-178205000D02*
X116255000Y-176830000D01*
G75*
G02*
X116355000Y-176730000I100000J0D01*
G01*
X116555000Y-176730000D01*
G75*
G02*
X116655000Y-176830000I0J-100000D01*
G01*
X116655000Y-178205000D01*
G75*
G02*
X116555000Y-178305000I-100000J0D01*
G01*
X116355000Y-178305000D01*
G75*
G02*
X116255000Y-178205000I0J100000D01*
G01*
G37*
G36*
G01*
X115755000Y-178205000D02*
X115755000Y-176830000D01*
G75*
G02*
X115855000Y-176730000I100000J0D01*
G01*
X116055000Y-176730000D01*
G75*
G02*
X116155000Y-176830000I0J-100000D01*
G01*
X116155000Y-178205000D01*
G75*
G02*
X116055000Y-178305000I-100000J0D01*
G01*
X115855000Y-178305000D01*
G75*
G02*
X115755000Y-178205000I0J100000D01*
G01*
G37*
G36*
G01*
X115255000Y-178205000D02*
X115255000Y-176830000D01*
G75*
G02*
X115355000Y-176730000I100000J0D01*
G01*
X115555000Y-176730000D01*
G75*
G02*
X115655000Y-176830000I0J-100000D01*
G01*
X115655000Y-178205000D01*
G75*
G02*
X115555000Y-178305000I-100000J0D01*
G01*
X115355000Y-178305000D01*
G75*
G02*
X115255000Y-178205000I0J100000D01*
G01*
G37*
G36*
G01*
X114755000Y-178205000D02*
X114755000Y-176830000D01*
G75*
G02*
X114855000Y-176730000I100000J0D01*
G01*
X115055000Y-176730000D01*
G75*
G02*
X115155000Y-176830000I0J-100000D01*
G01*
X115155000Y-178205000D01*
G75*
G02*
X115055000Y-178305000I-100000J0D01*
G01*
X114855000Y-178305000D01*
G75*
G02*
X114755000Y-178205000I0J100000D01*
G01*
G37*
G36*
G01*
X114255000Y-178205000D02*
X114255000Y-176830000D01*
G75*
G02*
X114355000Y-176730000I100000J0D01*
G01*
X114555000Y-176730000D01*
G75*
G02*
X114655000Y-176830000I0J-100000D01*
G01*
X114655000Y-178205000D01*
G75*
G02*
X114555000Y-178305000I-100000J0D01*
G01*
X114355000Y-178305000D01*
G75*
G02*
X114255000Y-178205000I0J100000D01*
G01*
G37*
G36*
G01*
X113755000Y-178205000D02*
X113755000Y-176830000D01*
G75*
G02*
X113855000Y-176730000I100000J0D01*
G01*
X114055000Y-176730000D01*
G75*
G02*
X114155000Y-176830000I0J-100000D01*
G01*
X114155000Y-178205000D01*
G75*
G02*
X114055000Y-178305000I-100000J0D01*
G01*
X113855000Y-178305000D01*
G75*
G02*
X113755000Y-178205000I0J100000D01*
G01*
G37*
G36*
G01*
X113255000Y-178205000D02*
X113255000Y-176830000D01*
G75*
G02*
X113355000Y-176730000I100000J0D01*
G01*
X113555000Y-176730000D01*
G75*
G02*
X113655000Y-176830000I0J-100000D01*
G01*
X113655000Y-178205000D01*
G75*
G02*
X113555000Y-178305000I-100000J0D01*
G01*
X113355000Y-178305000D01*
G75*
G02*
X113255000Y-178205000I0J100000D01*
G01*
G37*
G36*
G01*
X111255000Y-176205000D02*
X111255000Y-176005000D01*
G75*
G02*
X111355000Y-175905000I100000J0D01*
G01*
X112730000Y-175905000D01*
G75*
G02*
X112830000Y-176005000I0J-100000D01*
G01*
X112830000Y-176205000D01*
G75*
G02*
X112730000Y-176305000I-100000J0D01*
G01*
X111355000Y-176305000D01*
G75*
G02*
X111255000Y-176205000I0J100000D01*
G01*
G37*
G36*
G01*
X111255000Y-175705000D02*
X111255000Y-175505000D01*
G75*
G02*
X111355000Y-175405000I100000J0D01*
G01*
X112730000Y-175405000D01*
G75*
G02*
X112830000Y-175505000I0J-100000D01*
G01*
X112830000Y-175705000D01*
G75*
G02*
X112730000Y-175805000I-100000J0D01*
G01*
X111355000Y-175805000D01*
G75*
G02*
X111255000Y-175705000I0J100000D01*
G01*
G37*
G36*
G01*
X111255000Y-175205000D02*
X111255000Y-175005000D01*
G75*
G02*
X111355000Y-174905000I100000J0D01*
G01*
X112730000Y-174905000D01*
G75*
G02*
X112830000Y-175005000I0J-100000D01*
G01*
X112830000Y-175205000D01*
G75*
G02*
X112730000Y-175305000I-100000J0D01*
G01*
X111355000Y-175305000D01*
G75*
G02*
X111255000Y-175205000I0J100000D01*
G01*
G37*
G36*
G01*
X111255000Y-174705000D02*
X111255000Y-174505000D01*
G75*
G02*
X111355000Y-174405000I100000J0D01*
G01*
X112730000Y-174405000D01*
G75*
G02*
X112830000Y-174505000I0J-100000D01*
G01*
X112830000Y-174705000D01*
G75*
G02*
X112730000Y-174805000I-100000J0D01*
G01*
X111355000Y-174805000D01*
G75*
G02*
X111255000Y-174705000I0J100000D01*
G01*
G37*
G36*
G01*
X111255000Y-174205000D02*
X111255000Y-174005000D01*
G75*
G02*
X111355000Y-173905000I100000J0D01*
G01*
X112730000Y-173905000D01*
G75*
G02*
X112830000Y-174005000I0J-100000D01*
G01*
X112830000Y-174205000D01*
G75*
G02*
X112730000Y-174305000I-100000J0D01*
G01*
X111355000Y-174305000D01*
G75*
G02*
X111255000Y-174205000I0J100000D01*
G01*
G37*
G36*
G01*
X111255000Y-173705000D02*
X111255000Y-173505000D01*
G75*
G02*
X111355000Y-173405000I100000J0D01*
G01*
X112730000Y-173405000D01*
G75*
G02*
X112830000Y-173505000I0J-100000D01*
G01*
X112830000Y-173705000D01*
G75*
G02*
X112730000Y-173805000I-100000J0D01*
G01*
X111355000Y-173805000D01*
G75*
G02*
X111255000Y-173705000I0J100000D01*
G01*
G37*
G36*
G01*
X111255000Y-173205000D02*
X111255000Y-173005000D01*
G75*
G02*
X111355000Y-172905000I100000J0D01*
G01*
X112730000Y-172905000D01*
G75*
G02*
X112830000Y-173005000I0J-100000D01*
G01*
X112830000Y-173205000D01*
G75*
G02*
X112730000Y-173305000I-100000J0D01*
G01*
X111355000Y-173305000D01*
G75*
G02*
X111255000Y-173205000I0J100000D01*
G01*
G37*
G36*
G01*
X111255000Y-172705000D02*
X111255000Y-172505000D01*
G75*
G02*
X111355000Y-172405000I100000J0D01*
G01*
X112730000Y-172405000D01*
G75*
G02*
X112830000Y-172505000I0J-100000D01*
G01*
X112830000Y-172705000D01*
G75*
G02*
X112730000Y-172805000I-100000J0D01*
G01*
X111355000Y-172805000D01*
G75*
G02*
X111255000Y-172705000I0J100000D01*
G01*
G37*
G36*
G01*
X111255000Y-172205000D02*
X111255000Y-172005000D01*
G75*
G02*
X111355000Y-171905000I100000J0D01*
G01*
X112730000Y-171905000D01*
G75*
G02*
X112830000Y-172005000I0J-100000D01*
G01*
X112830000Y-172205000D01*
G75*
G02*
X112730000Y-172305000I-100000J0D01*
G01*
X111355000Y-172305000D01*
G75*
G02*
X111255000Y-172205000I0J100000D01*
G01*
G37*
G36*
G01*
X111255000Y-171705000D02*
X111255000Y-171505000D01*
G75*
G02*
X111355000Y-171405000I100000J0D01*
G01*
X112730000Y-171405000D01*
G75*
G02*
X112830000Y-171505000I0J-100000D01*
G01*
X112830000Y-171705000D01*
G75*
G02*
X112730000Y-171805000I-100000J0D01*
G01*
X111355000Y-171805000D01*
G75*
G02*
X111255000Y-171705000I0J100000D01*
G01*
G37*
G36*
G01*
X111255000Y-171205000D02*
X111255000Y-171005000D01*
G75*
G02*
X111355000Y-170905000I100000J0D01*
G01*
X112730000Y-170905000D01*
G75*
G02*
X112830000Y-171005000I0J-100000D01*
G01*
X112830000Y-171205000D01*
G75*
G02*
X112730000Y-171305000I-100000J0D01*
G01*
X111355000Y-171305000D01*
G75*
G02*
X111255000Y-171205000I0J100000D01*
G01*
G37*
G36*
G01*
X111255000Y-170705000D02*
X111255000Y-170505000D01*
G75*
G02*
X111355000Y-170405000I100000J0D01*
G01*
X112730000Y-170405000D01*
G75*
G02*
X112830000Y-170505000I0J-100000D01*
G01*
X112830000Y-170705000D01*
G75*
G02*
X112730000Y-170805000I-100000J0D01*
G01*
X111355000Y-170805000D01*
G75*
G02*
X111255000Y-170705000I0J100000D01*
G01*
G37*
%TD*%
%TO.C,R58*%
G36*
G01*
X112677000Y-162276262D02*
X112677000Y-161319738D01*
G75*
G02*
X112948738Y-161048000I271738J0D01*
G01*
X113655262Y-161048000D01*
G75*
G02*
X113927000Y-161319738I0J-271738D01*
G01*
X113927000Y-162276262D01*
G75*
G02*
X113655262Y-162548000I-271738J0D01*
G01*
X112948738Y-162548000D01*
G75*
G02*
X112677000Y-162276262I0J271738D01*
G01*
G37*
G36*
G01*
X110627000Y-162276262D02*
X110627000Y-161319738D01*
G75*
G02*
X110898738Y-161048000I271738J0D01*
G01*
X111605262Y-161048000D01*
G75*
G02*
X111877000Y-161319738I0J-271738D01*
G01*
X111877000Y-162276262D01*
G75*
G02*
X111605262Y-162548000I-271738J0D01*
G01*
X110898738Y-162548000D01*
G75*
G02*
X110627000Y-162276262I0J271738D01*
G01*
G37*
%TD*%
%TO.C,C64*%
G36*
G01*
X108477000Y-178786262D02*
X108477000Y-177829738D01*
G75*
G02*
X108748738Y-177558000I271738J0D01*
G01*
X109455262Y-177558000D01*
G75*
G02*
X109727000Y-177829738I0J-271738D01*
G01*
X109727000Y-178786262D01*
G75*
G02*
X109455262Y-179058000I-271738J0D01*
G01*
X108748738Y-179058000D01*
G75*
G02*
X108477000Y-178786262I0J271738D01*
G01*
G37*
G36*
G01*
X106427000Y-178786262D02*
X106427000Y-177829738D01*
G75*
G02*
X106698738Y-177558000I271738J0D01*
G01*
X107405262Y-177558000D01*
G75*
G02*
X107677000Y-177829738I0J-271738D01*
G01*
X107677000Y-178786262D01*
G75*
G02*
X107405262Y-179058000I-271738J0D01*
G01*
X106698738Y-179058000D01*
G75*
G02*
X106427000Y-178786262I0J271738D01*
G01*
G37*
%TD*%
%TO.C,C63*%
G36*
G01*
X109825262Y-174987000D02*
X108868738Y-174987000D01*
G75*
G02*
X108597000Y-174715262I0J271738D01*
G01*
X108597000Y-174008738D01*
G75*
G02*
X108868738Y-173737000I271738J0D01*
G01*
X109825262Y-173737000D01*
G75*
G02*
X110097000Y-174008738I0J-271738D01*
G01*
X110097000Y-174715262D01*
G75*
G02*
X109825262Y-174987000I-271738J0D01*
G01*
G37*
G36*
G01*
X109825262Y-177037000D02*
X108868738Y-177037000D01*
G75*
G02*
X108597000Y-176765262I0J271738D01*
G01*
X108597000Y-176058738D01*
G75*
G02*
X108868738Y-175787000I271738J0D01*
G01*
X109825262Y-175787000D01*
G75*
G02*
X110097000Y-176058738I0J-271738D01*
G01*
X110097000Y-176765262D01*
G75*
G02*
X109825262Y-177037000I-271738J0D01*
G01*
G37*
%TD*%
%TO.C,C61*%
G36*
G01*
X119615000Y-179226738D02*
X119615000Y-180183262D01*
G75*
G02*
X119343262Y-180455000I-271738J0D01*
G01*
X118636738Y-180455000D01*
G75*
G02*
X118365000Y-180183262I0J271738D01*
G01*
X118365000Y-179226738D01*
G75*
G02*
X118636738Y-178955000I271738J0D01*
G01*
X119343262Y-178955000D01*
G75*
G02*
X119615000Y-179226738I0J-271738D01*
G01*
G37*
G36*
G01*
X121665000Y-179226738D02*
X121665000Y-180183262D01*
G75*
G02*
X121393262Y-180455000I-271738J0D01*
G01*
X120686738Y-180455000D01*
G75*
G02*
X120415000Y-180183262I0J271738D01*
G01*
X120415000Y-179226738D01*
G75*
G02*
X120686738Y-178955000I271738J0D01*
G01*
X121393262Y-178955000D01*
G75*
G02*
X121665000Y-179226738I0J-271738D01*
G01*
G37*
%TD*%
%TO.C,C50*%
G36*
G01*
X112550000Y-166848262D02*
X112550000Y-165891738D01*
G75*
G02*
X112821738Y-165620000I271738J0D01*
G01*
X113528262Y-165620000D01*
G75*
G02*
X113800000Y-165891738I0J-271738D01*
G01*
X113800000Y-166848262D01*
G75*
G02*
X113528262Y-167120000I-271738J0D01*
G01*
X112821738Y-167120000D01*
G75*
G02*
X112550000Y-166848262I0J271738D01*
G01*
G37*
G36*
G01*
X110500000Y-166848262D02*
X110500000Y-165891738D01*
G75*
G02*
X110771738Y-165620000I271738J0D01*
G01*
X111478262Y-165620000D01*
G75*
G02*
X111750000Y-165891738I0J-271738D01*
G01*
X111750000Y-166848262D01*
G75*
G02*
X111478262Y-167120000I-271738J0D01*
G01*
X110771738Y-167120000D01*
G75*
G02*
X110500000Y-166848262I0J271738D01*
G01*
G37*
%TD*%
%TO.C,C49*%
G36*
G01*
X108555262Y-161398000D02*
X107598738Y-161398000D01*
G75*
G02*
X107327000Y-161126262I0J271738D01*
G01*
X107327000Y-160419738D01*
G75*
G02*
X107598738Y-160148000I271738J0D01*
G01*
X108555262Y-160148000D01*
G75*
G02*
X108827000Y-160419738I0J-271738D01*
G01*
X108827000Y-161126262D01*
G75*
G02*
X108555262Y-161398000I-271738J0D01*
G01*
G37*
G36*
G01*
X108555262Y-163448000D02*
X107598738Y-163448000D01*
G75*
G02*
X107327000Y-163176262I0J271738D01*
G01*
X107327000Y-162469738D01*
G75*
G02*
X107598738Y-162198000I271738J0D01*
G01*
X108555262Y-162198000D01*
G75*
G02*
X108827000Y-162469738I0J-271738D01*
G01*
X108827000Y-163176262D01*
G75*
G02*
X108555262Y-163448000I-271738J0D01*
G01*
G37*
%TD*%
%TO.C,C39*%
G36*
G01*
X101626516Y-174387747D02*
X101997747Y-174016516D01*
G75*
G02*
X102368979Y-174016516I185616J-185616D01*
G01*
X102810920Y-174458457D01*
G75*
G02*
X102810920Y-174829689I-185616J-185616D01*
G01*
X102439689Y-175200920D01*
G75*
G02*
X102068457Y-175200920I-185616J185616D01*
G01*
X101626516Y-174758979D01*
G75*
G02*
X101626516Y-174387747I185616J185616D01*
G01*
G37*
G36*
G01*
X100389080Y-173150311D02*
X100760311Y-172779080D01*
G75*
G02*
X101131543Y-172779080I185616J-185616D01*
G01*
X101573484Y-173221021D01*
G75*
G02*
X101573484Y-173592253I-185616J-185616D01*
G01*
X101202253Y-173963484D01*
G75*
G02*
X100831021Y-173963484I-185616J185616D01*
G01*
X100389080Y-173521543D01*
G75*
G02*
X100389080Y-173150311I185616J185616D01*
G01*
G37*
%TD*%
%TO.C,C15*%
G36*
G01*
X107288484Y-167877253D02*
X106917253Y-168248484D01*
G75*
G02*
X106546021Y-168248484I-185616J185616D01*
G01*
X106104080Y-167806543D01*
G75*
G02*
X106104080Y-167435311I185616J185616D01*
G01*
X106475311Y-167064080D01*
G75*
G02*
X106846543Y-167064080I185616J-185616D01*
G01*
X107288484Y-167506021D01*
G75*
G02*
X107288484Y-167877253I-185616J-185616D01*
G01*
G37*
G36*
G01*
X108525920Y-169114689D02*
X108154689Y-169485920D01*
G75*
G02*
X107783457Y-169485920I-185616J185616D01*
G01*
X107341516Y-169043979D01*
G75*
G02*
X107341516Y-168672747I185616J185616D01*
G01*
X107712747Y-168301516D01*
G75*
G02*
X108083979Y-168301516I185616J-185616D01*
G01*
X108525920Y-168743457D01*
G75*
G02*
X108525920Y-169114689I-185616J-185616D01*
G01*
G37*
%TD*%
%TO.C,C62*%
G36*
G01*
X122457738Y-170199000D02*
X123414262Y-170199000D01*
G75*
G02*
X123686000Y-170470738I0J-271738D01*
G01*
X123686000Y-171177262D01*
G75*
G02*
X123414262Y-171449000I-271738J0D01*
G01*
X122457738Y-171449000D01*
G75*
G02*
X122186000Y-171177262I0J271738D01*
G01*
X122186000Y-170470738D01*
G75*
G02*
X122457738Y-170199000I271738J0D01*
G01*
G37*
G36*
G01*
X122457738Y-168149000D02*
X123414262Y-168149000D01*
G75*
G02*
X123686000Y-168420738I0J-271738D01*
G01*
X123686000Y-169127262D01*
G75*
G02*
X123414262Y-169399000I-271738J0D01*
G01*
X122457738Y-169399000D01*
G75*
G02*
X122186000Y-169127262I0J271738D01*
G01*
X122186000Y-168420738D01*
G75*
G02*
X122457738Y-168149000I271738J0D01*
G01*
G37*
%TD*%
%TO.C,R57*%
G36*
G01*
X133447262Y-161144000D02*
X132490738Y-161144000D01*
G75*
G02*
X132219000Y-160872262I0J271738D01*
G01*
X132219000Y-160165738D01*
G75*
G02*
X132490738Y-159894000I271738J0D01*
G01*
X133447262Y-159894000D01*
G75*
G02*
X133719000Y-160165738I0J-271738D01*
G01*
X133719000Y-160872262D01*
G75*
G02*
X133447262Y-161144000I-271738J0D01*
G01*
G37*
G36*
G01*
X133447262Y-163194000D02*
X132490738Y-163194000D01*
G75*
G02*
X132219000Y-162922262I0J271738D01*
G01*
X132219000Y-162215738D01*
G75*
G02*
X132490738Y-161944000I271738J0D01*
G01*
X133447262Y-161944000D01*
G75*
G02*
X133719000Y-162215738I0J-271738D01*
G01*
X133719000Y-162922262D01*
G75*
G02*
X133447262Y-163194000I-271738J0D01*
G01*
G37*
%TD*%
%TO.C,R56*%
G36*
G01*
X129950738Y-145815000D02*
X130907262Y-145815000D01*
G75*
G02*
X131179000Y-146086738I0J-271738D01*
G01*
X131179000Y-146793262D01*
G75*
G02*
X130907262Y-147065000I-271738J0D01*
G01*
X129950738Y-147065000D01*
G75*
G02*
X129679000Y-146793262I0J271738D01*
G01*
X129679000Y-146086738D01*
G75*
G02*
X129950738Y-145815000I271738J0D01*
G01*
G37*
G36*
G01*
X129950738Y-143765000D02*
X130907262Y-143765000D01*
G75*
G02*
X131179000Y-144036738I0J-271738D01*
G01*
X131179000Y-144743262D01*
G75*
G02*
X130907262Y-145015000I-271738J0D01*
G01*
X129950738Y-145015000D01*
G75*
G02*
X129679000Y-144743262I0J271738D01*
G01*
X129679000Y-144036738D01*
G75*
G02*
X129950738Y-143765000I271738J0D01*
G01*
G37*
%TD*%
%TO.C,R55*%
G36*
G01*
X130907262Y-161144000D02*
X129950738Y-161144000D01*
G75*
G02*
X129679000Y-160872262I0J271738D01*
G01*
X129679000Y-160165738D01*
G75*
G02*
X129950738Y-159894000I271738J0D01*
G01*
X130907262Y-159894000D01*
G75*
G02*
X131179000Y-160165738I0J-271738D01*
G01*
X131179000Y-160872262D01*
G75*
G02*
X130907262Y-161144000I-271738J0D01*
G01*
G37*
G36*
G01*
X130907262Y-163194000D02*
X129950738Y-163194000D01*
G75*
G02*
X129679000Y-162922262I0J271738D01*
G01*
X129679000Y-162215738D01*
G75*
G02*
X129950738Y-161944000I271738J0D01*
G01*
X130907262Y-161944000D01*
G75*
G02*
X131179000Y-162215738I0J-271738D01*
G01*
X131179000Y-162922262D01*
G75*
G02*
X130907262Y-163194000I-271738J0D01*
G01*
G37*
%TD*%
%TO.C,R54*%
G36*
G01*
X128494262Y-161144000D02*
X127537738Y-161144000D01*
G75*
G02*
X127266000Y-160872262I0J271738D01*
G01*
X127266000Y-160165738D01*
G75*
G02*
X127537738Y-159894000I271738J0D01*
G01*
X128494262Y-159894000D01*
G75*
G02*
X128766000Y-160165738I0J-271738D01*
G01*
X128766000Y-160872262D01*
G75*
G02*
X128494262Y-161144000I-271738J0D01*
G01*
G37*
G36*
G01*
X128494262Y-163194000D02*
X127537738Y-163194000D01*
G75*
G02*
X127266000Y-162922262I0J271738D01*
G01*
X127266000Y-162215738D01*
G75*
G02*
X127537738Y-161944000I271738J0D01*
G01*
X128494262Y-161944000D01*
G75*
G02*
X128766000Y-162215738I0J-271738D01*
G01*
X128766000Y-162922262D01*
G75*
G02*
X128494262Y-163194000I-271738J0D01*
G01*
G37*
%TD*%
%TO.C,R53*%
G36*
G01*
X115726738Y-182645000D02*
X116683262Y-182645000D01*
G75*
G02*
X116955000Y-182916738I0J-271738D01*
G01*
X116955000Y-183623262D01*
G75*
G02*
X116683262Y-183895000I-271738J0D01*
G01*
X115726738Y-183895000D01*
G75*
G02*
X115455000Y-183623262I0J271738D01*
G01*
X115455000Y-182916738D01*
G75*
G02*
X115726738Y-182645000I271738J0D01*
G01*
G37*
G36*
G01*
X115726738Y-180595000D02*
X116683262Y-180595000D01*
G75*
G02*
X116955000Y-180866738I0J-271738D01*
G01*
X116955000Y-181573262D01*
G75*
G02*
X116683262Y-181845000I-271738J0D01*
G01*
X115726738Y-181845000D01*
G75*
G02*
X115455000Y-181573262I0J271738D01*
G01*
X115455000Y-180866738D01*
G75*
G02*
X115726738Y-180595000I271738J0D01*
G01*
G37*
%TD*%
%TO.C,Q17*%
G36*
G01*
X91744000Y-145848500D02*
X90944000Y-145848500D01*
G75*
G02*
X90894000Y-145798500I0J50000D01*
G01*
X90894000Y-144898500D01*
G75*
G02*
X90944000Y-144848500I50000J0D01*
G01*
X91744000Y-144848500D01*
G75*
G02*
X91794000Y-144898500I0J-50000D01*
G01*
X91794000Y-145798500D01*
G75*
G02*
X91744000Y-145848500I-50000J0D01*
G01*
G37*
G36*
G01*
X92694000Y-147848500D02*
X91894000Y-147848500D01*
G75*
G02*
X91844000Y-147798500I0J50000D01*
G01*
X91844000Y-146898500D01*
G75*
G02*
X91894000Y-146848500I50000J0D01*
G01*
X92694000Y-146848500D01*
G75*
G02*
X92744000Y-146898500I0J-50000D01*
G01*
X92744000Y-147798500D01*
G75*
G02*
X92694000Y-147848500I-50000J0D01*
G01*
G37*
G36*
G01*
X90794000Y-147848500D02*
X89994000Y-147848500D01*
G75*
G02*
X89944000Y-147798500I0J50000D01*
G01*
X89944000Y-146898500D01*
G75*
G02*
X89994000Y-146848500I50000J0D01*
G01*
X90794000Y-146848500D01*
G75*
G02*
X90844000Y-146898500I0J-50000D01*
G01*
X90844000Y-147798500D01*
G75*
G02*
X90794000Y-147848500I-50000J0D01*
G01*
G37*
%TD*%
%TO.C,R23*%
G36*
G01*
X76219000Y-200249262D02*
X76219000Y-199292738D01*
G75*
G02*
X76490738Y-199021000I271738J0D01*
G01*
X77197262Y-199021000D01*
G75*
G02*
X77469000Y-199292738I0J-271738D01*
G01*
X77469000Y-200249262D01*
G75*
G02*
X77197262Y-200521000I-271738J0D01*
G01*
X76490738Y-200521000D01*
G75*
G02*
X76219000Y-200249262I0J271738D01*
G01*
G37*
G36*
G01*
X74169000Y-200249262D02*
X74169000Y-199292738D01*
G75*
G02*
X74440738Y-199021000I271738J0D01*
G01*
X75147262Y-199021000D01*
G75*
G02*
X75419000Y-199292738I0J-271738D01*
G01*
X75419000Y-200249262D01*
G75*
G02*
X75147262Y-200521000I-271738J0D01*
G01*
X74440738Y-200521000D01*
G75*
G02*
X74169000Y-200249262I0J271738D01*
G01*
G37*
%TD*%
%TO.C,R22*%
G36*
G01*
X92310000Y-202086738D02*
X92310000Y-203043262D01*
G75*
G02*
X92038262Y-203315000I-271738J0D01*
G01*
X91331738Y-203315000D01*
G75*
G02*
X91060000Y-203043262I0J271738D01*
G01*
X91060000Y-202086738D01*
G75*
G02*
X91331738Y-201815000I271738J0D01*
G01*
X92038262Y-201815000D01*
G75*
G02*
X92310000Y-202086738I0J-271738D01*
G01*
G37*
G36*
G01*
X94360000Y-202086738D02*
X94360000Y-203043262D01*
G75*
G02*
X94088262Y-203315000I-271738J0D01*
G01*
X93381738Y-203315000D01*
G75*
G02*
X93110000Y-203043262I0J271738D01*
G01*
X93110000Y-202086738D01*
G75*
G02*
X93381738Y-201815000I271738J0D01*
G01*
X94088262Y-201815000D01*
G75*
G02*
X94360000Y-202086738I0J-271738D01*
G01*
G37*
%TD*%
%TO.C,C6*%
G36*
G01*
X78505000Y-204821262D02*
X78505000Y-203864738D01*
G75*
G02*
X78776738Y-203593000I271738J0D01*
G01*
X79483262Y-203593000D01*
G75*
G02*
X79755000Y-203864738I0J-271738D01*
G01*
X79755000Y-204821262D01*
G75*
G02*
X79483262Y-205093000I-271738J0D01*
G01*
X78776738Y-205093000D01*
G75*
G02*
X78505000Y-204821262I0J271738D01*
G01*
G37*
G36*
G01*
X76455000Y-204821262D02*
X76455000Y-203864738D01*
G75*
G02*
X76726738Y-203593000I271738J0D01*
G01*
X77433262Y-203593000D01*
G75*
G02*
X77705000Y-203864738I0J-271738D01*
G01*
X77705000Y-204821262D01*
G75*
G02*
X77433262Y-205093000I-271738J0D01*
G01*
X76726738Y-205093000D01*
G75*
G02*
X76455000Y-204821262I0J271738D01*
G01*
G37*
%TD*%
D14*
%TO.C,U8*%
X172085000Y-146050000D03*
X164465000Y-153670000D03*
X172085000Y-148590000D03*
X164465000Y-151130000D03*
X172085000Y-151130000D03*
X164465000Y-148590000D03*
X172085000Y-153670000D03*
G36*
G01*
X163615000Y-146850000D02*
X163615000Y-145250000D01*
G75*
G02*
X163665000Y-145200000I50000J0D01*
G01*
X165265000Y-145200000D01*
G75*
G02*
X165315000Y-145250000I0J-50000D01*
G01*
X165315000Y-146850000D01*
G75*
G02*
X165265000Y-146900000I-50000J0D01*
G01*
X163665000Y-146900000D01*
G75*
G02*
X163615000Y-146850000I0J50000D01*
G01*
G37*
%TD*%
%TO.C,Q14*%
G36*
G01*
X118503000Y-107110000D02*
X120003000Y-107110000D01*
G75*
G02*
X120053000Y-107160000I0J-50000D01*
G01*
X120053000Y-108660000D01*
G75*
G02*
X120003000Y-108710000I-50000J0D01*
G01*
X118503000Y-108710000D01*
G75*
G02*
X118453000Y-108660000I0J50000D01*
G01*
X118453000Y-107160000D01*
G75*
G02*
X118503000Y-107110000I50000J0D01*
G01*
G37*
D15*
X114173000Y-107910000D03*
X116713000Y-107910000D03*
%TD*%
%TO.C,Q13*%
G36*
G01*
X125869000Y-107110000D02*
X127369000Y-107110000D01*
G75*
G02*
X127419000Y-107160000I0J-50000D01*
G01*
X127419000Y-108660000D01*
G75*
G02*
X127369000Y-108710000I-50000J0D01*
G01*
X125869000Y-108710000D01*
G75*
G02*
X125819000Y-108660000I0J50000D01*
G01*
X125819000Y-107160000D01*
G75*
G02*
X125869000Y-107110000I50000J0D01*
G01*
G37*
X121539000Y-107910000D03*
X124079000Y-107910000D03*
%TD*%
%TO.C,Q12*%
G36*
G01*
X135140000Y-107110000D02*
X136640000Y-107110000D01*
G75*
G02*
X136690000Y-107160000I0J-50000D01*
G01*
X136690000Y-108660000D01*
G75*
G02*
X136640000Y-108710000I-50000J0D01*
G01*
X135140000Y-108710000D01*
G75*
G02*
X135090000Y-108660000I0J50000D01*
G01*
X135090000Y-107160000D01*
G75*
G02*
X135140000Y-107110000I50000J0D01*
G01*
G37*
X130810000Y-107910000D03*
X133350000Y-107910000D03*
%TD*%
%TO.C,Q11*%
G36*
G01*
X142252000Y-107110000D02*
X143752000Y-107110000D01*
G75*
G02*
X143802000Y-107160000I0J-50000D01*
G01*
X143802000Y-108660000D01*
G75*
G02*
X143752000Y-108710000I-50000J0D01*
G01*
X142252000Y-108710000D01*
G75*
G02*
X142202000Y-108660000I0J50000D01*
G01*
X142202000Y-107160000D01*
G75*
G02*
X142252000Y-107110000I50000J0D01*
G01*
G37*
X137922000Y-107910000D03*
X140462000Y-107910000D03*
%TD*%
%TO.C,Q10*%
G36*
G01*
X152158000Y-107110000D02*
X153658000Y-107110000D01*
G75*
G02*
X153708000Y-107160000I0J-50000D01*
G01*
X153708000Y-108660000D01*
G75*
G02*
X153658000Y-108710000I-50000J0D01*
G01*
X152158000Y-108710000D01*
G75*
G02*
X152108000Y-108660000I0J50000D01*
G01*
X152108000Y-107160000D01*
G75*
G02*
X152158000Y-107110000I50000J0D01*
G01*
G37*
X147828000Y-107910000D03*
X150368000Y-107910000D03*
%TD*%
%TO.C,Q9*%
G36*
G01*
X159397000Y-107110000D02*
X160897000Y-107110000D01*
G75*
G02*
X160947000Y-107160000I0J-50000D01*
G01*
X160947000Y-108660000D01*
G75*
G02*
X160897000Y-108710000I-50000J0D01*
G01*
X159397000Y-108710000D01*
G75*
G02*
X159347000Y-108660000I0J50000D01*
G01*
X159347000Y-107160000D01*
G75*
G02*
X159397000Y-107110000I50000J0D01*
G01*
G37*
X155067000Y-107910000D03*
X157607000Y-107910000D03*
%TD*%
%TO.C,Q8*%
G36*
G01*
X169176000Y-107150000D02*
X170676000Y-107150000D01*
G75*
G02*
X170726000Y-107200000I0J-50000D01*
G01*
X170726000Y-108700000D01*
G75*
G02*
X170676000Y-108750000I-50000J0D01*
G01*
X169176000Y-108750000D01*
G75*
G02*
X169126000Y-108700000I0J50000D01*
G01*
X169126000Y-107200000D01*
G75*
G02*
X169176000Y-107150000I50000J0D01*
G01*
G37*
X164846000Y-107950000D03*
X167386000Y-107950000D03*
%TD*%
%TO.C,Q7*%
G36*
G01*
X176542000Y-107150000D02*
X178042000Y-107150000D01*
G75*
G02*
X178092000Y-107200000I0J-50000D01*
G01*
X178092000Y-108700000D01*
G75*
G02*
X178042000Y-108750000I-50000J0D01*
G01*
X176542000Y-108750000D01*
G75*
G02*
X176492000Y-108700000I0J50000D01*
G01*
X176492000Y-107200000D01*
G75*
G02*
X176542000Y-107150000I50000J0D01*
G01*
G37*
X172212000Y-107950000D03*
X174752000Y-107950000D03*
%TD*%
%TO.C,Q6*%
G36*
G01*
X98336000Y-124368250D02*
X98336000Y-125868250D01*
G75*
G02*
X98286000Y-125918250I-50000J0D01*
G01*
X96786000Y-125918250D01*
G75*
G02*
X96736000Y-125868250I0J50000D01*
G01*
X96736000Y-124368250D01*
G75*
G02*
X96786000Y-124318250I50000J0D01*
G01*
X98286000Y-124318250D01*
G75*
G02*
X98336000Y-124368250I0J-50000D01*
G01*
G37*
X97536000Y-120038250D03*
X97536000Y-122578250D03*
%TD*%
%TO.C,Q5*%
G36*
G01*
X110147000Y-124495250D02*
X110147000Y-125995250D01*
G75*
G02*
X110097000Y-126045250I-50000J0D01*
G01*
X108597000Y-126045250D01*
G75*
G02*
X108547000Y-125995250I0J50000D01*
G01*
X108547000Y-124495250D01*
G75*
G02*
X108597000Y-124445250I50000J0D01*
G01*
X110097000Y-124445250D01*
G75*
G02*
X110147000Y-124495250I0J-50000D01*
G01*
G37*
X109347000Y-120165250D03*
X109347000Y-122705250D03*
%TD*%
%TO.C,R52*%
G36*
G01*
X88050000Y-172958766D02*
X88050000Y-172002242D01*
G75*
G02*
X88321738Y-171730504I271738J0D01*
G01*
X89028262Y-171730504D01*
G75*
G02*
X89300000Y-172002242I0J-271738D01*
G01*
X89300000Y-172958766D01*
G75*
G02*
X89028262Y-173230504I-271738J0D01*
G01*
X88321738Y-173230504D01*
G75*
G02*
X88050000Y-172958766I0J271738D01*
G01*
G37*
G36*
G01*
X86000000Y-172958766D02*
X86000000Y-172002242D01*
G75*
G02*
X86271738Y-171730504I271738J0D01*
G01*
X86978262Y-171730504D01*
G75*
G02*
X87250000Y-172002242I0J-271738D01*
G01*
X87250000Y-172958766D01*
G75*
G02*
X86978262Y-173230504I-271738J0D01*
G01*
X86271738Y-173230504D01*
G75*
G02*
X86000000Y-172958766I0J271738D01*
G01*
G37*
%TD*%
D11*
%TO.C,TP12*%
X132969000Y-178181000D03*
G36*
G01*
X133869000Y-179871000D02*
X133869000Y-181571000D01*
G75*
G02*
X133819000Y-181621000I-50000J0D01*
G01*
X132119000Y-181621000D01*
G75*
G02*
X132069000Y-181571000I0J50000D01*
G01*
X132069000Y-179871000D01*
G75*
G02*
X132119000Y-179821000I50000J0D01*
G01*
X133819000Y-179821000D01*
G75*
G02*
X133869000Y-179871000I0J-50000D01*
G01*
G37*
%TD*%
%TO.C,R34*%
G36*
G01*
X97633262Y-199945000D02*
X96676738Y-199945000D01*
G75*
G02*
X96405000Y-199673262I0J271738D01*
G01*
X96405000Y-198966738D01*
G75*
G02*
X96676738Y-198695000I271738J0D01*
G01*
X97633262Y-198695000D01*
G75*
G02*
X97905000Y-198966738I0J-271738D01*
G01*
X97905000Y-199673262D01*
G75*
G02*
X97633262Y-199945000I-271738J0D01*
G01*
G37*
G36*
G01*
X97633262Y-201995000D02*
X96676738Y-201995000D01*
G75*
G02*
X96405000Y-201723262I0J271738D01*
G01*
X96405000Y-201016738D01*
G75*
G02*
X96676738Y-200745000I271738J0D01*
G01*
X97633262Y-200745000D01*
G75*
G02*
X97905000Y-201016738I0J-271738D01*
G01*
X97905000Y-201723262D01*
G75*
G02*
X97633262Y-201995000I-271738J0D01*
G01*
G37*
%TD*%
%TO.C,R33*%
G36*
G01*
X93578262Y-192997500D02*
X92621738Y-192997500D01*
G75*
G02*
X92350000Y-192725762I0J271738D01*
G01*
X92350000Y-192019238D01*
G75*
G02*
X92621738Y-191747500I271738J0D01*
G01*
X93578262Y-191747500D01*
G75*
G02*
X93850000Y-192019238I0J-271738D01*
G01*
X93850000Y-192725762D01*
G75*
G02*
X93578262Y-192997500I-271738J0D01*
G01*
G37*
G36*
G01*
X93578262Y-195047500D02*
X92621738Y-195047500D01*
G75*
G02*
X92350000Y-194775762I0J271738D01*
G01*
X92350000Y-194069238D01*
G75*
G02*
X92621738Y-193797500I271738J0D01*
G01*
X93578262Y-193797500D01*
G75*
G02*
X93850000Y-194069238I0J-271738D01*
G01*
X93850000Y-194775762D01*
G75*
G02*
X93578262Y-195047500I-271738J0D01*
G01*
G37*
%TD*%
D16*
%TO.C,R30*%
X279400000Y-195825000D03*
D17*
X248920000Y-195825000D03*
%TD*%
D16*
%TO.C,R29*%
X279400000Y-185275000D03*
D17*
X248920000Y-185275000D03*
%TD*%
D16*
%TO.C,R26*%
X279400000Y-206375000D03*
D17*
X248920000Y-206375000D03*
%TD*%
%TO.C,C38*%
X215625000Y-196215000D03*
X238125000Y-196215000D03*
%TD*%
%TO.C,C21*%
X215625000Y-173355000D03*
X238125000Y-173355000D03*
%TD*%
%TO.C,D28*%
G36*
G01*
X92711500Y-152532500D02*
X92711500Y-150832500D01*
G75*
G02*
X92761500Y-150782500I50000J0D01*
G01*
X94061500Y-150782500D01*
G75*
G02*
X94111500Y-150832500I0J-50000D01*
G01*
X94111500Y-152532500D01*
G75*
G02*
X94061500Y-152582500I-50000J0D01*
G01*
X92761500Y-152582500D01*
G75*
G02*
X92711500Y-152532500I0J50000D01*
G01*
G37*
G36*
G01*
X89211500Y-152532500D02*
X89211500Y-150832500D01*
G75*
G02*
X89261500Y-150782500I50000J0D01*
G01*
X90561500Y-150782500D01*
G75*
G02*
X90611500Y-150832500I0J-50000D01*
G01*
X90611500Y-152532500D01*
G75*
G02*
X90561500Y-152582500I-50000J0D01*
G01*
X89261500Y-152582500D01*
G75*
G02*
X89211500Y-152532500I0J50000D01*
G01*
G37*
%TD*%
%TO.C,D27*%
G36*
G01*
X81179000Y-146270000D02*
X79479000Y-146270000D01*
G75*
G02*
X79429000Y-146220000I0J50000D01*
G01*
X79429000Y-144920000D01*
G75*
G02*
X79479000Y-144870000I50000J0D01*
G01*
X81179000Y-144870000D01*
G75*
G02*
X81229000Y-144920000I0J-50000D01*
G01*
X81229000Y-146220000D01*
G75*
G02*
X81179000Y-146270000I-50000J0D01*
G01*
G37*
G36*
G01*
X81179000Y-149770000D02*
X79479000Y-149770000D01*
G75*
G02*
X79429000Y-149720000I0J50000D01*
G01*
X79429000Y-148420000D01*
G75*
G02*
X79479000Y-148370000I50000J0D01*
G01*
X81179000Y-148370000D01*
G75*
G02*
X81229000Y-148420000I0J-50000D01*
G01*
X81229000Y-149720000D01*
G75*
G02*
X81179000Y-149770000I-50000J0D01*
G01*
G37*
%TD*%
%TO.C,D26*%
G36*
G01*
X76939000Y-148370000D02*
X78639000Y-148370000D01*
G75*
G02*
X78689000Y-148420000I0J-50000D01*
G01*
X78689000Y-149720000D01*
G75*
G02*
X78639000Y-149770000I-50000J0D01*
G01*
X76939000Y-149770000D01*
G75*
G02*
X76889000Y-149720000I0J50000D01*
G01*
X76889000Y-148420000D01*
G75*
G02*
X76939000Y-148370000I50000J0D01*
G01*
G37*
G36*
G01*
X76939000Y-144870000D02*
X78639000Y-144870000D01*
G75*
G02*
X78689000Y-144920000I0J-50000D01*
G01*
X78689000Y-146220000D01*
G75*
G02*
X78639000Y-146270000I-50000J0D01*
G01*
X76939000Y-146270000D01*
G75*
G02*
X76889000Y-146220000I0J50000D01*
G01*
X76889000Y-144920000D01*
G75*
G02*
X76939000Y-144870000I50000J0D01*
G01*
G37*
%TD*%
%TO.C,R8*%
G36*
G01*
X124616738Y-178200000D02*
X125573262Y-178200000D01*
G75*
G02*
X125845000Y-178471738I0J-271738D01*
G01*
X125845000Y-179178262D01*
G75*
G02*
X125573262Y-179450000I-271738J0D01*
G01*
X124616738Y-179450000D01*
G75*
G02*
X124345000Y-179178262I0J271738D01*
G01*
X124345000Y-178471738D01*
G75*
G02*
X124616738Y-178200000I271738J0D01*
G01*
G37*
G36*
G01*
X124616738Y-176150000D02*
X125573262Y-176150000D01*
G75*
G02*
X125845000Y-176421738I0J-271738D01*
G01*
X125845000Y-177128262D01*
G75*
G02*
X125573262Y-177400000I-271738J0D01*
G01*
X124616738Y-177400000D01*
G75*
G02*
X124345000Y-177128262I0J271738D01*
G01*
X124345000Y-176421738D01*
G75*
G02*
X124616738Y-176150000I271738J0D01*
G01*
G37*
%TD*%
D18*
%TO.C,C3*%
X231615000Y-86995000D03*
G36*
G01*
X219565000Y-88995000D02*
X219565000Y-84995000D01*
G75*
G02*
X219615000Y-84945000I50000J0D01*
G01*
X223615000Y-84945000D01*
G75*
G02*
X223665000Y-84995000I0J-50000D01*
G01*
X223665000Y-88995000D01*
G75*
G02*
X223615000Y-89045000I-50000J0D01*
G01*
X219615000Y-89045000D01*
G75*
G02*
X219565000Y-88995000I0J50000D01*
G01*
G37*
%TD*%
%TO.C,C2*%
G36*
G01*
X268750000Y-136430000D02*
X268750000Y-140430000D01*
G75*
G02*
X268700000Y-140480000I-50000J0D01*
G01*
X264700000Y-140480000D01*
G75*
G02*
X264650000Y-140430000I0J50000D01*
G01*
X264650000Y-136430000D01*
G75*
G02*
X264700000Y-136380000I50000J0D01*
G01*
X268700000Y-136380000D01*
G75*
G02*
X268750000Y-136430000I0J-50000D01*
G01*
G37*
X256700000Y-138430000D03*
%TD*%
%TO.C,C1*%
X231615000Y-124460000D03*
G36*
G01*
X219565000Y-126460000D02*
X219565000Y-122460000D01*
G75*
G02*
X219615000Y-122410000I50000J0D01*
G01*
X223615000Y-122410000D01*
G75*
G02*
X223665000Y-122460000I0J-50000D01*
G01*
X223665000Y-126460000D01*
G75*
G02*
X223615000Y-126510000I-50000J0D01*
G01*
X219615000Y-126510000D01*
G75*
G02*
X219565000Y-126460000I0J50000D01*
G01*
G37*
%TD*%
%TO.C,U13*%
G36*
X81669673Y-168455092D02*
G01*
X81638499Y-168466000D01*
X79905500Y-168466000D01*
X79866408Y-168447174D01*
X79855500Y-168416000D01*
X79855500Y-165290999D01*
X79874326Y-165251907D01*
X79905500Y-165240999D01*
X80272000Y-165240999D01*
X80272001Y-163816000D01*
X80290827Y-163776908D01*
X80322001Y-163766000D01*
X81222000Y-163766001D01*
X81261092Y-163784827D01*
X81272000Y-163816001D01*
X81271999Y-165241000D01*
X81638499Y-165241000D01*
X81677591Y-165259826D01*
X81688499Y-165291000D01*
X81688499Y-168416000D01*
X81669673Y-168455092D01*
G37*
G36*
G01*
X78822000Y-163766000D02*
X79722000Y-163766000D01*
G75*
G02*
X79772000Y-163816000I0J-50000D01*
G01*
X79772000Y-165116000D01*
G75*
G02*
X79722000Y-165166000I-50000J0D01*
G01*
X78822000Y-165166000D01*
G75*
G02*
X78772000Y-165116000I0J50000D01*
G01*
X78772000Y-163816000D01*
G75*
G02*
X78822000Y-163766000I50000J0D01*
G01*
G37*
G36*
G01*
X81822000Y-163766000D02*
X82722000Y-163766000D01*
G75*
G02*
X82772000Y-163816000I0J-50000D01*
G01*
X82772000Y-165116000D01*
G75*
G02*
X82722000Y-165166000I-50000J0D01*
G01*
X81822000Y-165166000D01*
G75*
G02*
X81772000Y-165116000I0J50000D01*
G01*
X81772000Y-163816000D01*
G75*
G02*
X81822000Y-163766000I50000J0D01*
G01*
G37*
%TD*%
%TO.C,U5*%
G36*
G01*
X93210000Y-197885000D02*
X93210000Y-197085000D01*
G75*
G02*
X93260000Y-197035000I50000J0D01*
G01*
X94160000Y-197035000D01*
G75*
G02*
X94210000Y-197085000I0J-50000D01*
G01*
X94210000Y-197885000D01*
G75*
G02*
X94160000Y-197935000I-50000J0D01*
G01*
X93260000Y-197935000D01*
G75*
G02*
X93210000Y-197885000I0J50000D01*
G01*
G37*
G36*
G01*
X91210000Y-198835000D02*
X91210000Y-198035000D01*
G75*
G02*
X91260000Y-197985000I50000J0D01*
G01*
X92160000Y-197985000D01*
G75*
G02*
X92210000Y-198035000I0J-50000D01*
G01*
X92210000Y-198835000D01*
G75*
G02*
X92160000Y-198885000I-50000J0D01*
G01*
X91260000Y-198885000D01*
G75*
G02*
X91210000Y-198835000I0J50000D01*
G01*
G37*
G36*
G01*
X91210000Y-196935000D02*
X91210000Y-196135000D01*
G75*
G02*
X91260000Y-196085000I50000J0D01*
G01*
X92160000Y-196085000D01*
G75*
G02*
X92210000Y-196135000I0J-50000D01*
G01*
X92210000Y-196935000D01*
G75*
G02*
X92160000Y-196985000I-50000J0D01*
G01*
X91260000Y-196985000D01*
G75*
G02*
X91210000Y-196935000I0J50000D01*
G01*
G37*
%TD*%
%TO.C,U3*%
G36*
G01*
X83365000Y-191945000D02*
X83365000Y-191595000D01*
G75*
G02*
X83540000Y-191420000I175000J0D01*
G01*
X85240000Y-191420000D01*
G75*
G02*
X85415000Y-191595000I0J-175000D01*
G01*
X85415000Y-191945000D01*
G75*
G02*
X85240000Y-192120000I-175000J0D01*
G01*
X83540000Y-192120000D01*
G75*
G02*
X83365000Y-191945000I0J175000D01*
G01*
G37*
G36*
G01*
X83365000Y-193215000D02*
X83365000Y-192865000D01*
G75*
G02*
X83540000Y-192690000I175000J0D01*
G01*
X85240000Y-192690000D01*
G75*
G02*
X85415000Y-192865000I0J-175000D01*
G01*
X85415000Y-193215000D01*
G75*
G02*
X85240000Y-193390000I-175000J0D01*
G01*
X83540000Y-193390000D01*
G75*
G02*
X83365000Y-193215000I0J175000D01*
G01*
G37*
G36*
G01*
X83365000Y-194485000D02*
X83365000Y-194135000D01*
G75*
G02*
X83540000Y-193960000I175000J0D01*
G01*
X85240000Y-193960000D01*
G75*
G02*
X85415000Y-194135000I0J-175000D01*
G01*
X85415000Y-194485000D01*
G75*
G02*
X85240000Y-194660000I-175000J0D01*
G01*
X83540000Y-194660000D01*
G75*
G02*
X83365000Y-194485000I0J175000D01*
G01*
G37*
G36*
G01*
X83365000Y-195755000D02*
X83365000Y-195405000D01*
G75*
G02*
X83540000Y-195230000I175000J0D01*
G01*
X85240000Y-195230000D01*
G75*
G02*
X85415000Y-195405000I0J-175000D01*
G01*
X85415000Y-195755000D01*
G75*
G02*
X85240000Y-195930000I-175000J0D01*
G01*
X83540000Y-195930000D01*
G75*
G02*
X83365000Y-195755000I0J175000D01*
G01*
G37*
G36*
G01*
X83365000Y-197025000D02*
X83365000Y-196675000D01*
G75*
G02*
X83540000Y-196500000I175000J0D01*
G01*
X85240000Y-196500000D01*
G75*
G02*
X85415000Y-196675000I0J-175000D01*
G01*
X85415000Y-197025000D01*
G75*
G02*
X85240000Y-197200000I-175000J0D01*
G01*
X83540000Y-197200000D01*
G75*
G02*
X83365000Y-197025000I0J175000D01*
G01*
G37*
G36*
G01*
X83365000Y-198295000D02*
X83365000Y-197945000D01*
G75*
G02*
X83540000Y-197770000I175000J0D01*
G01*
X85240000Y-197770000D01*
G75*
G02*
X85415000Y-197945000I0J-175000D01*
G01*
X85415000Y-198295000D01*
G75*
G02*
X85240000Y-198470000I-175000J0D01*
G01*
X83540000Y-198470000D01*
G75*
G02*
X83365000Y-198295000I0J175000D01*
G01*
G37*
G36*
G01*
X83365000Y-199565000D02*
X83365000Y-199215000D01*
G75*
G02*
X83540000Y-199040000I175000J0D01*
G01*
X85240000Y-199040000D01*
G75*
G02*
X85415000Y-199215000I0J-175000D01*
G01*
X85415000Y-199565000D01*
G75*
G02*
X85240000Y-199740000I-175000J0D01*
G01*
X83540000Y-199740000D01*
G75*
G02*
X83365000Y-199565000I0J175000D01*
G01*
G37*
G36*
G01*
X78415000Y-199565000D02*
X78415000Y-199215000D01*
G75*
G02*
X78590000Y-199040000I175000J0D01*
G01*
X80290000Y-199040000D01*
G75*
G02*
X80465000Y-199215000I0J-175000D01*
G01*
X80465000Y-199565000D01*
G75*
G02*
X80290000Y-199740000I-175000J0D01*
G01*
X78590000Y-199740000D01*
G75*
G02*
X78415000Y-199565000I0J175000D01*
G01*
G37*
G36*
G01*
X78415000Y-198295000D02*
X78415000Y-197945000D01*
G75*
G02*
X78590000Y-197770000I175000J0D01*
G01*
X80290000Y-197770000D01*
G75*
G02*
X80465000Y-197945000I0J-175000D01*
G01*
X80465000Y-198295000D01*
G75*
G02*
X80290000Y-198470000I-175000J0D01*
G01*
X78590000Y-198470000D01*
G75*
G02*
X78415000Y-198295000I0J175000D01*
G01*
G37*
G36*
G01*
X78415000Y-197025000D02*
X78415000Y-196675000D01*
G75*
G02*
X78590000Y-196500000I175000J0D01*
G01*
X80290000Y-196500000D01*
G75*
G02*
X80465000Y-196675000I0J-175000D01*
G01*
X80465000Y-197025000D01*
G75*
G02*
X80290000Y-197200000I-175000J0D01*
G01*
X78590000Y-197200000D01*
G75*
G02*
X78415000Y-197025000I0J175000D01*
G01*
G37*
G36*
G01*
X78415000Y-195755000D02*
X78415000Y-195405000D01*
G75*
G02*
X78590000Y-195230000I175000J0D01*
G01*
X80290000Y-195230000D01*
G75*
G02*
X80465000Y-195405000I0J-175000D01*
G01*
X80465000Y-195755000D01*
G75*
G02*
X80290000Y-195930000I-175000J0D01*
G01*
X78590000Y-195930000D01*
G75*
G02*
X78415000Y-195755000I0J175000D01*
G01*
G37*
G36*
G01*
X78415000Y-194485000D02*
X78415000Y-194135000D01*
G75*
G02*
X78590000Y-193960000I175000J0D01*
G01*
X80290000Y-193960000D01*
G75*
G02*
X80465000Y-194135000I0J-175000D01*
G01*
X80465000Y-194485000D01*
G75*
G02*
X80290000Y-194660000I-175000J0D01*
G01*
X78590000Y-194660000D01*
G75*
G02*
X78415000Y-194485000I0J175000D01*
G01*
G37*
G36*
G01*
X78415000Y-193215000D02*
X78415000Y-192865000D01*
G75*
G02*
X78590000Y-192690000I175000J0D01*
G01*
X80290000Y-192690000D01*
G75*
G02*
X80465000Y-192865000I0J-175000D01*
G01*
X80465000Y-193215000D01*
G75*
G02*
X80290000Y-193390000I-175000J0D01*
G01*
X78590000Y-193390000D01*
G75*
G02*
X78415000Y-193215000I0J175000D01*
G01*
G37*
G36*
G01*
X78415000Y-191945000D02*
X78415000Y-191595000D01*
G75*
G02*
X78590000Y-191420000I175000J0D01*
G01*
X80290000Y-191420000D01*
G75*
G02*
X80465000Y-191595000I0J-175000D01*
G01*
X80465000Y-191945000D01*
G75*
G02*
X80290000Y-192120000I-175000J0D01*
G01*
X78590000Y-192120000D01*
G75*
G02*
X78415000Y-191945000I0J175000D01*
G01*
G37*
%TD*%
D11*
%TO.C,TP11*%
X337820000Y-77470000D03*
G36*
G01*
X338720000Y-79160000D02*
X338720000Y-80860000D01*
G75*
G02*
X338670000Y-80910000I-50000J0D01*
G01*
X336970000Y-80910000D01*
G75*
G02*
X336920000Y-80860000I0J50000D01*
G01*
X336920000Y-79160000D01*
G75*
G02*
X336970000Y-79110000I50000J0D01*
G01*
X338670000Y-79110000D01*
G75*
G02*
X338720000Y-79160000I0J-50000D01*
G01*
G37*
%TD*%
%TO.C,TP10*%
X208915000Y-200025000D03*
G36*
G01*
X209815000Y-201715000D02*
X209815000Y-203415000D01*
G75*
G02*
X209765000Y-203465000I-50000J0D01*
G01*
X208065000Y-203465000D01*
G75*
G02*
X208015000Y-203415000I0J50000D01*
G01*
X208015000Y-201715000D01*
G75*
G02*
X208065000Y-201665000I50000J0D01*
G01*
X209765000Y-201665000D01*
G75*
G02*
X209815000Y-201715000I0J-50000D01*
G01*
G37*
%TD*%
%TO.C,TP9*%
X208915000Y-181610000D03*
G36*
G01*
X209815000Y-183300000D02*
X209815000Y-185000000D01*
G75*
G02*
X209765000Y-185050000I-50000J0D01*
G01*
X208065000Y-185050000D01*
G75*
G02*
X208015000Y-185000000I0J50000D01*
G01*
X208015000Y-183300000D01*
G75*
G02*
X208065000Y-183250000I50000J0D01*
G01*
X209765000Y-183250000D01*
G75*
G02*
X209815000Y-183300000I0J-50000D01*
G01*
G37*
%TD*%
%TO.C,TP8*%
X244475000Y-205740000D03*
G36*
G01*
X242785000Y-206640000D02*
X241085000Y-206640000D01*
G75*
G02*
X241035000Y-206590000I0J50000D01*
G01*
X241035000Y-204890000D01*
G75*
G02*
X241085000Y-204840000I50000J0D01*
G01*
X242785000Y-204840000D01*
G75*
G02*
X242835000Y-204890000I0J-50000D01*
G01*
X242835000Y-206590000D01*
G75*
G02*
X242785000Y-206640000I-50000J0D01*
G01*
G37*
%TD*%
%TO.C,TP7*%
X246380000Y-156210000D03*
G36*
G01*
X244690000Y-157110000D02*
X242990000Y-157110000D01*
G75*
G02*
X242940000Y-157060000I0J50000D01*
G01*
X242940000Y-155360000D01*
G75*
G02*
X242990000Y-155310000I50000J0D01*
G01*
X244690000Y-155310000D01*
G75*
G02*
X244740000Y-155360000I0J-50000D01*
G01*
X244740000Y-157060000D01*
G75*
G02*
X244690000Y-157110000I-50000J0D01*
G01*
G37*
%TD*%
%TO.C,TP6*%
X356870000Y-161925000D03*
G36*
G01*
X357770000Y-163615000D02*
X357770000Y-165315000D01*
G75*
G02*
X357720000Y-165365000I-50000J0D01*
G01*
X356020000Y-165365000D01*
G75*
G02*
X355970000Y-165315000I0J50000D01*
G01*
X355970000Y-163615000D01*
G75*
G02*
X356020000Y-163565000I50000J0D01*
G01*
X357720000Y-163565000D01*
G75*
G02*
X357770000Y-163615000I0J-50000D01*
G01*
G37*
%TD*%
%TO.C,TP5*%
X208915000Y-165100000D03*
G36*
G01*
X208015000Y-163410000D02*
X208015000Y-161710000D01*
G75*
G02*
X208065000Y-161660000I50000J0D01*
G01*
X209765000Y-161660000D01*
G75*
G02*
X209815000Y-161710000I0J-50000D01*
G01*
X209815000Y-163410000D01*
G75*
G02*
X209765000Y-163460000I-50000J0D01*
G01*
X208065000Y-163460000D01*
G75*
G02*
X208015000Y-163410000I0J50000D01*
G01*
G37*
%TD*%
%TO.C,TP4*%
X208915000Y-145415000D03*
G36*
G01*
X208015000Y-143725000D02*
X208015000Y-142025000D01*
G75*
G02*
X208065000Y-141975000I50000J0D01*
G01*
X209765000Y-141975000D01*
G75*
G02*
X209815000Y-142025000I0J-50000D01*
G01*
X209815000Y-143725000D01*
G75*
G02*
X209765000Y-143775000I-50000J0D01*
G01*
X208065000Y-143775000D01*
G75*
G02*
X208015000Y-143725000I0J50000D01*
G01*
G37*
%TD*%
%TO.C,TP3*%
X225425000Y-144780000D03*
G36*
G01*
X227115000Y-143880000D02*
X228815000Y-143880000D01*
G75*
G02*
X228865000Y-143930000I0J-50000D01*
G01*
X228865000Y-145630000D01*
G75*
G02*
X228815000Y-145680000I-50000J0D01*
G01*
X227115000Y-145680000D01*
G75*
G02*
X227065000Y-145630000I0J50000D01*
G01*
X227065000Y-143930000D01*
G75*
G02*
X227115000Y-143880000I50000J0D01*
G01*
G37*
%TD*%
%TO.C,TP2*%
X91440000Y-207010000D03*
G36*
G01*
X89750000Y-207910000D02*
X88050000Y-207910000D01*
G75*
G02*
X88000000Y-207860000I0J50000D01*
G01*
X88000000Y-206160000D01*
G75*
G02*
X88050000Y-206110000I50000J0D01*
G01*
X89750000Y-206110000D01*
G75*
G02*
X89800000Y-206160000I0J-50000D01*
G01*
X89800000Y-207860000D01*
G75*
G02*
X89750000Y-207910000I-50000J0D01*
G01*
G37*
%TD*%
%TO.C,TP1*%
X286385000Y-139700000D03*
G36*
G01*
X285485000Y-138010000D02*
X285485000Y-136310000D01*
G75*
G02*
X285535000Y-136260000I50000J0D01*
G01*
X287235000Y-136260000D01*
G75*
G02*
X287285000Y-136310000I0J-50000D01*
G01*
X287285000Y-138010000D01*
G75*
G02*
X287235000Y-138060000I-50000J0D01*
G01*
X285535000Y-138060000D01*
G75*
G02*
X285485000Y-138010000I0J50000D01*
G01*
G37*
%TD*%
D16*
%TO.C,R25*%
X279400000Y-163830000D03*
D17*
X248920000Y-163830000D03*
%TD*%
%TO.C,R21*%
G36*
G01*
X87611000Y-192434738D02*
X87611000Y-193391262D01*
G75*
G02*
X87339262Y-193663000I-271738J0D01*
G01*
X86632738Y-193663000D01*
G75*
G02*
X86361000Y-193391262I0J271738D01*
G01*
X86361000Y-192434738D01*
G75*
G02*
X86632738Y-192163000I271738J0D01*
G01*
X87339262Y-192163000D01*
G75*
G02*
X87611000Y-192434738I0J-271738D01*
G01*
G37*
G36*
G01*
X89661000Y-192434738D02*
X89661000Y-193391262D01*
G75*
G02*
X89389262Y-193663000I-271738J0D01*
G01*
X88682738Y-193663000D01*
G75*
G02*
X88411000Y-193391262I0J271738D01*
G01*
X88411000Y-192434738D01*
G75*
G02*
X88682738Y-192163000I271738J0D01*
G01*
X89389262Y-192163000D01*
G75*
G02*
X89661000Y-192434738I0J-271738D01*
G01*
G37*
%TD*%
%TO.C,R20*%
G36*
G01*
X92310000Y-200181738D02*
X92310000Y-201138262D01*
G75*
G02*
X92038262Y-201410000I-271738J0D01*
G01*
X91331738Y-201410000D01*
G75*
G02*
X91060000Y-201138262I0J271738D01*
G01*
X91060000Y-200181738D01*
G75*
G02*
X91331738Y-199910000I271738J0D01*
G01*
X92038262Y-199910000D01*
G75*
G02*
X92310000Y-200181738I0J-271738D01*
G01*
G37*
G36*
G01*
X94360000Y-200181738D02*
X94360000Y-201138262D01*
G75*
G02*
X94088262Y-201410000I-271738J0D01*
G01*
X93381738Y-201410000D01*
G75*
G02*
X93110000Y-201138262I0J271738D01*
G01*
X93110000Y-200181738D01*
G75*
G02*
X93381738Y-199910000I271738J0D01*
G01*
X94088262Y-199910000D01*
G75*
G02*
X94360000Y-200181738I0J-271738D01*
G01*
G37*
%TD*%
D16*
%TO.C,R19*%
X279400000Y-174625000D03*
D17*
X248920000Y-174625000D03*
%TD*%
%TO.C,R18*%
G36*
G01*
X84690000Y-189386738D02*
X84690000Y-190343262D01*
G75*
G02*
X84418262Y-190615000I-271738J0D01*
G01*
X83711738Y-190615000D01*
G75*
G02*
X83440000Y-190343262I0J271738D01*
G01*
X83440000Y-189386738D01*
G75*
G02*
X83711738Y-189115000I271738J0D01*
G01*
X84418262Y-189115000D01*
G75*
G02*
X84690000Y-189386738I0J-271738D01*
G01*
G37*
G36*
G01*
X86740000Y-189386738D02*
X86740000Y-190343262D01*
G75*
G02*
X86468262Y-190615000I-271738J0D01*
G01*
X85761738Y-190615000D01*
G75*
G02*
X85490000Y-190343262I0J271738D01*
G01*
X85490000Y-189386738D01*
G75*
G02*
X85761738Y-189115000I271738J0D01*
G01*
X86468262Y-189115000D01*
G75*
G02*
X86740000Y-189386738I0J-271738D01*
G01*
G37*
%TD*%
%TO.C,R17*%
G36*
G01*
X97780000Y-196729238D02*
X97780000Y-197685762D01*
G75*
G02*
X97508262Y-197957500I-271738J0D01*
G01*
X96801738Y-197957500D01*
G75*
G02*
X96530000Y-197685762I0J271738D01*
G01*
X96530000Y-196729238D01*
G75*
G02*
X96801738Y-196457500I271738J0D01*
G01*
X97508262Y-196457500D01*
G75*
G02*
X97780000Y-196729238I0J-271738D01*
G01*
G37*
G36*
G01*
X99830000Y-196729238D02*
X99830000Y-197685762D01*
G75*
G02*
X99558262Y-197957500I-271738J0D01*
G01*
X98851738Y-197957500D01*
G75*
G02*
X98580000Y-197685762I0J271738D01*
G01*
X98580000Y-196729238D01*
G75*
G02*
X98851738Y-196457500I271738J0D01*
G01*
X99558262Y-196457500D01*
G75*
G02*
X99830000Y-196729238I0J-271738D01*
G01*
G37*
%TD*%
%TO.C,R16*%
G36*
G01*
X81515000Y-201832738D02*
X81515000Y-202789262D01*
G75*
G02*
X81243262Y-203061000I-271738J0D01*
G01*
X80536738Y-203061000D01*
G75*
G02*
X80265000Y-202789262I0J271738D01*
G01*
X80265000Y-201832738D01*
G75*
G02*
X80536738Y-201561000I271738J0D01*
G01*
X81243262Y-201561000D01*
G75*
G02*
X81515000Y-201832738I0J-271738D01*
G01*
G37*
G36*
G01*
X83565000Y-201832738D02*
X83565000Y-202789262D01*
G75*
G02*
X83293262Y-203061000I-271738J0D01*
G01*
X82586738Y-203061000D01*
G75*
G02*
X82315000Y-202789262I0J271738D01*
G01*
X82315000Y-201832738D01*
G75*
G02*
X82586738Y-201561000I271738J0D01*
G01*
X83293262Y-201561000D01*
G75*
G02*
X83565000Y-201832738I0J-271738D01*
G01*
G37*
%TD*%
%TO.C,Q16*%
G36*
G01*
X100830000Y-200745000D02*
X100830000Y-199945000D01*
G75*
G02*
X100880000Y-199895000I50000J0D01*
G01*
X101780000Y-199895000D01*
G75*
G02*
X101830000Y-199945000I0J-50000D01*
G01*
X101830000Y-200745000D01*
G75*
G02*
X101780000Y-200795000I-50000J0D01*
G01*
X100880000Y-200795000D01*
G75*
G02*
X100830000Y-200745000I0J50000D01*
G01*
G37*
G36*
G01*
X98830000Y-201695000D02*
X98830000Y-200895000D01*
G75*
G02*
X98880000Y-200845000I50000J0D01*
G01*
X99780000Y-200845000D01*
G75*
G02*
X99830000Y-200895000I0J-50000D01*
G01*
X99830000Y-201695000D01*
G75*
G02*
X99780000Y-201745000I-50000J0D01*
G01*
X98880000Y-201745000D01*
G75*
G02*
X98830000Y-201695000I0J50000D01*
G01*
G37*
G36*
G01*
X98830000Y-199795000D02*
X98830000Y-198995000D01*
G75*
G02*
X98880000Y-198945000I50000J0D01*
G01*
X99780000Y-198945000D01*
G75*
G02*
X99830000Y-198995000I0J-50000D01*
G01*
X99830000Y-199795000D01*
G75*
G02*
X99780000Y-199845000I-50000J0D01*
G01*
X98880000Y-199845000D01*
G75*
G02*
X98830000Y-199795000I0J50000D01*
G01*
G37*
%TD*%
%TO.C,Q15*%
G36*
G01*
X96775000Y-193797500D02*
X96775000Y-192997500D01*
G75*
G02*
X96825000Y-192947500I50000J0D01*
G01*
X97725000Y-192947500D01*
G75*
G02*
X97775000Y-192997500I0J-50000D01*
G01*
X97775000Y-193797500D01*
G75*
G02*
X97725000Y-193847500I-50000J0D01*
G01*
X96825000Y-193847500D01*
G75*
G02*
X96775000Y-193797500I0J50000D01*
G01*
G37*
G36*
G01*
X94775000Y-194747500D02*
X94775000Y-193947500D01*
G75*
G02*
X94825000Y-193897500I50000J0D01*
G01*
X95725000Y-193897500D01*
G75*
G02*
X95775000Y-193947500I0J-50000D01*
G01*
X95775000Y-194747500D01*
G75*
G02*
X95725000Y-194797500I-50000J0D01*
G01*
X94825000Y-194797500D01*
G75*
G02*
X94775000Y-194747500I0J50000D01*
G01*
G37*
G36*
G01*
X94775000Y-192847500D02*
X94775000Y-192047500D01*
G75*
G02*
X94825000Y-191997500I50000J0D01*
G01*
X95725000Y-191997500D01*
G75*
G02*
X95775000Y-192047500I0J-50000D01*
G01*
X95775000Y-192847500D01*
G75*
G02*
X95725000Y-192897500I-50000J0D01*
G01*
X94825000Y-192897500D01*
G75*
G02*
X94775000Y-192847500I0J50000D01*
G01*
G37*
%TD*%
D11*
%TO.C,JP1*%
X89535000Y-187960000D03*
G36*
G01*
X91225000Y-187060000D02*
X92925000Y-187060000D01*
G75*
G02*
X92975000Y-187110000I0J-50000D01*
G01*
X92975000Y-188810000D01*
G75*
G02*
X92925000Y-188860000I-50000J0D01*
G01*
X91225000Y-188860000D01*
G75*
G02*
X91175000Y-188810000I0J50000D01*
G01*
X91175000Y-187110000D01*
G75*
G02*
X91225000Y-187060000I50000J0D01*
G01*
G37*
%TD*%
D19*
%TO.C,C37*%
X243840000Y-174785000D03*
X243840000Y-184785000D03*
%TD*%
D17*
%TO.C,C35*%
X287020000Y-208675000D03*
X287020000Y-193675000D03*
%TD*%
%TO.C,C34*%
X292735000Y-162165000D03*
X292735000Y-177165000D03*
%TD*%
%TO.C,C33*%
X295910000Y-208675000D03*
X295910000Y-193675000D03*
%TD*%
%TO.C,C32*%
X311785000Y-162165000D03*
X311785000Y-177165000D03*
%TD*%
%TO.C,C31*%
X304800000Y-208675000D03*
X304800000Y-193675000D03*
%TD*%
%TO.C,C30*%
X286385000Y-162165000D03*
X286385000Y-177165000D03*
%TD*%
%TO.C,C29*%
X313690000Y-208675000D03*
X313690000Y-193675000D03*
%TD*%
%TO.C,C28*%
X299085000Y-162165000D03*
X299085000Y-177165000D03*
%TD*%
%TO.C,C27*%
X305435000Y-162165000D03*
X305435000Y-177165000D03*
%TD*%
%TO.C,C26*%
X322856199Y-62470000D03*
X322856199Y-77470000D03*
%TD*%
%TO.C,C25*%
X328571199Y-62470000D03*
X328571199Y-77470000D03*
%TD*%
%TO.C,C24*%
G36*
G01*
X76356738Y-197123000D02*
X77313262Y-197123000D01*
G75*
G02*
X77585000Y-197394738I0J-271738D01*
G01*
X77585000Y-198101262D01*
G75*
G02*
X77313262Y-198373000I-271738J0D01*
G01*
X76356738Y-198373000D01*
G75*
G02*
X76085000Y-198101262I0J271738D01*
G01*
X76085000Y-197394738D01*
G75*
G02*
X76356738Y-197123000I271738J0D01*
G01*
G37*
G36*
G01*
X76356738Y-195073000D02*
X77313262Y-195073000D01*
G75*
G02*
X77585000Y-195344738I0J-271738D01*
G01*
X77585000Y-196051262D01*
G75*
G02*
X77313262Y-196323000I-271738J0D01*
G01*
X76356738Y-196323000D01*
G75*
G02*
X76085000Y-196051262I0J271738D01*
G01*
X76085000Y-195344738D01*
G75*
G02*
X76356738Y-195073000I271738J0D01*
G01*
G37*
%TD*%
D19*
%TO.C,C23*%
X277655000Y-155575000D03*
X287655000Y-155575000D03*
%TD*%
%TO.C,C5*%
G36*
G01*
X75930736Y-192805000D02*
X76887260Y-192805000D01*
G75*
G02*
X77158998Y-193076738I0J-271738D01*
G01*
X77158998Y-193783262D01*
G75*
G02*
X76887260Y-194055000I-271738J0D01*
G01*
X75930736Y-194055000D01*
G75*
G02*
X75658998Y-193783262I0J271738D01*
G01*
X75658998Y-193076738D01*
G75*
G02*
X75930736Y-192805000I271738J0D01*
G01*
G37*
G36*
G01*
X75930736Y-190755000D02*
X76887260Y-190755000D01*
G75*
G02*
X77158998Y-191026738I0J-271738D01*
G01*
X77158998Y-191733262D01*
G75*
G02*
X76887260Y-192005000I-271738J0D01*
G01*
X75930736Y-192005000D01*
G75*
G02*
X75658998Y-191733262I0J271738D01*
G01*
X75658998Y-191026738D01*
G75*
G02*
X75930736Y-190755000I271738J0D01*
G01*
G37*
%TD*%
%TO.C,C4*%
G36*
G01*
X82315000Y-204821262D02*
X82315000Y-203864738D01*
G75*
G02*
X82586738Y-203593000I271738J0D01*
G01*
X83293262Y-203593000D01*
G75*
G02*
X83565000Y-203864738I0J-271738D01*
G01*
X83565000Y-204821262D01*
G75*
G02*
X83293262Y-205093000I-271738J0D01*
G01*
X82586738Y-205093000D01*
G75*
G02*
X82315000Y-204821262I0J271738D01*
G01*
G37*
G36*
G01*
X80265000Y-204821262D02*
X80265000Y-203864738D01*
G75*
G02*
X80536738Y-203593000I271738J0D01*
G01*
X81243262Y-203593000D01*
G75*
G02*
X81515000Y-203864738I0J-271738D01*
G01*
X81515000Y-204821262D01*
G75*
G02*
X81243262Y-205093000I-271738J0D01*
G01*
X80536738Y-205093000D01*
G75*
G02*
X80265000Y-204821262I0J271738D01*
G01*
G37*
%TD*%
D20*
%TO.C,L2*%
X288280000Y-114925000D03*
X288280000Y-81925000D03*
%TD*%
%TO.C,U12*%
G36*
G01*
X86859000Y-145590000D02*
X86859000Y-145240000D01*
G75*
G02*
X87034000Y-145065000I175000J0D01*
G01*
X88734000Y-145065000D01*
G75*
G02*
X88909000Y-145240000I0J-175000D01*
G01*
X88909000Y-145590000D01*
G75*
G02*
X88734000Y-145765000I-175000J0D01*
G01*
X87034000Y-145765000D01*
G75*
G02*
X86859000Y-145590000I0J175000D01*
G01*
G37*
G36*
G01*
X86859000Y-146860000D02*
X86859000Y-146510000D01*
G75*
G02*
X87034000Y-146335000I175000J0D01*
G01*
X88734000Y-146335000D01*
G75*
G02*
X88909000Y-146510000I0J-175000D01*
G01*
X88909000Y-146860000D01*
G75*
G02*
X88734000Y-147035000I-175000J0D01*
G01*
X87034000Y-147035000D01*
G75*
G02*
X86859000Y-146860000I0J175000D01*
G01*
G37*
G36*
G01*
X86859000Y-148130000D02*
X86859000Y-147780000D01*
G75*
G02*
X87034000Y-147605000I175000J0D01*
G01*
X88734000Y-147605000D01*
G75*
G02*
X88909000Y-147780000I0J-175000D01*
G01*
X88909000Y-148130000D01*
G75*
G02*
X88734000Y-148305000I-175000J0D01*
G01*
X87034000Y-148305000D01*
G75*
G02*
X86859000Y-148130000I0J175000D01*
G01*
G37*
G36*
G01*
X86859000Y-149400000D02*
X86859000Y-149050000D01*
G75*
G02*
X87034000Y-148875000I175000J0D01*
G01*
X88734000Y-148875000D01*
G75*
G02*
X88909000Y-149050000I0J-175000D01*
G01*
X88909000Y-149400000D01*
G75*
G02*
X88734000Y-149575000I-175000J0D01*
G01*
X87034000Y-149575000D01*
G75*
G02*
X86859000Y-149400000I0J175000D01*
G01*
G37*
G36*
G01*
X81909000Y-149400000D02*
X81909000Y-149050000D01*
G75*
G02*
X82084000Y-148875000I175000J0D01*
G01*
X83784000Y-148875000D01*
G75*
G02*
X83959000Y-149050000I0J-175000D01*
G01*
X83959000Y-149400000D01*
G75*
G02*
X83784000Y-149575000I-175000J0D01*
G01*
X82084000Y-149575000D01*
G75*
G02*
X81909000Y-149400000I0J175000D01*
G01*
G37*
G36*
G01*
X81909000Y-148130000D02*
X81909000Y-147780000D01*
G75*
G02*
X82084000Y-147605000I175000J0D01*
G01*
X83784000Y-147605000D01*
G75*
G02*
X83959000Y-147780000I0J-175000D01*
G01*
X83959000Y-148130000D01*
G75*
G02*
X83784000Y-148305000I-175000J0D01*
G01*
X82084000Y-148305000D01*
G75*
G02*
X81909000Y-148130000I0J175000D01*
G01*
G37*
G36*
G01*
X81909000Y-146860000D02*
X81909000Y-146510000D01*
G75*
G02*
X82084000Y-146335000I175000J0D01*
G01*
X83784000Y-146335000D01*
G75*
G02*
X83959000Y-146510000I0J-175000D01*
G01*
X83959000Y-146860000D01*
G75*
G02*
X83784000Y-147035000I-175000J0D01*
G01*
X82084000Y-147035000D01*
G75*
G02*
X81909000Y-146860000I0J175000D01*
G01*
G37*
G36*
G01*
X81909000Y-145590000D02*
X81909000Y-145240000D01*
G75*
G02*
X82084000Y-145065000I175000J0D01*
G01*
X83784000Y-145065000D01*
G75*
G02*
X83959000Y-145240000I0J-175000D01*
G01*
X83959000Y-145590000D01*
G75*
G02*
X83784000Y-145765000I-175000J0D01*
G01*
X82084000Y-145765000D01*
G75*
G02*
X81909000Y-145590000I0J175000D01*
G01*
G37*
%TD*%
D14*
%TO.C,U11*%
X172085000Y-198755000D03*
X164465000Y-206375000D03*
X172085000Y-201295000D03*
X164465000Y-203835000D03*
X172085000Y-203835000D03*
X164465000Y-201295000D03*
X172085000Y-206375000D03*
G36*
G01*
X163615000Y-199555000D02*
X163615000Y-197955000D01*
G75*
G02*
X163665000Y-197905000I50000J0D01*
G01*
X165265000Y-197905000D01*
G75*
G02*
X165315000Y-197955000I0J-50000D01*
G01*
X165315000Y-199555000D01*
G75*
G02*
X165265000Y-199605000I-50000J0D01*
G01*
X163665000Y-199605000D01*
G75*
G02*
X163615000Y-199555000I0J50000D01*
G01*
G37*
%TD*%
%TO.C,U10*%
X172085000Y-181610000D03*
X164465000Y-189230000D03*
X172085000Y-184150000D03*
X164465000Y-186690000D03*
X172085000Y-186690000D03*
X164465000Y-184150000D03*
X172085000Y-189230000D03*
G36*
G01*
X163615000Y-182410000D02*
X163615000Y-180810000D01*
G75*
G02*
X163665000Y-180760000I50000J0D01*
G01*
X165265000Y-180760000D01*
G75*
G02*
X165315000Y-180810000I0J-50000D01*
G01*
X165315000Y-182410000D01*
G75*
G02*
X165265000Y-182460000I-50000J0D01*
G01*
X163665000Y-182460000D01*
G75*
G02*
X163615000Y-182410000I0J50000D01*
G01*
G37*
%TD*%
%TO.C,U9*%
X172085000Y-163830000D03*
X164465000Y-171450000D03*
X172085000Y-166370000D03*
X164465000Y-168910000D03*
X172085000Y-168910000D03*
X164465000Y-166370000D03*
X172085000Y-171450000D03*
G36*
G01*
X163615000Y-164630000D02*
X163615000Y-163030000D01*
G75*
G02*
X163665000Y-162980000I50000J0D01*
G01*
X165265000Y-162980000D01*
G75*
G02*
X165315000Y-163030000I0J-50000D01*
G01*
X165315000Y-164630000D01*
G75*
G02*
X165265000Y-164680000I-50000J0D01*
G01*
X163665000Y-164680000D01*
G75*
G02*
X163615000Y-164630000I0J50000D01*
G01*
G37*
%TD*%
%TO.C,U4*%
G36*
G01*
X75110000Y-178688000D02*
X75110000Y-180468000D01*
G75*
G02*
X75060000Y-180518000I-50000J0D01*
G01*
X73540000Y-180518000D01*
G75*
G02*
X73490000Y-180468000I0J50000D01*
G01*
X73490000Y-178688000D01*
G75*
G02*
X73540000Y-178638000I50000J0D01*
G01*
X75060000Y-178638000D01*
G75*
G02*
X75110000Y-178688000I0J-50000D01*
G01*
G37*
G36*
G01*
X75110000Y-176148000D02*
X75110000Y-177928000D01*
G75*
G02*
X75060000Y-177978000I-50000J0D01*
G01*
X73540000Y-177978000D01*
G75*
G02*
X73490000Y-177928000I0J50000D01*
G01*
X73490000Y-176148000D01*
G75*
G02*
X73540000Y-176098000I50000J0D01*
G01*
X75060000Y-176098000D01*
G75*
G02*
X75110000Y-176148000I0J-50000D01*
G01*
G37*
G36*
G01*
X75110000Y-173608000D02*
X75110000Y-175388000D01*
G75*
G02*
X75060000Y-175438000I-50000J0D01*
G01*
X73540000Y-175438000D01*
G75*
G02*
X73490000Y-175388000I0J50000D01*
G01*
X73490000Y-173608000D01*
G75*
G02*
X73540000Y-173558000I50000J0D01*
G01*
X75060000Y-173558000D01*
G75*
G02*
X75110000Y-173608000I0J-50000D01*
G01*
G37*
G36*
G01*
X75110000Y-171068000D02*
X75110000Y-172848000D01*
G75*
G02*
X75060000Y-172898000I-50000J0D01*
G01*
X73540000Y-172898000D01*
G75*
G02*
X73490000Y-172848000I0J50000D01*
G01*
X73490000Y-171068000D01*
G75*
G02*
X73540000Y-171018000I50000J0D01*
G01*
X75060000Y-171018000D01*
G75*
G02*
X75110000Y-171068000I0J-50000D01*
G01*
G37*
G36*
G01*
X84630000Y-171068000D02*
X84630000Y-172848000D01*
G75*
G02*
X84580000Y-172898000I-50000J0D01*
G01*
X83060000Y-172898000D01*
G75*
G02*
X83010000Y-172848000I0J50000D01*
G01*
X83010000Y-171068000D01*
G75*
G02*
X83060000Y-171018000I50000J0D01*
G01*
X84580000Y-171018000D01*
G75*
G02*
X84630000Y-171068000I0J-50000D01*
G01*
G37*
G36*
G01*
X84630000Y-173608000D02*
X84630000Y-175388000D01*
G75*
G02*
X84580000Y-175438000I-50000J0D01*
G01*
X83060000Y-175438000D01*
G75*
G02*
X83010000Y-175388000I0J50000D01*
G01*
X83010000Y-173608000D01*
G75*
G02*
X83060000Y-173558000I50000J0D01*
G01*
X84580000Y-173558000D01*
G75*
G02*
X84630000Y-173608000I0J-50000D01*
G01*
G37*
G36*
G01*
X84630000Y-176163000D02*
X84630000Y-177913000D01*
G75*
G02*
X84580000Y-177963000I-50000J0D01*
G01*
X83060000Y-177963000D01*
G75*
G02*
X83010000Y-177913000I0J50000D01*
G01*
X83010000Y-176163000D01*
G75*
G02*
X83060000Y-176113000I50000J0D01*
G01*
X84580000Y-176113000D01*
G75*
G02*
X84630000Y-176163000I0J-50000D01*
G01*
G37*
G36*
G01*
X84630000Y-178688000D02*
X84630000Y-180468000D01*
G75*
G02*
X84580000Y-180518000I-50000J0D01*
G01*
X83060000Y-180518000D01*
G75*
G02*
X83010000Y-180468000I0J50000D01*
G01*
X83010000Y-178688000D01*
G75*
G02*
X83060000Y-178638000I50000J0D01*
G01*
X84580000Y-178638000D01*
G75*
G02*
X84630000Y-178688000I0J-50000D01*
G01*
G37*
%TD*%
%TO.C,U2*%
X175260000Y-130810000D03*
X167640000Y-135890000D03*
X175260000Y-133350000D03*
X167640000Y-133350000D03*
X175260000Y-135890000D03*
G36*
G01*
X166790000Y-131610000D02*
X166790000Y-130010000D01*
G75*
G02*
X166840000Y-129960000I50000J0D01*
G01*
X168440000Y-129960000D01*
G75*
G02*
X168490000Y-130010000I0J-50000D01*
G01*
X168490000Y-131610000D01*
G75*
G02*
X168440000Y-131660000I-50000J0D01*
G01*
X166840000Y-131660000D01*
G75*
G02*
X166790000Y-131610000I0J50000D01*
G01*
G37*
%TD*%
%TO.C,U1*%
X175260000Y-118745000D03*
X167640000Y-123825000D03*
X175260000Y-121285000D03*
X167640000Y-121285000D03*
X175260000Y-123825000D03*
G36*
G01*
X166790000Y-119545000D02*
X166790000Y-117945000D01*
G75*
G02*
X166840000Y-117895000I50000J0D01*
G01*
X168440000Y-117895000D01*
G75*
G02*
X168490000Y-117945000I0J-50000D01*
G01*
X168490000Y-119545000D01*
G75*
G02*
X168440000Y-119595000I-50000J0D01*
G01*
X166840000Y-119595000D01*
G75*
G02*
X166790000Y-119545000I0J50000D01*
G01*
G37*
%TD*%
D21*
%TO.C,T4*%
X117635000Y-84295000D03*
X122635000Y-84295000D03*
X132635000Y-84295000D03*
X137635000Y-84295000D03*
X137635000Y-64295000D03*
X117635000Y-64295000D03*
%TD*%
%TO.C,T3*%
X152560000Y-84295000D03*
X157560000Y-84295000D03*
X167560000Y-84295000D03*
X172560000Y-84295000D03*
X172560000Y-64295000D03*
X152560000Y-64295000D03*
%TD*%
%TO.C,T2*%
X74495000Y-99625250D03*
X79495000Y-99625250D03*
X94495000Y-99625250D03*
X99495000Y-99625250D03*
X99495000Y-72125250D03*
X74495000Y-72125250D03*
%TD*%
D20*
%TO.C,T1*%
X353678737Y-102886263D03*
X304181263Y-102886263D03*
X304181263Y-152383737D03*
X353678737Y-152383737D03*
%TD*%
%TO.C,R51*%
G36*
G01*
X91007500Y-148664238D02*
X91007500Y-149620762D01*
G75*
G02*
X90735762Y-149892500I-271738J0D01*
G01*
X90029238Y-149892500D01*
G75*
G02*
X89757500Y-149620762I0J271738D01*
G01*
X89757500Y-148664238D01*
G75*
G02*
X90029238Y-148392500I271738J0D01*
G01*
X90735762Y-148392500D01*
G75*
G02*
X91007500Y-148664238I0J-271738D01*
G01*
G37*
G36*
G01*
X93057500Y-148664238D02*
X93057500Y-149620762D01*
G75*
G02*
X92785762Y-149892500I-271738J0D01*
G01*
X92079238Y-149892500D01*
G75*
G02*
X91807500Y-149620762I0J271738D01*
G01*
X91807500Y-148664238D01*
G75*
G02*
X92079238Y-148392500I271738J0D01*
G01*
X92785762Y-148392500D01*
G75*
G02*
X93057500Y-148664238I0J-271738D01*
G01*
G37*
%TD*%
%TO.C,R50*%
G36*
G01*
X86522262Y-151917500D02*
X85565738Y-151917500D01*
G75*
G02*
X85294000Y-151645762I0J271738D01*
G01*
X85294000Y-150939238D01*
G75*
G02*
X85565738Y-150667500I271738J0D01*
G01*
X86522262Y-150667500D01*
G75*
G02*
X86794000Y-150939238I0J-271738D01*
G01*
X86794000Y-151645762D01*
G75*
G02*
X86522262Y-151917500I-271738J0D01*
G01*
G37*
G36*
G01*
X86522262Y-153967500D02*
X85565738Y-153967500D01*
G75*
G02*
X85294000Y-153695762I0J271738D01*
G01*
X85294000Y-152989238D01*
G75*
G02*
X85565738Y-152717500I271738J0D01*
G01*
X86522262Y-152717500D01*
G75*
G02*
X86794000Y-152989238I0J-271738D01*
G01*
X86794000Y-153695762D01*
G75*
G02*
X86522262Y-153967500I-271738J0D01*
G01*
G37*
%TD*%
%TO.C,R49*%
G36*
G01*
X82614762Y-141757500D02*
X81658238Y-141757500D01*
G75*
G02*
X81386500Y-141485762I0J271738D01*
G01*
X81386500Y-140779238D01*
G75*
G02*
X81658238Y-140507500I271738J0D01*
G01*
X82614762Y-140507500D01*
G75*
G02*
X82886500Y-140779238I0J-271738D01*
G01*
X82886500Y-141485762D01*
G75*
G02*
X82614762Y-141757500I-271738J0D01*
G01*
G37*
G36*
G01*
X82614762Y-143807500D02*
X81658238Y-143807500D01*
G75*
G02*
X81386500Y-143535762I0J271738D01*
G01*
X81386500Y-142829238D01*
G75*
G02*
X81658238Y-142557500I271738J0D01*
G01*
X82614762Y-142557500D01*
G75*
G02*
X82886500Y-142829238I0J-271738D01*
G01*
X82886500Y-143535762D01*
G75*
G02*
X82614762Y-143807500I-271738J0D01*
G01*
G37*
%TD*%
%TO.C,R48*%
G36*
G01*
X80094000Y-151818262D02*
X80094000Y-150861738D01*
G75*
G02*
X80365738Y-150590000I271738J0D01*
G01*
X81072262Y-150590000D01*
G75*
G02*
X81344000Y-150861738I0J-271738D01*
G01*
X81344000Y-151818262D01*
G75*
G02*
X81072262Y-152090000I-271738J0D01*
G01*
X80365738Y-152090000D01*
G75*
G02*
X80094000Y-151818262I0J271738D01*
G01*
G37*
G36*
G01*
X78044000Y-151818262D02*
X78044000Y-150861738D01*
G75*
G02*
X78315738Y-150590000I271738J0D01*
G01*
X79022262Y-150590000D01*
G75*
G02*
X79294000Y-150861738I0J-271738D01*
G01*
X79294000Y-151818262D01*
G75*
G02*
X79022262Y-152090000I-271738J0D01*
G01*
X78315738Y-152090000D01*
G75*
G02*
X78044000Y-151818262I0J271738D01*
G01*
G37*
%TD*%
%TO.C,R47*%
G36*
G01*
X79753238Y-142557500D02*
X80709762Y-142557500D01*
G75*
G02*
X80981500Y-142829238I0J-271738D01*
G01*
X80981500Y-143535762D01*
G75*
G02*
X80709762Y-143807500I-271738J0D01*
G01*
X79753238Y-143807500D01*
G75*
G02*
X79481500Y-143535762I0J271738D01*
G01*
X79481500Y-142829238D01*
G75*
G02*
X79753238Y-142557500I271738J0D01*
G01*
G37*
G36*
G01*
X79753238Y-140507500D02*
X80709762Y-140507500D01*
G75*
G02*
X80981500Y-140779238I0J-271738D01*
G01*
X80981500Y-141485762D01*
G75*
G02*
X80709762Y-141757500I-271738J0D01*
G01*
X79753238Y-141757500D01*
G75*
G02*
X79481500Y-141485762I0J271738D01*
G01*
X79481500Y-140779238D01*
G75*
G02*
X79753238Y-140507500I271738J0D01*
G01*
G37*
%TD*%
D22*
%TO.C,R46*%
X113665000Y-97750000D03*
D23*
X113665000Y-92670000D03*
%TD*%
D22*
%TO.C,R45*%
X126365000Y-92710000D03*
D23*
X126365000Y-97790000D03*
%TD*%
D22*
%TO.C,R44*%
X130810000Y-97750000D03*
D23*
X130810000Y-92670000D03*
%TD*%
D22*
%TO.C,R43*%
X143510000Y-92710000D03*
D23*
X143510000Y-97790000D03*
%TD*%
D22*
%TO.C,R42*%
X147955000Y-97750000D03*
D23*
X147955000Y-92670000D03*
%TD*%
D22*
%TO.C,R41*%
X160655000Y-92710000D03*
D23*
X160655000Y-97790000D03*
%TD*%
D22*
%TO.C,R40*%
X165100000Y-97790000D03*
D23*
X165100000Y-92710000D03*
%TD*%
D22*
%TO.C,R39*%
X177800000Y-92710000D03*
D23*
X177800000Y-97790000D03*
%TD*%
D22*
%TO.C,R38*%
X92710000Y-120165250D03*
D23*
X92710000Y-125245250D03*
%TD*%
D22*
%TO.C,R37*%
X113000000Y-125080000D03*
D23*
X113000000Y-120000000D03*
%TD*%
D14*
%TO.C,R36*%
X161925000Y-201295000D03*
D12*
X151765000Y-201295000D03*
%TD*%
D14*
%TO.C,R35*%
X161925000Y-184150000D03*
D12*
X151765000Y-184150000D03*
%TD*%
D14*
%TO.C,R32*%
X164465000Y-209550000D03*
D12*
X174625000Y-209550000D03*
%TD*%
D14*
%TO.C,R31*%
X164465000Y-192405000D03*
D12*
X174625000Y-192405000D03*
%TD*%
D16*
%TO.C,R28*%
X303806199Y-92710000D03*
D17*
X303806199Y-62230000D03*
%TD*%
D16*
%TO.C,R27*%
X313966199Y-92710000D03*
D17*
X313966199Y-62230000D03*
%TD*%
%TO.C,R24*%
G36*
G01*
X228595000Y-152586483D02*
X228595000Y-149673517D01*
G75*
G02*
X228863517Y-149405000I268517J0D01*
G01*
X229776483Y-149405000D01*
G75*
G02*
X230045000Y-149673517I0J-268517D01*
G01*
X230045000Y-152586483D01*
G75*
G02*
X229776483Y-152855000I-268517J0D01*
G01*
X228863517Y-152855000D01*
G75*
G02*
X228595000Y-152586483I0J268517D01*
G01*
G37*
G36*
G01*
X222795000Y-152586483D02*
X222795000Y-149673517D01*
G75*
G02*
X223063517Y-149405000I268517J0D01*
G01*
X223976483Y-149405000D01*
G75*
G02*
X224245000Y-149673517I0J-268517D01*
G01*
X224245000Y-152586483D01*
G75*
G02*
X223976483Y-152855000I-268517J0D01*
G01*
X223063517Y-152855000D01*
G75*
G02*
X222795000Y-152586483I0J268517D01*
G01*
G37*
%TD*%
D14*
%TO.C,R15*%
X174625000Y-174625000D03*
D12*
X164465000Y-174625000D03*
%TD*%
D14*
%TO.C,R14*%
X174625000Y-156845000D03*
D12*
X164465000Y-156845000D03*
%TD*%
D14*
%TO.C,R13*%
X151765000Y-166370000D03*
D12*
X161925000Y-166370000D03*
%TD*%
D14*
%TO.C,R12*%
X151765000Y-148590000D03*
D12*
X161925000Y-148590000D03*
%TD*%
%TO.C,R11*%
G36*
G01*
X90033262Y-175255504D02*
X89076738Y-175255504D01*
G75*
G02*
X88805000Y-174983766I0J271738D01*
G01*
X88805000Y-174277242D01*
G75*
G02*
X89076738Y-174005504I271738J0D01*
G01*
X90033262Y-174005504D01*
G75*
G02*
X90305000Y-174277242I0J-271738D01*
G01*
X90305000Y-174983766D01*
G75*
G02*
X90033262Y-175255504I-271738J0D01*
G01*
G37*
G36*
G01*
X90033262Y-177305504D02*
X89076738Y-177305504D01*
G75*
G02*
X88805000Y-177033766I0J271738D01*
G01*
X88805000Y-176327242D01*
G75*
G02*
X89076738Y-176055504I271738J0D01*
G01*
X90033262Y-176055504D01*
G75*
G02*
X90305000Y-176327242I0J-271738D01*
G01*
X90305000Y-177033766D01*
G75*
G02*
X90033262Y-177305504I-271738J0D01*
G01*
G37*
%TD*%
%TO.C,R10*%
G36*
G01*
X70070000Y-172002242D02*
X70070000Y-172958766D01*
G75*
G02*
X69798262Y-173230504I-271738J0D01*
G01*
X69091738Y-173230504D01*
G75*
G02*
X68820000Y-172958766I0J271738D01*
G01*
X68820000Y-172002242D01*
G75*
G02*
X69091738Y-171730504I271738J0D01*
G01*
X69798262Y-171730504D01*
G75*
G02*
X70070000Y-172002242I0J-271738D01*
G01*
G37*
G36*
G01*
X72120000Y-172002242D02*
X72120000Y-172958766D01*
G75*
G02*
X71848262Y-173230504I-271738J0D01*
G01*
X71141738Y-173230504D01*
G75*
G02*
X70870000Y-172958766I0J271738D01*
G01*
X70870000Y-172002242D01*
G75*
G02*
X71141738Y-171730504I271738J0D01*
G01*
X71848262Y-171730504D01*
G75*
G02*
X72120000Y-172002242I0J-271738D01*
G01*
G37*
%TD*%
%TO.C,R9*%
G36*
G01*
X70070000Y-173907242D02*
X70070000Y-174863766D01*
G75*
G02*
X69798262Y-175135504I-271738J0D01*
G01*
X69091738Y-175135504D01*
G75*
G02*
X68820000Y-174863766I0J271738D01*
G01*
X68820000Y-173907242D01*
G75*
G02*
X69091738Y-173635504I271738J0D01*
G01*
X69798262Y-173635504D01*
G75*
G02*
X70070000Y-173907242I0J-271738D01*
G01*
G37*
G36*
G01*
X72120000Y-173907242D02*
X72120000Y-174863766D01*
G75*
G02*
X71848262Y-175135504I-271738J0D01*
G01*
X71141738Y-175135504D01*
G75*
G02*
X70870000Y-174863766I0J271738D01*
G01*
X70870000Y-173907242D01*
G75*
G02*
X71141738Y-173635504I271738J0D01*
G01*
X71848262Y-173635504D01*
G75*
G02*
X72120000Y-173907242I0J-271738D01*
G01*
G37*
%TD*%
%TO.C,R7*%
G36*
G01*
X77705000Y-201876738D02*
X77705000Y-202833262D01*
G75*
G02*
X77433262Y-203105000I-271738J0D01*
G01*
X76726738Y-203105000D01*
G75*
G02*
X76455000Y-202833262I0J271738D01*
G01*
X76455000Y-201876738D01*
G75*
G02*
X76726738Y-201605000I271738J0D01*
G01*
X77433262Y-201605000D01*
G75*
G02*
X77705000Y-201876738I0J-271738D01*
G01*
G37*
G36*
G01*
X79755000Y-201876738D02*
X79755000Y-202833262D01*
G75*
G02*
X79483262Y-203105000I-271738J0D01*
G01*
X78776738Y-203105000D01*
G75*
G02*
X78505000Y-202833262I0J271738D01*
G01*
X78505000Y-201876738D01*
G75*
G02*
X78776738Y-201605000I271738J0D01*
G01*
X79483262Y-201605000D01*
G75*
G02*
X79755000Y-201876738I0J-271738D01*
G01*
G37*
%TD*%
%TO.C,R6*%
G36*
G01*
X73665010Y-192248262D02*
X73665010Y-191291738D01*
G75*
G02*
X73936748Y-191020000I271738J0D01*
G01*
X74643272Y-191020000D01*
G75*
G02*
X74915010Y-191291738I0J-271738D01*
G01*
X74915010Y-192248262D01*
G75*
G02*
X74643272Y-192520000I-271738J0D01*
G01*
X73936748Y-192520000D01*
G75*
G02*
X73665010Y-192248262I0J271738D01*
G01*
G37*
G36*
G01*
X71615010Y-192248262D02*
X71615010Y-191291738D01*
G75*
G02*
X71886748Y-191020000I271738J0D01*
G01*
X72593272Y-191020000D01*
G75*
G02*
X72865010Y-191291738I0J-271738D01*
G01*
X72865010Y-192248262D01*
G75*
G02*
X72593272Y-192520000I-271738J0D01*
G01*
X71886748Y-192520000D01*
G75*
G02*
X71615010Y-192248262I0J271738D01*
G01*
G37*
%TD*%
%TO.C,R5*%
G36*
G01*
X72865010Y-193196738D02*
X72865010Y-194153262D01*
G75*
G02*
X72593272Y-194425000I-271738J0D01*
G01*
X71886748Y-194425000D01*
G75*
G02*
X71615010Y-194153262I0J271738D01*
G01*
X71615010Y-193196738D01*
G75*
G02*
X71886748Y-192925000I271738J0D01*
G01*
X72593272Y-192925000D01*
G75*
G02*
X72865010Y-193196738I0J-271738D01*
G01*
G37*
G36*
G01*
X74915010Y-193196738D02*
X74915010Y-194153262D01*
G75*
G02*
X74643272Y-194425000I-271738J0D01*
G01*
X73936748Y-194425000D01*
G75*
G02*
X73665010Y-194153262I0J271738D01*
G01*
X73665010Y-193196738D01*
G75*
G02*
X73936748Y-192925000I271738J0D01*
G01*
X74643272Y-192925000D01*
G75*
G02*
X74915010Y-193196738I0J-271738D01*
G01*
G37*
%TD*%
D14*
%TO.C,R4*%
X177800000Y-127635000D03*
D12*
X167640000Y-127635000D03*
%TD*%
D14*
%TO.C,R3*%
X177800000Y-115570000D03*
D12*
X167640000Y-115570000D03*
%TD*%
D22*
%TO.C,R2*%
X177800000Y-135255000D03*
D23*
X177800000Y-130175000D03*
%TD*%
D22*
%TO.C,R1*%
X177800000Y-124460000D03*
D23*
X177800000Y-119380000D03*
%TD*%
%TO.C,Q4*%
G36*
G01*
X205450000Y-208110000D02*
X200950000Y-208110000D01*
G75*
G02*
X200900000Y-208060000I0J50000D01*
G01*
X200900000Y-205560000D01*
G75*
G02*
X200950000Y-205510000I50000J0D01*
G01*
X205450000Y-205510000D01*
G75*
G02*
X205500000Y-205560000I0J-50000D01*
G01*
X205500000Y-208060000D01*
G75*
G02*
X205450000Y-208110000I-50000J0D01*
G01*
G37*
D24*
X203200000Y-201360000D03*
X203200000Y-195910000D03*
%TD*%
%TO.C,Q3*%
X203200000Y-176910000D03*
X203200000Y-182360000D03*
G36*
G01*
X205450000Y-189110000D02*
X200950000Y-189110000D01*
G75*
G02*
X200900000Y-189060000I0J50000D01*
G01*
X200900000Y-186560000D01*
G75*
G02*
X200950000Y-186510000I50000J0D01*
G01*
X205450000Y-186510000D01*
G75*
G02*
X205500000Y-186560000I0J-50000D01*
G01*
X205500000Y-189060000D01*
G75*
G02*
X205450000Y-189110000I-50000J0D01*
G01*
G37*
%TD*%
%TO.C,Q2*%
X203200000Y-157910000D03*
X203200000Y-163360000D03*
G36*
G01*
X205450000Y-170110000D02*
X200950000Y-170110000D01*
G75*
G02*
X200900000Y-170060000I0J50000D01*
G01*
X200900000Y-167560000D01*
G75*
G02*
X200950000Y-167510000I50000J0D01*
G01*
X205450000Y-167510000D01*
G75*
G02*
X205500000Y-167560000I0J-50000D01*
G01*
X205500000Y-170060000D01*
G75*
G02*
X205450000Y-170110000I-50000J0D01*
G01*
G37*
%TD*%
%TO.C,Q1*%
X203200000Y-138910000D03*
X203200000Y-144360000D03*
G36*
G01*
X205450000Y-151110000D02*
X200950000Y-151110000D01*
G75*
G02*
X200900000Y-151060000I0J50000D01*
G01*
X200900000Y-148560000D01*
G75*
G02*
X200950000Y-148510000I50000J0D01*
G01*
X205450000Y-148510000D01*
G75*
G02*
X205500000Y-148560000I0J-50000D01*
G01*
X205500000Y-151060000D01*
G75*
G02*
X205450000Y-151110000I-50000J0D01*
G01*
G37*
%TD*%
D20*
%TO.C,L1*%
X322590000Y-174000000D03*
X322590000Y-207000000D03*
%TD*%
D25*
%TO.C,J3*%
X349250000Y-88900000D03*
X349250000Y-81280000D03*
X349250000Y-73660000D03*
%TD*%
%TO.C,J1*%
X271780000Y-69215000D03*
X264160000Y-69215000D03*
X256540000Y-69215000D03*
%TD*%
D14*
%TO.C,D25*%
X118745000Y-90170000D03*
G36*
G01*
X119545000Y-98640000D02*
X117945000Y-98640000D01*
G75*
G02*
X117895000Y-98590000I0J50000D01*
G01*
X117895000Y-96990000D01*
G75*
G02*
X117945000Y-96940000I50000J0D01*
G01*
X119545000Y-96940000D01*
G75*
G02*
X119595000Y-96990000I0J-50000D01*
G01*
X119595000Y-98590000D01*
G75*
G02*
X119545000Y-98640000I-50000J0D01*
G01*
G37*
%TD*%
%TO.C,D24*%
X121285000Y-97790000D03*
G36*
G01*
X120485000Y-89320000D02*
X122085000Y-89320000D01*
G75*
G02*
X122135000Y-89370000I0J-50000D01*
G01*
X122135000Y-90970000D01*
G75*
G02*
X122085000Y-91020000I-50000J0D01*
G01*
X120485000Y-91020000D01*
G75*
G02*
X120435000Y-90970000I0J50000D01*
G01*
X120435000Y-89370000D01*
G75*
G02*
X120485000Y-89320000I50000J0D01*
G01*
G37*
%TD*%
%TO.C,D23*%
X135890000Y-90130000D03*
G36*
G01*
X136690000Y-98600000D02*
X135090000Y-98600000D01*
G75*
G02*
X135040000Y-98550000I0J50000D01*
G01*
X135040000Y-96950000D01*
G75*
G02*
X135090000Y-96900000I50000J0D01*
G01*
X136690000Y-96900000D01*
G75*
G02*
X136740000Y-96950000I0J-50000D01*
G01*
X136740000Y-98550000D01*
G75*
G02*
X136690000Y-98600000I-50000J0D01*
G01*
G37*
%TD*%
%TO.C,D22*%
X138430000Y-97790000D03*
G36*
G01*
X137630000Y-89320000D02*
X139230000Y-89320000D01*
G75*
G02*
X139280000Y-89370000I0J-50000D01*
G01*
X139280000Y-90970000D01*
G75*
G02*
X139230000Y-91020000I-50000J0D01*
G01*
X137630000Y-91020000D01*
G75*
G02*
X137580000Y-90970000I0J50000D01*
G01*
X137580000Y-89370000D01*
G75*
G02*
X137630000Y-89320000I50000J0D01*
G01*
G37*
%TD*%
%TO.C,D21*%
X153035000Y-90170000D03*
G36*
G01*
X153835000Y-98640000D02*
X152235000Y-98640000D01*
G75*
G02*
X152185000Y-98590000I0J50000D01*
G01*
X152185000Y-96990000D01*
G75*
G02*
X152235000Y-96940000I50000J0D01*
G01*
X153835000Y-96940000D01*
G75*
G02*
X153885000Y-96990000I0J-50000D01*
G01*
X153885000Y-98590000D01*
G75*
G02*
X153835000Y-98640000I-50000J0D01*
G01*
G37*
%TD*%
%TO.C,D20*%
X155575000Y-97790000D03*
G36*
G01*
X154775000Y-89320000D02*
X156375000Y-89320000D01*
G75*
G02*
X156425000Y-89370000I0J-50000D01*
G01*
X156425000Y-90970000D01*
G75*
G02*
X156375000Y-91020000I-50000J0D01*
G01*
X154775000Y-91020000D01*
G75*
G02*
X154725000Y-90970000I0J50000D01*
G01*
X154725000Y-89370000D01*
G75*
G02*
X154775000Y-89320000I50000J0D01*
G01*
G37*
%TD*%
%TO.C,D19*%
X170180000Y-90170000D03*
G36*
G01*
X170980000Y-98640000D02*
X169380000Y-98640000D01*
G75*
G02*
X169330000Y-98590000I0J50000D01*
G01*
X169330000Y-96990000D01*
G75*
G02*
X169380000Y-96940000I50000J0D01*
G01*
X170980000Y-96940000D01*
G75*
G02*
X171030000Y-96990000I0J-50000D01*
G01*
X171030000Y-98590000D01*
G75*
G02*
X170980000Y-98640000I-50000J0D01*
G01*
G37*
%TD*%
%TO.C,D18*%
X172720000Y-97790000D03*
G36*
G01*
X171920000Y-89320000D02*
X173520000Y-89320000D01*
G75*
G02*
X173570000Y-89370000I0J-50000D01*
G01*
X173570000Y-90970000D01*
G75*
G02*
X173520000Y-91020000I-50000J0D01*
G01*
X171920000Y-91020000D01*
G75*
G02*
X171870000Y-90970000I0J50000D01*
G01*
X171870000Y-89370000D01*
G75*
G02*
X171920000Y-89320000I50000J0D01*
G01*
G37*
%TD*%
%TO.C,D17*%
X116205000Y-97750000D03*
G36*
G01*
X115405000Y-89280000D02*
X117005000Y-89280000D01*
G75*
G02*
X117055000Y-89330000I0J-50000D01*
G01*
X117055000Y-90930000D01*
G75*
G02*
X117005000Y-90980000I-50000J0D01*
G01*
X115405000Y-90980000D01*
G75*
G02*
X115355000Y-90930000I0J50000D01*
G01*
X115355000Y-89330000D01*
G75*
G02*
X115405000Y-89280000I50000J0D01*
G01*
G37*
%TD*%
%TO.C,D16*%
X123825000Y-90130000D03*
G36*
G01*
X124625000Y-98600000D02*
X123025000Y-98600000D01*
G75*
G02*
X122975000Y-98550000I0J50000D01*
G01*
X122975000Y-96950000D01*
G75*
G02*
X123025000Y-96900000I50000J0D01*
G01*
X124625000Y-96900000D01*
G75*
G02*
X124675000Y-96950000I0J-50000D01*
G01*
X124675000Y-98550000D01*
G75*
G02*
X124625000Y-98600000I-50000J0D01*
G01*
G37*
%TD*%
%TO.C,D15*%
X133350000Y-97750000D03*
G36*
G01*
X132550000Y-89280000D02*
X134150000Y-89280000D01*
G75*
G02*
X134200000Y-89330000I0J-50000D01*
G01*
X134200000Y-90930000D01*
G75*
G02*
X134150000Y-90980000I-50000J0D01*
G01*
X132550000Y-90980000D01*
G75*
G02*
X132500000Y-90930000I0J50000D01*
G01*
X132500000Y-89330000D01*
G75*
G02*
X132550000Y-89280000I50000J0D01*
G01*
G37*
%TD*%
%TO.C,D14*%
X140970000Y-90170000D03*
G36*
G01*
X141770000Y-98640000D02*
X140170000Y-98640000D01*
G75*
G02*
X140120000Y-98590000I0J50000D01*
G01*
X140120000Y-96990000D01*
G75*
G02*
X140170000Y-96940000I50000J0D01*
G01*
X141770000Y-96940000D01*
G75*
G02*
X141820000Y-96990000I0J-50000D01*
G01*
X141820000Y-98590000D01*
G75*
G02*
X141770000Y-98640000I-50000J0D01*
G01*
G37*
%TD*%
%TO.C,D13*%
X150495000Y-97750000D03*
G36*
G01*
X149695000Y-89280000D02*
X151295000Y-89280000D01*
G75*
G02*
X151345000Y-89330000I0J-50000D01*
G01*
X151345000Y-90930000D01*
G75*
G02*
X151295000Y-90980000I-50000J0D01*
G01*
X149695000Y-90980000D01*
G75*
G02*
X149645000Y-90930000I0J50000D01*
G01*
X149645000Y-89330000D01*
G75*
G02*
X149695000Y-89280000I50000J0D01*
G01*
G37*
%TD*%
%TO.C,D12*%
X158115000Y-90130000D03*
G36*
G01*
X158915000Y-98600000D02*
X157315000Y-98600000D01*
G75*
G02*
X157265000Y-98550000I0J50000D01*
G01*
X157265000Y-96950000D01*
G75*
G02*
X157315000Y-96900000I50000J0D01*
G01*
X158915000Y-96900000D01*
G75*
G02*
X158965000Y-96950000I0J-50000D01*
G01*
X158965000Y-98550000D01*
G75*
G02*
X158915000Y-98600000I-50000J0D01*
G01*
G37*
%TD*%
%TO.C,D11*%
X167640000Y-97790000D03*
G36*
G01*
X166840000Y-89320000D02*
X168440000Y-89320000D01*
G75*
G02*
X168490000Y-89370000I0J-50000D01*
G01*
X168490000Y-90970000D01*
G75*
G02*
X168440000Y-91020000I-50000J0D01*
G01*
X166840000Y-91020000D01*
G75*
G02*
X166790000Y-90970000I0J50000D01*
G01*
X166790000Y-89370000D01*
G75*
G02*
X166840000Y-89320000I50000J0D01*
G01*
G37*
%TD*%
%TO.C,D10*%
X175260000Y-90170000D03*
G36*
G01*
X176060000Y-98640000D02*
X174460000Y-98640000D01*
G75*
G02*
X174410000Y-98590000I0J50000D01*
G01*
X174410000Y-96990000D01*
G75*
G02*
X174460000Y-96940000I50000J0D01*
G01*
X176060000Y-96940000D01*
G75*
G02*
X176110000Y-96990000I0J-50000D01*
G01*
X176110000Y-98590000D01*
G75*
G02*
X176060000Y-98640000I-50000J0D01*
G01*
G37*
%TD*%
%TO.C,D9*%
X101600000Y-127785250D03*
G36*
G01*
X100800000Y-119315250D02*
X102400000Y-119315250D01*
G75*
G02*
X102450000Y-119365250I0J-50000D01*
G01*
X102450000Y-120965250D01*
G75*
G02*
X102400000Y-121015250I-50000J0D01*
G01*
X100800000Y-121015250D01*
G75*
G02*
X100750000Y-120965250I0J50000D01*
G01*
X100750000Y-119365250D01*
G75*
G02*
X100800000Y-119315250I50000J0D01*
G01*
G37*
%TD*%
%TO.C,D8*%
X104140000Y-120165250D03*
G36*
G01*
X104940000Y-128635250D02*
X103340000Y-128635250D01*
G75*
G02*
X103290000Y-128585250I0J50000D01*
G01*
X103290000Y-126985250D01*
G75*
G02*
X103340000Y-126935250I50000J0D01*
G01*
X104940000Y-126935250D01*
G75*
G02*
X104990000Y-126985250I0J-50000D01*
G01*
X104990000Y-128585250D01*
G75*
G02*
X104940000Y-128635250I-50000J0D01*
G01*
G37*
%TD*%
%TO.C,D7*%
G36*
G01*
X82680000Y-127965250D02*
X79880000Y-127965250D01*
G75*
G02*
X79830000Y-127915250I0J50000D01*
G01*
X79830000Y-125115250D01*
G75*
G02*
X79880000Y-125065250I50000J0D01*
G01*
X82680000Y-125065250D01*
G75*
G02*
X82730000Y-125115250I0J-50000D01*
G01*
X82730000Y-127915250D01*
G75*
G02*
X82680000Y-127965250I-50000J0D01*
G01*
G37*
D26*
X81280000Y-121435250D03*
X81280000Y-116355250D03*
X81280000Y-111275250D03*
%TD*%
D27*
%TO.C,D6*%
X89535000Y-129690250D03*
G36*
G01*
X88635000Y-118580250D02*
X90435000Y-118580250D01*
G75*
G02*
X90485000Y-118630250I0J-50000D01*
G01*
X90485000Y-120430250D01*
G75*
G02*
X90435000Y-120480250I-50000J0D01*
G01*
X88635000Y-120480250D01*
G75*
G02*
X88585000Y-120430250I0J50000D01*
G01*
X88585000Y-118630250D01*
G75*
G02*
X88635000Y-118580250I50000J0D01*
G01*
G37*
%TD*%
%TO.C,D5*%
X111125000Y-107465250D03*
G36*
G01*
X112025000Y-118575250D02*
X110225000Y-118575250D01*
G75*
G02*
X110175000Y-118525250I0J50000D01*
G01*
X110175000Y-116725250D01*
G75*
G02*
X110225000Y-116675250I50000J0D01*
G01*
X112025000Y-116675250D01*
G75*
G02*
X112075000Y-116725250I0J-50000D01*
G01*
X112075000Y-118525250D01*
G75*
G02*
X112025000Y-118575250I-50000J0D01*
G01*
G37*
%TD*%
D24*
%TO.C,D4*%
X203200000Y-119910000D03*
G36*
G01*
X205450000Y-132110000D02*
X200950000Y-132110000D01*
G75*
G02*
X200900000Y-132060000I0J50000D01*
G01*
X200900000Y-129560000D01*
G75*
G02*
X200950000Y-129510000I50000J0D01*
G01*
X205450000Y-129510000D01*
G75*
G02*
X205500000Y-129560000I0J-50000D01*
G01*
X205500000Y-132060000D01*
G75*
G02*
X205450000Y-132110000I-50000J0D01*
G01*
G37*
%TD*%
%TO.C,D3*%
X203200000Y-81910000D03*
X203200000Y-87360000D03*
G36*
G01*
X205450000Y-94110000D02*
X200950000Y-94110000D01*
G75*
G02*
X200900000Y-94060000I0J50000D01*
G01*
X200900000Y-91560000D01*
G75*
G02*
X200950000Y-91510000I50000J0D01*
G01*
X205450000Y-91510000D01*
G75*
G02*
X205500000Y-91560000I0J-50000D01*
G01*
X205500000Y-94060000D01*
G75*
G02*
X205450000Y-94110000I-50000J0D01*
G01*
G37*
%TD*%
%TO.C,D2*%
X203200000Y-100910000D03*
G36*
G01*
X205450000Y-113110000D02*
X200950000Y-113110000D01*
G75*
G02*
X200900000Y-113060000I0J50000D01*
G01*
X200900000Y-110560000D01*
G75*
G02*
X200950000Y-110510000I50000J0D01*
G01*
X205450000Y-110510000D01*
G75*
G02*
X205500000Y-110560000I0J-50000D01*
G01*
X205500000Y-113060000D01*
G75*
G02*
X205450000Y-113110000I-50000J0D01*
G01*
G37*
%TD*%
%TO.C,D1*%
X203200000Y-62910000D03*
X203200000Y-68360000D03*
G36*
G01*
X205450000Y-75110000D02*
X200950000Y-75110000D01*
G75*
G02*
X200900000Y-75060000I0J50000D01*
G01*
X200900000Y-72560000D01*
G75*
G02*
X200950000Y-72510000I50000J0D01*
G01*
X205450000Y-72510000D01*
G75*
G02*
X205500000Y-72560000I0J-50000D01*
G01*
X205500000Y-75060000D01*
G75*
G02*
X205450000Y-75110000I-50000J0D01*
G01*
G37*
%TD*%
%TO.C,C60*%
G36*
G01*
X83563238Y-152717500D02*
X84519762Y-152717500D01*
G75*
G02*
X84791500Y-152989238I0J-271738D01*
G01*
X84791500Y-153695762D01*
G75*
G02*
X84519762Y-153967500I-271738J0D01*
G01*
X83563238Y-153967500D01*
G75*
G02*
X83291500Y-153695762I0J271738D01*
G01*
X83291500Y-152989238D01*
G75*
G02*
X83563238Y-152717500I271738J0D01*
G01*
G37*
G36*
G01*
X83563238Y-150667500D02*
X84519762Y-150667500D01*
G75*
G02*
X84791500Y-150939238I0J-271738D01*
G01*
X84791500Y-151645762D01*
G75*
G02*
X84519762Y-151917500I-271738J0D01*
G01*
X83563238Y-151917500D01*
G75*
G02*
X83291500Y-151645762I0J271738D01*
G01*
X83291500Y-150939238D01*
G75*
G02*
X83563238Y-150667500I271738J0D01*
G01*
G37*
%TD*%
%TO.C,C59*%
G36*
G01*
X88427262Y-141595000D02*
X87470738Y-141595000D01*
G75*
G02*
X87199000Y-141323262I0J271738D01*
G01*
X87199000Y-140616738D01*
G75*
G02*
X87470738Y-140345000I271738J0D01*
G01*
X88427262Y-140345000D01*
G75*
G02*
X88699000Y-140616738I0J-271738D01*
G01*
X88699000Y-141323262D01*
G75*
G02*
X88427262Y-141595000I-271738J0D01*
G01*
G37*
G36*
G01*
X88427262Y-143645000D02*
X87470738Y-143645000D01*
G75*
G02*
X87199000Y-143373262I0J271738D01*
G01*
X87199000Y-142666738D01*
G75*
G02*
X87470738Y-142395000I271738J0D01*
G01*
X88427262Y-142395000D01*
G75*
G02*
X88699000Y-142666738I0J-271738D01*
G01*
X88699000Y-143373262D01*
G75*
G02*
X88427262Y-143645000I-271738J0D01*
G01*
G37*
%TD*%
D12*
%TO.C,C58*%
X115610000Y-102235000D03*
G36*
G01*
X118960000Y-101435000D02*
X118960000Y-103035000D01*
G75*
G02*
X118910000Y-103085000I-50000J0D01*
G01*
X117310000Y-103085000D01*
G75*
G02*
X117260000Y-103035000I0J50000D01*
G01*
X117260000Y-101435000D01*
G75*
G02*
X117310000Y-101385000I50000J0D01*
G01*
X118910000Y-101385000D01*
G75*
G02*
X118960000Y-101435000I0J-50000D01*
G01*
G37*
%TD*%
%TO.C,C57*%
X122595000Y-102235000D03*
G36*
G01*
X125945000Y-101435000D02*
X125945000Y-103035000D01*
G75*
G02*
X125895000Y-103085000I-50000J0D01*
G01*
X124295000Y-103085000D01*
G75*
G02*
X124245000Y-103035000I0J50000D01*
G01*
X124245000Y-101435000D01*
G75*
G02*
X124295000Y-101385000I50000J0D01*
G01*
X125895000Y-101385000D01*
G75*
G02*
X125945000Y-101435000I0J-50000D01*
G01*
G37*
%TD*%
%TO.C,C56*%
X132120000Y-102235000D03*
G36*
G01*
X135470000Y-101435000D02*
X135470000Y-103035000D01*
G75*
G02*
X135420000Y-103085000I-50000J0D01*
G01*
X133820000Y-103085000D01*
G75*
G02*
X133770000Y-103035000I0J50000D01*
G01*
X133770000Y-101435000D01*
G75*
G02*
X133820000Y-101385000I50000J0D01*
G01*
X135420000Y-101385000D01*
G75*
G02*
X135470000Y-101435000I0J-50000D01*
G01*
G37*
%TD*%
%TO.C,C55*%
X139105000Y-102362000D03*
G36*
G01*
X142455000Y-101562000D02*
X142455000Y-103162000D01*
G75*
G02*
X142405000Y-103212000I-50000J0D01*
G01*
X140805000Y-103212000D01*
G75*
G02*
X140755000Y-103162000I0J50000D01*
G01*
X140755000Y-101562000D01*
G75*
G02*
X140805000Y-101512000I50000J0D01*
G01*
X142405000Y-101512000D01*
G75*
G02*
X142455000Y-101562000I0J-50000D01*
G01*
G37*
%TD*%
%TO.C,C54*%
X149265000Y-102235000D03*
G36*
G01*
X152615000Y-101435000D02*
X152615000Y-103035000D01*
G75*
G02*
X152565000Y-103085000I-50000J0D01*
G01*
X150965000Y-103085000D01*
G75*
G02*
X150915000Y-103035000I0J50000D01*
G01*
X150915000Y-101435000D01*
G75*
G02*
X150965000Y-101385000I50000J0D01*
G01*
X152565000Y-101385000D01*
G75*
G02*
X152615000Y-101435000I0J-50000D01*
G01*
G37*
%TD*%
%TO.C,C53*%
X156250000Y-102235000D03*
G36*
G01*
X159600000Y-101435000D02*
X159600000Y-103035000D01*
G75*
G02*
X159550000Y-103085000I-50000J0D01*
G01*
X157950000Y-103085000D01*
G75*
G02*
X157900000Y-103035000I0J50000D01*
G01*
X157900000Y-101435000D01*
G75*
G02*
X157950000Y-101385000I50000J0D01*
G01*
X159550000Y-101385000D01*
G75*
G02*
X159600000Y-101435000I0J-50000D01*
G01*
G37*
%TD*%
%TO.C,C52*%
X166410000Y-102362000D03*
G36*
G01*
X169760000Y-101562000D02*
X169760000Y-103162000D01*
G75*
G02*
X169710000Y-103212000I-50000J0D01*
G01*
X168110000Y-103212000D01*
G75*
G02*
X168060000Y-103162000I0J50000D01*
G01*
X168060000Y-101562000D01*
G75*
G02*
X168110000Y-101512000I50000J0D01*
G01*
X169710000Y-101512000D01*
G75*
G02*
X169760000Y-101562000I0J-50000D01*
G01*
G37*
%TD*%
%TO.C,C51*%
X173395000Y-102362000D03*
G36*
G01*
X176745000Y-101562000D02*
X176745000Y-103162000D01*
G75*
G02*
X176695000Y-103212000I-50000J0D01*
G01*
X175095000Y-103212000D01*
G75*
G02*
X175045000Y-103162000I0J50000D01*
G01*
X175045000Y-101562000D01*
G75*
G02*
X175095000Y-101512000I50000J0D01*
G01*
X176695000Y-101512000D01*
G75*
G02*
X176745000Y-101562000I0J-50000D01*
G01*
G37*
%TD*%
D17*
%TO.C,C47*%
X70485000Y-111355250D03*
G36*
G01*
X71685000Y-117605250D02*
X69285000Y-117605250D01*
G75*
G02*
X69235000Y-117555250I0J50000D01*
G01*
X69235000Y-115155250D01*
G75*
G02*
X69285000Y-115105250I50000J0D01*
G01*
X71685000Y-115105250D01*
G75*
G02*
X71735000Y-115155250I0J-50000D01*
G01*
X71735000Y-117555250D01*
G75*
G02*
X71685000Y-117605250I-50000J0D01*
G01*
G37*
%TD*%
D19*
%TO.C,C46*%
X90250000Y-112545250D03*
G36*
G01*
X96300000Y-111545250D02*
X96300000Y-113545250D01*
G75*
G02*
X96250000Y-113595250I-50000J0D01*
G01*
X94250000Y-113595250D01*
G75*
G02*
X94200000Y-113545250I0J50000D01*
G01*
X94200000Y-111545250D01*
G75*
G02*
X94250000Y-111495250I50000J0D01*
G01*
X96250000Y-111495250D01*
G75*
G02*
X96300000Y-111545250I0J-50000D01*
G01*
G37*
%TD*%
%TO.C,C45*%
X101045000Y-112545250D03*
G36*
G01*
X107095000Y-111545250D02*
X107095000Y-113545250D01*
G75*
G02*
X107045000Y-113595250I-50000J0D01*
G01*
X105045000Y-113595250D01*
G75*
G02*
X104995000Y-113545250I0J50000D01*
G01*
X104995000Y-111545250D01*
G75*
G02*
X105045000Y-111495250I50000J0D01*
G01*
X107045000Y-111495250D01*
G75*
G02*
X107095000Y-111545250I0J-50000D01*
G01*
G37*
%TD*%
D12*
%TO.C,C44*%
X176530000Y-206335000D03*
G36*
G01*
X175730000Y-202985000D02*
X177330000Y-202985000D01*
G75*
G02*
X177380000Y-203035000I0J-50000D01*
G01*
X177380000Y-204635000D01*
G75*
G02*
X177330000Y-204685000I-50000J0D01*
G01*
X175730000Y-204685000D01*
G75*
G02*
X175680000Y-204635000I0J50000D01*
G01*
X175680000Y-203035000D01*
G75*
G02*
X175730000Y-202985000I50000J0D01*
G01*
G37*
%TD*%
%TO.C,C43*%
X176530000Y-200620000D03*
G36*
G01*
X175730000Y-197270000D02*
X177330000Y-197270000D01*
G75*
G02*
X177380000Y-197320000I0J-50000D01*
G01*
X177380000Y-198920000D01*
G75*
G02*
X177330000Y-198970000I-50000J0D01*
G01*
X175730000Y-198970000D01*
G75*
G02*
X175680000Y-198920000I0J50000D01*
G01*
X175680000Y-197320000D01*
G75*
G02*
X175730000Y-197270000I50000J0D01*
G01*
G37*
%TD*%
%TO.C,C42*%
X176530000Y-189190000D03*
G36*
G01*
X175730000Y-185840000D02*
X177330000Y-185840000D01*
G75*
G02*
X177380000Y-185890000I0J-50000D01*
G01*
X177380000Y-187490000D01*
G75*
G02*
X177330000Y-187540000I-50000J0D01*
G01*
X175730000Y-187540000D01*
G75*
G02*
X175680000Y-187490000I0J50000D01*
G01*
X175680000Y-185890000D01*
G75*
G02*
X175730000Y-185840000I50000J0D01*
G01*
G37*
%TD*%
%TO.C,C41*%
X176530000Y-183475000D03*
G36*
G01*
X175730000Y-180125000D02*
X177330000Y-180125000D01*
G75*
G02*
X177380000Y-180175000I0J-50000D01*
G01*
X177380000Y-181775000D01*
G75*
G02*
X177330000Y-181825000I-50000J0D01*
G01*
X175730000Y-181825000D01*
G75*
G02*
X175680000Y-181775000I0J50000D01*
G01*
X175680000Y-180175000D01*
G75*
G02*
X175730000Y-180125000I50000J0D01*
G01*
G37*
%TD*%
D17*
%TO.C,C36*%
X215625000Y-184785000D03*
X238125000Y-184785000D03*
%TD*%
%TO.C,C20*%
X215625000Y-161925000D03*
X238125000Y-161925000D03*
%TD*%
D12*
%TO.C,C19*%
X176530000Y-171251250D03*
G36*
G01*
X175730000Y-167901250D02*
X177330000Y-167901250D01*
G75*
G02*
X177380000Y-167951250I0J-50000D01*
G01*
X177380000Y-169551250D01*
G75*
G02*
X177330000Y-169601250I-50000J0D01*
G01*
X175730000Y-169601250D01*
G75*
G02*
X175680000Y-169551250I0J50000D01*
G01*
X175680000Y-167951250D01*
G75*
G02*
X175730000Y-167901250I50000J0D01*
G01*
G37*
%TD*%
%TO.C,C18*%
X176530000Y-165536250D03*
G36*
G01*
X175730000Y-162186250D02*
X177330000Y-162186250D01*
G75*
G02*
X177380000Y-162236250I0J-50000D01*
G01*
X177380000Y-163836250D01*
G75*
G02*
X177330000Y-163886250I-50000J0D01*
G01*
X175730000Y-163886250D01*
G75*
G02*
X175680000Y-163836250I0J50000D01*
G01*
X175680000Y-162236250D01*
G75*
G02*
X175730000Y-162186250I50000J0D01*
G01*
G37*
%TD*%
%TO.C,C17*%
X176530000Y-153670000D03*
G36*
G01*
X175730000Y-150320000D02*
X177330000Y-150320000D01*
G75*
G02*
X177380000Y-150370000I0J-50000D01*
G01*
X177380000Y-151970000D01*
G75*
G02*
X177330000Y-152020000I-50000J0D01*
G01*
X175730000Y-152020000D01*
G75*
G02*
X175680000Y-151970000I0J50000D01*
G01*
X175680000Y-150370000D01*
G75*
G02*
X175730000Y-150320000I50000J0D01*
G01*
G37*
%TD*%
%TO.C,C16*%
X176530000Y-147955000D03*
G36*
G01*
X175730000Y-144605000D02*
X177330000Y-144605000D01*
G75*
G02*
X177380000Y-144655000I0J-50000D01*
G01*
X177380000Y-146255000D01*
G75*
G02*
X177330000Y-146305000I-50000J0D01*
G01*
X175730000Y-146305000D01*
G75*
G02*
X175680000Y-146255000I0J50000D01*
G01*
X175680000Y-144655000D01*
G75*
G02*
X175730000Y-144605000I50000J0D01*
G01*
G37*
%TD*%
%TO.C,C11*%
G36*
G01*
X77440262Y-165081000D02*
X76483738Y-165081000D01*
G75*
G02*
X76212000Y-164809262I0J271738D01*
G01*
X76212000Y-164102738D01*
G75*
G02*
X76483738Y-163831000I271738J0D01*
G01*
X77440262Y-163831000D01*
G75*
G02*
X77712000Y-164102738I0J-271738D01*
G01*
X77712000Y-164809262D01*
G75*
G02*
X77440262Y-165081000I-271738J0D01*
G01*
G37*
G36*
G01*
X77440262Y-167131000D02*
X76483738Y-167131000D01*
G75*
G02*
X76212000Y-166859262I0J271738D01*
G01*
X76212000Y-166152738D01*
G75*
G02*
X76483738Y-165881000I271738J0D01*
G01*
X77440262Y-165881000D01*
G75*
G02*
X77712000Y-166152738I0J-271738D01*
G01*
X77712000Y-166859262D01*
G75*
G02*
X77440262Y-167131000I-271738J0D01*
G01*
G37*
%TD*%
%TO.C,C10*%
G36*
G01*
X87493262Y-175255504D02*
X86536738Y-175255504D01*
G75*
G02*
X86265000Y-174983766I0J271738D01*
G01*
X86265000Y-174277242D01*
G75*
G02*
X86536738Y-174005504I271738J0D01*
G01*
X87493262Y-174005504D01*
G75*
G02*
X87765000Y-174277242I0J-271738D01*
G01*
X87765000Y-174983766D01*
G75*
G02*
X87493262Y-175255504I-271738J0D01*
G01*
G37*
G36*
G01*
X87493262Y-177305504D02*
X86536738Y-177305504D01*
G75*
G02*
X86265000Y-177033766I0J271738D01*
G01*
X86265000Y-176327242D01*
G75*
G02*
X86536738Y-176055504I271738J0D01*
G01*
X87493262Y-176055504D01*
G75*
G02*
X87765000Y-176327242I0J-271738D01*
G01*
X87765000Y-177033766D01*
G75*
G02*
X87493262Y-177305504I-271738J0D01*
G01*
G37*
%TD*%
%TO.C,C9*%
G36*
G01*
X87250000Y-179622242D02*
X87250000Y-180578766D01*
G75*
G02*
X86978262Y-180850504I-271738J0D01*
G01*
X86271738Y-180850504D01*
G75*
G02*
X86000000Y-180578766I0J271738D01*
G01*
X86000000Y-179622242D01*
G75*
G02*
X86271738Y-179350504I271738J0D01*
G01*
X86978262Y-179350504D01*
G75*
G02*
X87250000Y-179622242I0J-271738D01*
G01*
G37*
G36*
G01*
X89300000Y-179622242D02*
X89300000Y-180578766D01*
G75*
G02*
X89028262Y-180850504I-271738J0D01*
G01*
X88321738Y-180850504D01*
G75*
G02*
X88050000Y-180578766I0J271738D01*
G01*
X88050000Y-179622242D01*
G75*
G02*
X88321738Y-179350504I271738J0D01*
G01*
X89028262Y-179350504D01*
G75*
G02*
X89300000Y-179622242I0J-271738D01*
G01*
G37*
%TD*%
%TO.C,C8*%
G36*
G01*
X70905000Y-179943766D02*
X70905000Y-178987242D01*
G75*
G02*
X71176738Y-178715504I271738J0D01*
G01*
X71883262Y-178715504D01*
G75*
G02*
X72155000Y-178987242I0J-271738D01*
G01*
X72155000Y-179943766D01*
G75*
G02*
X71883262Y-180215504I-271738J0D01*
G01*
X71176738Y-180215504D01*
G75*
G02*
X70905000Y-179943766I0J271738D01*
G01*
G37*
G36*
G01*
X68855000Y-179943766D02*
X68855000Y-178987242D01*
G75*
G02*
X69126738Y-178715504I271738J0D01*
G01*
X69833262Y-178715504D01*
G75*
G02*
X70105000Y-178987242I0J-271738D01*
G01*
X70105000Y-179943766D01*
G75*
G02*
X69833262Y-180215504I-271738J0D01*
G01*
X69126738Y-180215504D01*
G75*
G02*
X68855000Y-179943766I0J271738D01*
G01*
G37*
%TD*%
%TO.C,C7*%
G36*
G01*
X70105000Y-176447242D02*
X70105000Y-177403766D01*
G75*
G02*
X69833262Y-177675504I-271738J0D01*
G01*
X69126738Y-177675504D01*
G75*
G02*
X68855000Y-177403766I0J271738D01*
G01*
X68855000Y-176447242D01*
G75*
G02*
X69126738Y-176175504I271738J0D01*
G01*
X69833262Y-176175504D01*
G75*
G02*
X70105000Y-176447242I0J-271738D01*
G01*
G37*
G36*
G01*
X72155000Y-176447242D02*
X72155000Y-177403766D01*
G75*
G02*
X71883262Y-177675504I-271738J0D01*
G01*
X71176738Y-177675504D01*
G75*
G02*
X70905000Y-177403766I0J271738D01*
G01*
X70905000Y-176447242D01*
G75*
G02*
X71176738Y-176175504I271738J0D01*
G01*
X71883262Y-176175504D01*
G75*
G02*
X72155000Y-176447242I0J-271738D01*
G01*
G37*
%TD*%
%TO.C,C22*%
G36*
G01*
X87473262Y-196450000D02*
X86516738Y-196450000D01*
G75*
G02*
X86245000Y-196178262I0J271738D01*
G01*
X86245000Y-195471738D01*
G75*
G02*
X86516738Y-195200000I271738J0D01*
G01*
X87473262Y-195200000D01*
G75*
G02*
X87745000Y-195471738I0J-271738D01*
G01*
X87745000Y-196178262D01*
G75*
G02*
X87473262Y-196450000I-271738J0D01*
G01*
G37*
G36*
G01*
X87473262Y-198500000D02*
X86516738Y-198500000D01*
G75*
G02*
X86245000Y-198228262I0J271738D01*
G01*
X86245000Y-197521738D01*
G75*
G02*
X86516738Y-197250000I271738J0D01*
G01*
X87473262Y-197250000D01*
G75*
G02*
X87745000Y-197521738I0J-271738D01*
G01*
X87745000Y-198228262D01*
G75*
G02*
X87473262Y-198500000I-271738J0D01*
G01*
G37*
%TD*%
M02*
