M48
; DRILL file {KiCad 5.99.0-unknown-1f9723c~101~ubuntu18.04.1} date Mon Jun  8 02:15:57 2020
; FORMAT={-:-/ absolute / inch / decimal}
; #@! TF.CreationDate,2020-06-08T02:15:57+03:00
; #@! TF.GenerationSoftware,Kicad,Pcbnew,5.99.0-unknown-1f9723c~101~ubuntu18.04.1
FMAT,2
INCH
T1C0.0157
T2C0.0236
T3C0.0276
T4C0.0295
T5C0.0315
T6C0.0354
T7C0.0394
T8C0.0472
T9C0.0551
T10C0.0591
T11C0.0787
T12C0.0866
T13C0.1378
%
G90
G05
T1
X2.525Y-7.05
X2.595Y-7.39
X2.67Y-6.895
X2.675Y-7.02
X2.72Y-7.33
X2.755Y-7.74
X2.865Y-7.035
X2.885Y-7.865
X2.97Y-7.165
X3.0208Y-7.181
X3.075Y-7.9
X3.085Y-7.415
X3.115Y-7.475
X3.125Y-7.35
X3.175Y-8.105
X3.2Y-7.8
X3.205Y-7.64
X3.23Y-7.29
X3.23Y-7.45
X3.24Y-7.645
X3.25Y-7.26
X3.2552Y-7.4311
X3.26Y-7.605
X3.375Y-7.9
X3.425Y-7.65
X3.425Y-7.8483
X3.7425Y-5.7425
X3.775Y-7.775
X3.79Y-8.15
X3.85Y-6.005
X3.855Y-6.135
X3.86Y-6.355
X3.915Y-6.77
X3.96Y-6.885
X4.0025Y-6.6825
X4.0275Y-6.9525
X4.035Y-7.89
X4.0925Y-6.5925
X4.115Y-6.91
X4.18Y-6.84
X4.185Y-7.165
X4.185Y-8.095
X4.195Y-7.25
X4.195Y-7.355
X4.215Y-7.675
X4.22Y-6.545
X4.225Y-7.235
X4.275Y-6.765
X4.28Y-6.6
X4.305Y-7.87
X4.3096Y-7.5146
X4.32Y-6.42
X4.335Y-6.68
X4.355Y-7.075
X4.3775Y-6.0375
X4.41Y-6.025
X4.45Y-6.075
X4.465Y-7.17
X4.47Y-6.835
X4.4815Y-6.4727
X4.515Y-7.395
X4.52Y-7.15
X4.5285Y-7.1029
X4.5523Y-6.5025
X4.6496Y-7.4596
X4.65Y-7.225
X4.655Y-6.22
X4.685Y-7.22
X4.6901Y-6.4717
X4.6946Y-7.4646
X4.6996Y-6.245
X4.7147Y-6.445
X4.725Y-6.275
X4.7379Y-6.3169
X4.74Y-6.355
X4.74Y-6.395
X4.8022Y-6.4133
X4.83Y-6.37
X4.835Y-6.435
X4.845Y-7.105
X4.855Y-6.145
X4.865Y-7.13
X4.905Y-6.1609
X4.935Y-6.1786
X4.9626Y-6.2277
X4.965Y-6.1963
X4.975Y-6.88
X4.985Y-6.98
X4.9882Y-6.3582
X4.99Y-6.805
X4.9986Y-6.2356
X5.0Y-7.075
X5.01Y-6.265
X5.01Y-7.35
X5.045Y-6.805
X5.0515Y-6.9843
X5.0619Y-6.2779
X5.07Y-6.495
X5.0856Y-6.6114
X5.09Y-6.575
X5.09Y-7.03
X5.095Y-6.535
X5.11Y-6.79
X5.12Y-6.99
X5.14Y-6.27
X5.145Y-6.805
X5.1931Y-6.6021
X5.2564Y-6.2523
X5.27Y-6.86
X5.28Y-6.59
X5.31Y-6.865
X5.335Y-6.58
X5.365Y-6.91
X5.39Y-6.84
X5.495Y-6.26
X5.635Y-6.88
X5.68Y-6.81
X5.68Y-6.86
X5.73Y-6.85
X5.765Y-5.82
X5.78Y-5.335
X5.785Y-5.025
X5.8Y-5.82
X5.81Y-4.995
X5.81Y-5.345
X5.83Y-4.8
X6.0Y-5.025
X6.44Y-4.79
X6.44Y-5.01
T2
X2.7306Y-5.8959
X2.77Y-5.85
T3
X4.975Y-3.65
X4.975Y-3.85
X3.65Y-4.7309
X3.65Y-4.9309
X5.825Y-3.6484
X5.825Y-3.8484
X5.65Y-3.65
X5.65Y-3.85
X7.0Y-5.125
X7.0Y-5.325
X5.15Y-3.6484
X5.15Y-3.8484
X4.475Y-3.6484
X4.475Y-3.8484
X6.325Y-3.65
X6.325Y-3.85
X6.5Y-3.65
X6.5Y-3.85
X7.0Y-4.7
X7.0Y-4.9
X7.0Y-3.65
X7.0Y-3.85
X4.4488Y-4.7244
X4.4488Y-4.9244
T4
X3.54Y-6.69
X3.575Y-6.79
X3.6475Y-6.5975
X3.735Y-6.51
X3.815Y-6.43
X3.895Y-5.945
X3.9026Y-6.1553
X3.9634Y-5.7387
X4.4231Y-5.5816
X4.78Y-5.565
X4.9902Y-5.5689
X5.315Y-5.495
X5.695Y-5.49
X5.83Y-5.495
X5.9868Y-5.5
X5.9868Y-5.575
X6.625Y-5.5
X6.675Y-5.575
X7.075Y-4.825
X7.135Y-5.435
X7.16Y-5.33
X7.55Y-6.225
X7.575Y-5.9
X7.6Y-3.225
X7.6Y-3.425
X7.6Y-3.575
X7.6069Y-2.8896
X7.6117Y-3.662
X7.65Y-7.7
X8.59Y-5.95
X8.63Y-5.95
X8.67Y-5.95
X8.675Y-5.9
X8.675Y-5.995
X8.71Y-5.95
X8.75Y-5.95
X9.125Y-5.85
X9.125Y-5.925
X9.125Y-6.0
X9.225Y-5.85
X9.225Y-5.925
X9.225Y-6.0
X9.3Y-5.85
X9.3Y-5.95
X9.35Y-5.9
X9.35Y-6.0
X9.4Y-5.85
X9.4Y-5.95
X9.45Y-5.9
X9.45Y-6.0
T5
X2.935Y-6.475
X2.955Y-6.535
X2.96Y-6.415
X3.35Y-5.6
X3.35Y-5.875
X3.355Y-5.305
X3.52Y-5.64
X3.585Y-5.25
X3.59Y-6.875
X3.625Y-5.525
X3.65Y-6.655
X3.67Y-6.86
X3.755Y-6.56
X3.815Y-6.485
X3.935Y-5.915
X3.955Y-6.13
X4.02Y-5.735
X4.425Y-5.64
X4.765Y-5.615
X4.98Y-5.615
X5.315Y-5.56
X5.695Y-5.545
X5.83Y-5.55
X6.345Y-4.195
X6.6Y-5.96
X6.65Y-7.25
X6.675Y-6.65
X6.675Y-8.0
X7.6Y-6.625
X7.6018Y-2.4768
X7.625Y-7.4
X7.65Y-6.965
X7.675Y-8.125
X5.975Y-7.925
X6.375Y-7.925
X6.95Y-7.8
X6.95Y-7.8984
X6.95Y-6.4188
X6.95Y-6.5172
X5.25Y-3.5484
X5.25Y-3.8484
X3.84Y-4.7259
X3.84Y-4.8259
X3.84Y-4.9259
X6.7Y-3.55
X6.7Y-3.85
X6.025Y-3.55
X6.025Y-3.85
X4.5516Y-4.025
X4.65Y-4.025
X6.1516Y-4.025
X6.25Y-4.025
X5.35Y-3.5484
X5.35Y-3.8484
X4.0Y-4.7309
X4.0Y-5.0309
X6.9Y-3.55
X6.9Y-3.85
X5.4766Y-4.03
X5.575Y-4.03
X6.475Y-7.825
X6.475Y-7.925
X6.475Y-8.025
X6.475Y-8.125
X6.775Y-7.825
X6.775Y-7.925
X6.775Y-8.025
X6.775Y-8.125
X6.8266Y-4.03
X6.925Y-4.03
X6.225Y-3.5484
X6.225Y-3.8484
X6.475Y-8.25
X6.875Y-8.25
X4.875Y-3.5484
X4.875Y-3.8484
X6.95Y-5.9516
X6.95Y-6.05
X6.475Y-6.875
X6.875Y-6.875
X5.8766Y-4.025
X5.975Y-4.025
X4.1Y-4.7309
X4.1Y-5.0309
X6.49Y-4.25
X6.59Y-4.25
X6.69Y-4.25
X6.6Y-4.55
X7.0Y-4.55
X5.2016Y-4.025
X5.3Y-4.025
X6.8Y-3.55
X6.8Y-3.85
X5.45Y-3.55
X5.45Y-3.85
X5.975Y-7.25
X6.375Y-7.25
X2.7281Y-5.3059
X2.925Y-5.3059
X6.475Y-7.575
X6.875Y-7.575
X6.6Y-5.15
X6.6Y-5.25
X6.6Y-5.35
X6.9Y-5.15
X6.9Y-5.25
X6.9Y-5.35
X6.125Y-3.55
X6.125Y-3.85
X6.105Y-4.2484
X6.205Y-4.2484
X6.305Y-4.2484
X5.975Y-6.55
X6.375Y-6.55
X4.495Y-4.2484
X4.595Y-4.2484
X4.695Y-4.2484
X6.6Y-4.675
X6.6Y-4.775
X6.6Y-4.875
X6.9Y-4.675
X6.9Y-4.775
X6.9Y-4.875
X5.925Y-3.5484
X5.925Y-3.8484
X5.15Y-4.2484
X5.25Y-4.2484
X5.35Y-4.2484
X6.6Y-3.55
X6.6Y-3.85
X4.575Y-3.5484
X4.575Y-3.8484
X6.475Y-5.75
X6.475Y-5.85
X6.475Y-5.95
X6.475Y-6.05
X6.775Y-5.75
X6.775Y-5.85
X6.775Y-5.95
X6.775Y-6.05
X5.43Y-4.2484
X5.53Y-4.2484
X5.63Y-4.2484
X4.675Y-3.55
X4.675Y-3.85
X6.475Y-6.175
X6.875Y-6.175
X6.95Y-6.6437
X6.95Y-6.7422
X6.78Y-4.25
X6.88Y-4.25
X6.98Y-4.25
X5.55Y-3.55
X5.55Y-3.85
X6.95Y-7.125
X6.95Y-7.2234
X6.95Y-8.025
X6.95Y-8.1234
X6.95Y-5.7266
X6.95Y-5.825
X6.5516Y-4.03
X6.65Y-4.03
X4.775Y-3.55
X4.775Y-3.85
X4.785Y-4.2484
X4.885Y-4.2484
X4.985Y-4.2484
X4.8266Y-4.025
X4.925Y-4.025
X6.6Y-5.025
X7.0Y-5.025
X5.975Y-5.85
X6.375Y-5.85
X6.95Y-7.35
X6.95Y-7.4484
X6.475Y-6.45
X6.475Y-6.55
X6.475Y-6.65
X6.475Y-6.75
X6.775Y-6.45
X6.775Y-6.55
X6.775Y-6.65
X6.775Y-6.75
X6.475Y-7.15
X6.475Y-7.25
X6.475Y-7.35
X6.475Y-7.45
X6.775Y-7.15
X6.775Y-7.25
X6.775Y-7.35
X6.775Y-7.45
X5.82Y-4.2484
X5.92Y-4.2484
X6.02Y-4.2484
X4.305Y-4.7309
X4.305Y-4.8309
X4.305Y-4.9309
T6
X2.6386Y-7.0725
X2.825Y-7.475
X2.8758Y-6.6656
X2.9448Y-7.7863
X3.005Y-7.455
X3.0821Y-5.5567
X3.2337Y-6.0718
X3.35Y-8.025
X3.49Y-6.465
X3.5Y-7.675
X3.5371Y-5.5467
X3.55Y-7.825
X3.575Y-7.575
X3.5892Y-6.2332
X3.5904Y-7.6641
X3.7021Y-5.8017
X3.7471Y-5.9767
X3.815Y-7.26
X3.825Y-8.0126
X4.21Y-7.09
X4.23Y-6.27
X4.235Y-6.88
X4.28Y-5.495
X4.355Y-6.295
X4.4246Y-7.5346
X4.43Y-5.345
X4.4355Y-6.482
X4.7168Y-7.1664
X4.78Y-5.945
X4.91Y-6.71
X5.35Y-5.3
X5.425Y-5.275
X3.525Y-4.7059
X3.525Y-5.1059
X4.375Y-4.2309
X4.375Y-4.6309
T7
X2.89Y-5.66
X3.0709Y-5.3543
X3.73Y-6.2
X4.0403Y-5.8251
X4.696Y-5.6603
X4.705Y-5.865
X4.7375Y-4.7125
X4.775Y-5.35
X4.95Y-5.1
X4.97Y-5.35
X5.25Y-4.9
X6.8Y-2.775
X4.935Y-5.99
X4.935Y-6.09
X5.035Y-5.99
X5.035Y-6.09
X5.135Y-5.99
X5.135Y-6.09
X5.235Y-5.99
X5.235Y-6.09
X5.335Y-5.99
X5.335Y-6.09
X5.435Y-5.99
X5.435Y-6.09
X5.535Y-5.99
X5.535Y-6.09
X5.635Y-5.99
X5.635Y-6.09
X3.5531Y-4.4309
X3.75Y-4.4309
X3.525Y-7.4
X3.625Y-7.4
X4.215Y-5.925
X4.315Y-5.925
X4.415Y-5.925
X4.515Y-5.925
X6.0063Y-2.5313
X6.0063Y-3.3187
X6.2031Y-3.3187
X6.5969Y-3.3187
X6.7937Y-2.5313
X6.7937Y-3.3187
X5.235Y-7.015
X5.235Y-7.115
X4.3896Y-8.1096
X4.4896Y-8.1096
X4.5896Y-8.1096
X4.6896Y-8.1096
X9.6Y-6.8813
X9.6Y-7.275
X8.225Y-5.625
X8.225Y-5.725
X2.9329Y-2.8396
X2.9329Y-3.9223
X3.1297Y-3.9223
X3.7203Y-3.9223
X3.9171Y-2.8396
X3.9171Y-3.9223
X8.875Y-5.7
X8.975Y-5.7
X14.05Y-6.375
X14.05Y-6.475
X9.525Y-8.1
X9.625Y-8.1
X8.225Y-6.4
X8.225Y-6.5
X13.3Y-3.05
X13.3Y-3.15
X8.225Y-7.15
X8.225Y-7.25
X3.5Y-8.15
X3.6Y-8.15
X10.9313Y-6.125
X11.325Y-6.125
X11.275Y-5.4
X11.275Y-5.5
X8.225Y-7.875
X8.225Y-7.975
X4.6313Y-2.5313
X4.6313Y-3.3187
X4.8281Y-3.3187
X5.2219Y-3.3187
X5.4187Y-2.5313
X5.4187Y-3.3187
X9.6Y-6.15
X9.7Y-6.15
X3.9781Y-4.4309
X4.175Y-4.4309
T8
X12.3609Y-2.45
X12.3609Y-3.65
X11.3Y-7.625
X11.3Y-8.2156
X2.775Y-4.3841
X2.775Y-4.5809
X11.275Y-6.3844
X11.275Y-6.975
X12.275Y-6.3844
X12.275Y-6.975
X12.0Y-7.625
X12.0Y-8.2156
X8.4892Y-7.725
X9.375Y-7.725
X9.8Y-7.2943
X11.0Y-7.2943
X12.7109Y-2.4594
X12.7109Y-3.05
X12.35Y-7.625
X12.35Y-8.2156
X11.65Y-7.625
X11.65Y-8.2156
X9.8Y-6.875
X11.0Y-6.875
X9.8Y-6.45
X11.0Y-6.45
X10.1Y-2.725
X10.4Y-2.725
X10.7Y-2.725
X11.525Y-6.3844
X11.525Y-6.975
X9.8Y-7.7096
X11.0Y-7.7096
X12.025Y-6.3844
X12.025Y-6.975
X11.9609Y-2.45
X11.9609Y-3.65
X11.775Y-6.3844
X11.775Y-6.975
X8.4892Y-6.825
X9.375Y-6.825
X8.4892Y-7.275
X9.375Y-7.275
X13.75Y-2.9
X13.75Y-3.2
X13.75Y-3.5
X12.9359Y-2.4594
X12.9359Y-3.05
X8.4892Y-6.375
X9.375Y-6.375
X9.8Y-8.125
X11.0Y-8.125
T9
X3.2Y-4.3809
X3.2Y-4.5809
X3.2Y-4.7809
X3.2Y-4.9809
T10
X8.0Y-6.2169
X8.0Y-6.4315
X8.0Y-6.6461
X8.0Y-3.2248
X8.0Y-3.4394
X8.0Y-3.6539
X2.75Y-4.9075
X2.75Y-5.1043
X8.0Y-4.7209
X8.0Y-5.15
X8.0Y-6.965
X8.0Y-7.1795
X8.0Y-7.3941
X8.0Y-5.4689
X8.0Y-5.6835
X8.0Y-5.898
X8.0Y-2.4768
X8.0Y-2.6913
X8.0Y-2.9059
X8.0Y-7.713
X8.0Y-7.9276
X8.0Y-8.1421
X8.0Y-3.9728
X8.0Y-4.402
T11
X10.1Y-6.55
T12
X8.725Y-4.9
X9.1187Y-4.9
X10.1063Y-5.45
X10.5Y-5.45
X8.725Y-3.425
X9.1187Y-3.425
T13
X11.3496Y-3.2254
X11.3496Y-4.5246
X12.7004Y-6.8504
X12.7004Y-8.1496
X11.9756Y-4.0506
X11.9756Y-5.9994
X13.9244Y-4.0506
X13.9244Y-5.9994
T0
M30
