%TF.GenerationSoftware,KiCad,Pcbnew,5.99.0-unknown-1f9723c~101~ubuntu18.04.1*%
%TF.CreationDate,2020-06-20T02:36:48+03:00*%
%TF.ProjectId,WaveUltrasonics,57617665-556c-4747-9261-736f6e696373,rev?*%
%TF.SameCoordinates,Original*%
%TF.FileFunction,Soldermask,Top*%
%TF.FilePolarity,Negative*%
%FSLAX46Y46*%
G04 Gerber Fmt 4.6, Leading zero omitted, Abs format (unit mm)*
G04 Created by KiCad (PCBNEW 5.99.0-unknown-1f9723c~101~ubuntu18.04.1) date 2020-06-20 02:36:48*
%MOMM*%
%LPD*%
G01*
G04 APERTURE LIST*
%TA.AperFunction,Profile*%
%ADD10C,0.050000*%
%TD*%
%ADD11O,1.800000X1.800000*%
%ADD12C,1.624000*%
%ADD13C,1.900000*%
%ADD14O,1.700000X1.700000*%
%ADD15O,2.500000X2.500000*%
%ADD16C,2.500000*%
%ADD17O,1.500000X1.500000*%
%ADD18C,1.500000*%
%ADD19C,2.600000*%
%ADD20O,1.800000X2.050000*%
%ADD21O,1.800000X2.100000*%
%ADD22O,2.100000X1.800000*%
%ADD23C,2.100000*%
%ADD24C,4.100000*%
%ADD25C,1.600000*%
%ADD26C,1.700000*%
%ADD27O,4.600000X2.600000*%
%ADD28C,2.900000*%
%ADD29O,1.900000X1.900000*%
G04 APERTURE END LIST*
D10*
X246500000Y-96393000D02*
G75*
G03*
X246500000Y-96393000I-1500000J0D01*
G01*
X61500000Y-63000000D02*
G75*
G02*
X66500000Y-58000000I5000000J0D01*
G01*
X68000000Y-63000000D02*
G75*
G03*
X68000000Y-63000000I-1500000J0D01*
G01*
X68000000Y-208000000D02*
G75*
G03*
X68000000Y-208000000I-1500000J0D01*
G01*
X66500000Y-213000000D02*
G75*
G02*
X61500000Y-208000000I0J5000000D01*
G01*
X320000000Y-63000000D02*
G75*
G03*
X320000000Y-63000000I-1500000J0D01*
G01*
X320000000Y-208000000D02*
G75*
G03*
X320000000Y-208000000I-1500000J0D01*
G01*
X323500000Y-208000000D02*
G75*
G02*
X318500000Y-213000000I-5000000J0D01*
G01*
X318500000Y-58000000D02*
G75*
G02*
X323500000Y-63000000I0J-5000000D01*
G01*
X61500000Y-208000000D02*
X61500000Y-63000000D01*
X318500000Y-213000000D02*
X66500000Y-213000000D01*
X323500000Y-63000000D02*
X323500000Y-208000000D01*
X66500000Y-58000000D02*
X318500000Y-58000000D01*
%TO.C,Y1*%
G36*
G01*
X99590330Y-174022564D02*
X98600381Y-173032614D01*
G75*
G02*
X98600381Y-172961904I35355J35355D01*
G01*
X99731752Y-171830533D01*
G75*
G02*
X99802462Y-171830533I35355J-35355D01*
G01*
X100792411Y-172820482D01*
G75*
G02*
X100792411Y-172891192I-35355J-35355D01*
G01*
X99661040Y-174022563D01*
G75*
G02*
X99590330Y-174022563I-35355J35355D01*
G01*
G37*
G36*
G01*
X101287386Y-175719620D02*
X100297437Y-174729670D01*
G75*
G02*
X100297437Y-174658960I35355J35355D01*
G01*
X101428808Y-173527589D01*
G75*
G02*
X101499518Y-173527589I35355J-35355D01*
G01*
X102489467Y-174517538D01*
G75*
G02*
X102489467Y-174588248I-35355J-35355D01*
G01*
X101358096Y-175719619D01*
G75*
G02*
X101287386Y-175719619I-35355J35355D01*
G01*
G37*
G36*
G01*
X98317538Y-178689468D02*
X97327589Y-177699518D01*
G75*
G02*
X97327589Y-177628808I35355J35355D01*
G01*
X98458960Y-176497437D01*
G75*
G02*
X98529670Y-176497437I35355J-35355D01*
G01*
X99519619Y-177487386D01*
G75*
G02*
X99519619Y-177558096I-35355J-35355D01*
G01*
X98388248Y-178689467D01*
G75*
G02*
X98317538Y-178689467I-35355J35355D01*
G01*
G37*
G36*
G01*
X96691193Y-177009382D02*
X95613562Y-175931751D01*
G75*
G02*
X95613562Y-175861041I35355J35355D01*
G01*
X96691193Y-174783410D01*
G75*
G02*
X96761903Y-174783410I35355J-35355D01*
G01*
X97839534Y-175861041D01*
G75*
G02*
X97839534Y-175931751I-35355J-35355D01*
G01*
X96761903Y-177009382D01*
G75*
G02*
X96691193Y-177009382I-35355J35355D01*
G01*
G37*
%TD*%
%TO.C,D29*%
G36*
G01*
X117112000Y-207765500D02*
X119362000Y-207765500D01*
G75*
G02*
X119412000Y-207815500I0J-50000D01*
G01*
X119412000Y-209815500D01*
G75*
G02*
X119362000Y-209865500I-50000J0D01*
G01*
X117112000Y-209865500D01*
G75*
G02*
X117062000Y-209815500I0J50000D01*
G01*
X117062000Y-207815500D01*
G75*
G02*
X117112000Y-207765500I50000J0D01*
G01*
G37*
G36*
G01*
X117112000Y-203900500D02*
X119362000Y-203900500D01*
G75*
G02*
X119412000Y-203950500I0J-50000D01*
G01*
X119412000Y-205950500D01*
G75*
G02*
X119362000Y-206000500I-50000J0D01*
G01*
X117112000Y-206000500D01*
G75*
G02*
X117062000Y-205950500I0J50000D01*
G01*
X117062000Y-203950500D01*
G75*
G02*
X117112000Y-203900500I50000J0D01*
G01*
G37*
%TD*%
%TO.C,R85*%
G36*
G01*
X141537500Y-159665750D02*
X141537500Y-160628250D01*
G75*
G02*
X141268750Y-160897000I-268750J0D01*
G01*
X140731250Y-160897000D01*
G75*
G02*
X140462500Y-160628250I0J268750D01*
G01*
X140462500Y-159665750D01*
G75*
G02*
X140731250Y-159397000I268750J0D01*
G01*
X141268750Y-159397000D01*
G75*
G02*
X141537500Y-159665750I0J-268750D01*
G01*
G37*
G36*
G01*
X143412500Y-159665750D02*
X143412500Y-160628250D01*
G75*
G02*
X143143750Y-160897000I-268750J0D01*
G01*
X142606250Y-160897000D01*
G75*
G02*
X142337500Y-160628250I0J268750D01*
G01*
X142337500Y-159665750D01*
G75*
G02*
X142606250Y-159397000I268750J0D01*
G01*
X143143750Y-159397000D01*
G75*
G02*
X143412500Y-159665750I0J-268750D01*
G01*
G37*
%TD*%
%TO.C,Q27*%
G36*
G01*
X141437500Y-156699000D02*
X141437500Y-157499000D01*
G75*
G02*
X141387500Y-157549000I-50000J0D01*
G01*
X140487500Y-157549000D01*
G75*
G02*
X140437500Y-157499000I0J50000D01*
G01*
X140437500Y-156699000D01*
G75*
G02*
X140487500Y-156649000I50000J0D01*
G01*
X141387500Y-156649000D01*
G75*
G02*
X141437500Y-156699000I0J-50000D01*
G01*
G37*
G36*
G01*
X143437500Y-155749000D02*
X143437500Y-156549000D01*
G75*
G02*
X143387500Y-156599000I-50000J0D01*
G01*
X142487500Y-156599000D01*
G75*
G02*
X142437500Y-156549000I0J50000D01*
G01*
X142437500Y-155749000D01*
G75*
G02*
X142487500Y-155699000I50000J0D01*
G01*
X143387500Y-155699000D01*
G75*
G02*
X143437500Y-155749000I0J-50000D01*
G01*
G37*
G36*
G01*
X143437500Y-157649000D02*
X143437500Y-158449000D01*
G75*
G02*
X143387500Y-158499000I-50000J0D01*
G01*
X142487500Y-158499000D01*
G75*
G02*
X142437500Y-158449000I0J50000D01*
G01*
X142437500Y-157649000D01*
G75*
G02*
X142487500Y-157599000I50000J0D01*
G01*
X143387500Y-157599000D01*
G75*
G02*
X143437500Y-157649000I0J-50000D01*
G01*
G37*
%TD*%
D11*
%TO.C,J2*%
X137287000Y-160020000D03*
X137287000Y-162560000D03*
X134747000Y-160020000D03*
X134747000Y-162560000D03*
X132207000Y-160020000D03*
X132207000Y-162560000D03*
X129667000Y-160020000D03*
X129667000Y-162560000D03*
X127127000Y-160020000D03*
X127127000Y-162560000D03*
X124587000Y-160020000D03*
G36*
G01*
X125437000Y-163460000D02*
X123737000Y-163460000D01*
G75*
G02*
X123687000Y-163410000I0J50000D01*
G01*
X123687000Y-161710000D01*
G75*
G02*
X123737000Y-161660000I50000J0D01*
G01*
X125437000Y-161660000D01*
G75*
G02*
X125487000Y-161710000I0J-50000D01*
G01*
X125487000Y-163410000D01*
G75*
G02*
X125437000Y-163460000I-50000J0D01*
G01*
G37*
%TD*%
%TO.C,R84*%
G36*
G01*
X137522000Y-181636750D02*
X137522000Y-182599250D01*
G75*
G02*
X137253250Y-182868000I-268750J0D01*
G01*
X136715750Y-182868000D01*
G75*
G02*
X136447000Y-182599250I0J268750D01*
G01*
X136447000Y-181636750D01*
G75*
G02*
X136715750Y-181368000I268750J0D01*
G01*
X137253250Y-181368000D01*
G75*
G02*
X137522000Y-181636750I0J-268750D01*
G01*
G37*
G36*
G01*
X139397000Y-181636750D02*
X139397000Y-182599250D01*
G75*
G02*
X139128250Y-182868000I-268750J0D01*
G01*
X138590750Y-182868000D01*
G75*
G02*
X138322000Y-182599250I0J268750D01*
G01*
X138322000Y-181636750D01*
G75*
G02*
X138590750Y-181368000I268750J0D01*
G01*
X139128250Y-181368000D01*
G75*
G02*
X139397000Y-181636750I0J-268750D01*
G01*
G37*
%TD*%
%TO.C,C77*%
G36*
G01*
X137522000Y-183541750D02*
X137522000Y-184504250D01*
G75*
G02*
X137253250Y-184773000I-268750J0D01*
G01*
X136715750Y-184773000D01*
G75*
G02*
X136447000Y-184504250I0J268750D01*
G01*
X136447000Y-183541750D01*
G75*
G02*
X136715750Y-183273000I268750J0D01*
G01*
X137253250Y-183273000D01*
G75*
G02*
X137522000Y-183541750I0J-268750D01*
G01*
G37*
G36*
G01*
X139397000Y-183541750D02*
X139397000Y-184504250D01*
G75*
G02*
X139128250Y-184773000I-268750J0D01*
G01*
X138590750Y-184773000D01*
G75*
G02*
X138322000Y-184504250I0J268750D01*
G01*
X138322000Y-183541750D01*
G75*
G02*
X138590750Y-183273000I268750J0D01*
G01*
X139128250Y-183273000D01*
G75*
G02*
X139397000Y-183541750I0J-268750D01*
G01*
G37*
%TD*%
D12*
%TO.C,L1*%
X67517000Y-138183000D03*
X77517000Y-138183000D03*
X77517000Y-123183000D03*
X67517000Y-123183000D03*
%TD*%
D13*
%TO.C,T2*%
X74495000Y-98725250D03*
X79495000Y-98725250D03*
X94495000Y-98725250D03*
X99495000Y-98725250D03*
X99495000Y-73025250D03*
X74495000Y-73025250D03*
%TD*%
%TO.C,C68*%
G36*
G01*
X133242000Y-202919250D02*
X133242000Y-201956750D01*
G75*
G02*
X133510750Y-201688000I268750J0D01*
G01*
X134048250Y-201688000D01*
G75*
G02*
X134317000Y-201956750I0J-268750D01*
G01*
X134317000Y-202919250D01*
G75*
G02*
X134048250Y-203188000I-268750J0D01*
G01*
X133510750Y-203188000D01*
G75*
G02*
X133242000Y-202919250I0J268750D01*
G01*
G37*
G36*
G01*
X131367000Y-202919250D02*
X131367000Y-201956750D01*
G75*
G02*
X131635750Y-201688000I268750J0D01*
G01*
X132173250Y-201688000D01*
G75*
G02*
X132442000Y-201956750I0J-268750D01*
G01*
X132442000Y-202919250D01*
G75*
G02*
X132173250Y-203188000I-268750J0D01*
G01*
X131635750Y-203188000D01*
G75*
G02*
X131367000Y-202919250I0J268750D01*
G01*
G37*
%TD*%
%TO.C,C48*%
G36*
G01*
X65767000Y-153061750D02*
X65767000Y-154024250D01*
G75*
G02*
X65498250Y-154293000I-268750J0D01*
G01*
X64960750Y-154293000D01*
G75*
G02*
X64692000Y-154024250I0J268750D01*
G01*
X64692000Y-153061750D01*
G75*
G02*
X64960750Y-152793000I268750J0D01*
G01*
X65498250Y-152793000D01*
G75*
G02*
X65767000Y-153061750I0J-268750D01*
G01*
G37*
G36*
G01*
X67642000Y-153061750D02*
X67642000Y-154024250D01*
G75*
G02*
X67373250Y-154293000I-268750J0D01*
G01*
X66835750Y-154293000D01*
G75*
G02*
X66567000Y-154024250I0J268750D01*
G01*
X66567000Y-153061750D01*
G75*
G02*
X66835750Y-152793000I268750J0D01*
G01*
X67373250Y-152793000D01*
G75*
G02*
X67642000Y-153061750I0J-268750D01*
G01*
G37*
%TD*%
%TO.C,U17*%
G36*
G01*
X107667000Y-173563000D02*
X107667000Y-172188000D01*
G75*
G02*
X107767000Y-172088000I100000J0D01*
G01*
X107967000Y-172088000D01*
G75*
G02*
X108067000Y-172188000I0J-100000D01*
G01*
X108067000Y-173563000D01*
G75*
G02*
X107967000Y-173663000I-100000J0D01*
G01*
X107767000Y-173663000D01*
G75*
G02*
X107667000Y-173563000I0J100000D01*
G01*
G37*
G36*
G01*
X108167000Y-173563000D02*
X108167000Y-172188000D01*
G75*
G02*
X108267000Y-172088000I100000J0D01*
G01*
X108467000Y-172088000D01*
G75*
G02*
X108567000Y-172188000I0J-100000D01*
G01*
X108567000Y-173563000D01*
G75*
G02*
X108467000Y-173663000I-100000J0D01*
G01*
X108267000Y-173663000D01*
G75*
G02*
X108167000Y-173563000I0J100000D01*
G01*
G37*
G36*
G01*
X108667000Y-173563000D02*
X108667000Y-172188000D01*
G75*
G02*
X108767000Y-172088000I100000J0D01*
G01*
X108967000Y-172088000D01*
G75*
G02*
X109067000Y-172188000I0J-100000D01*
G01*
X109067000Y-173563000D01*
G75*
G02*
X108967000Y-173663000I-100000J0D01*
G01*
X108767000Y-173663000D01*
G75*
G02*
X108667000Y-173563000I0J100000D01*
G01*
G37*
G36*
G01*
X109167000Y-173563000D02*
X109167000Y-172188000D01*
G75*
G02*
X109267000Y-172088000I100000J0D01*
G01*
X109467000Y-172088000D01*
G75*
G02*
X109567000Y-172188000I0J-100000D01*
G01*
X109567000Y-173563000D01*
G75*
G02*
X109467000Y-173663000I-100000J0D01*
G01*
X109267000Y-173663000D01*
G75*
G02*
X109167000Y-173563000I0J100000D01*
G01*
G37*
G36*
G01*
X109667000Y-173563000D02*
X109667000Y-172188000D01*
G75*
G02*
X109767000Y-172088000I100000J0D01*
G01*
X109967000Y-172088000D01*
G75*
G02*
X110067000Y-172188000I0J-100000D01*
G01*
X110067000Y-173563000D01*
G75*
G02*
X109967000Y-173663000I-100000J0D01*
G01*
X109767000Y-173663000D01*
G75*
G02*
X109667000Y-173563000I0J100000D01*
G01*
G37*
G36*
G01*
X110167000Y-173563000D02*
X110167000Y-172188000D01*
G75*
G02*
X110267000Y-172088000I100000J0D01*
G01*
X110467000Y-172088000D01*
G75*
G02*
X110567000Y-172188000I0J-100000D01*
G01*
X110567000Y-173563000D01*
G75*
G02*
X110467000Y-173663000I-100000J0D01*
G01*
X110267000Y-173663000D01*
G75*
G02*
X110167000Y-173563000I0J100000D01*
G01*
G37*
G36*
G01*
X110667000Y-173563000D02*
X110667000Y-172188000D01*
G75*
G02*
X110767000Y-172088000I100000J0D01*
G01*
X110967000Y-172088000D01*
G75*
G02*
X111067000Y-172188000I0J-100000D01*
G01*
X111067000Y-173563000D01*
G75*
G02*
X110967000Y-173663000I-100000J0D01*
G01*
X110767000Y-173663000D01*
G75*
G02*
X110667000Y-173563000I0J100000D01*
G01*
G37*
G36*
G01*
X111167000Y-173563000D02*
X111167000Y-172188000D01*
G75*
G02*
X111267000Y-172088000I100000J0D01*
G01*
X111467000Y-172088000D01*
G75*
G02*
X111567000Y-172188000I0J-100000D01*
G01*
X111567000Y-173563000D01*
G75*
G02*
X111467000Y-173663000I-100000J0D01*
G01*
X111267000Y-173663000D01*
G75*
G02*
X111167000Y-173563000I0J100000D01*
G01*
G37*
G36*
G01*
X111667000Y-173563000D02*
X111667000Y-172188000D01*
G75*
G02*
X111767000Y-172088000I100000J0D01*
G01*
X111967000Y-172088000D01*
G75*
G02*
X112067000Y-172188000I0J-100000D01*
G01*
X112067000Y-173563000D01*
G75*
G02*
X111967000Y-173663000I-100000J0D01*
G01*
X111767000Y-173663000D01*
G75*
G02*
X111667000Y-173563000I0J100000D01*
G01*
G37*
G36*
G01*
X112167000Y-173563000D02*
X112167000Y-172188000D01*
G75*
G02*
X112267000Y-172088000I100000J0D01*
G01*
X112467000Y-172088000D01*
G75*
G02*
X112567000Y-172188000I0J-100000D01*
G01*
X112567000Y-173563000D01*
G75*
G02*
X112467000Y-173663000I-100000J0D01*
G01*
X112267000Y-173663000D01*
G75*
G02*
X112167000Y-173563000I0J100000D01*
G01*
G37*
G36*
G01*
X112667000Y-173563000D02*
X112667000Y-172188000D01*
G75*
G02*
X112767000Y-172088000I100000J0D01*
G01*
X112967000Y-172088000D01*
G75*
G02*
X113067000Y-172188000I0J-100000D01*
G01*
X113067000Y-173563000D01*
G75*
G02*
X112967000Y-173663000I-100000J0D01*
G01*
X112767000Y-173663000D01*
G75*
G02*
X112667000Y-173563000I0J100000D01*
G01*
G37*
G36*
G01*
X113167000Y-173563000D02*
X113167000Y-172188000D01*
G75*
G02*
X113267000Y-172088000I100000J0D01*
G01*
X113467000Y-172088000D01*
G75*
G02*
X113567000Y-172188000I0J-100000D01*
G01*
X113567000Y-173563000D01*
G75*
G02*
X113467000Y-173663000I-100000J0D01*
G01*
X113267000Y-173663000D01*
G75*
G02*
X113167000Y-173563000I0J100000D01*
G01*
G37*
G36*
G01*
X113992000Y-174388000D02*
X113992000Y-174188000D01*
G75*
G02*
X114092000Y-174088000I100000J0D01*
G01*
X115467000Y-174088000D01*
G75*
G02*
X115567000Y-174188000I0J-100000D01*
G01*
X115567000Y-174388000D01*
G75*
G02*
X115467000Y-174488000I-100000J0D01*
G01*
X114092000Y-174488000D01*
G75*
G02*
X113992000Y-174388000I0J100000D01*
G01*
G37*
G36*
G01*
X113992000Y-174888000D02*
X113992000Y-174688000D01*
G75*
G02*
X114092000Y-174588000I100000J0D01*
G01*
X115467000Y-174588000D01*
G75*
G02*
X115567000Y-174688000I0J-100000D01*
G01*
X115567000Y-174888000D01*
G75*
G02*
X115467000Y-174988000I-100000J0D01*
G01*
X114092000Y-174988000D01*
G75*
G02*
X113992000Y-174888000I0J100000D01*
G01*
G37*
G36*
G01*
X113992000Y-175388000D02*
X113992000Y-175188000D01*
G75*
G02*
X114092000Y-175088000I100000J0D01*
G01*
X115467000Y-175088000D01*
G75*
G02*
X115567000Y-175188000I0J-100000D01*
G01*
X115567000Y-175388000D01*
G75*
G02*
X115467000Y-175488000I-100000J0D01*
G01*
X114092000Y-175488000D01*
G75*
G02*
X113992000Y-175388000I0J100000D01*
G01*
G37*
G36*
G01*
X113992000Y-175888000D02*
X113992000Y-175688000D01*
G75*
G02*
X114092000Y-175588000I100000J0D01*
G01*
X115467000Y-175588000D01*
G75*
G02*
X115567000Y-175688000I0J-100000D01*
G01*
X115567000Y-175888000D01*
G75*
G02*
X115467000Y-175988000I-100000J0D01*
G01*
X114092000Y-175988000D01*
G75*
G02*
X113992000Y-175888000I0J100000D01*
G01*
G37*
G36*
G01*
X113992000Y-176388000D02*
X113992000Y-176188000D01*
G75*
G02*
X114092000Y-176088000I100000J0D01*
G01*
X115467000Y-176088000D01*
G75*
G02*
X115567000Y-176188000I0J-100000D01*
G01*
X115567000Y-176388000D01*
G75*
G02*
X115467000Y-176488000I-100000J0D01*
G01*
X114092000Y-176488000D01*
G75*
G02*
X113992000Y-176388000I0J100000D01*
G01*
G37*
G36*
G01*
X113992000Y-176888000D02*
X113992000Y-176688000D01*
G75*
G02*
X114092000Y-176588000I100000J0D01*
G01*
X115467000Y-176588000D01*
G75*
G02*
X115567000Y-176688000I0J-100000D01*
G01*
X115567000Y-176888000D01*
G75*
G02*
X115467000Y-176988000I-100000J0D01*
G01*
X114092000Y-176988000D01*
G75*
G02*
X113992000Y-176888000I0J100000D01*
G01*
G37*
G36*
G01*
X113992000Y-177388000D02*
X113992000Y-177188000D01*
G75*
G02*
X114092000Y-177088000I100000J0D01*
G01*
X115467000Y-177088000D01*
G75*
G02*
X115567000Y-177188000I0J-100000D01*
G01*
X115567000Y-177388000D01*
G75*
G02*
X115467000Y-177488000I-100000J0D01*
G01*
X114092000Y-177488000D01*
G75*
G02*
X113992000Y-177388000I0J100000D01*
G01*
G37*
G36*
G01*
X113992000Y-177888000D02*
X113992000Y-177688000D01*
G75*
G02*
X114092000Y-177588000I100000J0D01*
G01*
X115467000Y-177588000D01*
G75*
G02*
X115567000Y-177688000I0J-100000D01*
G01*
X115567000Y-177888000D01*
G75*
G02*
X115467000Y-177988000I-100000J0D01*
G01*
X114092000Y-177988000D01*
G75*
G02*
X113992000Y-177888000I0J100000D01*
G01*
G37*
G36*
G01*
X113992000Y-178388000D02*
X113992000Y-178188000D01*
G75*
G02*
X114092000Y-178088000I100000J0D01*
G01*
X115467000Y-178088000D01*
G75*
G02*
X115567000Y-178188000I0J-100000D01*
G01*
X115567000Y-178388000D01*
G75*
G02*
X115467000Y-178488000I-100000J0D01*
G01*
X114092000Y-178488000D01*
G75*
G02*
X113992000Y-178388000I0J100000D01*
G01*
G37*
G36*
G01*
X113992000Y-178888000D02*
X113992000Y-178688000D01*
G75*
G02*
X114092000Y-178588000I100000J0D01*
G01*
X115467000Y-178588000D01*
G75*
G02*
X115567000Y-178688000I0J-100000D01*
G01*
X115567000Y-178888000D01*
G75*
G02*
X115467000Y-178988000I-100000J0D01*
G01*
X114092000Y-178988000D01*
G75*
G02*
X113992000Y-178888000I0J100000D01*
G01*
G37*
G36*
G01*
X113992000Y-179388000D02*
X113992000Y-179188000D01*
G75*
G02*
X114092000Y-179088000I100000J0D01*
G01*
X115467000Y-179088000D01*
G75*
G02*
X115567000Y-179188000I0J-100000D01*
G01*
X115567000Y-179388000D01*
G75*
G02*
X115467000Y-179488000I-100000J0D01*
G01*
X114092000Y-179488000D01*
G75*
G02*
X113992000Y-179388000I0J100000D01*
G01*
G37*
G36*
G01*
X113992000Y-179888000D02*
X113992000Y-179688000D01*
G75*
G02*
X114092000Y-179588000I100000J0D01*
G01*
X115467000Y-179588000D01*
G75*
G02*
X115567000Y-179688000I0J-100000D01*
G01*
X115567000Y-179888000D01*
G75*
G02*
X115467000Y-179988000I-100000J0D01*
G01*
X114092000Y-179988000D01*
G75*
G02*
X113992000Y-179888000I0J100000D01*
G01*
G37*
G36*
G01*
X113167000Y-181888000D02*
X113167000Y-180513000D01*
G75*
G02*
X113267000Y-180413000I100000J0D01*
G01*
X113467000Y-180413000D01*
G75*
G02*
X113567000Y-180513000I0J-100000D01*
G01*
X113567000Y-181888000D01*
G75*
G02*
X113467000Y-181988000I-100000J0D01*
G01*
X113267000Y-181988000D01*
G75*
G02*
X113167000Y-181888000I0J100000D01*
G01*
G37*
G36*
G01*
X112667000Y-181888000D02*
X112667000Y-180513000D01*
G75*
G02*
X112767000Y-180413000I100000J0D01*
G01*
X112967000Y-180413000D01*
G75*
G02*
X113067000Y-180513000I0J-100000D01*
G01*
X113067000Y-181888000D01*
G75*
G02*
X112967000Y-181988000I-100000J0D01*
G01*
X112767000Y-181988000D01*
G75*
G02*
X112667000Y-181888000I0J100000D01*
G01*
G37*
G36*
G01*
X112167000Y-181888000D02*
X112167000Y-180513000D01*
G75*
G02*
X112267000Y-180413000I100000J0D01*
G01*
X112467000Y-180413000D01*
G75*
G02*
X112567000Y-180513000I0J-100000D01*
G01*
X112567000Y-181888000D01*
G75*
G02*
X112467000Y-181988000I-100000J0D01*
G01*
X112267000Y-181988000D01*
G75*
G02*
X112167000Y-181888000I0J100000D01*
G01*
G37*
G36*
G01*
X111667000Y-181888000D02*
X111667000Y-180513000D01*
G75*
G02*
X111767000Y-180413000I100000J0D01*
G01*
X111967000Y-180413000D01*
G75*
G02*
X112067000Y-180513000I0J-100000D01*
G01*
X112067000Y-181888000D01*
G75*
G02*
X111967000Y-181988000I-100000J0D01*
G01*
X111767000Y-181988000D01*
G75*
G02*
X111667000Y-181888000I0J100000D01*
G01*
G37*
G36*
G01*
X111167000Y-181888000D02*
X111167000Y-180513000D01*
G75*
G02*
X111267000Y-180413000I100000J0D01*
G01*
X111467000Y-180413000D01*
G75*
G02*
X111567000Y-180513000I0J-100000D01*
G01*
X111567000Y-181888000D01*
G75*
G02*
X111467000Y-181988000I-100000J0D01*
G01*
X111267000Y-181988000D01*
G75*
G02*
X111167000Y-181888000I0J100000D01*
G01*
G37*
G36*
G01*
X110667000Y-181888000D02*
X110667000Y-180513000D01*
G75*
G02*
X110767000Y-180413000I100000J0D01*
G01*
X110967000Y-180413000D01*
G75*
G02*
X111067000Y-180513000I0J-100000D01*
G01*
X111067000Y-181888000D01*
G75*
G02*
X110967000Y-181988000I-100000J0D01*
G01*
X110767000Y-181988000D01*
G75*
G02*
X110667000Y-181888000I0J100000D01*
G01*
G37*
G36*
G01*
X110167000Y-181888000D02*
X110167000Y-180513000D01*
G75*
G02*
X110267000Y-180413000I100000J0D01*
G01*
X110467000Y-180413000D01*
G75*
G02*
X110567000Y-180513000I0J-100000D01*
G01*
X110567000Y-181888000D01*
G75*
G02*
X110467000Y-181988000I-100000J0D01*
G01*
X110267000Y-181988000D01*
G75*
G02*
X110167000Y-181888000I0J100000D01*
G01*
G37*
G36*
G01*
X109667000Y-181888000D02*
X109667000Y-180513000D01*
G75*
G02*
X109767000Y-180413000I100000J0D01*
G01*
X109967000Y-180413000D01*
G75*
G02*
X110067000Y-180513000I0J-100000D01*
G01*
X110067000Y-181888000D01*
G75*
G02*
X109967000Y-181988000I-100000J0D01*
G01*
X109767000Y-181988000D01*
G75*
G02*
X109667000Y-181888000I0J100000D01*
G01*
G37*
G36*
G01*
X109167000Y-181888000D02*
X109167000Y-180513000D01*
G75*
G02*
X109267000Y-180413000I100000J0D01*
G01*
X109467000Y-180413000D01*
G75*
G02*
X109567000Y-180513000I0J-100000D01*
G01*
X109567000Y-181888000D01*
G75*
G02*
X109467000Y-181988000I-100000J0D01*
G01*
X109267000Y-181988000D01*
G75*
G02*
X109167000Y-181888000I0J100000D01*
G01*
G37*
G36*
G01*
X108667000Y-181888000D02*
X108667000Y-180513000D01*
G75*
G02*
X108767000Y-180413000I100000J0D01*
G01*
X108967000Y-180413000D01*
G75*
G02*
X109067000Y-180513000I0J-100000D01*
G01*
X109067000Y-181888000D01*
G75*
G02*
X108967000Y-181988000I-100000J0D01*
G01*
X108767000Y-181988000D01*
G75*
G02*
X108667000Y-181888000I0J100000D01*
G01*
G37*
G36*
G01*
X108167000Y-181888000D02*
X108167000Y-180513000D01*
G75*
G02*
X108267000Y-180413000I100000J0D01*
G01*
X108467000Y-180413000D01*
G75*
G02*
X108567000Y-180513000I0J-100000D01*
G01*
X108567000Y-181888000D01*
G75*
G02*
X108467000Y-181988000I-100000J0D01*
G01*
X108267000Y-181988000D01*
G75*
G02*
X108167000Y-181888000I0J100000D01*
G01*
G37*
G36*
G01*
X107667000Y-181888000D02*
X107667000Y-180513000D01*
G75*
G02*
X107767000Y-180413000I100000J0D01*
G01*
X107967000Y-180413000D01*
G75*
G02*
X108067000Y-180513000I0J-100000D01*
G01*
X108067000Y-181888000D01*
G75*
G02*
X107967000Y-181988000I-100000J0D01*
G01*
X107767000Y-181988000D01*
G75*
G02*
X107667000Y-181888000I0J100000D01*
G01*
G37*
G36*
G01*
X105667000Y-179888000D02*
X105667000Y-179688000D01*
G75*
G02*
X105767000Y-179588000I100000J0D01*
G01*
X107142000Y-179588000D01*
G75*
G02*
X107242000Y-179688000I0J-100000D01*
G01*
X107242000Y-179888000D01*
G75*
G02*
X107142000Y-179988000I-100000J0D01*
G01*
X105767000Y-179988000D01*
G75*
G02*
X105667000Y-179888000I0J100000D01*
G01*
G37*
G36*
G01*
X105667000Y-179388000D02*
X105667000Y-179188000D01*
G75*
G02*
X105767000Y-179088000I100000J0D01*
G01*
X107142000Y-179088000D01*
G75*
G02*
X107242000Y-179188000I0J-100000D01*
G01*
X107242000Y-179388000D01*
G75*
G02*
X107142000Y-179488000I-100000J0D01*
G01*
X105767000Y-179488000D01*
G75*
G02*
X105667000Y-179388000I0J100000D01*
G01*
G37*
G36*
G01*
X105667000Y-178888000D02*
X105667000Y-178688000D01*
G75*
G02*
X105767000Y-178588000I100000J0D01*
G01*
X107142000Y-178588000D01*
G75*
G02*
X107242000Y-178688000I0J-100000D01*
G01*
X107242000Y-178888000D01*
G75*
G02*
X107142000Y-178988000I-100000J0D01*
G01*
X105767000Y-178988000D01*
G75*
G02*
X105667000Y-178888000I0J100000D01*
G01*
G37*
G36*
G01*
X105667000Y-178388000D02*
X105667000Y-178188000D01*
G75*
G02*
X105767000Y-178088000I100000J0D01*
G01*
X107142000Y-178088000D01*
G75*
G02*
X107242000Y-178188000I0J-100000D01*
G01*
X107242000Y-178388000D01*
G75*
G02*
X107142000Y-178488000I-100000J0D01*
G01*
X105767000Y-178488000D01*
G75*
G02*
X105667000Y-178388000I0J100000D01*
G01*
G37*
G36*
G01*
X105667000Y-177888000D02*
X105667000Y-177688000D01*
G75*
G02*
X105767000Y-177588000I100000J0D01*
G01*
X107142000Y-177588000D01*
G75*
G02*
X107242000Y-177688000I0J-100000D01*
G01*
X107242000Y-177888000D01*
G75*
G02*
X107142000Y-177988000I-100000J0D01*
G01*
X105767000Y-177988000D01*
G75*
G02*
X105667000Y-177888000I0J100000D01*
G01*
G37*
G36*
G01*
X105667000Y-177388000D02*
X105667000Y-177188000D01*
G75*
G02*
X105767000Y-177088000I100000J0D01*
G01*
X107142000Y-177088000D01*
G75*
G02*
X107242000Y-177188000I0J-100000D01*
G01*
X107242000Y-177388000D01*
G75*
G02*
X107142000Y-177488000I-100000J0D01*
G01*
X105767000Y-177488000D01*
G75*
G02*
X105667000Y-177388000I0J100000D01*
G01*
G37*
G36*
G01*
X105667000Y-176888000D02*
X105667000Y-176688000D01*
G75*
G02*
X105767000Y-176588000I100000J0D01*
G01*
X107142000Y-176588000D01*
G75*
G02*
X107242000Y-176688000I0J-100000D01*
G01*
X107242000Y-176888000D01*
G75*
G02*
X107142000Y-176988000I-100000J0D01*
G01*
X105767000Y-176988000D01*
G75*
G02*
X105667000Y-176888000I0J100000D01*
G01*
G37*
G36*
G01*
X105667000Y-176388000D02*
X105667000Y-176188000D01*
G75*
G02*
X105767000Y-176088000I100000J0D01*
G01*
X107142000Y-176088000D01*
G75*
G02*
X107242000Y-176188000I0J-100000D01*
G01*
X107242000Y-176388000D01*
G75*
G02*
X107142000Y-176488000I-100000J0D01*
G01*
X105767000Y-176488000D01*
G75*
G02*
X105667000Y-176388000I0J100000D01*
G01*
G37*
G36*
G01*
X105667000Y-175888000D02*
X105667000Y-175688000D01*
G75*
G02*
X105767000Y-175588000I100000J0D01*
G01*
X107142000Y-175588000D01*
G75*
G02*
X107242000Y-175688000I0J-100000D01*
G01*
X107242000Y-175888000D01*
G75*
G02*
X107142000Y-175988000I-100000J0D01*
G01*
X105767000Y-175988000D01*
G75*
G02*
X105667000Y-175888000I0J100000D01*
G01*
G37*
G36*
G01*
X105667000Y-175388000D02*
X105667000Y-175188000D01*
G75*
G02*
X105767000Y-175088000I100000J0D01*
G01*
X107142000Y-175088000D01*
G75*
G02*
X107242000Y-175188000I0J-100000D01*
G01*
X107242000Y-175388000D01*
G75*
G02*
X107142000Y-175488000I-100000J0D01*
G01*
X105767000Y-175488000D01*
G75*
G02*
X105667000Y-175388000I0J100000D01*
G01*
G37*
G36*
G01*
X105667000Y-174888000D02*
X105667000Y-174688000D01*
G75*
G02*
X105767000Y-174588000I100000J0D01*
G01*
X107142000Y-174588000D01*
G75*
G02*
X107242000Y-174688000I0J-100000D01*
G01*
X107242000Y-174888000D01*
G75*
G02*
X107142000Y-174988000I-100000J0D01*
G01*
X105767000Y-174988000D01*
G75*
G02*
X105667000Y-174888000I0J100000D01*
G01*
G37*
G36*
G01*
X105667000Y-174388000D02*
X105667000Y-174188000D01*
G75*
G02*
X105767000Y-174088000I100000J0D01*
G01*
X107142000Y-174088000D01*
G75*
G02*
X107242000Y-174188000I0J-100000D01*
G01*
X107242000Y-174388000D01*
G75*
G02*
X107142000Y-174488000I-100000J0D01*
G01*
X105767000Y-174488000D01*
G75*
G02*
X105667000Y-174388000I0J100000D01*
G01*
G37*
%TD*%
%TO.C,U16*%
G36*
G01*
X111712000Y-201538010D02*
X112062000Y-201538010D01*
G75*
G02*
X112237000Y-201713010I0J-175000D01*
G01*
X112237000Y-203513010D01*
G75*
G02*
X112062000Y-203688010I-175000J0D01*
G01*
X111712000Y-203688010D01*
G75*
G02*
X111537000Y-203513010I0J175000D01*
G01*
X111537000Y-201713010D01*
G75*
G02*
X111712000Y-201538010I175000J0D01*
G01*
G37*
G36*
G01*
X110442000Y-201538010D02*
X110792000Y-201538010D01*
G75*
G02*
X110967000Y-201713010I0J-175000D01*
G01*
X110967000Y-203513010D01*
G75*
G02*
X110792000Y-203688010I-175000J0D01*
G01*
X110442000Y-203688010D01*
G75*
G02*
X110267000Y-203513010I0J175000D01*
G01*
X110267000Y-201713010D01*
G75*
G02*
X110442000Y-201538010I175000J0D01*
G01*
G37*
G36*
G01*
X109172000Y-201538010D02*
X109522000Y-201538010D01*
G75*
G02*
X109697000Y-201713010I0J-175000D01*
G01*
X109697000Y-203513010D01*
G75*
G02*
X109522000Y-203688010I-175000J0D01*
G01*
X109172000Y-203688010D01*
G75*
G02*
X108997000Y-203513010I0J175000D01*
G01*
X108997000Y-201713010D01*
G75*
G02*
X109172000Y-201538010I175000J0D01*
G01*
G37*
G36*
G01*
X107902000Y-201538010D02*
X108252000Y-201538010D01*
G75*
G02*
X108427000Y-201713010I0J-175000D01*
G01*
X108427000Y-203513010D01*
G75*
G02*
X108252000Y-203688010I-175000J0D01*
G01*
X107902000Y-203688010D01*
G75*
G02*
X107727000Y-203513010I0J175000D01*
G01*
X107727000Y-201713010D01*
G75*
G02*
X107902000Y-201538010I175000J0D01*
G01*
G37*
G36*
G01*
X106632000Y-201538010D02*
X106982000Y-201538010D01*
G75*
G02*
X107157000Y-201713010I0J-175000D01*
G01*
X107157000Y-203513010D01*
G75*
G02*
X106982000Y-203688010I-175000J0D01*
G01*
X106632000Y-203688010D01*
G75*
G02*
X106457000Y-203513010I0J175000D01*
G01*
X106457000Y-201713010D01*
G75*
G02*
X106632000Y-201538010I175000J0D01*
G01*
G37*
G36*
G01*
X105362000Y-201538010D02*
X105712000Y-201538010D01*
G75*
G02*
X105887000Y-201713010I0J-175000D01*
G01*
X105887000Y-203513010D01*
G75*
G02*
X105712000Y-203688010I-175000J0D01*
G01*
X105362000Y-203688010D01*
G75*
G02*
X105187000Y-203513010I0J175000D01*
G01*
X105187000Y-201713010D01*
G75*
G02*
X105362000Y-201538010I175000J0D01*
G01*
G37*
G36*
G01*
X104092000Y-201538010D02*
X104442000Y-201538010D01*
G75*
G02*
X104617000Y-201713010I0J-175000D01*
G01*
X104617000Y-203513010D01*
G75*
G02*
X104442000Y-203688010I-175000J0D01*
G01*
X104092000Y-203688010D01*
G75*
G02*
X103917000Y-203513010I0J175000D01*
G01*
X103917000Y-201713010D01*
G75*
G02*
X104092000Y-201538010I175000J0D01*
G01*
G37*
G36*
G01*
X102822000Y-201538010D02*
X103172000Y-201538010D01*
G75*
G02*
X103347000Y-201713010I0J-175000D01*
G01*
X103347000Y-203513010D01*
G75*
G02*
X103172000Y-203688010I-175000J0D01*
G01*
X102822000Y-203688010D01*
G75*
G02*
X102647000Y-203513010I0J175000D01*
G01*
X102647000Y-201713010D01*
G75*
G02*
X102822000Y-201538010I175000J0D01*
G01*
G37*
G36*
G01*
X102822000Y-192238010D02*
X103172000Y-192238010D01*
G75*
G02*
X103347000Y-192413010I0J-175000D01*
G01*
X103347000Y-194213010D01*
G75*
G02*
X103172000Y-194388010I-175000J0D01*
G01*
X102822000Y-194388010D01*
G75*
G02*
X102647000Y-194213010I0J175000D01*
G01*
X102647000Y-192413010D01*
G75*
G02*
X102822000Y-192238010I175000J0D01*
G01*
G37*
G36*
G01*
X104092000Y-192238010D02*
X104442000Y-192238010D01*
G75*
G02*
X104617000Y-192413010I0J-175000D01*
G01*
X104617000Y-194213010D01*
G75*
G02*
X104442000Y-194388010I-175000J0D01*
G01*
X104092000Y-194388010D01*
G75*
G02*
X103917000Y-194213010I0J175000D01*
G01*
X103917000Y-192413010D01*
G75*
G02*
X104092000Y-192238010I175000J0D01*
G01*
G37*
G36*
G01*
X105362000Y-192238010D02*
X105712000Y-192238010D01*
G75*
G02*
X105887000Y-192413010I0J-175000D01*
G01*
X105887000Y-194213010D01*
G75*
G02*
X105712000Y-194388010I-175000J0D01*
G01*
X105362000Y-194388010D01*
G75*
G02*
X105187000Y-194213010I0J175000D01*
G01*
X105187000Y-192413010D01*
G75*
G02*
X105362000Y-192238010I175000J0D01*
G01*
G37*
G36*
G01*
X106632000Y-192238010D02*
X106982000Y-192238010D01*
G75*
G02*
X107157000Y-192413010I0J-175000D01*
G01*
X107157000Y-194213010D01*
G75*
G02*
X106982000Y-194388010I-175000J0D01*
G01*
X106632000Y-194388010D01*
G75*
G02*
X106457000Y-194213010I0J175000D01*
G01*
X106457000Y-192413010D01*
G75*
G02*
X106632000Y-192238010I175000J0D01*
G01*
G37*
G36*
G01*
X107902000Y-192238010D02*
X108252000Y-192238010D01*
G75*
G02*
X108427000Y-192413010I0J-175000D01*
G01*
X108427000Y-194213010D01*
G75*
G02*
X108252000Y-194388010I-175000J0D01*
G01*
X107902000Y-194388010D01*
G75*
G02*
X107727000Y-194213010I0J175000D01*
G01*
X107727000Y-192413010D01*
G75*
G02*
X107902000Y-192238010I175000J0D01*
G01*
G37*
G36*
G01*
X109172000Y-192238010D02*
X109522000Y-192238010D01*
G75*
G02*
X109697000Y-192413010I0J-175000D01*
G01*
X109697000Y-194213010D01*
G75*
G02*
X109522000Y-194388010I-175000J0D01*
G01*
X109172000Y-194388010D01*
G75*
G02*
X108997000Y-194213010I0J175000D01*
G01*
X108997000Y-192413010D01*
G75*
G02*
X109172000Y-192238010I175000J0D01*
G01*
G37*
G36*
G01*
X110442000Y-192238010D02*
X110792000Y-192238010D01*
G75*
G02*
X110967000Y-192413010I0J-175000D01*
G01*
X110967000Y-194213010D01*
G75*
G02*
X110792000Y-194388010I-175000J0D01*
G01*
X110442000Y-194388010D01*
G75*
G02*
X110267000Y-194213010I0J175000D01*
G01*
X110267000Y-192413010D01*
G75*
G02*
X110442000Y-192238010I175000J0D01*
G01*
G37*
G36*
G01*
X111712000Y-192238010D02*
X112062000Y-192238010D01*
G75*
G02*
X112237000Y-192413010I0J-175000D01*
G01*
X112237000Y-194213010D01*
G75*
G02*
X112062000Y-194388010I-175000J0D01*
G01*
X111712000Y-194388010D01*
G75*
G02*
X111537000Y-194213010I0J175000D01*
G01*
X111537000Y-192413010D01*
G75*
G02*
X111712000Y-192238010I175000J0D01*
G01*
G37*
%TD*%
D14*
%TO.C,U15*%
X123317000Y-195135500D03*
X128397000Y-202755500D03*
X125857000Y-195135500D03*
X125857000Y-202755500D03*
X128397000Y-195135500D03*
G36*
G01*
X124117000Y-203605500D02*
X122517000Y-203605500D01*
G75*
G02*
X122467000Y-203555500I0J50000D01*
G01*
X122467000Y-201955500D01*
G75*
G02*
X122517000Y-201905500I50000J0D01*
G01*
X124117000Y-201905500D01*
G75*
G02*
X124167000Y-201955500I0J-50000D01*
G01*
X124167000Y-203555500D01*
G75*
G02*
X124117000Y-203605500I-50000J0D01*
G01*
G37*
%TD*%
%TO.C,U6*%
G36*
G01*
X138042000Y-146283000D02*
X138042000Y-140483000D01*
G75*
G02*
X138092000Y-140433000I50000J0D01*
G01*
X144492000Y-140433000D01*
G75*
G02*
X144542000Y-140483000I0J-50000D01*
G01*
X144542000Y-146283000D01*
G75*
G02*
X144492000Y-146333000I-50000J0D01*
G01*
X138092000Y-146333000D01*
G75*
G02*
X138042000Y-146283000I0J50000D01*
G01*
G37*
G36*
G01*
X133842000Y-146263000D02*
X133842000Y-145063000D01*
G75*
G02*
X133892000Y-145013000I50000J0D01*
G01*
X136092000Y-145013000D01*
G75*
G02*
X136142000Y-145063000I0J-50000D01*
G01*
X136142000Y-146263000D01*
G75*
G02*
X136092000Y-146313000I-50000J0D01*
G01*
X133892000Y-146313000D01*
G75*
G02*
X133842000Y-146263000I0J50000D01*
G01*
G37*
G36*
G01*
X133842000Y-141703000D02*
X133842000Y-140503000D01*
G75*
G02*
X133892000Y-140453000I50000J0D01*
G01*
X136092000Y-140453000D01*
G75*
G02*
X136142000Y-140503000I0J-50000D01*
G01*
X136142000Y-141703000D01*
G75*
G02*
X136092000Y-141753000I-50000J0D01*
G01*
X133892000Y-141753000D01*
G75*
G02*
X133842000Y-141703000I0J50000D01*
G01*
G37*
%TD*%
D11*
%TO.C,TP14*%
X109982000Y-137033000D03*
G36*
G01*
X108292000Y-137933000D02*
X106592000Y-137933000D01*
G75*
G02*
X106542000Y-137883000I0J50000D01*
G01*
X106542000Y-136183000D01*
G75*
G02*
X106592000Y-136133000I50000J0D01*
G01*
X108292000Y-136133000D01*
G75*
G02*
X108342000Y-136183000I0J-50000D01*
G01*
X108342000Y-137883000D01*
G75*
G02*
X108292000Y-137933000I-50000J0D01*
G01*
G37*
%TD*%
%TO.C,TP13*%
X96647000Y-137033000D03*
G36*
G01*
X98337000Y-136133000D02*
X100037000Y-136133000D01*
G75*
G02*
X100087000Y-136183000I0J-50000D01*
G01*
X100087000Y-137883000D01*
G75*
G02*
X100037000Y-137933000I-50000J0D01*
G01*
X98337000Y-137933000D01*
G75*
G02*
X98287000Y-137883000I0J50000D01*
G01*
X98287000Y-136183000D01*
G75*
G02*
X98337000Y-136133000I50000J0D01*
G01*
G37*
%TD*%
%TO.C,R83*%
G36*
G01*
X157372000Y-201014250D02*
X157372000Y-200051750D01*
G75*
G02*
X157640750Y-199783000I268750J0D01*
G01*
X158178250Y-199783000D01*
G75*
G02*
X158447000Y-200051750I0J-268750D01*
G01*
X158447000Y-201014250D01*
G75*
G02*
X158178250Y-201283000I-268750J0D01*
G01*
X157640750Y-201283000D01*
G75*
G02*
X157372000Y-201014250I0J268750D01*
G01*
G37*
G36*
G01*
X155497000Y-201014250D02*
X155497000Y-200051750D01*
G75*
G02*
X155765750Y-199783000I268750J0D01*
G01*
X156303250Y-199783000D01*
G75*
G02*
X156572000Y-200051750I0J-268750D01*
G01*
X156572000Y-201014250D01*
G75*
G02*
X156303250Y-201283000I-268750J0D01*
G01*
X155765750Y-201283000D01*
G75*
G02*
X155497000Y-201014250I0J268750D01*
G01*
G37*
%TD*%
%TO.C,R82*%
G36*
G01*
X160382000Y-204496750D02*
X160382000Y-205459250D01*
G75*
G02*
X160113250Y-205728000I-268750J0D01*
G01*
X159575750Y-205728000D01*
G75*
G02*
X159307000Y-205459250I0J268750D01*
G01*
X159307000Y-204496750D01*
G75*
G02*
X159575750Y-204228000I268750J0D01*
G01*
X160113250Y-204228000D01*
G75*
G02*
X160382000Y-204496750I0J-268750D01*
G01*
G37*
G36*
G01*
X162257000Y-204496750D02*
X162257000Y-205459250D01*
G75*
G02*
X161988250Y-205728000I-268750J0D01*
G01*
X161450750Y-205728000D01*
G75*
G02*
X161182000Y-205459250I0J268750D01*
G01*
X161182000Y-204496750D01*
G75*
G02*
X161450750Y-204228000I268750J0D01*
G01*
X161988250Y-204228000D01*
G75*
G02*
X162257000Y-204496750I0J-268750D01*
G01*
G37*
%TD*%
%TO.C,R81*%
G36*
G01*
X157372000Y-185139250D02*
X157372000Y-184176750D01*
G75*
G02*
X157640750Y-183908000I268750J0D01*
G01*
X158178250Y-183908000D01*
G75*
G02*
X158447000Y-184176750I0J-268750D01*
G01*
X158447000Y-185139250D01*
G75*
G02*
X158178250Y-185408000I-268750J0D01*
G01*
X157640750Y-185408000D01*
G75*
G02*
X157372000Y-185139250I0J268750D01*
G01*
G37*
G36*
G01*
X155497000Y-185139250D02*
X155497000Y-184176750D01*
G75*
G02*
X155765750Y-183908000I268750J0D01*
G01*
X156303250Y-183908000D01*
G75*
G02*
X156572000Y-184176750I0J-268750D01*
G01*
X156572000Y-185139250D01*
G75*
G02*
X156303250Y-185408000I-268750J0D01*
G01*
X155765750Y-185408000D01*
G75*
G02*
X155497000Y-185139250I0J268750D01*
G01*
G37*
%TD*%
%TO.C,R80*%
G36*
G01*
X160382000Y-188621750D02*
X160382000Y-189584250D01*
G75*
G02*
X160113250Y-189853000I-268750J0D01*
G01*
X159575750Y-189853000D01*
G75*
G02*
X159307000Y-189584250I0J268750D01*
G01*
X159307000Y-188621750D01*
G75*
G02*
X159575750Y-188353000I268750J0D01*
G01*
X160113250Y-188353000D01*
G75*
G02*
X160382000Y-188621750I0J-268750D01*
G01*
G37*
G36*
G01*
X162257000Y-188621750D02*
X162257000Y-189584250D01*
G75*
G02*
X161988250Y-189853000I-268750J0D01*
G01*
X161450750Y-189853000D01*
G75*
G02*
X161182000Y-189584250I0J268750D01*
G01*
X161182000Y-188621750D01*
G75*
G02*
X161450750Y-188353000I268750J0D01*
G01*
X161988250Y-188353000D01*
G75*
G02*
X162257000Y-188621750I0J-268750D01*
G01*
G37*
%TD*%
%TO.C,R79*%
G36*
G01*
X161182000Y-199109250D02*
X161182000Y-198146750D01*
G75*
G02*
X161450750Y-197878000I268750J0D01*
G01*
X161988250Y-197878000D01*
G75*
G02*
X162257000Y-198146750I0J-268750D01*
G01*
X162257000Y-199109250D01*
G75*
G02*
X161988250Y-199378000I-268750J0D01*
G01*
X161450750Y-199378000D01*
G75*
G02*
X161182000Y-199109250I0J268750D01*
G01*
G37*
G36*
G01*
X159307000Y-199109250D02*
X159307000Y-198146750D01*
G75*
G02*
X159575750Y-197878000I268750J0D01*
G01*
X160113250Y-197878000D01*
G75*
G02*
X160382000Y-198146750I0J-268750D01*
G01*
X160382000Y-199109250D01*
G75*
G02*
X160113250Y-199378000I-268750J0D01*
G01*
X159575750Y-199378000D01*
G75*
G02*
X159307000Y-199109250I0J268750D01*
G01*
G37*
%TD*%
%TO.C,R78*%
G36*
G01*
X161182000Y-183234250D02*
X161182000Y-182271750D01*
G75*
G02*
X161450750Y-182003000I268750J0D01*
G01*
X161988250Y-182003000D01*
G75*
G02*
X162257000Y-182271750I0J-268750D01*
G01*
X162257000Y-183234250D01*
G75*
G02*
X161988250Y-183503000I-268750J0D01*
G01*
X161450750Y-183503000D01*
G75*
G02*
X161182000Y-183234250I0J268750D01*
G01*
G37*
G36*
G01*
X159307000Y-183234250D02*
X159307000Y-182271750D01*
G75*
G02*
X159575750Y-182003000I268750J0D01*
G01*
X160113250Y-182003000D01*
G75*
G02*
X160382000Y-182271750I0J-268750D01*
G01*
X160382000Y-183234250D01*
G75*
G02*
X160113250Y-183503000I-268750J0D01*
G01*
X159575750Y-183503000D01*
G75*
G02*
X159307000Y-183234250I0J268750D01*
G01*
G37*
%TD*%
D15*
%TO.C,R77*%
X249047000Y-171323000D03*
D16*
X279527000Y-171323000D03*
%TD*%
D15*
%TO.C,R76*%
X249047000Y-182118000D03*
D16*
X279527000Y-182118000D03*
%TD*%
D15*
%TO.C,R75*%
X249047000Y-160528000D03*
D16*
X279527000Y-160528000D03*
%TD*%
D15*
%TO.C,R74*%
X291592000Y-62103000D03*
D16*
X291592000Y-92583000D03*
%TD*%
D15*
%TO.C,R73*%
X291592000Y-127508000D03*
D16*
X291592000Y-97028000D03*
%TD*%
%TO.C,R72*%
G36*
G01*
X161182000Y-145769250D02*
X161182000Y-144806750D01*
G75*
G02*
X161450750Y-144538000I268750J0D01*
G01*
X161988250Y-144538000D01*
G75*
G02*
X162257000Y-144806750I0J-268750D01*
G01*
X162257000Y-145769250D01*
G75*
G02*
X161988250Y-146038000I-268750J0D01*
G01*
X161450750Y-146038000D01*
G75*
G02*
X161182000Y-145769250I0J268750D01*
G01*
G37*
G36*
G01*
X159307000Y-145769250D02*
X159307000Y-144806750D01*
G75*
G02*
X159575750Y-144538000I268750J0D01*
G01*
X160113250Y-144538000D01*
G75*
G02*
X160382000Y-144806750I0J-268750D01*
G01*
X160382000Y-145769250D01*
G75*
G02*
X160113250Y-146038000I-268750J0D01*
G01*
X159575750Y-146038000D01*
G75*
G02*
X159307000Y-145769250I0J268750D01*
G01*
G37*
%TD*%
%TO.C,R71*%
G36*
G01*
X161182000Y-166724250D02*
X161182000Y-165761750D01*
G75*
G02*
X161450750Y-165493000I268750J0D01*
G01*
X161988250Y-165493000D01*
G75*
G02*
X162257000Y-165761750I0J-268750D01*
G01*
X162257000Y-166724250D01*
G75*
G02*
X161988250Y-166993000I-268750J0D01*
G01*
X161450750Y-166993000D01*
G75*
G02*
X161182000Y-166724250I0J268750D01*
G01*
G37*
G36*
G01*
X159307000Y-166724250D02*
X159307000Y-165761750D01*
G75*
G02*
X159575750Y-165493000I268750J0D01*
G01*
X160113250Y-165493000D01*
G75*
G02*
X160382000Y-165761750I0J-268750D01*
G01*
X160382000Y-166724250D01*
G75*
G02*
X160113250Y-166993000I-268750J0D01*
G01*
X159575750Y-166993000D01*
G75*
G02*
X159307000Y-166724250I0J268750D01*
G01*
G37*
%TD*%
%TO.C,R70*%
G36*
G01*
X160382000Y-151156750D02*
X160382000Y-152119250D01*
G75*
G02*
X160113250Y-152388000I-268750J0D01*
G01*
X159575750Y-152388000D01*
G75*
G02*
X159307000Y-152119250I0J268750D01*
G01*
X159307000Y-151156750D01*
G75*
G02*
X159575750Y-150888000I268750J0D01*
G01*
X160113250Y-150888000D01*
G75*
G02*
X160382000Y-151156750I0J-268750D01*
G01*
G37*
G36*
G01*
X162257000Y-151156750D02*
X162257000Y-152119250D01*
G75*
G02*
X161988250Y-152388000I-268750J0D01*
G01*
X161450750Y-152388000D01*
G75*
G02*
X161182000Y-152119250I0J268750D01*
G01*
X161182000Y-151156750D01*
G75*
G02*
X161450750Y-150888000I268750J0D01*
G01*
X161988250Y-150888000D01*
G75*
G02*
X162257000Y-151156750I0J-268750D01*
G01*
G37*
%TD*%
%TO.C,R69*%
G36*
G01*
X160382000Y-172111750D02*
X160382000Y-173074250D01*
G75*
G02*
X160113250Y-173343000I-268750J0D01*
G01*
X159575750Y-173343000D01*
G75*
G02*
X159307000Y-173074250I0J268750D01*
G01*
X159307000Y-172111750D01*
G75*
G02*
X159575750Y-171843000I268750J0D01*
G01*
X160113250Y-171843000D01*
G75*
G02*
X160382000Y-172111750I0J-268750D01*
G01*
G37*
G36*
G01*
X162257000Y-172111750D02*
X162257000Y-173074250D01*
G75*
G02*
X161988250Y-173343000I-268750J0D01*
G01*
X161450750Y-173343000D01*
G75*
G02*
X161182000Y-173074250I0J268750D01*
G01*
X161182000Y-172111750D01*
G75*
G02*
X161450750Y-171843000I268750J0D01*
G01*
X161988250Y-171843000D01*
G75*
G02*
X162257000Y-172111750I0J-268750D01*
G01*
G37*
%TD*%
%TO.C,R68*%
G36*
G01*
X156572000Y-147346750D02*
X156572000Y-148309250D01*
G75*
G02*
X156303250Y-148578000I-268750J0D01*
G01*
X155765750Y-148578000D01*
G75*
G02*
X155497000Y-148309250I0J268750D01*
G01*
X155497000Y-147346750D01*
G75*
G02*
X155765750Y-147078000I268750J0D01*
G01*
X156303250Y-147078000D01*
G75*
G02*
X156572000Y-147346750I0J-268750D01*
G01*
G37*
G36*
G01*
X158447000Y-147346750D02*
X158447000Y-148309250D01*
G75*
G02*
X158178250Y-148578000I-268750J0D01*
G01*
X157640750Y-148578000D01*
G75*
G02*
X157372000Y-148309250I0J268750D01*
G01*
X157372000Y-147346750D01*
G75*
G02*
X157640750Y-147078000I268750J0D01*
G01*
X158178250Y-147078000D01*
G75*
G02*
X158447000Y-147346750I0J-268750D01*
G01*
G37*
%TD*%
%TO.C,R67*%
G36*
G01*
X156572000Y-167666750D02*
X156572000Y-168629250D01*
G75*
G02*
X156303250Y-168898000I-268750J0D01*
G01*
X155765750Y-168898000D01*
G75*
G02*
X155497000Y-168629250I0J268750D01*
G01*
X155497000Y-167666750D01*
G75*
G02*
X155765750Y-167398000I268750J0D01*
G01*
X156303250Y-167398000D01*
G75*
G02*
X156572000Y-167666750I0J-268750D01*
G01*
G37*
G36*
G01*
X158447000Y-167666750D02*
X158447000Y-168629250D01*
G75*
G02*
X158178250Y-168898000I-268750J0D01*
G01*
X157640750Y-168898000D01*
G75*
G02*
X157372000Y-168629250I0J268750D01*
G01*
X157372000Y-167666750D01*
G75*
G02*
X157640750Y-167398000I268750J0D01*
G01*
X158178250Y-167398000D01*
G75*
G02*
X158447000Y-167666750I0J-268750D01*
G01*
G37*
%TD*%
%TO.C,R65*%
G36*
G01*
X159112000Y-135916750D02*
X159112000Y-136879250D01*
G75*
G02*
X158843250Y-137148000I-268750J0D01*
G01*
X158305750Y-137148000D01*
G75*
G02*
X158037000Y-136879250I0J268750D01*
G01*
X158037000Y-135916750D01*
G75*
G02*
X158305750Y-135648000I268750J0D01*
G01*
X158843250Y-135648000D01*
G75*
G02*
X159112000Y-135916750I0J-268750D01*
G01*
G37*
G36*
G01*
X160987000Y-135916750D02*
X160987000Y-136879250D01*
G75*
G02*
X160718250Y-137148000I-268750J0D01*
G01*
X160180750Y-137148000D01*
G75*
G02*
X159912000Y-136879250I0J268750D01*
G01*
X159912000Y-135916750D01*
G75*
G02*
X160180750Y-135648000I268750J0D01*
G01*
X160718250Y-135648000D01*
G75*
G02*
X160987000Y-135916750I0J-268750D01*
G01*
G37*
%TD*%
%TO.C,R64*%
G36*
G01*
X159112000Y-133376750D02*
X159112000Y-134339250D01*
G75*
G02*
X158843250Y-134608000I-268750J0D01*
G01*
X158305750Y-134608000D01*
G75*
G02*
X158037000Y-134339250I0J268750D01*
G01*
X158037000Y-133376750D01*
G75*
G02*
X158305750Y-133108000I268750J0D01*
G01*
X158843250Y-133108000D01*
G75*
G02*
X159112000Y-133376750I0J-268750D01*
G01*
G37*
G36*
G01*
X160987000Y-133376750D02*
X160987000Y-134339250D01*
G75*
G02*
X160718250Y-134608000I-268750J0D01*
G01*
X160180750Y-134608000D01*
G75*
G02*
X159912000Y-134339250I0J268750D01*
G01*
X159912000Y-133376750D01*
G75*
G02*
X160180750Y-133108000I268750J0D01*
G01*
X160718250Y-133108000D01*
G75*
G02*
X160987000Y-133376750I0J-268750D01*
G01*
G37*
%TD*%
%TO.C,R63*%
G36*
G01*
X159112000Y-123851750D02*
X159112000Y-124814250D01*
G75*
G02*
X158843250Y-125083000I-268750J0D01*
G01*
X158305750Y-125083000D01*
G75*
G02*
X158037000Y-124814250I0J268750D01*
G01*
X158037000Y-123851750D01*
G75*
G02*
X158305750Y-123583000I268750J0D01*
G01*
X158843250Y-123583000D01*
G75*
G02*
X159112000Y-123851750I0J-268750D01*
G01*
G37*
G36*
G01*
X160987000Y-123851750D02*
X160987000Y-124814250D01*
G75*
G02*
X160718250Y-125083000I-268750J0D01*
G01*
X160180750Y-125083000D01*
G75*
G02*
X159912000Y-124814250I0J268750D01*
G01*
X159912000Y-123851750D01*
G75*
G02*
X160180750Y-123583000I268750J0D01*
G01*
X160718250Y-123583000D01*
G75*
G02*
X160987000Y-123851750I0J-268750D01*
G01*
G37*
%TD*%
%TO.C,R62*%
G36*
G01*
X159112000Y-121311750D02*
X159112000Y-122274250D01*
G75*
G02*
X158843250Y-122543000I-268750J0D01*
G01*
X158305750Y-122543000D01*
G75*
G02*
X158037000Y-122274250I0J268750D01*
G01*
X158037000Y-121311750D01*
G75*
G02*
X158305750Y-121043000I268750J0D01*
G01*
X158843250Y-121043000D01*
G75*
G02*
X159112000Y-121311750I0J-268750D01*
G01*
G37*
G36*
G01*
X160987000Y-121311750D02*
X160987000Y-122274250D01*
G75*
G02*
X160718250Y-122543000I-268750J0D01*
G01*
X160180750Y-122543000D01*
G75*
G02*
X159912000Y-122274250I0J268750D01*
G01*
X159912000Y-121311750D01*
G75*
G02*
X160180750Y-121043000I268750J0D01*
G01*
X160718250Y-121043000D01*
G75*
G02*
X160987000Y-121311750I0J-268750D01*
G01*
G37*
%TD*%
%TO.C,R61*%
G36*
G01*
X99975750Y-202838000D02*
X100938250Y-202838000D01*
G75*
G02*
X101207000Y-203106750I0J-268750D01*
G01*
X101207000Y-203644250D01*
G75*
G02*
X100938250Y-203913000I-268750J0D01*
G01*
X99975750Y-203913000D01*
G75*
G02*
X99707000Y-203644250I0J268750D01*
G01*
X99707000Y-203106750D01*
G75*
G02*
X99975750Y-202838000I268750J0D01*
G01*
G37*
G36*
G01*
X99975750Y-200963000D02*
X100938250Y-200963000D01*
G75*
G02*
X101207000Y-201231750I0J-268750D01*
G01*
X101207000Y-201769250D01*
G75*
G02*
X100938250Y-202038000I-268750J0D01*
G01*
X99975750Y-202038000D01*
G75*
G02*
X99707000Y-201769250I0J268750D01*
G01*
X99707000Y-201231750D01*
G75*
G02*
X99975750Y-200963000I268750J0D01*
G01*
G37*
%TD*%
%TO.C,R59*%
G36*
G01*
X153562000Y-209269250D02*
X153562000Y-208306750D01*
G75*
G02*
X153830750Y-208038000I268750J0D01*
G01*
X154368250Y-208038000D01*
G75*
G02*
X154637000Y-208306750I0J-268750D01*
G01*
X154637000Y-209269250D01*
G75*
G02*
X154368250Y-209538000I-268750J0D01*
G01*
X153830750Y-209538000D01*
G75*
G02*
X153562000Y-209269250I0J268750D01*
G01*
G37*
G36*
G01*
X151687000Y-209269250D02*
X151687000Y-208306750D01*
G75*
G02*
X151955750Y-208038000I268750J0D01*
G01*
X152493250Y-208038000D01*
G75*
G02*
X152762000Y-208306750I0J-268750D01*
G01*
X152762000Y-209269250D01*
G75*
G02*
X152493250Y-209538000I-268750J0D01*
G01*
X151955750Y-209538000D01*
G75*
G02*
X151687000Y-209269250I0J268750D01*
G01*
G37*
%TD*%
%TO.C,R58*%
G36*
G01*
X108312000Y-164491750D02*
X108312000Y-165454250D01*
G75*
G02*
X108043250Y-165723000I-268750J0D01*
G01*
X107505750Y-165723000D01*
G75*
G02*
X107237000Y-165454250I0J268750D01*
G01*
X107237000Y-164491750D01*
G75*
G02*
X107505750Y-164223000I268750J0D01*
G01*
X108043250Y-164223000D01*
G75*
G02*
X108312000Y-164491750I0J-268750D01*
G01*
G37*
G36*
G01*
X110187000Y-164491750D02*
X110187000Y-165454250D01*
G75*
G02*
X109918250Y-165723000I-268750J0D01*
G01*
X109380750Y-165723000D01*
G75*
G02*
X109112000Y-165454250I0J268750D01*
G01*
X109112000Y-164491750D01*
G75*
G02*
X109380750Y-164223000I268750J0D01*
G01*
X109918250Y-164223000D01*
G75*
G02*
X110187000Y-164491750I0J-268750D01*
G01*
G37*
%TD*%
%TO.C,R53*%
G36*
G01*
X116097000Y-188949250D02*
X116097000Y-187986750D01*
G75*
G02*
X116365750Y-187718000I268750J0D01*
G01*
X116903250Y-187718000D01*
G75*
G02*
X117172000Y-187986750I0J-268750D01*
G01*
X117172000Y-188949250D01*
G75*
G02*
X116903250Y-189218000I-268750J0D01*
G01*
X116365750Y-189218000D01*
G75*
G02*
X116097000Y-188949250I0J268750D01*
G01*
G37*
G36*
G01*
X114222000Y-188949250D02*
X114222000Y-187986750D01*
G75*
G02*
X114490750Y-187718000I268750J0D01*
G01*
X115028250Y-187718000D01*
G75*
G02*
X115297000Y-187986750I0J-268750D01*
G01*
X115297000Y-188949250D01*
G75*
G02*
X115028250Y-189218000I-268750J0D01*
G01*
X114490750Y-189218000D01*
G75*
G02*
X114222000Y-188949250I0J268750D01*
G01*
G37*
%TD*%
%TO.C,R52*%
G36*
G01*
X88792000Y-167994250D02*
X88792000Y-167031750D01*
G75*
G02*
X89060750Y-166763000I268750J0D01*
G01*
X89598250Y-166763000D01*
G75*
G02*
X89867000Y-167031750I0J-268750D01*
G01*
X89867000Y-167994250D01*
G75*
G02*
X89598250Y-168263000I-268750J0D01*
G01*
X89060750Y-168263000D01*
G75*
G02*
X88792000Y-167994250I0J268750D01*
G01*
G37*
G36*
G01*
X86917000Y-167994250D02*
X86917000Y-167031750D01*
G75*
G02*
X87185750Y-166763000I268750J0D01*
G01*
X87723250Y-166763000D01*
G75*
G02*
X87992000Y-167031750I0J-268750D01*
G01*
X87992000Y-167994250D01*
G75*
G02*
X87723250Y-168263000I-268750J0D01*
G01*
X87185750Y-168263000D01*
G75*
G02*
X86917000Y-167994250I0J268750D01*
G01*
G37*
%TD*%
%TO.C,R51*%
G36*
G01*
X110852000Y-155601750D02*
X110852000Y-156564250D01*
G75*
G02*
X110583250Y-156833000I-268750J0D01*
G01*
X110045750Y-156833000D01*
G75*
G02*
X109777000Y-156564250I0J268750D01*
G01*
X109777000Y-155601750D01*
G75*
G02*
X110045750Y-155333000I268750J0D01*
G01*
X110583250Y-155333000D01*
G75*
G02*
X110852000Y-155601750I0J-268750D01*
G01*
G37*
G36*
G01*
X112727000Y-155601750D02*
X112727000Y-156564250D01*
G75*
G02*
X112458250Y-156833000I-268750J0D01*
G01*
X111920750Y-156833000D01*
G75*
G02*
X111652000Y-156564250I0J268750D01*
G01*
X111652000Y-155601750D01*
G75*
G02*
X111920750Y-155333000I268750J0D01*
G01*
X112458250Y-155333000D01*
G75*
G02*
X112727000Y-155601750I0J-268750D01*
G01*
G37*
%TD*%
%TO.C,R50*%
G36*
G01*
X108477000Y-159739250D02*
X108477000Y-158776750D01*
G75*
G02*
X108745750Y-158508000I268750J0D01*
G01*
X109283250Y-158508000D01*
G75*
G02*
X109552000Y-158776750I0J-268750D01*
G01*
X109552000Y-159739250D01*
G75*
G02*
X109283250Y-160008000I-268750J0D01*
G01*
X108745750Y-160008000D01*
G75*
G02*
X108477000Y-159739250I0J268750D01*
G01*
G37*
G36*
G01*
X106602000Y-159739250D02*
X106602000Y-158776750D01*
G75*
G02*
X106870750Y-158508000I268750J0D01*
G01*
X107408250Y-158508000D01*
G75*
G02*
X107677000Y-158776750I0J-268750D01*
G01*
X107677000Y-159739250D01*
G75*
G02*
X107408250Y-160008000I-268750J0D01*
G01*
X106870750Y-160008000D01*
G75*
G02*
X106602000Y-159739250I0J268750D01*
G01*
G37*
%TD*%
%TO.C,R49*%
G36*
G01*
X99119500Y-150521750D02*
X99119500Y-151484250D01*
G75*
G02*
X98850750Y-151753000I-268750J0D01*
G01*
X98313250Y-151753000D01*
G75*
G02*
X98044500Y-151484250I0J268750D01*
G01*
X98044500Y-150521750D01*
G75*
G02*
X98313250Y-150253000I268750J0D01*
G01*
X98850750Y-150253000D01*
G75*
G02*
X99119500Y-150521750I0J-268750D01*
G01*
G37*
G36*
G01*
X100994500Y-150521750D02*
X100994500Y-151484250D01*
G75*
G02*
X100725750Y-151753000I-268750J0D01*
G01*
X100188250Y-151753000D01*
G75*
G02*
X99919500Y-151484250I0J268750D01*
G01*
X99919500Y-150521750D01*
G75*
G02*
X100188250Y-150253000I268750J0D01*
G01*
X100725750Y-150253000D01*
G75*
G02*
X100994500Y-150521750I0J-268750D01*
G01*
G37*
%TD*%
%TO.C,R48*%
G36*
G01*
X94839500Y-157199250D02*
X94839500Y-156236750D01*
G75*
G02*
X95108250Y-155968000I268750J0D01*
G01*
X95645750Y-155968000D01*
G75*
G02*
X95914500Y-156236750I0J-268750D01*
G01*
X95914500Y-157199250D01*
G75*
G02*
X95645750Y-157468000I-268750J0D01*
G01*
X95108250Y-157468000D01*
G75*
G02*
X94839500Y-157199250I0J268750D01*
G01*
G37*
G36*
G01*
X92964500Y-157199250D02*
X92964500Y-156236750D01*
G75*
G02*
X93233250Y-155968000I268750J0D01*
G01*
X93770750Y-155968000D01*
G75*
G02*
X94039500Y-156236750I0J-268750D01*
G01*
X94039500Y-157199250D01*
G75*
G02*
X93770750Y-157468000I-268750J0D01*
G01*
X93233250Y-157468000D01*
G75*
G02*
X92964500Y-157199250I0J268750D01*
G01*
G37*
%TD*%
%TO.C,R47*%
G36*
G01*
X94839500Y-154024250D02*
X94839500Y-153061750D01*
G75*
G02*
X95108250Y-152793000I268750J0D01*
G01*
X95645750Y-152793000D01*
G75*
G02*
X95914500Y-153061750I0J-268750D01*
G01*
X95914500Y-154024250D01*
G75*
G02*
X95645750Y-154293000I-268750J0D01*
G01*
X95108250Y-154293000D01*
G75*
G02*
X94839500Y-154024250I0J268750D01*
G01*
G37*
G36*
G01*
X92964500Y-154024250D02*
X92964500Y-153061750D01*
G75*
G02*
X93233250Y-152793000I268750J0D01*
G01*
X93770750Y-152793000D01*
G75*
G02*
X94039500Y-153061750I0J-268750D01*
G01*
X94039500Y-154024250D01*
G75*
G02*
X93770750Y-154293000I-268750J0D01*
G01*
X93233250Y-154293000D01*
G75*
G02*
X92964500Y-154024250I0J268750D01*
G01*
G37*
%TD*%
%TO.C,R34*%
G36*
G01*
X88238250Y-195688000D02*
X87275750Y-195688000D01*
G75*
G02*
X87007000Y-195419250I0J268750D01*
G01*
X87007000Y-194881750D01*
G75*
G02*
X87275750Y-194613000I268750J0D01*
G01*
X88238250Y-194613000D01*
G75*
G02*
X88507000Y-194881750I0J-268750D01*
G01*
X88507000Y-195419250D01*
G75*
G02*
X88238250Y-195688000I-268750J0D01*
G01*
G37*
G36*
G01*
X88238250Y-197563000D02*
X87275750Y-197563000D01*
G75*
G02*
X87007000Y-197294250I0J268750D01*
G01*
X87007000Y-196756750D01*
G75*
G02*
X87275750Y-196488000I268750J0D01*
G01*
X88238250Y-196488000D01*
G75*
G02*
X88507000Y-196756750I0J-268750D01*
G01*
X88507000Y-197294250D01*
G75*
G02*
X88238250Y-197563000I-268750J0D01*
G01*
G37*
%TD*%
%TO.C,R33*%
G36*
G01*
X88238250Y-191600500D02*
X87275750Y-191600500D01*
G75*
G02*
X87007000Y-191331750I0J268750D01*
G01*
X87007000Y-190794250D01*
G75*
G02*
X87275750Y-190525500I268750J0D01*
G01*
X88238250Y-190525500D01*
G75*
G02*
X88507000Y-190794250I0J-268750D01*
G01*
X88507000Y-191331750D01*
G75*
G02*
X88238250Y-191600500I-268750J0D01*
G01*
G37*
G36*
G01*
X88238250Y-193475500D02*
X87275750Y-193475500D01*
G75*
G02*
X87007000Y-193206750I0J268750D01*
G01*
X87007000Y-192669250D01*
G75*
G02*
X87275750Y-192400500I268750J0D01*
G01*
X88238250Y-192400500D01*
G75*
G02*
X88507000Y-192669250I0J-268750D01*
G01*
X88507000Y-193206750D01*
G75*
G02*
X88238250Y-193475500I-268750J0D01*
G01*
G37*
%TD*%
%TO.C,R30*%
G36*
G01*
X119660750Y-201568000D02*
X120623250Y-201568000D01*
G75*
G02*
X120892000Y-201836750I0J-268750D01*
G01*
X120892000Y-202374250D01*
G75*
G02*
X120623250Y-202643000I-268750J0D01*
G01*
X119660750Y-202643000D01*
G75*
G02*
X119392000Y-202374250I0J268750D01*
G01*
X119392000Y-201836750D01*
G75*
G02*
X119660750Y-201568000I268750J0D01*
G01*
G37*
G36*
G01*
X119660750Y-199693000D02*
X120623250Y-199693000D01*
G75*
G02*
X120892000Y-199961750I0J-268750D01*
G01*
X120892000Y-200499250D01*
G75*
G02*
X120623250Y-200768000I-268750J0D01*
G01*
X119660750Y-200768000D01*
G75*
G02*
X119392000Y-200499250I0J268750D01*
G01*
X119392000Y-199961750D01*
G75*
G02*
X119660750Y-199693000I268750J0D01*
G01*
G37*
%TD*%
%TO.C,R29*%
G36*
G01*
X133242000Y-205459250D02*
X133242000Y-204496750D01*
G75*
G02*
X133510750Y-204228000I268750J0D01*
G01*
X134048250Y-204228000D01*
G75*
G02*
X134317000Y-204496750I0J-268750D01*
G01*
X134317000Y-205459250D01*
G75*
G02*
X134048250Y-205728000I-268750J0D01*
G01*
X133510750Y-205728000D01*
G75*
G02*
X133242000Y-205459250I0J268750D01*
G01*
G37*
G36*
G01*
X131367000Y-205459250D02*
X131367000Y-204496750D01*
G75*
G02*
X131635750Y-204228000I268750J0D01*
G01*
X132173250Y-204228000D01*
G75*
G02*
X132442000Y-204496750I0J-268750D01*
G01*
X132442000Y-205459250D01*
G75*
G02*
X132173250Y-205728000I-268750J0D01*
G01*
X131635750Y-205728000D01*
G75*
G02*
X131367000Y-205459250I0J268750D01*
G01*
G37*
%TD*%
%TO.C,R28*%
G36*
G01*
X127362000Y-191796750D02*
X127362000Y-192759250D01*
G75*
G02*
X127093250Y-193028000I-268750J0D01*
G01*
X126555750Y-193028000D01*
G75*
G02*
X126287000Y-192759250I0J268750D01*
G01*
X126287000Y-191796750D01*
G75*
G02*
X126555750Y-191528000I268750J0D01*
G01*
X127093250Y-191528000D01*
G75*
G02*
X127362000Y-191796750I0J-268750D01*
G01*
G37*
G36*
G01*
X129237000Y-191796750D02*
X129237000Y-192759250D01*
G75*
G02*
X128968250Y-193028000I-268750J0D01*
G01*
X128430750Y-193028000D01*
G75*
G02*
X128162000Y-192759250I0J268750D01*
G01*
X128162000Y-191796750D01*
G75*
G02*
X128430750Y-191528000I268750J0D01*
G01*
X128968250Y-191528000D01*
G75*
G02*
X129237000Y-191796750I0J-268750D01*
G01*
G37*
%TD*%
%TO.C,R27*%
G36*
G01*
X119660750Y-194583000D02*
X120623250Y-194583000D01*
G75*
G02*
X120892000Y-194851750I0J-268750D01*
G01*
X120892000Y-195389250D01*
G75*
G02*
X120623250Y-195658000I-268750J0D01*
G01*
X119660750Y-195658000D01*
G75*
G02*
X119392000Y-195389250I0J268750D01*
G01*
X119392000Y-194851750D01*
G75*
G02*
X119660750Y-194583000I268750J0D01*
G01*
G37*
G36*
G01*
X119660750Y-192708000D02*
X120623250Y-192708000D01*
G75*
G02*
X120892000Y-192976750I0J-268750D01*
G01*
X120892000Y-193514250D01*
G75*
G02*
X120623250Y-193783000I-268750J0D01*
G01*
X119660750Y-193783000D01*
G75*
G02*
X119392000Y-193514250I0J268750D01*
G01*
X119392000Y-192976750D01*
G75*
G02*
X119660750Y-192708000I268750J0D01*
G01*
G37*
%TD*%
%TO.C,R26*%
G36*
G01*
X146965750Y-199393000D02*
X147928250Y-199393000D01*
G75*
G02*
X148197000Y-199661750I0J-268750D01*
G01*
X148197000Y-200199250D01*
G75*
G02*
X147928250Y-200468000I-268750J0D01*
G01*
X146965750Y-200468000D01*
G75*
G02*
X146697000Y-200199250I0J268750D01*
G01*
X146697000Y-199661750D01*
G75*
G02*
X146965750Y-199393000I268750J0D01*
G01*
G37*
G36*
G01*
X146965750Y-197518000D02*
X147928250Y-197518000D01*
G75*
G02*
X148197000Y-197786750I0J-268750D01*
G01*
X148197000Y-198324250D01*
G75*
G02*
X147928250Y-198593000I-268750J0D01*
G01*
X146965750Y-198593000D01*
G75*
G02*
X146697000Y-198324250I0J268750D01*
G01*
X146697000Y-197786750D01*
G75*
G02*
X146965750Y-197518000I268750J0D01*
G01*
G37*
%TD*%
%TO.C,R23*%
G36*
G01*
X69996000Y-199490250D02*
X69996000Y-198527750D01*
G75*
G02*
X70264750Y-198259000I268750J0D01*
G01*
X70802250Y-198259000D01*
G75*
G02*
X71071000Y-198527750I0J-268750D01*
G01*
X71071000Y-199490250D01*
G75*
G02*
X70802250Y-199759000I-268750J0D01*
G01*
X70264750Y-199759000D01*
G75*
G02*
X69996000Y-199490250I0J268750D01*
G01*
G37*
G36*
G01*
X68121000Y-199490250D02*
X68121000Y-198527750D01*
G75*
G02*
X68389750Y-198259000I268750J0D01*
G01*
X68927250Y-198259000D01*
G75*
G02*
X69196000Y-198527750I0J-268750D01*
G01*
X69196000Y-199490250D01*
G75*
G02*
X68927250Y-199759000I-268750J0D01*
G01*
X68389750Y-199759000D01*
G75*
G02*
X68121000Y-199490250I0J268750D01*
G01*
G37*
%TD*%
%TO.C,R22*%
G36*
G01*
X79737000Y-206401750D02*
X79737000Y-207364250D01*
G75*
G02*
X79468250Y-207633000I-268750J0D01*
G01*
X78930750Y-207633000D01*
G75*
G02*
X78662000Y-207364250I0J268750D01*
G01*
X78662000Y-206401750D01*
G75*
G02*
X78930750Y-206133000I268750J0D01*
G01*
X79468250Y-206133000D01*
G75*
G02*
X79737000Y-206401750I0J-268750D01*
G01*
G37*
G36*
G01*
X81612000Y-206401750D02*
X81612000Y-207364250D01*
G75*
G02*
X81343250Y-207633000I-268750J0D01*
G01*
X80805750Y-207633000D01*
G75*
G02*
X80537000Y-207364250I0J268750D01*
G01*
X80537000Y-206401750D01*
G75*
G02*
X80805750Y-206133000I268750J0D01*
G01*
X81343250Y-206133000D01*
G75*
G02*
X81612000Y-206401750I0J-268750D01*
G01*
G37*
%TD*%
%TO.C,R21*%
G36*
G01*
X82785000Y-190018750D02*
X82785000Y-190981250D01*
G75*
G02*
X82516250Y-191250000I-268750J0D01*
G01*
X81978750Y-191250000D01*
G75*
G02*
X81710000Y-190981250I0J268750D01*
G01*
X81710000Y-190018750D01*
G75*
G02*
X81978750Y-189750000I268750J0D01*
G01*
X82516250Y-189750000D01*
G75*
G02*
X82785000Y-190018750I0J-268750D01*
G01*
G37*
G36*
G01*
X84660000Y-190018750D02*
X84660000Y-190981250D01*
G75*
G02*
X84391250Y-191250000I-268750J0D01*
G01*
X83853750Y-191250000D01*
G75*
G02*
X83585000Y-190981250I0J268750D01*
G01*
X83585000Y-190018750D01*
G75*
G02*
X83853750Y-189750000I268750J0D01*
G01*
X84391250Y-189750000D01*
G75*
G02*
X84660000Y-190018750I0J-268750D01*
G01*
G37*
%TD*%
%TO.C,R20*%
G36*
G01*
X81253250Y-203308000D02*
X80290750Y-203308000D01*
G75*
G02*
X80022000Y-203039250I0J268750D01*
G01*
X80022000Y-202501750D01*
G75*
G02*
X80290750Y-202233000I268750J0D01*
G01*
X81253250Y-202233000D01*
G75*
G02*
X81522000Y-202501750I0J-268750D01*
G01*
X81522000Y-203039250D01*
G75*
G02*
X81253250Y-203308000I-268750J0D01*
G01*
G37*
G36*
G01*
X81253250Y-205183000D02*
X80290750Y-205183000D01*
G75*
G02*
X80022000Y-204914250I0J268750D01*
G01*
X80022000Y-204376750D01*
G75*
G02*
X80290750Y-204108000I268750J0D01*
G01*
X81253250Y-204108000D01*
G75*
G02*
X81522000Y-204376750I0J-268750D01*
G01*
X81522000Y-204914250D01*
G75*
G02*
X81253250Y-205183000I-268750J0D01*
G01*
G37*
%TD*%
%TO.C,R18*%
G36*
G01*
X79401750Y-188106000D02*
X80364250Y-188106000D01*
G75*
G02*
X80633000Y-188374750I0J-268750D01*
G01*
X80633000Y-188912250D01*
G75*
G02*
X80364250Y-189181000I-268750J0D01*
G01*
X79401750Y-189181000D01*
G75*
G02*
X79133000Y-188912250I0J268750D01*
G01*
X79133000Y-188374750D01*
G75*
G02*
X79401750Y-188106000I268750J0D01*
G01*
G37*
G36*
G01*
X79401750Y-186231000D02*
X80364250Y-186231000D01*
G75*
G02*
X80633000Y-186499750I0J-268750D01*
G01*
X80633000Y-187037250D01*
G75*
G02*
X80364250Y-187306000I-268750J0D01*
G01*
X79401750Y-187306000D01*
G75*
G02*
X79133000Y-187037250I0J268750D01*
G01*
X79133000Y-186499750D01*
G75*
G02*
X79401750Y-186231000I268750J0D01*
G01*
G37*
%TD*%
%TO.C,R17*%
G36*
G01*
X87992000Y-198781750D02*
X87992000Y-199744250D01*
G75*
G02*
X87723250Y-200013000I-268750J0D01*
G01*
X87185750Y-200013000D01*
G75*
G02*
X86917000Y-199744250I0J268750D01*
G01*
X86917000Y-198781750D01*
G75*
G02*
X87185750Y-198513000I268750J0D01*
G01*
X87723250Y-198513000D01*
G75*
G02*
X87992000Y-198781750I0J-268750D01*
G01*
G37*
G36*
G01*
X89867000Y-198781750D02*
X89867000Y-199744250D01*
G75*
G02*
X89598250Y-200013000I-268750J0D01*
G01*
X89060750Y-200013000D01*
G75*
G02*
X88792000Y-199744250I0J268750D01*
G01*
X88792000Y-198781750D01*
G75*
G02*
X89060750Y-198513000I268750J0D01*
G01*
X89598250Y-198513000D01*
G75*
G02*
X89867000Y-198781750I0J-268750D01*
G01*
G37*
%TD*%
%TO.C,R16*%
G36*
G01*
X101962000Y-189256750D02*
X101962000Y-190219250D01*
G75*
G02*
X101693250Y-190488000I-268750J0D01*
G01*
X101155750Y-190488000D01*
G75*
G02*
X100887000Y-190219250I0J268750D01*
G01*
X100887000Y-189256750D01*
G75*
G02*
X101155750Y-188988000I268750J0D01*
G01*
X101693250Y-188988000D01*
G75*
G02*
X101962000Y-189256750I0J-268750D01*
G01*
G37*
G36*
G01*
X103837000Y-189256750D02*
X103837000Y-190219250D01*
G75*
G02*
X103568250Y-190488000I-268750J0D01*
G01*
X103030750Y-190488000D01*
G75*
G02*
X102762000Y-190219250I0J268750D01*
G01*
X102762000Y-189256750D01*
G75*
G02*
X103030750Y-188988000I268750J0D01*
G01*
X103568250Y-188988000D01*
G75*
G02*
X103837000Y-189256750I0J-268750D01*
G01*
G37*
%TD*%
%TO.C,R13*%
G36*
G01*
X143155750Y-199393000D02*
X144118250Y-199393000D01*
G75*
G02*
X144387000Y-199661750I0J-268750D01*
G01*
X144387000Y-200199250D01*
G75*
G02*
X144118250Y-200468000I-268750J0D01*
G01*
X143155750Y-200468000D01*
G75*
G02*
X142887000Y-200199250I0J268750D01*
G01*
X142887000Y-199661750D01*
G75*
G02*
X143155750Y-199393000I268750J0D01*
G01*
G37*
G36*
G01*
X143155750Y-197518000D02*
X144118250Y-197518000D01*
G75*
G02*
X144387000Y-197786750I0J-268750D01*
G01*
X144387000Y-198324250D01*
G75*
G02*
X144118250Y-198593000I-268750J0D01*
G01*
X143155750Y-198593000D01*
G75*
G02*
X142887000Y-198324250I0J268750D01*
G01*
X142887000Y-197786750D01*
G75*
G02*
X143155750Y-197518000I268750J0D01*
G01*
G37*
%TD*%
%TO.C,R12*%
G36*
G01*
X139345750Y-199393000D02*
X140308250Y-199393000D01*
G75*
G02*
X140577000Y-199661750I0J-268750D01*
G01*
X140577000Y-200199250D01*
G75*
G02*
X140308250Y-200468000I-268750J0D01*
G01*
X139345750Y-200468000D01*
G75*
G02*
X139077000Y-200199250I0J268750D01*
G01*
X139077000Y-199661750D01*
G75*
G02*
X139345750Y-199393000I268750J0D01*
G01*
G37*
G36*
G01*
X139345750Y-197518000D02*
X140308250Y-197518000D01*
G75*
G02*
X140577000Y-197786750I0J-268750D01*
G01*
X140577000Y-198324250D01*
G75*
G02*
X140308250Y-198593000I-268750J0D01*
G01*
X139345750Y-198593000D01*
G75*
G02*
X139077000Y-198324250I0J268750D01*
G01*
X139077000Y-197786750D01*
G75*
G02*
X139345750Y-197518000I268750J0D01*
G01*
G37*
%TD*%
%TO.C,R11*%
G36*
G01*
X88792000Y-173074250D02*
X88792000Y-172111750D01*
G75*
G02*
X89060750Y-171843000I268750J0D01*
G01*
X89598250Y-171843000D01*
G75*
G02*
X89867000Y-172111750I0J-268750D01*
G01*
X89867000Y-173074250D01*
G75*
G02*
X89598250Y-173343000I-268750J0D01*
G01*
X89060750Y-173343000D01*
G75*
G02*
X88792000Y-173074250I0J268750D01*
G01*
G37*
G36*
G01*
X86917000Y-173074250D02*
X86917000Y-172111750D01*
G75*
G02*
X87185750Y-171843000I268750J0D01*
G01*
X87723250Y-171843000D01*
G75*
G02*
X87992000Y-172111750I0J-268750D01*
G01*
X87992000Y-173074250D01*
G75*
G02*
X87723250Y-173343000I-268750J0D01*
G01*
X87185750Y-173343000D01*
G75*
G02*
X86917000Y-173074250I0J268750D01*
G01*
G37*
%TD*%
%TO.C,R10*%
G36*
G01*
X70812000Y-167666750D02*
X70812000Y-168629250D01*
G75*
G02*
X70543250Y-168898000I-268750J0D01*
G01*
X70005750Y-168898000D01*
G75*
G02*
X69737000Y-168629250I0J268750D01*
G01*
X69737000Y-167666750D01*
G75*
G02*
X70005750Y-167398000I268750J0D01*
G01*
X70543250Y-167398000D01*
G75*
G02*
X70812000Y-167666750I0J-268750D01*
G01*
G37*
G36*
G01*
X72687000Y-167666750D02*
X72687000Y-168629250D01*
G75*
G02*
X72418250Y-168898000I-268750J0D01*
G01*
X71880750Y-168898000D01*
G75*
G02*
X71612000Y-168629250I0J268750D01*
G01*
X71612000Y-167666750D01*
G75*
G02*
X71880750Y-167398000I268750J0D01*
G01*
X72418250Y-167398000D01*
G75*
G02*
X72687000Y-167666750I0J-268750D01*
G01*
G37*
%TD*%
%TO.C,R9*%
G36*
G01*
X70812000Y-169571750D02*
X70812000Y-170534250D01*
G75*
G02*
X70543250Y-170803000I-268750J0D01*
G01*
X70005750Y-170803000D01*
G75*
G02*
X69737000Y-170534250I0J268750D01*
G01*
X69737000Y-169571750D01*
G75*
G02*
X70005750Y-169303000I268750J0D01*
G01*
X70543250Y-169303000D01*
G75*
G02*
X70812000Y-169571750I0J-268750D01*
G01*
G37*
G36*
G01*
X72687000Y-169571750D02*
X72687000Y-170534250D01*
G75*
G02*
X72418250Y-170803000I-268750J0D01*
G01*
X71880750Y-170803000D01*
G75*
G02*
X71612000Y-170534250I0J268750D01*
G01*
X71612000Y-169571750D01*
G75*
G02*
X71880750Y-169303000I268750J0D01*
G01*
X72418250Y-169303000D01*
G75*
G02*
X72687000Y-169571750I0J-268750D01*
G01*
G37*
%TD*%
%TO.C,R8*%
G36*
G01*
X122200750Y-183788000D02*
X123163250Y-183788000D01*
G75*
G02*
X123432000Y-184056750I0J-268750D01*
G01*
X123432000Y-184594250D01*
G75*
G02*
X123163250Y-184863000I-268750J0D01*
G01*
X122200750Y-184863000D01*
G75*
G02*
X121932000Y-184594250I0J268750D01*
G01*
X121932000Y-184056750D01*
G75*
G02*
X122200750Y-183788000I268750J0D01*
G01*
G37*
G36*
G01*
X122200750Y-181913000D02*
X123163250Y-181913000D01*
G75*
G02*
X123432000Y-182181750I0J-268750D01*
G01*
X123432000Y-182719250D01*
G75*
G02*
X123163250Y-182988000I-268750J0D01*
G01*
X122200750Y-182988000D01*
G75*
G02*
X121932000Y-182719250I0J268750D01*
G01*
X121932000Y-182181750D01*
G75*
G02*
X122200750Y-181913000I268750J0D01*
G01*
G37*
%TD*%
%TO.C,R7*%
G36*
G01*
X72752000Y-200051750D02*
X72752000Y-201014250D01*
G75*
G02*
X72483250Y-201283000I-268750J0D01*
G01*
X71945750Y-201283000D01*
G75*
G02*
X71677000Y-201014250I0J268750D01*
G01*
X71677000Y-200051750D01*
G75*
G02*
X71945750Y-199783000I268750J0D01*
G01*
X72483250Y-199783000D01*
G75*
G02*
X72752000Y-200051750I0J-268750D01*
G01*
G37*
G36*
G01*
X74627000Y-200051750D02*
X74627000Y-201014250D01*
G75*
G02*
X74358250Y-201283000I-268750J0D01*
G01*
X73820750Y-201283000D01*
G75*
G02*
X73552000Y-201014250I0J268750D01*
G01*
X73552000Y-200051750D01*
G75*
G02*
X73820750Y-199783000I268750J0D01*
G01*
X74358250Y-199783000D01*
G75*
G02*
X74627000Y-200051750I0J-268750D01*
G01*
G37*
%TD*%
%TO.C,R6*%
G36*
G01*
X69773012Y-190854250D02*
X69773012Y-189891750D01*
G75*
G02*
X70041762Y-189623000I268750J0D01*
G01*
X70579262Y-189623000D01*
G75*
G02*
X70848012Y-189891750I0J-268750D01*
G01*
X70848012Y-190854250D01*
G75*
G02*
X70579262Y-191123000I-268750J0D01*
G01*
X70041762Y-191123000D01*
G75*
G02*
X69773012Y-190854250I0J268750D01*
G01*
G37*
G36*
G01*
X67898012Y-190854250D02*
X67898012Y-189891750D01*
G75*
G02*
X68166762Y-189623000I268750J0D01*
G01*
X68704262Y-189623000D01*
G75*
G02*
X68973012Y-189891750I0J-268750D01*
G01*
X68973012Y-190854250D01*
G75*
G02*
X68704262Y-191123000I-268750J0D01*
G01*
X68166762Y-191123000D01*
G75*
G02*
X67898012Y-190854250I0J268750D01*
G01*
G37*
%TD*%
%TO.C,R5*%
G36*
G01*
X68973012Y-191796750D02*
X68973012Y-192759250D01*
G75*
G02*
X68704262Y-193028000I-268750J0D01*
G01*
X68166762Y-193028000D01*
G75*
G02*
X67898012Y-192759250I0J268750D01*
G01*
X67898012Y-191796750D01*
G75*
G02*
X68166762Y-191528000I268750J0D01*
G01*
X68704262Y-191528000D01*
G75*
G02*
X68973012Y-191796750I0J-268750D01*
G01*
G37*
G36*
G01*
X70848012Y-191796750D02*
X70848012Y-192759250D01*
G75*
G02*
X70579262Y-193028000I-268750J0D01*
G01*
X70041762Y-193028000D01*
G75*
G02*
X69773012Y-192759250I0J268750D01*
G01*
X69773012Y-191796750D01*
G75*
G02*
X70041762Y-191528000I268750J0D01*
G01*
X70579262Y-191528000D01*
G75*
G02*
X70848012Y-191796750I0J-268750D01*
G01*
G37*
%TD*%
%TO.C,R4*%
G36*
G01*
X162597000Y-129578000D02*
X162597000Y-131788000D01*
G75*
G02*
X162327000Y-132058000I-270000J0D01*
G01*
X161517000Y-132058000D01*
G75*
G02*
X161247000Y-131788000I0J270000D01*
G01*
X161247000Y-129578000D01*
G75*
G02*
X161517000Y-129308000I270000J0D01*
G01*
X162327000Y-129308000D01*
G75*
G02*
X162597000Y-129578000I0J-270000D01*
G01*
G37*
G36*
G01*
X165397000Y-129578000D02*
X165397000Y-131788000D01*
G75*
G02*
X165127000Y-132058000I-270000J0D01*
G01*
X164317000Y-132058000D01*
G75*
G02*
X164047000Y-131788000I0J270000D01*
G01*
X164047000Y-129578000D01*
G75*
G02*
X164317000Y-129308000I270000J0D01*
G01*
X165127000Y-129308000D01*
G75*
G02*
X165397000Y-129578000I0J-270000D01*
G01*
G37*
%TD*%
%TO.C,R3*%
G36*
G01*
X162597000Y-117513000D02*
X162597000Y-119723000D01*
G75*
G02*
X162327000Y-119993000I-270000J0D01*
G01*
X161517000Y-119993000D01*
G75*
G02*
X161247000Y-119723000I0J270000D01*
G01*
X161247000Y-117513000D01*
G75*
G02*
X161517000Y-117243000I270000J0D01*
G01*
X162327000Y-117243000D01*
G75*
G02*
X162597000Y-117513000I0J-270000D01*
G01*
G37*
G36*
G01*
X165397000Y-117513000D02*
X165397000Y-119723000D01*
G75*
G02*
X165127000Y-119993000I-270000J0D01*
G01*
X164317000Y-119993000D01*
G75*
G02*
X164047000Y-119723000I0J270000D01*
G01*
X164047000Y-117513000D01*
G75*
G02*
X164317000Y-117243000I270000J0D01*
G01*
X165127000Y-117243000D01*
G75*
G02*
X165397000Y-117513000I0J-270000D01*
G01*
G37*
%TD*%
D17*
%TO.C,R2*%
X177800000Y-137033000D03*
D18*
X177800000Y-129413000D03*
%TD*%
D17*
%TO.C,R1*%
X177800000Y-124968000D03*
D18*
X177800000Y-117348000D03*
%TD*%
%TO.C,Q26*%
G36*
G01*
X161282000Y-202203000D02*
X161282000Y-201403000D01*
G75*
G02*
X161332000Y-201353000I50000J0D01*
G01*
X162232000Y-201353000D01*
G75*
G02*
X162282000Y-201403000I0J-50000D01*
G01*
X162282000Y-202203000D01*
G75*
G02*
X162232000Y-202253000I-50000J0D01*
G01*
X161332000Y-202253000D01*
G75*
G02*
X161282000Y-202203000I0J50000D01*
G01*
G37*
G36*
G01*
X159282000Y-203153000D02*
X159282000Y-202353000D01*
G75*
G02*
X159332000Y-202303000I50000J0D01*
G01*
X160232000Y-202303000D01*
G75*
G02*
X160282000Y-202353000I0J-50000D01*
G01*
X160282000Y-203153000D01*
G75*
G02*
X160232000Y-203203000I-50000J0D01*
G01*
X159332000Y-203203000D01*
G75*
G02*
X159282000Y-203153000I0J50000D01*
G01*
G37*
G36*
G01*
X159282000Y-201253000D02*
X159282000Y-200453000D01*
G75*
G02*
X159332000Y-200403000I50000J0D01*
G01*
X160232000Y-200403000D01*
G75*
G02*
X160282000Y-200453000I0J-50000D01*
G01*
X160282000Y-201253000D01*
G75*
G02*
X160232000Y-201303000I-50000J0D01*
G01*
X159332000Y-201303000D01*
G75*
G02*
X159282000Y-201253000I0J50000D01*
G01*
G37*
%TD*%
%TO.C,Q25*%
G36*
G01*
X161282000Y-186328000D02*
X161282000Y-185528000D01*
G75*
G02*
X161332000Y-185478000I50000J0D01*
G01*
X162232000Y-185478000D01*
G75*
G02*
X162282000Y-185528000I0J-50000D01*
G01*
X162282000Y-186328000D01*
G75*
G02*
X162232000Y-186378000I-50000J0D01*
G01*
X161332000Y-186378000D01*
G75*
G02*
X161282000Y-186328000I0J50000D01*
G01*
G37*
G36*
G01*
X159282000Y-187278000D02*
X159282000Y-186478000D01*
G75*
G02*
X159332000Y-186428000I50000J0D01*
G01*
X160232000Y-186428000D01*
G75*
G02*
X160282000Y-186478000I0J-50000D01*
G01*
X160282000Y-187278000D01*
G75*
G02*
X160232000Y-187328000I-50000J0D01*
G01*
X159332000Y-187328000D01*
G75*
G02*
X159282000Y-187278000I0J50000D01*
G01*
G37*
G36*
G01*
X159282000Y-185378000D02*
X159282000Y-184578000D01*
G75*
G02*
X159332000Y-184528000I50000J0D01*
G01*
X160232000Y-184528000D01*
G75*
G02*
X160282000Y-184578000I0J-50000D01*
G01*
X160282000Y-185378000D01*
G75*
G02*
X160232000Y-185428000I-50000J0D01*
G01*
X159332000Y-185428000D01*
G75*
G02*
X159282000Y-185378000I0J50000D01*
G01*
G37*
%TD*%
%TO.C,Q24*%
G36*
G01*
X161282000Y-148863000D02*
X161282000Y-148063000D01*
G75*
G02*
X161332000Y-148013000I50000J0D01*
G01*
X162232000Y-148013000D01*
G75*
G02*
X162282000Y-148063000I0J-50000D01*
G01*
X162282000Y-148863000D01*
G75*
G02*
X162232000Y-148913000I-50000J0D01*
G01*
X161332000Y-148913000D01*
G75*
G02*
X161282000Y-148863000I0J50000D01*
G01*
G37*
G36*
G01*
X159282000Y-149813000D02*
X159282000Y-149013000D01*
G75*
G02*
X159332000Y-148963000I50000J0D01*
G01*
X160232000Y-148963000D01*
G75*
G02*
X160282000Y-149013000I0J-50000D01*
G01*
X160282000Y-149813000D01*
G75*
G02*
X160232000Y-149863000I-50000J0D01*
G01*
X159332000Y-149863000D01*
G75*
G02*
X159282000Y-149813000I0J50000D01*
G01*
G37*
G36*
G01*
X159282000Y-147913000D02*
X159282000Y-147113000D01*
G75*
G02*
X159332000Y-147063000I50000J0D01*
G01*
X160232000Y-147063000D01*
G75*
G02*
X160282000Y-147113000I0J-50000D01*
G01*
X160282000Y-147913000D01*
G75*
G02*
X160232000Y-147963000I-50000J0D01*
G01*
X159332000Y-147963000D01*
G75*
G02*
X159282000Y-147913000I0J50000D01*
G01*
G37*
%TD*%
%TO.C,Q23*%
G36*
G01*
X161282000Y-169818000D02*
X161282000Y-169018000D01*
G75*
G02*
X161332000Y-168968000I50000J0D01*
G01*
X162232000Y-168968000D01*
G75*
G02*
X162282000Y-169018000I0J-50000D01*
G01*
X162282000Y-169818000D01*
G75*
G02*
X162232000Y-169868000I-50000J0D01*
G01*
X161332000Y-169868000D01*
G75*
G02*
X161282000Y-169818000I0J50000D01*
G01*
G37*
G36*
G01*
X159282000Y-170768000D02*
X159282000Y-169968000D01*
G75*
G02*
X159332000Y-169918000I50000J0D01*
G01*
X160232000Y-169918000D01*
G75*
G02*
X160282000Y-169968000I0J-50000D01*
G01*
X160282000Y-170768000D01*
G75*
G02*
X160232000Y-170818000I-50000J0D01*
G01*
X159332000Y-170818000D01*
G75*
G02*
X159282000Y-170768000I0J50000D01*
G01*
G37*
G36*
G01*
X159282000Y-168868000D02*
X159282000Y-168068000D01*
G75*
G02*
X159332000Y-168018000I50000J0D01*
G01*
X160232000Y-168018000D01*
G75*
G02*
X160282000Y-168068000I0J-50000D01*
G01*
X160282000Y-168868000D01*
G75*
G02*
X160232000Y-168918000I-50000J0D01*
G01*
X159332000Y-168918000D01*
G75*
G02*
X159282000Y-168868000I0J50000D01*
G01*
G37*
%TD*%
%TO.C,Q22*%
G36*
G01*
X163722000Y-133993000D02*
X162922000Y-133993000D01*
G75*
G02*
X162872000Y-133943000I0J50000D01*
G01*
X162872000Y-133043000D01*
G75*
G02*
X162922000Y-132993000I50000J0D01*
G01*
X163722000Y-132993000D01*
G75*
G02*
X163772000Y-133043000I0J-50000D01*
G01*
X163772000Y-133943000D01*
G75*
G02*
X163722000Y-133993000I-50000J0D01*
G01*
G37*
G36*
G01*
X164672000Y-135993000D02*
X163872000Y-135993000D01*
G75*
G02*
X163822000Y-135943000I0J50000D01*
G01*
X163822000Y-135043000D01*
G75*
G02*
X163872000Y-134993000I50000J0D01*
G01*
X164672000Y-134993000D01*
G75*
G02*
X164722000Y-135043000I0J-50000D01*
G01*
X164722000Y-135943000D01*
G75*
G02*
X164672000Y-135993000I-50000J0D01*
G01*
G37*
G36*
G01*
X162772000Y-135993000D02*
X161972000Y-135993000D01*
G75*
G02*
X161922000Y-135943000I0J50000D01*
G01*
X161922000Y-135043000D01*
G75*
G02*
X161972000Y-134993000I50000J0D01*
G01*
X162772000Y-134993000D01*
G75*
G02*
X162822000Y-135043000I0J-50000D01*
G01*
X162822000Y-135943000D01*
G75*
G02*
X162772000Y-135993000I-50000J0D01*
G01*
G37*
%TD*%
%TO.C,Q21*%
G36*
G01*
X163722000Y-121928000D02*
X162922000Y-121928000D01*
G75*
G02*
X162872000Y-121878000I0J50000D01*
G01*
X162872000Y-120978000D01*
G75*
G02*
X162922000Y-120928000I50000J0D01*
G01*
X163722000Y-120928000D01*
G75*
G02*
X163772000Y-120978000I0J-50000D01*
G01*
X163772000Y-121878000D01*
G75*
G02*
X163722000Y-121928000I-50000J0D01*
G01*
G37*
G36*
G01*
X164672000Y-123928000D02*
X163872000Y-123928000D01*
G75*
G02*
X163822000Y-123878000I0J50000D01*
G01*
X163822000Y-122978000D01*
G75*
G02*
X163872000Y-122928000I50000J0D01*
G01*
X164672000Y-122928000D01*
G75*
G02*
X164722000Y-122978000I0J-50000D01*
G01*
X164722000Y-123878000D01*
G75*
G02*
X164672000Y-123928000I-50000J0D01*
G01*
G37*
G36*
G01*
X162772000Y-123928000D02*
X161972000Y-123928000D01*
G75*
G02*
X161922000Y-123878000I0J50000D01*
G01*
X161922000Y-122978000D01*
G75*
G02*
X161972000Y-122928000I50000J0D01*
G01*
X162772000Y-122928000D01*
G75*
G02*
X162822000Y-122978000I0J-50000D01*
G01*
X162822000Y-123878000D01*
G75*
G02*
X162772000Y-123928000I-50000J0D01*
G01*
G37*
%TD*%
%TO.C,Q20*%
G36*
G01*
X146412000Y-203303000D02*
X147212000Y-203303000D01*
G75*
G02*
X147262000Y-203353000I0J-50000D01*
G01*
X147262000Y-204253000D01*
G75*
G02*
X147212000Y-204303000I-50000J0D01*
G01*
X146412000Y-204303000D01*
G75*
G02*
X146362000Y-204253000I0J50000D01*
G01*
X146362000Y-203353000D01*
G75*
G02*
X146412000Y-203303000I50000J0D01*
G01*
G37*
G36*
G01*
X145462000Y-201303000D02*
X146262000Y-201303000D01*
G75*
G02*
X146312000Y-201353000I0J-50000D01*
G01*
X146312000Y-202253000D01*
G75*
G02*
X146262000Y-202303000I-50000J0D01*
G01*
X145462000Y-202303000D01*
G75*
G02*
X145412000Y-202253000I0J50000D01*
G01*
X145412000Y-201353000D01*
G75*
G02*
X145462000Y-201303000I50000J0D01*
G01*
G37*
G36*
G01*
X147362000Y-201303000D02*
X148162000Y-201303000D01*
G75*
G02*
X148212000Y-201353000I0J-50000D01*
G01*
X148212000Y-202253000D01*
G75*
G02*
X148162000Y-202303000I-50000J0D01*
G01*
X147362000Y-202303000D01*
G75*
G02*
X147312000Y-202253000I0J50000D01*
G01*
X147312000Y-201353000D01*
G75*
G02*
X147362000Y-201303000I50000J0D01*
G01*
G37*
%TD*%
%TO.C,Q19*%
G36*
G01*
X142602000Y-203303000D02*
X143402000Y-203303000D01*
G75*
G02*
X143452000Y-203353000I0J-50000D01*
G01*
X143452000Y-204253000D01*
G75*
G02*
X143402000Y-204303000I-50000J0D01*
G01*
X142602000Y-204303000D01*
G75*
G02*
X142552000Y-204253000I0J50000D01*
G01*
X142552000Y-203353000D01*
G75*
G02*
X142602000Y-203303000I50000J0D01*
G01*
G37*
G36*
G01*
X141652000Y-201303000D02*
X142452000Y-201303000D01*
G75*
G02*
X142502000Y-201353000I0J-50000D01*
G01*
X142502000Y-202253000D01*
G75*
G02*
X142452000Y-202303000I-50000J0D01*
G01*
X141652000Y-202303000D01*
G75*
G02*
X141602000Y-202253000I0J50000D01*
G01*
X141602000Y-201353000D01*
G75*
G02*
X141652000Y-201303000I50000J0D01*
G01*
G37*
G36*
G01*
X143552000Y-201303000D02*
X144352000Y-201303000D01*
G75*
G02*
X144402000Y-201353000I0J-50000D01*
G01*
X144402000Y-202253000D01*
G75*
G02*
X144352000Y-202303000I-50000J0D01*
G01*
X143552000Y-202303000D01*
G75*
G02*
X143502000Y-202253000I0J50000D01*
G01*
X143502000Y-201353000D01*
G75*
G02*
X143552000Y-201303000I50000J0D01*
G01*
G37*
%TD*%
%TO.C,Q18*%
G36*
G01*
X138792000Y-203303000D02*
X139592000Y-203303000D01*
G75*
G02*
X139642000Y-203353000I0J-50000D01*
G01*
X139642000Y-204253000D01*
G75*
G02*
X139592000Y-204303000I-50000J0D01*
G01*
X138792000Y-204303000D01*
G75*
G02*
X138742000Y-204253000I0J50000D01*
G01*
X138742000Y-203353000D01*
G75*
G02*
X138792000Y-203303000I50000J0D01*
G01*
G37*
G36*
G01*
X137842000Y-201303000D02*
X138642000Y-201303000D01*
G75*
G02*
X138692000Y-201353000I0J-50000D01*
G01*
X138692000Y-202253000D01*
G75*
G02*
X138642000Y-202303000I-50000J0D01*
G01*
X137842000Y-202303000D01*
G75*
G02*
X137792000Y-202253000I0J50000D01*
G01*
X137792000Y-201353000D01*
G75*
G02*
X137842000Y-201303000I50000J0D01*
G01*
G37*
G36*
G01*
X139742000Y-201303000D02*
X140542000Y-201303000D01*
G75*
G02*
X140592000Y-201353000I0J-50000D01*
G01*
X140592000Y-202253000D01*
G75*
G02*
X140542000Y-202303000I-50000J0D01*
G01*
X139742000Y-202303000D01*
G75*
G02*
X139692000Y-202253000I0J50000D01*
G01*
X139692000Y-201353000D01*
G75*
G02*
X139742000Y-201303000I50000J0D01*
G01*
G37*
%TD*%
D19*
%TO.C,J10*%
X312547000Y-163068000D03*
X312547000Y-155448000D03*
X312547000Y-147828000D03*
X312547000Y-140208000D03*
%TD*%
%TO.C,J9*%
X312547000Y-198628000D03*
X312547000Y-191008000D03*
X312547000Y-183388000D03*
X312547000Y-175768000D03*
%TD*%
D20*
%TO.C,J8*%
X140582000Y-208788000D03*
X143082000Y-208788000D03*
X145582000Y-208788000D03*
G36*
G01*
X148982000Y-208027705D02*
X148982000Y-209548295D01*
G75*
G02*
X148717295Y-209813000I-264705J0D01*
G01*
X147446705Y-209813000D01*
G75*
G02*
X147182000Y-209548295I0J264705D01*
G01*
X147182000Y-208027705D01*
G75*
G02*
X147446705Y-207763000I264705J0D01*
G01*
X148717295Y-207763000D01*
G75*
G02*
X148982000Y-208027705I0J-264705D01*
G01*
G37*
%TD*%
D21*
%TO.C,J7*%
X124627000Y-208758000D03*
G36*
G01*
X128027000Y-207972705D02*
X128027000Y-209543295D01*
G75*
G02*
X127762295Y-209808000I-264705J0D01*
G01*
X126491705Y-209808000D01*
G75*
G02*
X126227000Y-209543295I0J264705D01*
G01*
X126227000Y-207972705D01*
G75*
G02*
X126491705Y-207708000I264705J0D01*
G01*
X127762295Y-207708000D01*
G75*
G02*
X128027000Y-207972705I0J-264705D01*
G01*
G37*
%TD*%
D20*
%TO.C,J6*%
X103752000Y-208788000D03*
X106252000Y-208788000D03*
X108752000Y-208788000D03*
G36*
G01*
X112152000Y-208027705D02*
X112152000Y-209548295D01*
G75*
G02*
X111887295Y-209813000I-264705J0D01*
G01*
X110616705Y-209813000D01*
G75*
G02*
X110352000Y-209548295I0J264705D01*
G01*
X110352000Y-208027705D01*
G75*
G02*
X110616705Y-207763000I264705J0D01*
G01*
X111887295Y-207763000D01*
G75*
G02*
X112152000Y-208027705I0J-264705D01*
G01*
G37*
%TD*%
D22*
%TO.C,J4*%
X65532000Y-144058000D03*
G36*
G01*
X66317295Y-147458000D02*
X64746705Y-147458000D01*
G75*
G02*
X64482000Y-147193295I0J264705D01*
G01*
X64482000Y-145922705D01*
G75*
G02*
X64746705Y-145658000I264705J0D01*
G01*
X66317295Y-145658000D01*
G75*
G02*
X66582000Y-145922705I0J-264705D01*
G01*
X66582000Y-147193295D01*
G75*
G02*
X66317295Y-147458000I-264705J0D01*
G01*
G37*
%TD*%
D16*
%TO.C,C76*%
X78152000Y-146558000D03*
G36*
G01*
X71902000Y-147758000D02*
X71902000Y-145358000D01*
G75*
G02*
X71952000Y-145308000I50000J0D01*
G01*
X74352000Y-145308000D01*
G75*
G02*
X74402000Y-145358000I0J-50000D01*
G01*
X74402000Y-147758000D01*
G75*
G02*
X74352000Y-147808000I-50000J0D01*
G01*
X71952000Y-147808000D01*
G75*
G02*
X71902000Y-147758000I0J50000D01*
G01*
G37*
%TD*%
%TO.C,C75*%
G36*
G01*
X123847000Y-137340048D02*
X123847000Y-139265952D01*
G75*
G02*
X123584952Y-139528000I-262048J0D01*
G01*
X121934048Y-139528000D01*
G75*
G02*
X121672000Y-139265952I0J262048D01*
G01*
X121672000Y-137340048D01*
G75*
G02*
X121934048Y-137078000I262048J0D01*
G01*
X123584952Y-137078000D01*
G75*
G02*
X123847000Y-137340048I0J-262048D01*
G01*
G37*
G36*
G01*
X128772000Y-137340048D02*
X128772000Y-139265952D01*
G75*
G02*
X128509952Y-139528000I-262048J0D01*
G01*
X126859048Y-139528000D01*
G75*
G02*
X126597000Y-139265952I0J262048D01*
G01*
X126597000Y-137340048D01*
G75*
G02*
X126859048Y-137078000I262048J0D01*
G01*
X128509952Y-137078000D01*
G75*
G02*
X128772000Y-137340048I0J-262048D01*
G01*
G37*
%TD*%
%TO.C,C74*%
G36*
G01*
X135227000Y-147606750D02*
X135227000Y-148569250D01*
G75*
G02*
X134958250Y-148838000I-268750J0D01*
G01*
X134420750Y-148838000D01*
G75*
G02*
X134152000Y-148569250I0J268750D01*
G01*
X134152000Y-147606750D01*
G75*
G02*
X134420750Y-147338000I268750J0D01*
G01*
X134958250Y-147338000D01*
G75*
G02*
X135227000Y-147606750I0J-268750D01*
G01*
G37*
G36*
G01*
X137102000Y-147606750D02*
X137102000Y-148569250D01*
G75*
G02*
X136833250Y-148838000I-268750J0D01*
G01*
X136295750Y-148838000D01*
G75*
G02*
X136027000Y-148569250I0J268750D01*
G01*
X136027000Y-147606750D01*
G75*
G02*
X136295750Y-147338000I268750J0D01*
G01*
X136833250Y-147338000D01*
G75*
G02*
X137102000Y-147606750I0J-268750D01*
G01*
G37*
%TD*%
D23*
%TO.C,C73*%
X285402000Y-160528000D03*
X295402000Y-160528000D03*
%TD*%
D16*
%TO.C,C72*%
X300877000Y-180848000D03*
X285877000Y-180848000D03*
%TD*%
%TO.C,C71*%
G36*
G01*
X120930750Y-159023000D02*
X121893250Y-159023000D01*
G75*
G02*
X122162000Y-159291750I0J-268750D01*
G01*
X122162000Y-159829250D01*
G75*
G02*
X121893250Y-160098000I-268750J0D01*
G01*
X120930750Y-160098000D01*
G75*
G02*
X120662000Y-159829250I0J268750D01*
G01*
X120662000Y-159291750D01*
G75*
G02*
X120930750Y-159023000I268750J0D01*
G01*
G37*
G36*
G01*
X120930750Y-157148000D02*
X121893250Y-157148000D01*
G75*
G02*
X122162000Y-157416750I0J-268750D01*
G01*
X122162000Y-157954250D01*
G75*
G02*
X121893250Y-158223000I-268750J0D01*
G01*
X120930750Y-158223000D01*
G75*
G02*
X120662000Y-157954250I0J268750D01*
G01*
X120662000Y-157416750D01*
G75*
G02*
X120930750Y-157148000I268750J0D01*
G01*
G37*
%TD*%
%TO.C,C70*%
G36*
G01*
X120377000Y-162332750D02*
X120377000Y-163295250D01*
G75*
G02*
X120108250Y-163564000I-268750J0D01*
G01*
X119570750Y-163564000D01*
G75*
G02*
X119302000Y-163295250I0J268750D01*
G01*
X119302000Y-162332750D01*
G75*
G02*
X119570750Y-162064000I268750J0D01*
G01*
X120108250Y-162064000D01*
G75*
G02*
X120377000Y-162332750I0J-268750D01*
G01*
G37*
G36*
G01*
X122252000Y-162332750D02*
X122252000Y-163295250D01*
G75*
G02*
X121983250Y-163564000I-268750J0D01*
G01*
X121445750Y-163564000D01*
G75*
G02*
X121177000Y-163295250I0J268750D01*
G01*
X121177000Y-162332750D01*
G75*
G02*
X121445750Y-162064000I268750J0D01*
G01*
X121983250Y-162064000D01*
G75*
G02*
X122252000Y-162332750I0J-268750D01*
G01*
G37*
%TD*%
D24*
%TO.C,C69*%
X259207000Y-115726000D03*
G36*
G01*
X271257000Y-113726000D02*
X271257000Y-117726000D01*
G75*
G02*
X271207000Y-117776000I-50000J0D01*
G01*
X267207000Y-117776000D01*
G75*
G02*
X267157000Y-117726000I0J50000D01*
G01*
X267157000Y-113726000D01*
G75*
G02*
X267207000Y-113676000I50000J0D01*
G01*
X271207000Y-113676000D01*
G75*
G02*
X271257000Y-113726000I0J-50000D01*
G01*
G37*
%TD*%
%TO.C,C67*%
G36*
G01*
X123847000Y-148770048D02*
X123847000Y-150695952D01*
G75*
G02*
X123584952Y-150958000I-262048J0D01*
G01*
X121934048Y-150958000D01*
G75*
G02*
X121672000Y-150695952I0J262048D01*
G01*
X121672000Y-148770048D01*
G75*
G02*
X121934048Y-148508000I262048J0D01*
G01*
X123584952Y-148508000D01*
G75*
G02*
X123847000Y-148770048I0J-262048D01*
G01*
G37*
G36*
G01*
X128772000Y-148770048D02*
X128772000Y-150695952D01*
G75*
G02*
X128509952Y-150958000I-262048J0D01*
G01*
X126859048Y-150958000D01*
G75*
G02*
X126597000Y-150695952I0J262048D01*
G01*
X126597000Y-148770048D01*
G75*
G02*
X126859048Y-148508000I262048J0D01*
G01*
X128509952Y-148508000D01*
G75*
G02*
X128772000Y-148770048I0J-262048D01*
G01*
G37*
%TD*%
%TO.C,C66*%
G36*
G01*
X113945750Y-202838000D02*
X114908250Y-202838000D01*
G75*
G02*
X115177000Y-203106750I0J-268750D01*
G01*
X115177000Y-203644250D01*
G75*
G02*
X114908250Y-203913000I-268750J0D01*
G01*
X113945750Y-203913000D01*
G75*
G02*
X113677000Y-203644250I0J268750D01*
G01*
X113677000Y-203106750D01*
G75*
G02*
X113945750Y-202838000I268750J0D01*
G01*
G37*
G36*
G01*
X113945750Y-200963000D02*
X114908250Y-200963000D01*
G75*
G02*
X115177000Y-201231750I0J-268750D01*
G01*
X115177000Y-201769250D01*
G75*
G02*
X114908250Y-202038000I-268750J0D01*
G01*
X113945750Y-202038000D01*
G75*
G02*
X113677000Y-201769250I0J268750D01*
G01*
X113677000Y-201231750D01*
G75*
G02*
X113945750Y-200963000I268750J0D01*
G01*
G37*
%TD*%
%TO.C,C65*%
G36*
G01*
X114908250Y-193753010D02*
X113945750Y-193753010D01*
G75*
G02*
X113677000Y-193484260I0J268750D01*
G01*
X113677000Y-192946760D01*
G75*
G02*
X113945750Y-192678010I268750J0D01*
G01*
X114908250Y-192678010D01*
G75*
G02*
X115177000Y-192946760I0J-268750D01*
G01*
X115177000Y-193484260D01*
G75*
G02*
X114908250Y-193753010I-268750J0D01*
G01*
G37*
G36*
G01*
X114908250Y-195628010D02*
X113945750Y-195628010D01*
G75*
G02*
X113677000Y-195359260I0J268750D01*
G01*
X113677000Y-194821760D01*
G75*
G02*
X113945750Y-194553010I268750J0D01*
G01*
X114908250Y-194553010D01*
G75*
G02*
X115177000Y-194821760I0J-268750D01*
G01*
X115177000Y-195359260D01*
G75*
G02*
X114908250Y-195628010I-268750J0D01*
G01*
G37*
%TD*%
%TO.C,C64*%
G36*
G01*
X101573250Y-181083000D02*
X100610750Y-181083000D01*
G75*
G02*
X100342000Y-180814250I0J268750D01*
G01*
X100342000Y-180276750D01*
G75*
G02*
X100610750Y-180008000I268750J0D01*
G01*
X101573250Y-180008000D01*
G75*
G02*
X101842000Y-180276750I0J-268750D01*
G01*
X101842000Y-180814250D01*
G75*
G02*
X101573250Y-181083000I-268750J0D01*
G01*
G37*
G36*
G01*
X101573250Y-182958000D02*
X100610750Y-182958000D01*
G75*
G02*
X100342000Y-182689250I0J268750D01*
G01*
X100342000Y-182151750D01*
G75*
G02*
X100610750Y-181883000I268750J0D01*
G01*
X101573250Y-181883000D01*
G75*
G02*
X101842000Y-182151750I0J-268750D01*
G01*
X101842000Y-182689250D01*
G75*
G02*
X101573250Y-182958000I-268750J0D01*
G01*
G37*
%TD*%
%TO.C,C63*%
G36*
G01*
X103150750Y-180613000D02*
X104113250Y-180613000D01*
G75*
G02*
X104382000Y-180881750I0J-268750D01*
G01*
X104382000Y-181419250D01*
G75*
G02*
X104113250Y-181688000I-268750J0D01*
G01*
X103150750Y-181688000D01*
G75*
G02*
X102882000Y-181419250I0J268750D01*
G01*
X102882000Y-180881750D01*
G75*
G02*
X103150750Y-180613000I268750J0D01*
G01*
G37*
G36*
G01*
X103150750Y-178738000D02*
X104113250Y-178738000D01*
G75*
G02*
X104382000Y-179006750I0J-268750D01*
G01*
X104382000Y-179544250D01*
G75*
G02*
X104113250Y-179813000I-268750J0D01*
G01*
X103150750Y-179813000D01*
G75*
G02*
X102882000Y-179544250I0J268750D01*
G01*
X102882000Y-179006750D01*
G75*
G02*
X103150750Y-178738000I268750J0D01*
G01*
G37*
%TD*%
%TO.C,C62*%
G36*
G01*
X116739750Y-173628000D02*
X117702250Y-173628000D01*
G75*
G02*
X117971000Y-173896750I0J-268750D01*
G01*
X117971000Y-174434250D01*
G75*
G02*
X117702250Y-174703000I-268750J0D01*
G01*
X116739750Y-174703000D01*
G75*
G02*
X116471000Y-174434250I0J268750D01*
G01*
X116471000Y-173896750D01*
G75*
G02*
X116739750Y-173628000I268750J0D01*
G01*
G37*
G36*
G01*
X116739750Y-171753000D02*
X117702250Y-171753000D01*
G75*
G02*
X117971000Y-172021750I0J-268750D01*
G01*
X117971000Y-172559250D01*
G75*
G02*
X117702250Y-172828000I-268750J0D01*
G01*
X116739750Y-172828000D01*
G75*
G02*
X116471000Y-172559250I0J268750D01*
G01*
X116471000Y-172021750D01*
G75*
G02*
X116739750Y-171753000I268750J0D01*
G01*
G37*
%TD*%
%TO.C,C61*%
G36*
G01*
X113900000Y-183033750D02*
X113900000Y-183996250D01*
G75*
G02*
X113631250Y-184265000I-268750J0D01*
G01*
X113093750Y-184265000D01*
G75*
G02*
X112825000Y-183996250I0J268750D01*
G01*
X112825000Y-183033750D01*
G75*
G02*
X113093750Y-182765000I268750J0D01*
G01*
X113631250Y-182765000D01*
G75*
G02*
X113900000Y-183033750I0J-268750D01*
G01*
G37*
G36*
G01*
X115775000Y-183033750D02*
X115775000Y-183996250D01*
G75*
G02*
X115506250Y-184265000I-268750J0D01*
G01*
X114968750Y-184265000D01*
G75*
G02*
X114700000Y-183996250I0J268750D01*
G01*
X114700000Y-183033750D01*
G75*
G02*
X114968750Y-182765000I268750J0D01*
G01*
X115506250Y-182765000D01*
G75*
G02*
X115775000Y-183033750I0J-268750D01*
G01*
G37*
%TD*%
%TO.C,C60*%
G36*
G01*
X102213250Y-160293000D02*
X103175750Y-160293000D01*
G75*
G02*
X103444500Y-160561750I0J-268750D01*
G01*
X103444500Y-161099250D01*
G75*
G02*
X103175750Y-161368000I-268750J0D01*
G01*
X102213250Y-161368000D01*
G75*
G02*
X101944500Y-161099250I0J268750D01*
G01*
X101944500Y-160561750D01*
G75*
G02*
X102213250Y-160293000I268750J0D01*
G01*
G37*
G36*
G01*
X102213250Y-158418000D02*
X103175750Y-158418000D01*
G75*
G02*
X103444500Y-158686750I0J-268750D01*
G01*
X103444500Y-159224250D01*
G75*
G02*
X103175750Y-159493000I-268750J0D01*
G01*
X102213250Y-159493000D01*
G75*
G02*
X101944500Y-159224250I0J268750D01*
G01*
X101944500Y-158686750D01*
G75*
G02*
X102213250Y-158418000I268750J0D01*
G01*
G37*
%TD*%
%TO.C,C59*%
G36*
G01*
X107842000Y-151484250D02*
X107842000Y-150521750D01*
G75*
G02*
X108110750Y-150253000I268750J0D01*
G01*
X108648250Y-150253000D01*
G75*
G02*
X108917000Y-150521750I0J-268750D01*
G01*
X108917000Y-151484250D01*
G75*
G02*
X108648250Y-151753000I-268750J0D01*
G01*
X108110750Y-151753000D01*
G75*
G02*
X107842000Y-151484250I0J268750D01*
G01*
G37*
G36*
G01*
X105967000Y-151484250D02*
X105967000Y-150521750D01*
G75*
G02*
X106235750Y-150253000I268750J0D01*
G01*
X106773250Y-150253000D01*
G75*
G02*
X107042000Y-150521750I0J-268750D01*
G01*
X107042000Y-151484250D01*
G75*
G02*
X106773250Y-151753000I-268750J0D01*
G01*
X106235750Y-151753000D01*
G75*
G02*
X105967000Y-151484250I0J268750D01*
G01*
G37*
%TD*%
%TO.C,C50*%
G36*
G01*
X107461000Y-171169250D02*
X107461000Y-170206750D01*
G75*
G02*
X107729750Y-169938000I268750J0D01*
G01*
X108267250Y-169938000D01*
G75*
G02*
X108536000Y-170206750I0J-268750D01*
G01*
X108536000Y-171169250D01*
G75*
G02*
X108267250Y-171438000I-268750J0D01*
G01*
X107729750Y-171438000D01*
G75*
G02*
X107461000Y-171169250I0J268750D01*
G01*
G37*
G36*
G01*
X105586000Y-171169250D02*
X105586000Y-170206750D01*
G75*
G02*
X105854750Y-169938000I268750J0D01*
G01*
X106392250Y-169938000D01*
G75*
G02*
X106661000Y-170206750I0J-268750D01*
G01*
X106661000Y-171169250D01*
G75*
G02*
X106392250Y-171438000I-268750J0D01*
G01*
X105854750Y-171438000D01*
G75*
G02*
X105586000Y-171169250I0J268750D01*
G01*
G37*
%TD*%
%TO.C,C49*%
G36*
G01*
X102294500Y-167031750D02*
X102294500Y-167994250D01*
G75*
G02*
X102025750Y-168263000I-268750J0D01*
G01*
X101488250Y-168263000D01*
G75*
G02*
X101219500Y-167994250I0J268750D01*
G01*
X101219500Y-167031750D01*
G75*
G02*
X101488250Y-166763000I268750J0D01*
G01*
X102025750Y-166763000D01*
G75*
G02*
X102294500Y-167031750I0J-268750D01*
G01*
G37*
G36*
G01*
X104169500Y-167031750D02*
X104169500Y-167994250D01*
G75*
G02*
X103900750Y-168263000I-268750J0D01*
G01*
X103363250Y-168263000D01*
G75*
G02*
X103094500Y-167994250I0J268750D01*
G01*
X103094500Y-167031750D01*
G75*
G02*
X103363250Y-166763000I268750J0D01*
G01*
X103900750Y-166763000D01*
G75*
G02*
X104169500Y-167031750I0J-268750D01*
G01*
G37*
%TD*%
%TO.C,C40*%
G36*
G01*
X136987000Y-139218000D02*
X136987000Y-137908000D01*
G75*
G02*
X137257000Y-137638000I270000J0D01*
G01*
X138067000Y-137638000D01*
G75*
G02*
X138337000Y-137908000I0J-270000D01*
G01*
X138337000Y-139218000D01*
G75*
G02*
X138067000Y-139488000I-270000J0D01*
G01*
X137257000Y-139488000D01*
G75*
G02*
X136987000Y-139218000I0J270000D01*
G01*
G37*
G36*
G01*
X134187000Y-139218000D02*
X134187000Y-137908000D01*
G75*
G02*
X134457000Y-137638000I270000J0D01*
G01*
X135267000Y-137638000D01*
G75*
G02*
X135537000Y-137908000I0J-270000D01*
G01*
X135537000Y-139218000D01*
G75*
G02*
X135267000Y-139488000I-270000J0D01*
G01*
X134457000Y-139488000D01*
G75*
G02*
X134187000Y-139218000I0J270000D01*
G01*
G37*
%TD*%
%TO.C,C39*%
G36*
G01*
X95898259Y-178211006D02*
X96296007Y-177813259D01*
G75*
G02*
X96640721Y-177813259I172357J-172357D01*
G01*
X96985435Y-178157973D01*
G75*
G02*
X96985435Y-178502687I-172357J-172357D01*
G01*
X96587687Y-178900435D01*
G75*
G02*
X96242973Y-178900435I-172357J172357D01*
G01*
X95898259Y-178555721D01*
G75*
G02*
X95898259Y-178211007I172357J172357D01*
G01*
G37*
G36*
G01*
X94784565Y-177097312D02*
X95182313Y-176699565D01*
G75*
G02*
X95527027Y-176699565I172357J-172357D01*
G01*
X95871741Y-177044279D01*
G75*
G02*
X95871741Y-177388993I-172357J-172357D01*
G01*
X95473993Y-177786741D01*
G75*
G02*
X95129279Y-177786741I-172357J172357D01*
G01*
X94784565Y-177442027D01*
G75*
G02*
X94784565Y-177097313I172357J172357D01*
G01*
G37*
%TD*%
D16*
%TO.C,C35*%
X300877000Y-206248000D03*
X285877000Y-206248000D03*
%TD*%
%TO.C,C33*%
X300877000Y-199898000D03*
X285877000Y-199898000D03*
%TD*%
%TO.C,C31*%
X300877000Y-193548000D03*
X285877000Y-193548000D03*
%TD*%
%TO.C,C29*%
X300877000Y-187198000D03*
X285877000Y-187198000D03*
%TD*%
%TO.C,C26*%
G36*
G01*
X123552000Y-191796750D02*
X123552000Y-192759250D01*
G75*
G02*
X123283250Y-193028000I-268750J0D01*
G01*
X122745750Y-193028000D01*
G75*
G02*
X122477000Y-192759250I0J268750D01*
G01*
X122477000Y-191796750D01*
G75*
G02*
X122745750Y-191528000I268750J0D01*
G01*
X123283250Y-191528000D01*
G75*
G02*
X123552000Y-191796750I0J-268750D01*
G01*
G37*
G36*
G01*
X125427000Y-191796750D02*
X125427000Y-192759250D01*
G75*
G02*
X125158250Y-193028000I-268750J0D01*
G01*
X124620750Y-193028000D01*
G75*
G02*
X124352000Y-192759250I0J268750D01*
G01*
X124352000Y-191796750D01*
G75*
G02*
X124620750Y-191528000I268750J0D01*
G01*
X125158250Y-191528000D01*
G75*
G02*
X125427000Y-191796750I0J-268750D01*
G01*
G37*
%TD*%
%TO.C,C24*%
G36*
G01*
X69196000Y-196241750D02*
X69196000Y-197204250D01*
G75*
G02*
X68927250Y-197473000I-268750J0D01*
G01*
X68389750Y-197473000D01*
G75*
G02*
X68121000Y-197204250I0J268750D01*
G01*
X68121000Y-196241750D01*
G75*
G02*
X68389750Y-195973000I268750J0D01*
G01*
X68927250Y-195973000D01*
G75*
G02*
X69196000Y-196241750I0J-268750D01*
G01*
G37*
G36*
G01*
X71071000Y-196241750D02*
X71071000Y-197204250D01*
G75*
G02*
X70802250Y-197473000I-268750J0D01*
G01*
X70264750Y-197473000D01*
G75*
G02*
X69996000Y-197204250I0J268750D01*
G01*
X69996000Y-196241750D01*
G75*
G02*
X70264750Y-195973000I268750J0D01*
G01*
X70802250Y-195973000D01*
G75*
G02*
X71071000Y-196241750I0J-268750D01*
G01*
G37*
%TD*%
%TO.C,C22*%
G36*
G01*
X83158250Y-195053000D02*
X82195750Y-195053000D01*
G75*
G02*
X81927000Y-194784250I0J268750D01*
G01*
X81927000Y-194246750D01*
G75*
G02*
X82195750Y-193978000I268750J0D01*
G01*
X83158250Y-193978000D01*
G75*
G02*
X83427000Y-194246750I0J-268750D01*
G01*
X83427000Y-194784250D01*
G75*
G02*
X83158250Y-195053000I-268750J0D01*
G01*
G37*
G36*
G01*
X83158250Y-196928000D02*
X82195750Y-196928000D01*
G75*
G02*
X81927000Y-196659250I0J268750D01*
G01*
X81927000Y-196121750D01*
G75*
G02*
X82195750Y-195853000I268750J0D01*
G01*
X83158250Y-195853000D01*
G75*
G02*
X83427000Y-196121750I0J-268750D01*
G01*
X83427000Y-196659250D01*
G75*
G02*
X83158250Y-196928000I-268750J0D01*
G01*
G37*
%TD*%
%TO.C,C15*%
G36*
G01*
X101586741Y-171673994D02*
X101188993Y-172071741D01*
G75*
G02*
X100844279Y-172071741I-172357J172357D01*
G01*
X100499565Y-171727027D01*
G75*
G02*
X100499565Y-171382313I172357J172357D01*
G01*
X100897313Y-170984565D01*
G75*
G02*
X101242027Y-170984565I172357J-172357D01*
G01*
X101586741Y-171329279D01*
G75*
G02*
X101586741Y-171673993I-172357J-172357D01*
G01*
G37*
G36*
G01*
X102700435Y-172787688D02*
X102302687Y-173185435D01*
G75*
G02*
X101957973Y-173185435I-172357J172357D01*
G01*
X101613259Y-172840721D01*
G75*
G02*
X101613259Y-172496007I172357J172357D01*
G01*
X102011007Y-172098259D01*
G75*
G02*
X102355721Y-172098259I172357J-172357D01*
G01*
X102700435Y-172442973D01*
G75*
G02*
X102700435Y-172787687I-172357J-172357D01*
G01*
G37*
%TD*%
%TO.C,C14*%
G36*
G01*
X85930750Y-159758000D02*
X85930750Y-158795500D01*
G75*
G02*
X86199500Y-158526750I268750J0D01*
G01*
X86737000Y-158526750D01*
G75*
G02*
X87005750Y-158795500I0J-268750D01*
G01*
X87005750Y-159758000D01*
G75*
G02*
X86737000Y-160026750I-268750J0D01*
G01*
X86199500Y-160026750D01*
G75*
G02*
X85930750Y-159758000I0J268750D01*
G01*
G37*
G36*
G01*
X84055750Y-159758000D02*
X84055750Y-158795500D01*
G75*
G02*
X84324500Y-158526750I268750J0D01*
G01*
X84862000Y-158526750D01*
G75*
G02*
X85130750Y-158795500I0J-268750D01*
G01*
X85130750Y-159758000D01*
G75*
G02*
X84862000Y-160026750I-268750J0D01*
G01*
X84324500Y-160026750D01*
G75*
G02*
X84055750Y-159758000I0J268750D01*
G01*
G37*
%TD*%
%TO.C,C13*%
G36*
G01*
X65767000Y-150521750D02*
X65767000Y-151484250D01*
G75*
G02*
X65498250Y-151753000I-268750J0D01*
G01*
X64960750Y-151753000D01*
G75*
G02*
X64692000Y-151484250I0J268750D01*
G01*
X64692000Y-150521750D01*
G75*
G02*
X64960750Y-150253000I268750J0D01*
G01*
X65498250Y-150253000D01*
G75*
G02*
X65767000Y-150521750I0J-268750D01*
G01*
G37*
G36*
G01*
X67642000Y-150521750D02*
X67642000Y-151484250D01*
G75*
G02*
X67373250Y-151753000I-268750J0D01*
G01*
X66835750Y-151753000D01*
G75*
G02*
X66567000Y-151484250I0J268750D01*
G01*
X66567000Y-150521750D01*
G75*
G02*
X66835750Y-150253000I268750J0D01*
G01*
X67373250Y-150253000D01*
G75*
G02*
X67642000Y-150521750I0J-268750D01*
G01*
G37*
%TD*%
%TO.C,C12*%
G36*
G01*
X85930750Y-153535000D02*
X85930750Y-152572500D01*
G75*
G02*
X86199500Y-152303750I268750J0D01*
G01*
X86737000Y-152303750D01*
G75*
G02*
X87005750Y-152572500I0J-268750D01*
G01*
X87005750Y-153535000D01*
G75*
G02*
X86737000Y-153803750I-268750J0D01*
G01*
X86199500Y-153803750D01*
G75*
G02*
X85930750Y-153535000I0J268750D01*
G01*
G37*
G36*
G01*
X84055750Y-153535000D02*
X84055750Y-152572500D01*
G75*
G02*
X84324500Y-152303750I268750J0D01*
G01*
X84862000Y-152303750D01*
G75*
G02*
X85130750Y-152572500I0J-268750D01*
G01*
X85130750Y-153535000D01*
G75*
G02*
X84862000Y-153803750I-268750J0D01*
G01*
X84324500Y-153803750D01*
G75*
G02*
X84055750Y-153535000I0J268750D01*
G01*
G37*
%TD*%
%TO.C,C11*%
G36*
G01*
X79448249Y-157199250D02*
X79448249Y-156236750D01*
G75*
G02*
X79716999Y-155968000I268750J0D01*
G01*
X80254499Y-155968000D01*
G75*
G02*
X80523249Y-156236750I0J-268750D01*
G01*
X80523249Y-157199250D01*
G75*
G02*
X80254499Y-157468000I-268750J0D01*
G01*
X79716999Y-157468000D01*
G75*
G02*
X79448249Y-157199250I0J268750D01*
G01*
G37*
G36*
G01*
X77573249Y-157199250D02*
X77573249Y-156236750D01*
G75*
G02*
X77841999Y-155968000I268750J0D01*
G01*
X78379499Y-155968000D01*
G75*
G02*
X78648249Y-156236750I0J-268750D01*
G01*
X78648249Y-157199250D01*
G75*
G02*
X78379499Y-157468000I-268750J0D01*
G01*
X77841999Y-157468000D01*
G75*
G02*
X77573249Y-157199250I0J268750D01*
G01*
G37*
%TD*%
%TO.C,C10*%
G36*
G01*
X87992000Y-169571750D02*
X87992000Y-170534250D01*
G75*
G02*
X87723250Y-170803000I-268750J0D01*
G01*
X87185750Y-170803000D01*
G75*
G02*
X86917000Y-170534250I0J268750D01*
G01*
X86917000Y-169571750D01*
G75*
G02*
X87185750Y-169303000I268750J0D01*
G01*
X87723250Y-169303000D01*
G75*
G02*
X87992000Y-169571750I0J-268750D01*
G01*
G37*
G36*
G01*
X89867000Y-169571750D02*
X89867000Y-170534250D01*
G75*
G02*
X89598250Y-170803000I-268750J0D01*
G01*
X89060750Y-170803000D01*
G75*
G02*
X88792000Y-170534250I0J268750D01*
G01*
X88792000Y-169571750D01*
G75*
G02*
X89060750Y-169303000I268750J0D01*
G01*
X89598250Y-169303000D01*
G75*
G02*
X89867000Y-169571750I0J-268750D01*
G01*
G37*
%TD*%
%TO.C,C9*%
G36*
G01*
X84347000Y-178789250D02*
X84347000Y-177826750D01*
G75*
G02*
X84615750Y-177558000I268750J0D01*
G01*
X85153250Y-177558000D01*
G75*
G02*
X85422000Y-177826750I0J-268750D01*
G01*
X85422000Y-178789250D01*
G75*
G02*
X85153250Y-179058000I-268750J0D01*
G01*
X84615750Y-179058000D01*
G75*
G02*
X84347000Y-178789250I0J268750D01*
G01*
G37*
G36*
G01*
X82472000Y-178789250D02*
X82472000Y-177826750D01*
G75*
G02*
X82740750Y-177558000I268750J0D01*
G01*
X83278250Y-177558000D01*
G75*
G02*
X83547000Y-177826750I0J-268750D01*
G01*
X83547000Y-178789250D01*
G75*
G02*
X83278250Y-179058000I-268750J0D01*
G01*
X82740750Y-179058000D01*
G75*
G02*
X82472000Y-178789250I0J268750D01*
G01*
G37*
%TD*%
%TO.C,C8*%
G36*
G01*
X71647000Y-175614250D02*
X71647000Y-174651750D01*
G75*
G02*
X71915750Y-174383000I268750J0D01*
G01*
X72453250Y-174383000D01*
G75*
G02*
X72722000Y-174651750I0J-268750D01*
G01*
X72722000Y-175614250D01*
G75*
G02*
X72453250Y-175883000I-268750J0D01*
G01*
X71915750Y-175883000D01*
G75*
G02*
X71647000Y-175614250I0J268750D01*
G01*
G37*
G36*
G01*
X69772000Y-175614250D02*
X69772000Y-174651750D01*
G75*
G02*
X70040750Y-174383000I268750J0D01*
G01*
X70578250Y-174383000D01*
G75*
G02*
X70847000Y-174651750I0J-268750D01*
G01*
X70847000Y-175614250D01*
G75*
G02*
X70578250Y-175883000I-268750J0D01*
G01*
X70040750Y-175883000D01*
G75*
G02*
X69772000Y-175614250I0J268750D01*
G01*
G37*
%TD*%
%TO.C,C7*%
G36*
G01*
X70847000Y-172111750D02*
X70847000Y-173074250D01*
G75*
G02*
X70578250Y-173343000I-268750J0D01*
G01*
X70040750Y-173343000D01*
G75*
G02*
X69772000Y-173074250I0J268750D01*
G01*
X69772000Y-172111750D01*
G75*
G02*
X70040750Y-171843000I268750J0D01*
G01*
X70578250Y-171843000D01*
G75*
G02*
X70847000Y-172111750I0J-268750D01*
G01*
G37*
G36*
G01*
X72722000Y-172111750D02*
X72722000Y-173074250D01*
G75*
G02*
X72453250Y-173343000I-268750J0D01*
G01*
X71915750Y-173343000D01*
G75*
G02*
X71647000Y-173074250I0J268750D01*
G01*
X71647000Y-172111750D01*
G75*
G02*
X71915750Y-171843000I268750J0D01*
G01*
X72453250Y-171843000D01*
G75*
G02*
X72722000Y-172111750I0J-268750D01*
G01*
G37*
%TD*%
%TO.C,C6*%
G36*
G01*
X73552000Y-203173250D02*
X73552000Y-202210750D01*
G75*
G02*
X73820750Y-201942000I268750J0D01*
G01*
X74358250Y-201942000D01*
G75*
G02*
X74627000Y-202210750I0J-268750D01*
G01*
X74627000Y-203173250D01*
G75*
G02*
X74358250Y-203442000I-268750J0D01*
G01*
X73820750Y-203442000D01*
G75*
G02*
X73552000Y-203173250I0J268750D01*
G01*
G37*
G36*
G01*
X71677000Y-203173250D02*
X71677000Y-202210750D01*
G75*
G02*
X71945750Y-201942000I268750J0D01*
G01*
X72483250Y-201942000D01*
G75*
G02*
X72752000Y-202210750I0J-268750D01*
G01*
X72752000Y-203173250D01*
G75*
G02*
X72483250Y-203442000I-268750J0D01*
G01*
X71945750Y-203442000D01*
G75*
G02*
X71677000Y-203173250I0J268750D01*
G01*
G37*
%TD*%
%TO.C,C5*%
G36*
G01*
X72035750Y-192043000D02*
X72998250Y-192043000D01*
G75*
G02*
X73267000Y-192311750I0J-268750D01*
G01*
X73267000Y-192849250D01*
G75*
G02*
X72998250Y-193118000I-268750J0D01*
G01*
X72035750Y-193118000D01*
G75*
G02*
X71767000Y-192849250I0J268750D01*
G01*
X71767000Y-192311750D01*
G75*
G02*
X72035750Y-192043000I268750J0D01*
G01*
G37*
G36*
G01*
X72035750Y-190168000D02*
X72998250Y-190168000D01*
G75*
G02*
X73267000Y-190436750I0J-268750D01*
G01*
X73267000Y-190974250D01*
G75*
G02*
X72998250Y-191243000I-268750J0D01*
G01*
X72035750Y-191243000D01*
G75*
G02*
X71767000Y-190974250I0J268750D01*
G01*
X71767000Y-190436750D01*
G75*
G02*
X72035750Y-190168000I268750J0D01*
G01*
G37*
%TD*%
%TO.C,C4*%
G36*
G01*
X101962000Y-187351750D02*
X101962000Y-188314250D01*
G75*
G02*
X101693250Y-188583000I-268750J0D01*
G01*
X101155750Y-188583000D01*
G75*
G02*
X100887000Y-188314250I0J268750D01*
G01*
X100887000Y-187351750D01*
G75*
G02*
X101155750Y-187083000I268750J0D01*
G01*
X101693250Y-187083000D01*
G75*
G02*
X101962000Y-187351750I0J-268750D01*
G01*
G37*
G36*
G01*
X103837000Y-187351750D02*
X103837000Y-188314250D01*
G75*
G02*
X103568250Y-188583000I-268750J0D01*
G01*
X103030750Y-188583000D01*
G75*
G02*
X102762000Y-188314250I0J268750D01*
G01*
X102762000Y-187351750D01*
G75*
G02*
X103030750Y-187083000I268750J0D01*
G01*
X103568250Y-187083000D01*
G75*
G02*
X103837000Y-187351750I0J-268750D01*
G01*
G37*
%TD*%
%TO.C,U7*%
G36*
G01*
X86155750Y-156748750D02*
X86805750Y-156748750D01*
G75*
G02*
X86855750Y-156798750I0J-50000D01*
G01*
X86855750Y-157858750D01*
G75*
G02*
X86805750Y-157908750I-50000J0D01*
G01*
X86155750Y-157908750D01*
G75*
G02*
X86105750Y-157858750I0J50000D01*
G01*
X86105750Y-156798750D01*
G75*
G02*
X86155750Y-156748750I50000J0D01*
G01*
G37*
G36*
G01*
X84255750Y-156748750D02*
X84905750Y-156748750D01*
G75*
G02*
X84955750Y-156798750I0J-50000D01*
G01*
X84955750Y-157858750D01*
G75*
G02*
X84905750Y-157908750I-50000J0D01*
G01*
X84255750Y-157908750D01*
G75*
G02*
X84205750Y-157858750I0J50000D01*
G01*
X84205750Y-156798750D01*
G75*
G02*
X84255750Y-156748750I50000J0D01*
G01*
G37*
G36*
G01*
X84255750Y-154548750D02*
X84905750Y-154548750D01*
G75*
G02*
X84955750Y-154598750I0J-50000D01*
G01*
X84955750Y-155658750D01*
G75*
G02*
X84905750Y-155708750I-50000J0D01*
G01*
X84255750Y-155708750D01*
G75*
G02*
X84205750Y-155658750I0J50000D01*
G01*
X84205750Y-154598750D01*
G75*
G02*
X84255750Y-154548750I50000J0D01*
G01*
G37*
G36*
G01*
X85205750Y-154548750D02*
X85855750Y-154548750D01*
G75*
G02*
X85905750Y-154598750I0J-50000D01*
G01*
X85905750Y-155658750D01*
G75*
G02*
X85855750Y-155708750I-50000J0D01*
G01*
X85205750Y-155708750D01*
G75*
G02*
X85155750Y-155658750I0J50000D01*
G01*
X85155750Y-154598750D01*
G75*
G02*
X85205750Y-154548750I50000J0D01*
G01*
G37*
G36*
G01*
X86155750Y-154548750D02*
X86805750Y-154548750D01*
G75*
G02*
X86855750Y-154598750I0J-50000D01*
G01*
X86855750Y-155658750D01*
G75*
G02*
X86805750Y-155708750I-50000J0D01*
G01*
X86155750Y-155708750D01*
G75*
G02*
X86105750Y-155658750I0J50000D01*
G01*
X86105750Y-154598750D01*
G75*
G02*
X86155750Y-154548750I50000J0D01*
G01*
G37*
%TD*%
%TO.C,U14*%
G36*
G01*
X128787000Y-145568000D02*
X128787000Y-147068000D01*
G75*
G02*
X128737000Y-147118000I-50000J0D01*
G01*
X126737000Y-147118000D01*
G75*
G02*
X126687000Y-147068000I0J50000D01*
G01*
X126687000Y-145568000D01*
G75*
G02*
X126737000Y-145518000I50000J0D01*
G01*
X128737000Y-145518000D01*
G75*
G02*
X128787000Y-145568000I0J-50000D01*
G01*
G37*
G36*
G01*
X128787000Y-140968000D02*
X128787000Y-142468000D01*
G75*
G02*
X128737000Y-142518000I-50000J0D01*
G01*
X126737000Y-142518000D01*
G75*
G02*
X126687000Y-142468000I0J50000D01*
G01*
X126687000Y-140968000D01*
G75*
G02*
X126737000Y-140918000I50000J0D01*
G01*
X128737000Y-140918000D01*
G75*
G02*
X128787000Y-140968000I0J-50000D01*
G01*
G37*
G36*
G01*
X128787000Y-143268000D02*
X128787000Y-144768000D01*
G75*
G02*
X128737000Y-144818000I-50000J0D01*
G01*
X126737000Y-144818000D01*
G75*
G02*
X126687000Y-144768000I0J50000D01*
G01*
X126687000Y-143268000D01*
G75*
G02*
X126737000Y-143218000I50000J0D01*
G01*
X128737000Y-143218000D01*
G75*
G02*
X128787000Y-143268000I0J-50000D01*
G01*
G37*
G36*
G01*
X122487000Y-142118000D02*
X122487000Y-145918000D01*
G75*
G02*
X122437000Y-145968000I-50000J0D01*
G01*
X120437000Y-145968000D01*
G75*
G02*
X120387000Y-145918000I0J50000D01*
G01*
X120387000Y-142118000D01*
G75*
G02*
X120437000Y-142068000I50000J0D01*
G01*
X122437000Y-142068000D01*
G75*
G02*
X122487000Y-142118000I0J-50000D01*
G01*
G37*
%TD*%
D11*
%TO.C,J5*%
X132207000Y-172593000D03*
X129667000Y-172593000D03*
X127127000Y-172593000D03*
G36*
G01*
X125437000Y-173493000D02*
X123737000Y-173493000D01*
G75*
G02*
X123687000Y-173443000I0J50000D01*
G01*
X123687000Y-171743000D01*
G75*
G02*
X123737000Y-171693000I50000J0D01*
G01*
X125437000Y-171693000D01*
G75*
G02*
X125487000Y-171743000I0J-50000D01*
G01*
X125487000Y-173443000D01*
G75*
G02*
X125437000Y-173493000I-50000J0D01*
G01*
G37*
%TD*%
%TO.C,Q17*%
G36*
G01*
X111652000Y-152408000D02*
X110852000Y-152408000D01*
G75*
G02*
X110802000Y-152358000I0J50000D01*
G01*
X110802000Y-151458000D01*
G75*
G02*
X110852000Y-151408000I50000J0D01*
G01*
X111652000Y-151408000D01*
G75*
G02*
X111702000Y-151458000I0J-50000D01*
G01*
X111702000Y-152358000D01*
G75*
G02*
X111652000Y-152408000I-50000J0D01*
G01*
G37*
G36*
G01*
X112602000Y-154408000D02*
X111802000Y-154408000D01*
G75*
G02*
X111752000Y-154358000I0J50000D01*
G01*
X111752000Y-153458000D01*
G75*
G02*
X111802000Y-153408000I50000J0D01*
G01*
X112602000Y-153408000D01*
G75*
G02*
X112652000Y-153458000I0J-50000D01*
G01*
X112652000Y-154358000D01*
G75*
G02*
X112602000Y-154408000I-50000J0D01*
G01*
G37*
G36*
G01*
X110702000Y-154408000D02*
X109902000Y-154408000D01*
G75*
G02*
X109852000Y-154358000I0J50000D01*
G01*
X109852000Y-153458000D01*
G75*
G02*
X109902000Y-153408000I50000J0D01*
G01*
X110702000Y-153408000D01*
G75*
G02*
X110752000Y-153458000I0J-50000D01*
G01*
X110752000Y-154358000D01*
G75*
G02*
X110702000Y-154408000I-50000J0D01*
G01*
G37*
%TD*%
D14*
%TO.C,U8*%
X172085000Y-146050000D03*
X164465000Y-153670000D03*
X172085000Y-148590000D03*
X164465000Y-151130000D03*
X172085000Y-151130000D03*
X164465000Y-148590000D03*
X172085000Y-153670000D03*
G36*
G01*
X163615000Y-146850000D02*
X163615000Y-145250000D01*
G75*
G02*
X163665000Y-145200000I50000J0D01*
G01*
X165265000Y-145200000D01*
G75*
G02*
X165315000Y-145250000I0J-50000D01*
G01*
X165315000Y-146850000D01*
G75*
G02*
X165265000Y-146900000I-50000J0D01*
G01*
X163665000Y-146900000D01*
G75*
G02*
X163615000Y-146850000I0J50000D01*
G01*
G37*
%TD*%
%TO.C,Q14*%
G36*
G01*
X118503000Y-107110000D02*
X120003000Y-107110000D01*
G75*
G02*
X120053000Y-107160000I0J-50000D01*
G01*
X120053000Y-108660000D01*
G75*
G02*
X120003000Y-108710000I-50000J0D01*
G01*
X118503000Y-108710000D01*
G75*
G02*
X118453000Y-108660000I0J50000D01*
G01*
X118453000Y-107160000D01*
G75*
G02*
X118503000Y-107110000I50000J0D01*
G01*
G37*
D25*
X114173000Y-107910000D03*
X116713000Y-107910000D03*
%TD*%
%TO.C,Q13*%
G36*
G01*
X125869000Y-107110000D02*
X127369000Y-107110000D01*
G75*
G02*
X127419000Y-107160000I0J-50000D01*
G01*
X127419000Y-108660000D01*
G75*
G02*
X127369000Y-108710000I-50000J0D01*
G01*
X125869000Y-108710000D01*
G75*
G02*
X125819000Y-108660000I0J50000D01*
G01*
X125819000Y-107160000D01*
G75*
G02*
X125869000Y-107110000I50000J0D01*
G01*
G37*
X121539000Y-107910000D03*
X124079000Y-107910000D03*
%TD*%
%TO.C,Q12*%
G36*
G01*
X135140000Y-107110000D02*
X136640000Y-107110000D01*
G75*
G02*
X136690000Y-107160000I0J-50000D01*
G01*
X136690000Y-108660000D01*
G75*
G02*
X136640000Y-108710000I-50000J0D01*
G01*
X135140000Y-108710000D01*
G75*
G02*
X135090000Y-108660000I0J50000D01*
G01*
X135090000Y-107160000D01*
G75*
G02*
X135140000Y-107110000I50000J0D01*
G01*
G37*
X130810000Y-107910000D03*
X133350000Y-107910000D03*
%TD*%
%TO.C,Q11*%
G36*
G01*
X142252000Y-107110000D02*
X143752000Y-107110000D01*
G75*
G02*
X143802000Y-107160000I0J-50000D01*
G01*
X143802000Y-108660000D01*
G75*
G02*
X143752000Y-108710000I-50000J0D01*
G01*
X142252000Y-108710000D01*
G75*
G02*
X142202000Y-108660000I0J50000D01*
G01*
X142202000Y-107160000D01*
G75*
G02*
X142252000Y-107110000I50000J0D01*
G01*
G37*
X137922000Y-107910000D03*
X140462000Y-107910000D03*
%TD*%
%TO.C,Q10*%
G36*
G01*
X152158000Y-107110000D02*
X153658000Y-107110000D01*
G75*
G02*
X153708000Y-107160000I0J-50000D01*
G01*
X153708000Y-108660000D01*
G75*
G02*
X153658000Y-108710000I-50000J0D01*
G01*
X152158000Y-108710000D01*
G75*
G02*
X152108000Y-108660000I0J50000D01*
G01*
X152108000Y-107160000D01*
G75*
G02*
X152158000Y-107110000I50000J0D01*
G01*
G37*
X147828000Y-107910000D03*
X150368000Y-107910000D03*
%TD*%
%TO.C,Q9*%
G36*
G01*
X159397000Y-107110000D02*
X160897000Y-107110000D01*
G75*
G02*
X160947000Y-107160000I0J-50000D01*
G01*
X160947000Y-108660000D01*
G75*
G02*
X160897000Y-108710000I-50000J0D01*
G01*
X159397000Y-108710000D01*
G75*
G02*
X159347000Y-108660000I0J50000D01*
G01*
X159347000Y-107160000D01*
G75*
G02*
X159397000Y-107110000I50000J0D01*
G01*
G37*
X155067000Y-107910000D03*
X157607000Y-107910000D03*
%TD*%
%TO.C,Q8*%
G36*
G01*
X169176000Y-107150000D02*
X170676000Y-107150000D01*
G75*
G02*
X170726000Y-107200000I0J-50000D01*
G01*
X170726000Y-108700000D01*
G75*
G02*
X170676000Y-108750000I-50000J0D01*
G01*
X169176000Y-108750000D01*
G75*
G02*
X169126000Y-108700000I0J50000D01*
G01*
X169126000Y-107200000D01*
G75*
G02*
X169176000Y-107150000I50000J0D01*
G01*
G37*
X164846000Y-107950000D03*
X167386000Y-107950000D03*
%TD*%
%TO.C,Q7*%
G36*
G01*
X176542000Y-107150000D02*
X178042000Y-107150000D01*
G75*
G02*
X178092000Y-107200000I0J-50000D01*
G01*
X178092000Y-108700000D01*
G75*
G02*
X178042000Y-108750000I-50000J0D01*
G01*
X176542000Y-108750000D01*
G75*
G02*
X176492000Y-108700000I0J50000D01*
G01*
X176492000Y-107200000D01*
G75*
G02*
X176542000Y-107150000I50000J0D01*
G01*
G37*
X172212000Y-107950000D03*
X174752000Y-107950000D03*
%TD*%
%TO.C,Q6*%
G36*
G01*
X101257000Y-124368250D02*
X101257000Y-125868250D01*
G75*
G02*
X101207000Y-125918250I-50000J0D01*
G01*
X99707000Y-125918250D01*
G75*
G02*
X99657000Y-125868250I0J50000D01*
G01*
X99657000Y-124368250D01*
G75*
G02*
X99707000Y-124318250I50000J0D01*
G01*
X101207000Y-124318250D01*
G75*
G02*
X101257000Y-124368250I0J-50000D01*
G01*
G37*
X100457000Y-120038250D03*
X100457000Y-122578250D03*
%TD*%
%TO.C,Q5*%
G36*
G01*
X113322000Y-124495250D02*
X113322000Y-125995250D01*
G75*
G02*
X113272000Y-126045250I-50000J0D01*
G01*
X111772000Y-126045250D01*
G75*
G02*
X111722000Y-125995250I0J50000D01*
G01*
X111722000Y-124495250D01*
G75*
G02*
X111772000Y-124445250I50000J0D01*
G01*
X113272000Y-124445250D01*
G75*
G02*
X113322000Y-124495250I0J-50000D01*
G01*
G37*
X112522000Y-120165250D03*
X112522000Y-122705250D03*
%TD*%
D11*
%TO.C,TP12*%
X125857000Y-183388000D03*
G36*
G01*
X127547000Y-182488000D02*
X129247000Y-182488000D01*
G75*
G02*
X129297000Y-182538000I0J-50000D01*
G01*
X129297000Y-184238000D01*
G75*
G02*
X129247000Y-184288000I-50000J0D01*
G01*
X127547000Y-184288000D01*
G75*
G02*
X127497000Y-184238000I0J50000D01*
G01*
X127497000Y-182538000D01*
G75*
G02*
X127547000Y-182488000I50000J0D01*
G01*
G37*
%TD*%
D16*
%TO.C,C38*%
X214482000Y-196215000D03*
X236982000Y-196215000D03*
%TD*%
%TO.C,C21*%
X214482000Y-173355000D03*
X236982000Y-173355000D03*
%TD*%
%TO.C,D28*%
G36*
G01*
X111804500Y-158408000D02*
X111804500Y-160108000D01*
G75*
G02*
X111754500Y-160158000I-50000J0D01*
G01*
X110454500Y-160158000D01*
G75*
G02*
X110404500Y-160108000I0J50000D01*
G01*
X110404500Y-158408000D01*
G75*
G02*
X110454500Y-158358000I50000J0D01*
G01*
X111754500Y-158358000D01*
G75*
G02*
X111804500Y-158408000I0J-50000D01*
G01*
G37*
G36*
G01*
X115304500Y-158408000D02*
X115304500Y-160108000D01*
G75*
G02*
X115254500Y-160158000I-50000J0D01*
G01*
X113954500Y-160158000D01*
G75*
G02*
X113904500Y-160108000I0J50000D01*
G01*
X113904500Y-158408000D01*
G75*
G02*
X113954500Y-158358000I50000J0D01*
G01*
X115254500Y-158358000D01*
G75*
G02*
X115304500Y-158408000I0J-50000D01*
G01*
G37*
%TD*%
%TO.C,D27*%
G36*
G01*
X101023500Y-153845500D02*
X99323500Y-153845500D01*
G75*
G02*
X99273500Y-153795500I0J50000D01*
G01*
X99273500Y-152495500D01*
G75*
G02*
X99323500Y-152445500I50000J0D01*
G01*
X101023500Y-152445500D01*
G75*
G02*
X101073500Y-152495500I0J-50000D01*
G01*
X101073500Y-153795500D01*
G75*
G02*
X101023500Y-153845500I-50000J0D01*
G01*
G37*
G36*
G01*
X101023500Y-157345500D02*
X99323500Y-157345500D01*
G75*
G02*
X99273500Y-157295500I0J50000D01*
G01*
X99273500Y-155995500D01*
G75*
G02*
X99323500Y-155945500I50000J0D01*
G01*
X101023500Y-155945500D01*
G75*
G02*
X101073500Y-155995500I0J-50000D01*
G01*
X101073500Y-157295500D01*
G75*
G02*
X101023500Y-157345500I-50000J0D01*
G01*
G37*
%TD*%
%TO.C,D26*%
G36*
G01*
X96783500Y-155945500D02*
X98483500Y-155945500D01*
G75*
G02*
X98533500Y-155995500I0J-50000D01*
G01*
X98533500Y-157295500D01*
G75*
G02*
X98483500Y-157345500I-50000J0D01*
G01*
X96783500Y-157345500D01*
G75*
G02*
X96733500Y-157295500I0J50000D01*
G01*
X96733500Y-155995500D01*
G75*
G02*
X96783500Y-155945500I50000J0D01*
G01*
G37*
G36*
G01*
X96783500Y-152445500D02*
X98483500Y-152445500D01*
G75*
G02*
X98533500Y-152495500I0J-50000D01*
G01*
X98533500Y-153795500D01*
G75*
G02*
X98483500Y-153845500I-50000J0D01*
G01*
X96783500Y-153845500D01*
G75*
G02*
X96733500Y-153795500I0J50000D01*
G01*
X96733500Y-152495500D01*
G75*
G02*
X96783500Y-152445500I50000J0D01*
G01*
G37*
%TD*%
D24*
%TO.C,C3*%
X231615000Y-78388000D03*
G36*
G01*
X219565000Y-80388000D02*
X219565000Y-76388000D01*
G75*
G02*
X219615000Y-76338000I50000J0D01*
G01*
X223615000Y-76338000D01*
G75*
G02*
X223665000Y-76388000I0J-50000D01*
G01*
X223665000Y-80388000D01*
G75*
G02*
X223615000Y-80438000I-50000J0D01*
G01*
X219615000Y-80438000D01*
G75*
G02*
X219565000Y-80388000I0J50000D01*
G01*
G37*
%TD*%
%TO.C,C2*%
G36*
G01*
X271417000Y-76261000D02*
X271417000Y-80261000D01*
G75*
G02*
X271367000Y-80311000I-50000J0D01*
G01*
X267367000Y-80311000D01*
G75*
G02*
X267317000Y-80261000I0J50000D01*
G01*
X267317000Y-76261000D01*
G75*
G02*
X267367000Y-76211000I50000J0D01*
G01*
X271367000Y-76211000D01*
G75*
G02*
X271417000Y-76261000I0J-50000D01*
G01*
G37*
X259367000Y-78261000D03*
%TD*%
%TO.C,C1*%
X231615000Y-115853000D03*
G36*
G01*
X219565000Y-117853000D02*
X219565000Y-113853000D01*
G75*
G02*
X219615000Y-113803000I50000J0D01*
G01*
X223615000Y-113803000D01*
G75*
G02*
X223665000Y-113853000I0J-50000D01*
G01*
X223665000Y-117853000D01*
G75*
G02*
X223615000Y-117903000I-50000J0D01*
G01*
X219615000Y-117903000D01*
G75*
G02*
X219565000Y-117853000I0J50000D01*
G01*
G37*
%TD*%
%TO.C,U13*%
G36*
X76074157Y-161425673D02*
G01*
X76063249Y-161394499D01*
X76063249Y-159661500D01*
X76082075Y-159622408D01*
X76113249Y-159611500D01*
X79238250Y-159611500D01*
X79277342Y-159630326D01*
X79288250Y-159661500D01*
X79288250Y-160028000D01*
X80713249Y-160028001D01*
X80752341Y-160046827D01*
X80763249Y-160078001D01*
X80763249Y-160978000D01*
X80744422Y-161017092D01*
X80713248Y-161028000D01*
X79288249Y-161027999D01*
X79288249Y-161394499D01*
X79269423Y-161433591D01*
X79238249Y-161444499D01*
X76113249Y-161444499D01*
X76074157Y-161425673D01*
G37*
G36*
G01*
X80763249Y-158578000D02*
X80763249Y-159478000D01*
G75*
G02*
X80713249Y-159528000I-50000J0D01*
G01*
X79413249Y-159528000D01*
G75*
G02*
X79363249Y-159478000I0J50000D01*
G01*
X79363249Y-158578000D01*
G75*
G02*
X79413249Y-158528000I50000J0D01*
G01*
X80713249Y-158528000D01*
G75*
G02*
X80763249Y-158578000I0J-50000D01*
G01*
G37*
G36*
G01*
X80763249Y-161578000D02*
X80763249Y-162478000D01*
G75*
G02*
X80713249Y-162528000I-50000J0D01*
G01*
X79413249Y-162528000D01*
G75*
G02*
X79363249Y-162478000I0J50000D01*
G01*
X79363249Y-161578000D01*
G75*
G02*
X79413249Y-161528000I50000J0D01*
G01*
X80713249Y-161528000D01*
G75*
G02*
X80763249Y-161578000I0J-50000D01*
G01*
G37*
%TD*%
%TO.C,U5*%
G36*
G01*
X84447000Y-204108000D02*
X84447000Y-203308000D01*
G75*
G02*
X84497000Y-203258000I50000J0D01*
G01*
X85397000Y-203258000D01*
G75*
G02*
X85447000Y-203308000I0J-50000D01*
G01*
X85447000Y-204108000D01*
G75*
G02*
X85397000Y-204158000I-50000J0D01*
G01*
X84497000Y-204158000D01*
G75*
G02*
X84447000Y-204108000I0J50000D01*
G01*
G37*
G36*
G01*
X82447000Y-205058000D02*
X82447000Y-204258000D01*
G75*
G02*
X82497000Y-204208000I50000J0D01*
G01*
X83397000Y-204208000D01*
G75*
G02*
X83447000Y-204258000I0J-50000D01*
G01*
X83447000Y-205058000D01*
G75*
G02*
X83397000Y-205108000I-50000J0D01*
G01*
X82497000Y-205108000D01*
G75*
G02*
X82447000Y-205058000I0J50000D01*
G01*
G37*
G36*
G01*
X82447000Y-203158000D02*
X82447000Y-202358000D01*
G75*
G02*
X82497000Y-202308000I50000J0D01*
G01*
X83397000Y-202308000D01*
G75*
G02*
X83447000Y-202358000I0J-50000D01*
G01*
X83447000Y-203158000D01*
G75*
G02*
X83397000Y-203208000I-50000J0D01*
G01*
X82497000Y-203208000D01*
G75*
G02*
X82447000Y-203158000I0J50000D01*
G01*
G37*
%TD*%
%TO.C,U3*%
G36*
G01*
X78972000Y-190548000D02*
X78972000Y-190198000D01*
G75*
G02*
X79147000Y-190023000I175000J0D01*
G01*
X80847000Y-190023000D01*
G75*
G02*
X81022000Y-190198000I0J-175000D01*
G01*
X81022000Y-190548000D01*
G75*
G02*
X80847000Y-190723000I-175000J0D01*
G01*
X79147000Y-190723000D01*
G75*
G02*
X78972000Y-190548000I0J175000D01*
G01*
G37*
G36*
G01*
X78972000Y-191818000D02*
X78972000Y-191468000D01*
G75*
G02*
X79147000Y-191293000I175000J0D01*
G01*
X80847000Y-191293000D01*
G75*
G02*
X81022000Y-191468000I0J-175000D01*
G01*
X81022000Y-191818000D01*
G75*
G02*
X80847000Y-191993000I-175000J0D01*
G01*
X79147000Y-191993000D01*
G75*
G02*
X78972000Y-191818000I0J175000D01*
G01*
G37*
G36*
G01*
X78972000Y-193088000D02*
X78972000Y-192738000D01*
G75*
G02*
X79147000Y-192563000I175000J0D01*
G01*
X80847000Y-192563000D01*
G75*
G02*
X81022000Y-192738000I0J-175000D01*
G01*
X81022000Y-193088000D01*
G75*
G02*
X80847000Y-193263000I-175000J0D01*
G01*
X79147000Y-193263000D01*
G75*
G02*
X78972000Y-193088000I0J175000D01*
G01*
G37*
G36*
G01*
X78972000Y-194358000D02*
X78972000Y-194008000D01*
G75*
G02*
X79147000Y-193833000I175000J0D01*
G01*
X80847000Y-193833000D01*
G75*
G02*
X81022000Y-194008000I0J-175000D01*
G01*
X81022000Y-194358000D01*
G75*
G02*
X80847000Y-194533000I-175000J0D01*
G01*
X79147000Y-194533000D01*
G75*
G02*
X78972000Y-194358000I0J175000D01*
G01*
G37*
G36*
G01*
X78972000Y-195628000D02*
X78972000Y-195278000D01*
G75*
G02*
X79147000Y-195103000I175000J0D01*
G01*
X80847000Y-195103000D01*
G75*
G02*
X81022000Y-195278000I0J-175000D01*
G01*
X81022000Y-195628000D01*
G75*
G02*
X80847000Y-195803000I-175000J0D01*
G01*
X79147000Y-195803000D01*
G75*
G02*
X78972000Y-195628000I0J175000D01*
G01*
G37*
G36*
G01*
X78972000Y-196898000D02*
X78972000Y-196548000D01*
G75*
G02*
X79147000Y-196373000I175000J0D01*
G01*
X80847000Y-196373000D01*
G75*
G02*
X81022000Y-196548000I0J-175000D01*
G01*
X81022000Y-196898000D01*
G75*
G02*
X80847000Y-197073000I-175000J0D01*
G01*
X79147000Y-197073000D01*
G75*
G02*
X78972000Y-196898000I0J175000D01*
G01*
G37*
G36*
G01*
X78972000Y-198168000D02*
X78972000Y-197818000D01*
G75*
G02*
X79147000Y-197643000I175000J0D01*
G01*
X80847000Y-197643000D01*
G75*
G02*
X81022000Y-197818000I0J-175000D01*
G01*
X81022000Y-198168000D01*
G75*
G02*
X80847000Y-198343000I-175000J0D01*
G01*
X79147000Y-198343000D01*
G75*
G02*
X78972000Y-198168000I0J175000D01*
G01*
G37*
G36*
G01*
X74022000Y-198168000D02*
X74022000Y-197818000D01*
G75*
G02*
X74197000Y-197643000I175000J0D01*
G01*
X75897000Y-197643000D01*
G75*
G02*
X76072000Y-197818000I0J-175000D01*
G01*
X76072000Y-198168000D01*
G75*
G02*
X75897000Y-198343000I-175000J0D01*
G01*
X74197000Y-198343000D01*
G75*
G02*
X74022000Y-198168000I0J175000D01*
G01*
G37*
G36*
G01*
X74022000Y-196898000D02*
X74022000Y-196548000D01*
G75*
G02*
X74197000Y-196373000I175000J0D01*
G01*
X75897000Y-196373000D01*
G75*
G02*
X76072000Y-196548000I0J-175000D01*
G01*
X76072000Y-196898000D01*
G75*
G02*
X75897000Y-197073000I-175000J0D01*
G01*
X74197000Y-197073000D01*
G75*
G02*
X74022000Y-196898000I0J175000D01*
G01*
G37*
G36*
G01*
X74022000Y-195628000D02*
X74022000Y-195278000D01*
G75*
G02*
X74197000Y-195103000I175000J0D01*
G01*
X75897000Y-195103000D01*
G75*
G02*
X76072000Y-195278000I0J-175000D01*
G01*
X76072000Y-195628000D01*
G75*
G02*
X75897000Y-195803000I-175000J0D01*
G01*
X74197000Y-195803000D01*
G75*
G02*
X74022000Y-195628000I0J175000D01*
G01*
G37*
G36*
G01*
X74022000Y-194358000D02*
X74022000Y-194008000D01*
G75*
G02*
X74197000Y-193833000I175000J0D01*
G01*
X75897000Y-193833000D01*
G75*
G02*
X76072000Y-194008000I0J-175000D01*
G01*
X76072000Y-194358000D01*
G75*
G02*
X75897000Y-194533000I-175000J0D01*
G01*
X74197000Y-194533000D01*
G75*
G02*
X74022000Y-194358000I0J175000D01*
G01*
G37*
G36*
G01*
X74022000Y-193088000D02*
X74022000Y-192738000D01*
G75*
G02*
X74197000Y-192563000I175000J0D01*
G01*
X75897000Y-192563000D01*
G75*
G02*
X76072000Y-192738000I0J-175000D01*
G01*
X76072000Y-193088000D01*
G75*
G02*
X75897000Y-193263000I-175000J0D01*
G01*
X74197000Y-193263000D01*
G75*
G02*
X74022000Y-193088000I0J175000D01*
G01*
G37*
G36*
G01*
X74022000Y-191818000D02*
X74022000Y-191468000D01*
G75*
G02*
X74197000Y-191293000I175000J0D01*
G01*
X75897000Y-191293000D01*
G75*
G02*
X76072000Y-191468000I0J-175000D01*
G01*
X76072000Y-191818000D01*
G75*
G02*
X75897000Y-191993000I-175000J0D01*
G01*
X74197000Y-191993000D01*
G75*
G02*
X74022000Y-191818000I0J175000D01*
G01*
G37*
G36*
G01*
X74022000Y-190548000D02*
X74022000Y-190198000D01*
G75*
G02*
X74197000Y-190023000I175000J0D01*
G01*
X75897000Y-190023000D01*
G75*
G02*
X76072000Y-190198000I0J-175000D01*
G01*
X76072000Y-190548000D01*
G75*
G02*
X75897000Y-190723000I-175000J0D01*
G01*
X74197000Y-190723000D01*
G75*
G02*
X74022000Y-190548000I0J175000D01*
G01*
G37*
%TD*%
D11*
%TO.C,TP11*%
X308737000Y-126238000D03*
G36*
G01*
X309637000Y-127928000D02*
X309637000Y-129628000D01*
G75*
G02*
X309587000Y-129678000I-50000J0D01*
G01*
X307887000Y-129678000D01*
G75*
G02*
X307837000Y-129628000I0J50000D01*
G01*
X307837000Y-127928000D01*
G75*
G02*
X307887000Y-127878000I50000J0D01*
G01*
X309587000Y-127878000D01*
G75*
G02*
X309637000Y-127928000I0J-50000D01*
G01*
G37*
%TD*%
%TO.C,TP10*%
X212217000Y-208153000D03*
G36*
G01*
X210527000Y-209053000D02*
X208827000Y-209053000D01*
G75*
G02*
X208777000Y-209003000I0J50000D01*
G01*
X208777000Y-207303000D01*
G75*
G02*
X208827000Y-207253000I50000J0D01*
G01*
X210527000Y-207253000D01*
G75*
G02*
X210577000Y-207303000I0J-50000D01*
G01*
X210577000Y-209003000D01*
G75*
G02*
X210527000Y-209053000I-50000J0D01*
G01*
G37*
%TD*%
%TO.C,TP9*%
X209042000Y-185293000D03*
G36*
G01*
X209942000Y-186983000D02*
X209942000Y-188683000D01*
G75*
G02*
X209892000Y-188733000I-50000J0D01*
G01*
X208192000Y-188733000D01*
G75*
G02*
X208142000Y-188683000I0J50000D01*
G01*
X208142000Y-186983000D01*
G75*
G02*
X208192000Y-186933000I50000J0D01*
G01*
X209892000Y-186933000D01*
G75*
G02*
X209942000Y-186983000I0J-50000D01*
G01*
G37*
%TD*%
%TO.C,TP8*%
X234417000Y-209583000D03*
G36*
G01*
X232727000Y-210483000D02*
X231027000Y-210483000D01*
G75*
G02*
X230977000Y-210433000I0J50000D01*
G01*
X230977000Y-208733000D01*
G75*
G02*
X231027000Y-208683000I50000J0D01*
G01*
X232727000Y-208683000D01*
G75*
G02*
X232777000Y-208733000I0J-50000D01*
G01*
X232777000Y-210433000D01*
G75*
G02*
X232727000Y-210483000I-50000J0D01*
G01*
G37*
%TD*%
%TO.C,TP7*%
X245237000Y-148463000D03*
G36*
G01*
X246927000Y-147563000D02*
X248627000Y-147563000D01*
G75*
G02*
X248677000Y-147613000I0J-50000D01*
G01*
X248677000Y-149313000D01*
G75*
G02*
X248627000Y-149363000I-50000J0D01*
G01*
X246927000Y-149363000D01*
G75*
G02*
X246877000Y-149313000I0J50000D01*
G01*
X246877000Y-147613000D01*
G75*
G02*
X246927000Y-147563000I50000J0D01*
G01*
G37*
%TD*%
%TO.C,TP6*%
X266192000Y-149098000D03*
G36*
G01*
X265292000Y-147408000D02*
X265292000Y-145708000D01*
G75*
G02*
X265342000Y-145658000I50000J0D01*
G01*
X267042000Y-145658000D01*
G75*
G02*
X267092000Y-145708000I0J-50000D01*
G01*
X267092000Y-147408000D01*
G75*
G02*
X267042000Y-147458000I-50000J0D01*
G01*
X265342000Y-147458000D01*
G75*
G02*
X265292000Y-147408000I0J50000D01*
G01*
G37*
%TD*%
%TO.C,TP5*%
X209042000Y-168783000D03*
G36*
G01*
X208142000Y-167093000D02*
X208142000Y-165393000D01*
G75*
G02*
X208192000Y-165343000I50000J0D01*
G01*
X209892000Y-165343000D01*
G75*
G02*
X209942000Y-165393000I0J-50000D01*
G01*
X209942000Y-167093000D01*
G75*
G02*
X209892000Y-167143000I-50000J0D01*
G01*
X208192000Y-167143000D01*
G75*
G02*
X208142000Y-167093000I0J50000D01*
G01*
G37*
%TD*%
%TO.C,TP4*%
X209042000Y-149733000D03*
G36*
G01*
X208142000Y-148043000D02*
X208142000Y-146343000D01*
G75*
G02*
X208192000Y-146293000I50000J0D01*
G01*
X209892000Y-146293000D01*
G75*
G02*
X209942000Y-146343000I0J-50000D01*
G01*
X209942000Y-148043000D01*
G75*
G02*
X209892000Y-148093000I-50000J0D01*
G01*
X208192000Y-148093000D01*
G75*
G02*
X208142000Y-148043000I0J50000D01*
G01*
G37*
%TD*%
%TO.C,TP3*%
X225552000Y-146558000D03*
G36*
G01*
X227242000Y-145658000D02*
X228942000Y-145658000D01*
G75*
G02*
X228992000Y-145708000I0J-50000D01*
G01*
X228992000Y-147408000D01*
G75*
G02*
X228942000Y-147458000I-50000J0D01*
G01*
X227242000Y-147458000D01*
G75*
G02*
X227192000Y-147408000I0J50000D01*
G01*
X227192000Y-145708000D01*
G75*
G02*
X227242000Y-145658000I50000J0D01*
G01*
G37*
%TD*%
%TO.C,TP2*%
X94742000Y-186563000D03*
G36*
G01*
X93052000Y-187463000D02*
X91352000Y-187463000D01*
G75*
G02*
X91302000Y-187413000I0J50000D01*
G01*
X91302000Y-185713000D01*
G75*
G02*
X91352000Y-185663000I50000J0D01*
G01*
X93052000Y-185663000D01*
G75*
G02*
X93102000Y-185713000I0J-50000D01*
G01*
X93102000Y-187413000D01*
G75*
G02*
X93052000Y-187463000I-50000J0D01*
G01*
G37*
%TD*%
%TO.C,TP1*%
X247142000Y-131953000D03*
G36*
G01*
X245452000Y-132853000D02*
X243752000Y-132853000D01*
G75*
G02*
X243702000Y-132803000I0J50000D01*
G01*
X243702000Y-131103000D01*
G75*
G02*
X243752000Y-131053000I50000J0D01*
G01*
X245452000Y-131053000D01*
G75*
G02*
X245502000Y-131103000I0J-50000D01*
G01*
X245502000Y-132803000D01*
G75*
G02*
X245452000Y-132853000I-50000J0D01*
G01*
G37*
%TD*%
D15*
%TO.C,R25*%
X249047000Y-195453000D03*
D16*
X279527000Y-195453000D03*
%TD*%
D15*
%TO.C,R19*%
X249047000Y-206248000D03*
D16*
X279527000Y-206248000D03*
%TD*%
%TO.C,Q16*%
G36*
G01*
X91432000Y-196488000D02*
X91432000Y-195688000D01*
G75*
G02*
X91482000Y-195638000I50000J0D01*
G01*
X92382000Y-195638000D01*
G75*
G02*
X92432000Y-195688000I0J-50000D01*
G01*
X92432000Y-196488000D01*
G75*
G02*
X92382000Y-196538000I-50000J0D01*
G01*
X91482000Y-196538000D01*
G75*
G02*
X91432000Y-196488000I0J50000D01*
G01*
G37*
G36*
G01*
X89432000Y-197438000D02*
X89432000Y-196638000D01*
G75*
G02*
X89482000Y-196588000I50000J0D01*
G01*
X90382000Y-196588000D01*
G75*
G02*
X90432000Y-196638000I0J-50000D01*
G01*
X90432000Y-197438000D01*
G75*
G02*
X90382000Y-197488000I-50000J0D01*
G01*
X89482000Y-197488000D01*
G75*
G02*
X89432000Y-197438000I0J50000D01*
G01*
G37*
G36*
G01*
X89432000Y-195538000D02*
X89432000Y-194738000D01*
G75*
G02*
X89482000Y-194688000I50000J0D01*
G01*
X90382000Y-194688000D01*
G75*
G02*
X90432000Y-194738000I0J-50000D01*
G01*
X90432000Y-195538000D01*
G75*
G02*
X90382000Y-195588000I-50000J0D01*
G01*
X89482000Y-195588000D01*
G75*
G02*
X89432000Y-195538000I0J50000D01*
G01*
G37*
%TD*%
%TO.C,Q15*%
G36*
G01*
X91432000Y-192400500D02*
X91432000Y-191600500D01*
G75*
G02*
X91482000Y-191550500I50000J0D01*
G01*
X92382000Y-191550500D01*
G75*
G02*
X92432000Y-191600500I0J-50000D01*
G01*
X92432000Y-192400500D01*
G75*
G02*
X92382000Y-192450500I-50000J0D01*
G01*
X91482000Y-192450500D01*
G75*
G02*
X91432000Y-192400500I0J50000D01*
G01*
G37*
G36*
G01*
X89432000Y-193350500D02*
X89432000Y-192550500D01*
G75*
G02*
X89482000Y-192500500I50000J0D01*
G01*
X90382000Y-192500500D01*
G75*
G02*
X90432000Y-192550500I0J-50000D01*
G01*
X90432000Y-193350500D01*
G75*
G02*
X90382000Y-193400500I-50000J0D01*
G01*
X89482000Y-193400500D01*
G75*
G02*
X89432000Y-193350500I0J50000D01*
G01*
G37*
G36*
G01*
X89432000Y-191450500D02*
X89432000Y-190650500D01*
G75*
G02*
X89482000Y-190600500I50000J0D01*
G01*
X90382000Y-190600500D01*
G75*
G02*
X90432000Y-190650500I0J-50000D01*
G01*
X90432000Y-191450500D01*
G75*
G02*
X90382000Y-191500500I-50000J0D01*
G01*
X89482000Y-191500500D01*
G75*
G02*
X89432000Y-191450500I0J50000D01*
G01*
G37*
%TD*%
D11*
%TO.C,JP1*%
X85142000Y-186563000D03*
G36*
G01*
X86832000Y-185663000D02*
X88532000Y-185663000D01*
G75*
G02*
X88582000Y-185713000I0J-50000D01*
G01*
X88582000Y-187413000D01*
G75*
G02*
X88532000Y-187463000I-50000J0D01*
G01*
X86832000Y-187463000D01*
G75*
G02*
X86782000Y-187413000I0J50000D01*
G01*
X86782000Y-185713000D01*
G75*
G02*
X86832000Y-185663000I50000J0D01*
G01*
G37*
%TD*%
D23*
%TO.C,C37*%
X243332000Y-202913000D03*
X243332000Y-192913000D03*
%TD*%
D16*
%TO.C,C34*%
X294132000Y-136638000D03*
X294132000Y-151638000D03*
%TD*%
%TO.C,C32*%
X281432000Y-136638000D03*
X281432000Y-151638000D03*
%TD*%
%TO.C,C30*%
X300482000Y-136638000D03*
X300482000Y-151638000D03*
%TD*%
%TO.C,C28*%
X287782000Y-136638000D03*
X287782000Y-151638000D03*
%TD*%
%TO.C,C27*%
X275082000Y-136638000D03*
X275082000Y-151638000D03*
%TD*%
%TO.C,C25*%
X301117000Y-82663000D03*
X301117000Y-97663000D03*
%TD*%
D23*
%TO.C,C23*%
X243332000Y-174338000D03*
X243332000Y-164338000D03*
%TD*%
%TO.C,U12*%
G36*
G01*
X106703500Y-153165500D02*
X106703500Y-152815500D01*
G75*
G02*
X106878500Y-152640500I175000J0D01*
G01*
X108578500Y-152640500D01*
G75*
G02*
X108753500Y-152815500I0J-175000D01*
G01*
X108753500Y-153165500D01*
G75*
G02*
X108578500Y-153340500I-175000J0D01*
G01*
X106878500Y-153340500D01*
G75*
G02*
X106703500Y-153165500I0J175000D01*
G01*
G37*
G36*
G01*
X106703500Y-154435500D02*
X106703500Y-154085500D01*
G75*
G02*
X106878500Y-153910500I175000J0D01*
G01*
X108578500Y-153910500D01*
G75*
G02*
X108753500Y-154085500I0J-175000D01*
G01*
X108753500Y-154435500D01*
G75*
G02*
X108578500Y-154610500I-175000J0D01*
G01*
X106878500Y-154610500D01*
G75*
G02*
X106703500Y-154435500I0J175000D01*
G01*
G37*
G36*
G01*
X106703500Y-155705500D02*
X106703500Y-155355500D01*
G75*
G02*
X106878500Y-155180500I175000J0D01*
G01*
X108578500Y-155180500D01*
G75*
G02*
X108753500Y-155355500I0J-175000D01*
G01*
X108753500Y-155705500D01*
G75*
G02*
X108578500Y-155880500I-175000J0D01*
G01*
X106878500Y-155880500D01*
G75*
G02*
X106703500Y-155705500I0J175000D01*
G01*
G37*
G36*
G01*
X106703500Y-156975500D02*
X106703500Y-156625500D01*
G75*
G02*
X106878500Y-156450500I175000J0D01*
G01*
X108578500Y-156450500D01*
G75*
G02*
X108753500Y-156625500I0J-175000D01*
G01*
X108753500Y-156975500D01*
G75*
G02*
X108578500Y-157150500I-175000J0D01*
G01*
X106878500Y-157150500D01*
G75*
G02*
X106703500Y-156975500I0J175000D01*
G01*
G37*
G36*
G01*
X101753500Y-156975500D02*
X101753500Y-156625500D01*
G75*
G02*
X101928500Y-156450500I175000J0D01*
G01*
X103628500Y-156450500D01*
G75*
G02*
X103803500Y-156625500I0J-175000D01*
G01*
X103803500Y-156975500D01*
G75*
G02*
X103628500Y-157150500I-175000J0D01*
G01*
X101928500Y-157150500D01*
G75*
G02*
X101753500Y-156975500I0J175000D01*
G01*
G37*
G36*
G01*
X101753500Y-155705500D02*
X101753500Y-155355500D01*
G75*
G02*
X101928500Y-155180500I175000J0D01*
G01*
X103628500Y-155180500D01*
G75*
G02*
X103803500Y-155355500I0J-175000D01*
G01*
X103803500Y-155705500D01*
G75*
G02*
X103628500Y-155880500I-175000J0D01*
G01*
X101928500Y-155880500D01*
G75*
G02*
X101753500Y-155705500I0J175000D01*
G01*
G37*
G36*
G01*
X101753500Y-154435500D02*
X101753500Y-154085500D01*
G75*
G02*
X101928500Y-153910500I175000J0D01*
G01*
X103628500Y-153910500D01*
G75*
G02*
X103803500Y-154085500I0J-175000D01*
G01*
X103803500Y-154435500D01*
G75*
G02*
X103628500Y-154610500I-175000J0D01*
G01*
X101928500Y-154610500D01*
G75*
G02*
X101753500Y-154435500I0J175000D01*
G01*
G37*
G36*
G01*
X101753500Y-153165500D02*
X101753500Y-152815500D01*
G75*
G02*
X101928500Y-152640500I175000J0D01*
G01*
X103628500Y-152640500D01*
G75*
G02*
X103803500Y-152815500I0J-175000D01*
G01*
X103803500Y-153165500D01*
G75*
G02*
X103628500Y-153340500I-175000J0D01*
G01*
X101928500Y-153340500D01*
G75*
G02*
X101753500Y-153165500I0J175000D01*
G01*
G37*
%TD*%
D14*
%TO.C,U11*%
X172085000Y-198755000D03*
X164465000Y-206375000D03*
X172085000Y-201295000D03*
X164465000Y-203835000D03*
X172085000Y-203835000D03*
X164465000Y-201295000D03*
X172085000Y-206375000D03*
G36*
G01*
X163615000Y-199555000D02*
X163615000Y-197955000D01*
G75*
G02*
X163665000Y-197905000I50000J0D01*
G01*
X165265000Y-197905000D01*
G75*
G02*
X165315000Y-197955000I0J-50000D01*
G01*
X165315000Y-199555000D01*
G75*
G02*
X165265000Y-199605000I-50000J0D01*
G01*
X163665000Y-199605000D01*
G75*
G02*
X163615000Y-199555000I0J50000D01*
G01*
G37*
%TD*%
%TO.C,U10*%
X172085000Y-181610000D03*
X164465000Y-189230000D03*
X172085000Y-184150000D03*
X164465000Y-186690000D03*
X172085000Y-186690000D03*
X164465000Y-184150000D03*
X172085000Y-189230000D03*
G36*
G01*
X163615000Y-182410000D02*
X163615000Y-180810000D01*
G75*
G02*
X163665000Y-180760000I50000J0D01*
G01*
X165265000Y-180760000D01*
G75*
G02*
X165315000Y-180810000I0J-50000D01*
G01*
X165315000Y-182410000D01*
G75*
G02*
X165265000Y-182460000I-50000J0D01*
G01*
X163665000Y-182460000D01*
G75*
G02*
X163615000Y-182410000I0J50000D01*
G01*
G37*
%TD*%
%TO.C,U9*%
X172085000Y-163830000D03*
X164465000Y-171450000D03*
X172085000Y-166370000D03*
X164465000Y-168910000D03*
X172085000Y-168910000D03*
X164465000Y-166370000D03*
X172085000Y-171450000D03*
G36*
G01*
X163615000Y-164630000D02*
X163615000Y-163030000D01*
G75*
G02*
X163665000Y-162980000I50000J0D01*
G01*
X165265000Y-162980000D01*
G75*
G02*
X165315000Y-163030000I0J-50000D01*
G01*
X165315000Y-164630000D01*
G75*
G02*
X165265000Y-164680000I-50000J0D01*
G01*
X163665000Y-164680000D01*
G75*
G02*
X163615000Y-164630000I0J50000D01*
G01*
G37*
%TD*%
%TO.C,U4*%
G36*
G01*
X75852000Y-174355496D02*
X75852000Y-176135496D01*
G75*
G02*
X75802000Y-176185496I-50000J0D01*
G01*
X74282000Y-176185496D01*
G75*
G02*
X74232000Y-176135496I0J50000D01*
G01*
X74232000Y-174355496D01*
G75*
G02*
X74282000Y-174305496I50000J0D01*
G01*
X75802000Y-174305496D01*
G75*
G02*
X75852000Y-174355496I0J-50000D01*
G01*
G37*
G36*
G01*
X75852000Y-171815496D02*
X75852000Y-173595496D01*
G75*
G02*
X75802000Y-173645496I-50000J0D01*
G01*
X74282000Y-173645496D01*
G75*
G02*
X74232000Y-173595496I0J50000D01*
G01*
X74232000Y-171815496D01*
G75*
G02*
X74282000Y-171765496I50000J0D01*
G01*
X75802000Y-171765496D01*
G75*
G02*
X75852000Y-171815496I0J-50000D01*
G01*
G37*
G36*
G01*
X75852000Y-169275496D02*
X75852000Y-171055496D01*
G75*
G02*
X75802000Y-171105496I-50000J0D01*
G01*
X74282000Y-171105496D01*
G75*
G02*
X74232000Y-171055496I0J50000D01*
G01*
X74232000Y-169275496D01*
G75*
G02*
X74282000Y-169225496I50000J0D01*
G01*
X75802000Y-169225496D01*
G75*
G02*
X75852000Y-169275496I0J-50000D01*
G01*
G37*
G36*
G01*
X75852000Y-166735496D02*
X75852000Y-168515496D01*
G75*
G02*
X75802000Y-168565496I-50000J0D01*
G01*
X74282000Y-168565496D01*
G75*
G02*
X74232000Y-168515496I0J50000D01*
G01*
X74232000Y-166735496D01*
G75*
G02*
X74282000Y-166685496I50000J0D01*
G01*
X75802000Y-166685496D01*
G75*
G02*
X75852000Y-166735496I0J-50000D01*
G01*
G37*
G36*
G01*
X85372000Y-166735496D02*
X85372000Y-168515496D01*
G75*
G02*
X85322000Y-168565496I-50000J0D01*
G01*
X83802000Y-168565496D01*
G75*
G02*
X83752000Y-168515496I0J50000D01*
G01*
X83752000Y-166735496D01*
G75*
G02*
X83802000Y-166685496I50000J0D01*
G01*
X85322000Y-166685496D01*
G75*
G02*
X85372000Y-166735496I0J-50000D01*
G01*
G37*
G36*
G01*
X85372000Y-169275496D02*
X85372000Y-171055496D01*
G75*
G02*
X85322000Y-171105496I-50000J0D01*
G01*
X83802000Y-171105496D01*
G75*
G02*
X83752000Y-171055496I0J50000D01*
G01*
X83752000Y-169275496D01*
G75*
G02*
X83802000Y-169225496I50000J0D01*
G01*
X85322000Y-169225496D01*
G75*
G02*
X85372000Y-169275496I0J-50000D01*
G01*
G37*
G36*
G01*
X85372000Y-171830496D02*
X85372000Y-173580496D01*
G75*
G02*
X85322000Y-173630496I-50000J0D01*
G01*
X83802000Y-173630496D01*
G75*
G02*
X83752000Y-173580496I0J50000D01*
G01*
X83752000Y-171830496D01*
G75*
G02*
X83802000Y-171780496I50000J0D01*
G01*
X85322000Y-171780496D01*
G75*
G02*
X85372000Y-171830496I0J-50000D01*
G01*
G37*
G36*
G01*
X85372000Y-174355496D02*
X85372000Y-176135496D01*
G75*
G02*
X85322000Y-176185496I-50000J0D01*
G01*
X83802000Y-176185496D01*
G75*
G02*
X83752000Y-176135496I0J50000D01*
G01*
X83752000Y-174355496D01*
G75*
G02*
X83802000Y-174305496I50000J0D01*
G01*
X85322000Y-174305496D01*
G75*
G02*
X85372000Y-174355496I0J-50000D01*
G01*
G37*
%TD*%
%TO.C,U2*%
X175260000Y-130810000D03*
X167640000Y-135890000D03*
X175260000Y-133350000D03*
X167640000Y-133350000D03*
X175260000Y-135890000D03*
G36*
G01*
X166790000Y-131610000D02*
X166790000Y-130010000D01*
G75*
G02*
X166840000Y-129960000I50000J0D01*
G01*
X168440000Y-129960000D01*
G75*
G02*
X168490000Y-130010000I0J-50000D01*
G01*
X168490000Y-131610000D01*
G75*
G02*
X168440000Y-131660000I-50000J0D01*
G01*
X166840000Y-131660000D01*
G75*
G02*
X166790000Y-131610000I0J50000D01*
G01*
G37*
%TD*%
%TO.C,U1*%
X175260000Y-118745000D03*
X167640000Y-123825000D03*
X175260000Y-121285000D03*
X167640000Y-121285000D03*
X175260000Y-123825000D03*
G36*
G01*
X166790000Y-119545000D02*
X166790000Y-117945000D01*
G75*
G02*
X166840000Y-117895000I50000J0D01*
G01*
X168440000Y-117895000D01*
G75*
G02*
X168490000Y-117945000I0J-50000D01*
G01*
X168490000Y-119545000D01*
G75*
G02*
X168440000Y-119595000I-50000J0D01*
G01*
X166840000Y-119595000D01*
G75*
G02*
X166790000Y-119545000I0J50000D01*
G01*
G37*
%TD*%
D13*
%TO.C,T4*%
X117635000Y-84295000D03*
X122635000Y-84295000D03*
X132635000Y-84295000D03*
X137635000Y-84295000D03*
X137635000Y-64295000D03*
X117635000Y-64295000D03*
%TD*%
%TO.C,T3*%
X152560000Y-84295000D03*
X157560000Y-84295000D03*
X167560000Y-84295000D03*
X172560000Y-84295000D03*
X172560000Y-64295000D03*
X152560000Y-64295000D03*
%TD*%
D17*
%TO.C,R46*%
X113665000Y-97750000D03*
D18*
X113665000Y-92670000D03*
%TD*%
D17*
%TO.C,R45*%
X126365000Y-92710000D03*
D18*
X126365000Y-97790000D03*
%TD*%
D17*
%TO.C,R44*%
X130810000Y-97750000D03*
D18*
X130810000Y-92670000D03*
%TD*%
D17*
%TO.C,R43*%
X143510000Y-92710000D03*
D18*
X143510000Y-97790000D03*
%TD*%
D17*
%TO.C,R42*%
X147955000Y-97750000D03*
D18*
X147955000Y-92670000D03*
%TD*%
D17*
%TO.C,R41*%
X160655000Y-92710000D03*
D18*
X160655000Y-97790000D03*
%TD*%
D17*
%TO.C,R40*%
X165100000Y-97790000D03*
D18*
X165100000Y-92710000D03*
%TD*%
D17*
%TO.C,R39*%
X177800000Y-92710000D03*
D18*
X177800000Y-97790000D03*
%TD*%
D17*
%TO.C,R38*%
X96012000Y-120165250D03*
D18*
X96012000Y-125245250D03*
%TD*%
D17*
%TO.C,R37*%
X116332000Y-125080000D03*
D18*
X116332000Y-120000000D03*
%TD*%
D14*
%TO.C,R32*%
X164592000Y-210058000D03*
D26*
X174752000Y-210058000D03*
%TD*%
D14*
%TO.C,R31*%
X164592000Y-192913000D03*
D26*
X174752000Y-192913000D03*
%TD*%
%TO.C,R24*%
G36*
G01*
X228997000Y-152586483D02*
X228997000Y-149673517D01*
G75*
G02*
X229265517Y-149405000I268517J0D01*
G01*
X230178483Y-149405000D01*
G75*
G02*
X230447000Y-149673517I0J-268517D01*
G01*
X230447000Y-152586483D01*
G75*
G02*
X230178483Y-152855000I-268517J0D01*
G01*
X229265517Y-152855000D01*
G75*
G02*
X228997000Y-152586483I0J268517D01*
G01*
G37*
G36*
G01*
X223197000Y-152586483D02*
X223197000Y-149673517D01*
G75*
G02*
X223465517Y-149405000I268517J0D01*
G01*
X224378483Y-149405000D01*
G75*
G02*
X224647000Y-149673517I0J-268517D01*
G01*
X224647000Y-152586483D01*
G75*
G02*
X224378483Y-152855000I-268517J0D01*
G01*
X223465517Y-152855000D01*
G75*
G02*
X223197000Y-152586483I0J268517D01*
G01*
G37*
%TD*%
D14*
%TO.C,R15*%
X174625000Y-175133000D03*
D26*
X164465000Y-175133000D03*
%TD*%
D14*
%TO.C,R14*%
X174752000Y-157353000D03*
D26*
X164592000Y-157353000D03*
%TD*%
%TO.C,Q4*%
G36*
G01*
X205450000Y-208110000D02*
X200950000Y-208110000D01*
G75*
G02*
X200900000Y-208060000I0J50000D01*
G01*
X200900000Y-205560000D01*
G75*
G02*
X200950000Y-205510000I50000J0D01*
G01*
X205450000Y-205510000D01*
G75*
G02*
X205500000Y-205560000I0J-50000D01*
G01*
X205500000Y-208060000D01*
G75*
G02*
X205450000Y-208110000I-50000J0D01*
G01*
G37*
D27*
X203200000Y-201360000D03*
X203200000Y-195910000D03*
%TD*%
%TO.C,Q3*%
X203200000Y-176910000D03*
X203200000Y-182360000D03*
G36*
G01*
X205450000Y-189110000D02*
X200950000Y-189110000D01*
G75*
G02*
X200900000Y-189060000I0J50000D01*
G01*
X200900000Y-186560000D01*
G75*
G02*
X200950000Y-186510000I50000J0D01*
G01*
X205450000Y-186510000D01*
G75*
G02*
X205500000Y-186560000I0J-50000D01*
G01*
X205500000Y-189060000D01*
G75*
G02*
X205450000Y-189110000I-50000J0D01*
G01*
G37*
%TD*%
%TO.C,Q2*%
X203200000Y-157910000D03*
X203200000Y-163360000D03*
G36*
G01*
X205450000Y-170110000D02*
X200950000Y-170110000D01*
G75*
G02*
X200900000Y-170060000I0J50000D01*
G01*
X200900000Y-167560000D01*
G75*
G02*
X200950000Y-167510000I50000J0D01*
G01*
X205450000Y-167510000D01*
G75*
G02*
X205500000Y-167560000I0J-50000D01*
G01*
X205500000Y-170060000D01*
G75*
G02*
X205450000Y-170110000I-50000J0D01*
G01*
G37*
%TD*%
%TO.C,Q1*%
X203200000Y-138910000D03*
X203200000Y-144360000D03*
G36*
G01*
X205450000Y-151110000D02*
X200950000Y-151110000D01*
G75*
G02*
X200900000Y-151060000I0J50000D01*
G01*
X200900000Y-148560000D01*
G75*
G02*
X200950000Y-148510000I50000J0D01*
G01*
X205450000Y-148510000D01*
G75*
G02*
X205500000Y-148560000I0J-50000D01*
G01*
X205500000Y-151060000D01*
G75*
G02*
X205450000Y-151110000I-50000J0D01*
G01*
G37*
%TD*%
D19*
%TO.C,J3*%
X312547000Y-116713000D03*
X312547000Y-109093000D03*
X312547000Y-101473000D03*
%TD*%
%TO.C,J1*%
X312547000Y-88773000D03*
X312547000Y-81153000D03*
X312547000Y-73533000D03*
%TD*%
D14*
%TO.C,D25*%
X118745000Y-90170000D03*
G36*
G01*
X119545000Y-98640000D02*
X117945000Y-98640000D01*
G75*
G02*
X117895000Y-98590000I0J50000D01*
G01*
X117895000Y-96990000D01*
G75*
G02*
X117945000Y-96940000I50000J0D01*
G01*
X119545000Y-96940000D01*
G75*
G02*
X119595000Y-96990000I0J-50000D01*
G01*
X119595000Y-98590000D01*
G75*
G02*
X119545000Y-98640000I-50000J0D01*
G01*
G37*
%TD*%
%TO.C,D24*%
X121285000Y-97790000D03*
G36*
G01*
X120485000Y-89320000D02*
X122085000Y-89320000D01*
G75*
G02*
X122135000Y-89370000I0J-50000D01*
G01*
X122135000Y-90970000D01*
G75*
G02*
X122085000Y-91020000I-50000J0D01*
G01*
X120485000Y-91020000D01*
G75*
G02*
X120435000Y-90970000I0J50000D01*
G01*
X120435000Y-89370000D01*
G75*
G02*
X120485000Y-89320000I50000J0D01*
G01*
G37*
%TD*%
%TO.C,D23*%
X135890000Y-90130000D03*
G36*
G01*
X136690000Y-98600000D02*
X135090000Y-98600000D01*
G75*
G02*
X135040000Y-98550000I0J50000D01*
G01*
X135040000Y-96950000D01*
G75*
G02*
X135090000Y-96900000I50000J0D01*
G01*
X136690000Y-96900000D01*
G75*
G02*
X136740000Y-96950000I0J-50000D01*
G01*
X136740000Y-98550000D01*
G75*
G02*
X136690000Y-98600000I-50000J0D01*
G01*
G37*
%TD*%
%TO.C,D22*%
X138430000Y-97790000D03*
G36*
G01*
X137630000Y-89320000D02*
X139230000Y-89320000D01*
G75*
G02*
X139280000Y-89370000I0J-50000D01*
G01*
X139280000Y-90970000D01*
G75*
G02*
X139230000Y-91020000I-50000J0D01*
G01*
X137630000Y-91020000D01*
G75*
G02*
X137580000Y-90970000I0J50000D01*
G01*
X137580000Y-89370000D01*
G75*
G02*
X137630000Y-89320000I50000J0D01*
G01*
G37*
%TD*%
%TO.C,D21*%
X153035000Y-90170000D03*
G36*
G01*
X153835000Y-98640000D02*
X152235000Y-98640000D01*
G75*
G02*
X152185000Y-98590000I0J50000D01*
G01*
X152185000Y-96990000D01*
G75*
G02*
X152235000Y-96940000I50000J0D01*
G01*
X153835000Y-96940000D01*
G75*
G02*
X153885000Y-96990000I0J-50000D01*
G01*
X153885000Y-98590000D01*
G75*
G02*
X153835000Y-98640000I-50000J0D01*
G01*
G37*
%TD*%
%TO.C,D20*%
X155575000Y-97790000D03*
G36*
G01*
X154775000Y-89320000D02*
X156375000Y-89320000D01*
G75*
G02*
X156425000Y-89370000I0J-50000D01*
G01*
X156425000Y-90970000D01*
G75*
G02*
X156375000Y-91020000I-50000J0D01*
G01*
X154775000Y-91020000D01*
G75*
G02*
X154725000Y-90970000I0J50000D01*
G01*
X154725000Y-89370000D01*
G75*
G02*
X154775000Y-89320000I50000J0D01*
G01*
G37*
%TD*%
%TO.C,D19*%
X170180000Y-90170000D03*
G36*
G01*
X170980000Y-98640000D02*
X169380000Y-98640000D01*
G75*
G02*
X169330000Y-98590000I0J50000D01*
G01*
X169330000Y-96990000D01*
G75*
G02*
X169380000Y-96940000I50000J0D01*
G01*
X170980000Y-96940000D01*
G75*
G02*
X171030000Y-96990000I0J-50000D01*
G01*
X171030000Y-98590000D01*
G75*
G02*
X170980000Y-98640000I-50000J0D01*
G01*
G37*
%TD*%
%TO.C,D18*%
X172720000Y-97790000D03*
G36*
G01*
X171920000Y-89320000D02*
X173520000Y-89320000D01*
G75*
G02*
X173570000Y-89370000I0J-50000D01*
G01*
X173570000Y-90970000D01*
G75*
G02*
X173520000Y-91020000I-50000J0D01*
G01*
X171920000Y-91020000D01*
G75*
G02*
X171870000Y-90970000I0J50000D01*
G01*
X171870000Y-89370000D01*
G75*
G02*
X171920000Y-89320000I50000J0D01*
G01*
G37*
%TD*%
%TO.C,D17*%
X116205000Y-97750000D03*
G36*
G01*
X115405000Y-89280000D02*
X117005000Y-89280000D01*
G75*
G02*
X117055000Y-89330000I0J-50000D01*
G01*
X117055000Y-90930000D01*
G75*
G02*
X117005000Y-90980000I-50000J0D01*
G01*
X115405000Y-90980000D01*
G75*
G02*
X115355000Y-90930000I0J50000D01*
G01*
X115355000Y-89330000D01*
G75*
G02*
X115405000Y-89280000I50000J0D01*
G01*
G37*
%TD*%
%TO.C,D16*%
X123825000Y-90130000D03*
G36*
G01*
X124625000Y-98600000D02*
X123025000Y-98600000D01*
G75*
G02*
X122975000Y-98550000I0J50000D01*
G01*
X122975000Y-96950000D01*
G75*
G02*
X123025000Y-96900000I50000J0D01*
G01*
X124625000Y-96900000D01*
G75*
G02*
X124675000Y-96950000I0J-50000D01*
G01*
X124675000Y-98550000D01*
G75*
G02*
X124625000Y-98600000I-50000J0D01*
G01*
G37*
%TD*%
%TO.C,D15*%
X133350000Y-97750000D03*
G36*
G01*
X132550000Y-89280000D02*
X134150000Y-89280000D01*
G75*
G02*
X134200000Y-89330000I0J-50000D01*
G01*
X134200000Y-90930000D01*
G75*
G02*
X134150000Y-90980000I-50000J0D01*
G01*
X132550000Y-90980000D01*
G75*
G02*
X132500000Y-90930000I0J50000D01*
G01*
X132500000Y-89330000D01*
G75*
G02*
X132550000Y-89280000I50000J0D01*
G01*
G37*
%TD*%
%TO.C,D14*%
X140970000Y-90170000D03*
G36*
G01*
X141770000Y-98640000D02*
X140170000Y-98640000D01*
G75*
G02*
X140120000Y-98590000I0J50000D01*
G01*
X140120000Y-96990000D01*
G75*
G02*
X140170000Y-96940000I50000J0D01*
G01*
X141770000Y-96940000D01*
G75*
G02*
X141820000Y-96990000I0J-50000D01*
G01*
X141820000Y-98590000D01*
G75*
G02*
X141770000Y-98640000I-50000J0D01*
G01*
G37*
%TD*%
%TO.C,D13*%
X150495000Y-97750000D03*
G36*
G01*
X149695000Y-89280000D02*
X151295000Y-89280000D01*
G75*
G02*
X151345000Y-89330000I0J-50000D01*
G01*
X151345000Y-90930000D01*
G75*
G02*
X151295000Y-90980000I-50000J0D01*
G01*
X149695000Y-90980000D01*
G75*
G02*
X149645000Y-90930000I0J50000D01*
G01*
X149645000Y-89330000D01*
G75*
G02*
X149695000Y-89280000I50000J0D01*
G01*
G37*
%TD*%
%TO.C,D12*%
X158115000Y-90130000D03*
G36*
G01*
X158915000Y-98600000D02*
X157315000Y-98600000D01*
G75*
G02*
X157265000Y-98550000I0J50000D01*
G01*
X157265000Y-96950000D01*
G75*
G02*
X157315000Y-96900000I50000J0D01*
G01*
X158915000Y-96900000D01*
G75*
G02*
X158965000Y-96950000I0J-50000D01*
G01*
X158965000Y-98550000D01*
G75*
G02*
X158915000Y-98600000I-50000J0D01*
G01*
G37*
%TD*%
%TO.C,D11*%
X167640000Y-97790000D03*
G36*
G01*
X166840000Y-89320000D02*
X168440000Y-89320000D01*
G75*
G02*
X168490000Y-89370000I0J-50000D01*
G01*
X168490000Y-90970000D01*
G75*
G02*
X168440000Y-91020000I-50000J0D01*
G01*
X166840000Y-91020000D01*
G75*
G02*
X166790000Y-90970000I0J50000D01*
G01*
X166790000Y-89370000D01*
G75*
G02*
X166840000Y-89320000I50000J0D01*
G01*
G37*
%TD*%
%TO.C,D10*%
X175260000Y-90170000D03*
G36*
G01*
X176060000Y-98640000D02*
X174460000Y-98640000D01*
G75*
G02*
X174410000Y-98590000I0J50000D01*
G01*
X174410000Y-96990000D01*
G75*
G02*
X174460000Y-96940000I50000J0D01*
G01*
X176060000Y-96940000D01*
G75*
G02*
X176110000Y-96990000I0J-50000D01*
G01*
X176110000Y-98590000D01*
G75*
G02*
X176060000Y-98640000I-50000J0D01*
G01*
G37*
%TD*%
%TO.C,D9*%
X104267000Y-127785250D03*
G36*
G01*
X103467000Y-119315250D02*
X105067000Y-119315250D01*
G75*
G02*
X105117000Y-119365250I0J-50000D01*
G01*
X105117000Y-120965250D01*
G75*
G02*
X105067000Y-121015250I-50000J0D01*
G01*
X103467000Y-121015250D01*
G75*
G02*
X103417000Y-120965250I0J50000D01*
G01*
X103417000Y-119365250D01*
G75*
G02*
X103467000Y-119315250I50000J0D01*
G01*
G37*
%TD*%
%TO.C,D8*%
X107442000Y-120165250D03*
G36*
G01*
X108242000Y-128635250D02*
X106642000Y-128635250D01*
G75*
G02*
X106592000Y-128585250I0J50000D01*
G01*
X106592000Y-126985250D01*
G75*
G02*
X106642000Y-126935250I50000J0D01*
G01*
X108242000Y-126935250D01*
G75*
G02*
X108292000Y-126985250I0J-50000D01*
G01*
X108292000Y-128585250D01*
G75*
G02*
X108242000Y-128635250I-50000J0D01*
G01*
G37*
%TD*%
%TO.C,D7*%
G36*
G01*
X85982000Y-127965250D02*
X83182000Y-127965250D01*
G75*
G02*
X83132000Y-127915250I0J50000D01*
G01*
X83132000Y-125115250D01*
G75*
G02*
X83182000Y-125065250I50000J0D01*
G01*
X85982000Y-125065250D01*
G75*
G02*
X86032000Y-125115250I0J-50000D01*
G01*
X86032000Y-127915250D01*
G75*
G02*
X85982000Y-127965250I-50000J0D01*
G01*
G37*
D28*
X84582000Y-121435250D03*
X84582000Y-116355250D03*
X84582000Y-111275250D03*
%TD*%
D29*
%TO.C,D6*%
X92837000Y-129690250D03*
G36*
G01*
X91937000Y-118580250D02*
X93737000Y-118580250D01*
G75*
G02*
X93787000Y-118630250I0J-50000D01*
G01*
X93787000Y-120430250D01*
G75*
G02*
X93737000Y-120480250I-50000J0D01*
G01*
X91937000Y-120480250D01*
G75*
G02*
X91887000Y-120430250I0J50000D01*
G01*
X91887000Y-118630250D01*
G75*
G02*
X91937000Y-118580250I50000J0D01*
G01*
G37*
%TD*%
%TO.C,D5*%
X115062000Y-115443000D03*
G36*
G01*
X126172000Y-114543000D02*
X126172000Y-116343000D01*
G75*
G02*
X126122000Y-116393000I-50000J0D01*
G01*
X124322000Y-116393000D01*
G75*
G02*
X124272000Y-116343000I0J50000D01*
G01*
X124272000Y-114543000D01*
G75*
G02*
X124322000Y-114493000I50000J0D01*
G01*
X126122000Y-114493000D01*
G75*
G02*
X126172000Y-114543000I0J-50000D01*
G01*
G37*
%TD*%
D27*
%TO.C,D4*%
X203200000Y-119910000D03*
G36*
G01*
X205450000Y-132110000D02*
X200950000Y-132110000D01*
G75*
G02*
X200900000Y-132060000I0J50000D01*
G01*
X200900000Y-129560000D01*
G75*
G02*
X200950000Y-129510000I50000J0D01*
G01*
X205450000Y-129510000D01*
G75*
G02*
X205500000Y-129560000I0J-50000D01*
G01*
X205500000Y-132060000D01*
G75*
G02*
X205450000Y-132110000I-50000J0D01*
G01*
G37*
%TD*%
%TO.C,D3*%
X203200000Y-81910000D03*
X203200000Y-87360000D03*
G36*
G01*
X205450000Y-94110000D02*
X200950000Y-94110000D01*
G75*
G02*
X200900000Y-94060000I0J50000D01*
G01*
X200900000Y-91560000D01*
G75*
G02*
X200950000Y-91510000I50000J0D01*
G01*
X205450000Y-91510000D01*
G75*
G02*
X205500000Y-91560000I0J-50000D01*
G01*
X205500000Y-94060000D01*
G75*
G02*
X205450000Y-94110000I-50000J0D01*
G01*
G37*
%TD*%
%TO.C,D2*%
X203200000Y-100910000D03*
G36*
G01*
X205450000Y-113110000D02*
X200950000Y-113110000D01*
G75*
G02*
X200900000Y-113060000I0J50000D01*
G01*
X200900000Y-110560000D01*
G75*
G02*
X200950000Y-110510000I50000J0D01*
G01*
X205450000Y-110510000D01*
G75*
G02*
X205500000Y-110560000I0J-50000D01*
G01*
X205500000Y-113060000D01*
G75*
G02*
X205450000Y-113110000I-50000J0D01*
G01*
G37*
%TD*%
%TO.C,D1*%
X203200000Y-62910000D03*
X203200000Y-68360000D03*
G36*
G01*
X205450000Y-75110000D02*
X200950000Y-75110000D01*
G75*
G02*
X200900000Y-75060000I0J50000D01*
G01*
X200900000Y-72560000D01*
G75*
G02*
X200950000Y-72510000I50000J0D01*
G01*
X205450000Y-72510000D01*
G75*
G02*
X205500000Y-72560000I0J-50000D01*
G01*
X205500000Y-75060000D01*
G75*
G02*
X205450000Y-75110000I-50000J0D01*
G01*
G37*
%TD*%
D26*
%TO.C,C58*%
X115610000Y-102235000D03*
G36*
G01*
X118960000Y-101435000D02*
X118960000Y-103035000D01*
G75*
G02*
X118910000Y-103085000I-50000J0D01*
G01*
X117310000Y-103085000D01*
G75*
G02*
X117260000Y-103035000I0J50000D01*
G01*
X117260000Y-101435000D01*
G75*
G02*
X117310000Y-101385000I50000J0D01*
G01*
X118910000Y-101385000D01*
G75*
G02*
X118960000Y-101435000I0J-50000D01*
G01*
G37*
%TD*%
%TO.C,C57*%
X122595000Y-102235000D03*
G36*
G01*
X125945000Y-101435000D02*
X125945000Y-103035000D01*
G75*
G02*
X125895000Y-103085000I-50000J0D01*
G01*
X124295000Y-103085000D01*
G75*
G02*
X124245000Y-103035000I0J50000D01*
G01*
X124245000Y-101435000D01*
G75*
G02*
X124295000Y-101385000I50000J0D01*
G01*
X125895000Y-101385000D01*
G75*
G02*
X125945000Y-101435000I0J-50000D01*
G01*
G37*
%TD*%
%TO.C,C56*%
X132120000Y-102235000D03*
G36*
G01*
X135470000Y-101435000D02*
X135470000Y-103035000D01*
G75*
G02*
X135420000Y-103085000I-50000J0D01*
G01*
X133820000Y-103085000D01*
G75*
G02*
X133770000Y-103035000I0J50000D01*
G01*
X133770000Y-101435000D01*
G75*
G02*
X133820000Y-101385000I50000J0D01*
G01*
X135420000Y-101385000D01*
G75*
G02*
X135470000Y-101435000I0J-50000D01*
G01*
G37*
%TD*%
%TO.C,C55*%
X139105000Y-102362000D03*
G36*
G01*
X142455000Y-101562000D02*
X142455000Y-103162000D01*
G75*
G02*
X142405000Y-103212000I-50000J0D01*
G01*
X140805000Y-103212000D01*
G75*
G02*
X140755000Y-103162000I0J50000D01*
G01*
X140755000Y-101562000D01*
G75*
G02*
X140805000Y-101512000I50000J0D01*
G01*
X142405000Y-101512000D01*
G75*
G02*
X142455000Y-101562000I0J-50000D01*
G01*
G37*
%TD*%
%TO.C,C54*%
X149265000Y-102235000D03*
G36*
G01*
X152615000Y-101435000D02*
X152615000Y-103035000D01*
G75*
G02*
X152565000Y-103085000I-50000J0D01*
G01*
X150965000Y-103085000D01*
G75*
G02*
X150915000Y-103035000I0J50000D01*
G01*
X150915000Y-101435000D01*
G75*
G02*
X150965000Y-101385000I50000J0D01*
G01*
X152565000Y-101385000D01*
G75*
G02*
X152615000Y-101435000I0J-50000D01*
G01*
G37*
%TD*%
%TO.C,C53*%
X156250000Y-102235000D03*
G36*
G01*
X159600000Y-101435000D02*
X159600000Y-103035000D01*
G75*
G02*
X159550000Y-103085000I-50000J0D01*
G01*
X157950000Y-103085000D01*
G75*
G02*
X157900000Y-103035000I0J50000D01*
G01*
X157900000Y-101435000D01*
G75*
G02*
X157950000Y-101385000I50000J0D01*
G01*
X159550000Y-101385000D01*
G75*
G02*
X159600000Y-101435000I0J-50000D01*
G01*
G37*
%TD*%
%TO.C,C52*%
X166410000Y-102362000D03*
G36*
G01*
X169760000Y-101562000D02*
X169760000Y-103162000D01*
G75*
G02*
X169710000Y-103212000I-50000J0D01*
G01*
X168110000Y-103212000D01*
G75*
G02*
X168060000Y-103162000I0J50000D01*
G01*
X168060000Y-101562000D01*
G75*
G02*
X168110000Y-101512000I50000J0D01*
G01*
X169710000Y-101512000D01*
G75*
G02*
X169760000Y-101562000I0J-50000D01*
G01*
G37*
%TD*%
%TO.C,C51*%
X173395000Y-102362000D03*
G36*
G01*
X176745000Y-101562000D02*
X176745000Y-103162000D01*
G75*
G02*
X176695000Y-103212000I-50000J0D01*
G01*
X175095000Y-103212000D01*
G75*
G02*
X175045000Y-103162000I0J50000D01*
G01*
X175045000Y-101562000D01*
G75*
G02*
X175095000Y-101512000I50000J0D01*
G01*
X176695000Y-101512000D01*
G75*
G02*
X176745000Y-101562000I0J-50000D01*
G01*
G37*
%TD*%
D16*
%TO.C,C47*%
X71882000Y-111355250D03*
G36*
G01*
X73082000Y-117605250D02*
X70682000Y-117605250D01*
G75*
G02*
X70632000Y-117555250I0J50000D01*
G01*
X70632000Y-115155250D01*
G75*
G02*
X70682000Y-115105250I50000J0D01*
G01*
X73082000Y-115105250D01*
G75*
G02*
X73132000Y-115155250I0J-50000D01*
G01*
X73132000Y-117555250D01*
G75*
G02*
X73082000Y-117605250I-50000J0D01*
G01*
G37*
%TD*%
D23*
%TO.C,C46*%
X93552000Y-112545250D03*
G36*
G01*
X99602000Y-111545250D02*
X99602000Y-113545250D01*
G75*
G02*
X99552000Y-113595250I-50000J0D01*
G01*
X97552000Y-113595250D01*
G75*
G02*
X97502000Y-113545250I0J50000D01*
G01*
X97502000Y-111545250D01*
G75*
G02*
X97552000Y-111495250I50000J0D01*
G01*
X99552000Y-111495250D01*
G75*
G02*
X99602000Y-111545250I0J-50000D01*
G01*
G37*
%TD*%
%TO.C,C45*%
X104982000Y-112545250D03*
G36*
G01*
X111032000Y-111545250D02*
X111032000Y-113545250D01*
G75*
G02*
X110982000Y-113595250I-50000J0D01*
G01*
X108982000Y-113595250D01*
G75*
G02*
X108932000Y-113545250I0J50000D01*
G01*
X108932000Y-111545250D01*
G75*
G02*
X108982000Y-111495250I50000J0D01*
G01*
X110982000Y-111495250D01*
G75*
G02*
X111032000Y-111545250I0J-50000D01*
G01*
G37*
%TD*%
D26*
%TO.C,C44*%
X176530000Y-206335000D03*
G36*
G01*
X175730000Y-202985000D02*
X177330000Y-202985000D01*
G75*
G02*
X177380000Y-203035000I0J-50000D01*
G01*
X177380000Y-204635000D01*
G75*
G02*
X177330000Y-204685000I-50000J0D01*
G01*
X175730000Y-204685000D01*
G75*
G02*
X175680000Y-204635000I0J50000D01*
G01*
X175680000Y-203035000D01*
G75*
G02*
X175730000Y-202985000I50000J0D01*
G01*
G37*
%TD*%
%TO.C,C43*%
X176530000Y-200620000D03*
G36*
G01*
X175730000Y-197270000D02*
X177330000Y-197270000D01*
G75*
G02*
X177380000Y-197320000I0J-50000D01*
G01*
X177380000Y-198920000D01*
G75*
G02*
X177330000Y-198970000I-50000J0D01*
G01*
X175730000Y-198970000D01*
G75*
G02*
X175680000Y-198920000I0J50000D01*
G01*
X175680000Y-197320000D01*
G75*
G02*
X175730000Y-197270000I50000J0D01*
G01*
G37*
%TD*%
%TO.C,C42*%
X176530000Y-189190000D03*
G36*
G01*
X175730000Y-185840000D02*
X177330000Y-185840000D01*
G75*
G02*
X177380000Y-185890000I0J-50000D01*
G01*
X177380000Y-187490000D01*
G75*
G02*
X177330000Y-187540000I-50000J0D01*
G01*
X175730000Y-187540000D01*
G75*
G02*
X175680000Y-187490000I0J50000D01*
G01*
X175680000Y-185890000D01*
G75*
G02*
X175730000Y-185840000I50000J0D01*
G01*
G37*
%TD*%
%TO.C,C41*%
X176530000Y-183475000D03*
G36*
G01*
X175730000Y-180125000D02*
X177330000Y-180125000D01*
G75*
G02*
X177380000Y-180175000I0J-50000D01*
G01*
X177380000Y-181775000D01*
G75*
G02*
X177330000Y-181825000I-50000J0D01*
G01*
X175730000Y-181825000D01*
G75*
G02*
X175680000Y-181775000I0J50000D01*
G01*
X175680000Y-180175000D01*
G75*
G02*
X175730000Y-180125000I50000J0D01*
G01*
G37*
%TD*%
D16*
%TO.C,C36*%
X214482000Y-184785000D03*
X236982000Y-184785000D03*
%TD*%
%TO.C,C20*%
X214482000Y-161925000D03*
X236982000Y-161925000D03*
%TD*%
D26*
%TO.C,C19*%
X176530000Y-171251250D03*
G36*
G01*
X175730000Y-167901250D02*
X177330000Y-167901250D01*
G75*
G02*
X177380000Y-167951250I0J-50000D01*
G01*
X177380000Y-169551250D01*
G75*
G02*
X177330000Y-169601250I-50000J0D01*
G01*
X175730000Y-169601250D01*
G75*
G02*
X175680000Y-169551250I0J50000D01*
G01*
X175680000Y-167951250D01*
G75*
G02*
X175730000Y-167901250I50000J0D01*
G01*
G37*
%TD*%
%TO.C,C18*%
X176530000Y-165536250D03*
G36*
G01*
X175730000Y-162186250D02*
X177330000Y-162186250D01*
G75*
G02*
X177380000Y-162236250I0J-50000D01*
G01*
X177380000Y-163836250D01*
G75*
G02*
X177330000Y-163886250I-50000J0D01*
G01*
X175730000Y-163886250D01*
G75*
G02*
X175680000Y-163836250I0J50000D01*
G01*
X175680000Y-162236250D01*
G75*
G02*
X175730000Y-162186250I50000J0D01*
G01*
G37*
%TD*%
%TO.C,C17*%
X176530000Y-153670000D03*
G36*
G01*
X175730000Y-150320000D02*
X177330000Y-150320000D01*
G75*
G02*
X177380000Y-150370000I0J-50000D01*
G01*
X177380000Y-151970000D01*
G75*
G02*
X177330000Y-152020000I-50000J0D01*
G01*
X175730000Y-152020000D01*
G75*
G02*
X175680000Y-151970000I0J50000D01*
G01*
X175680000Y-150370000D01*
G75*
G02*
X175730000Y-150320000I50000J0D01*
G01*
G37*
%TD*%
%TO.C,C16*%
X176530000Y-147955000D03*
G36*
G01*
X175730000Y-144605000D02*
X177330000Y-144605000D01*
G75*
G02*
X177380000Y-144655000I0J-50000D01*
G01*
X177380000Y-146255000D01*
G75*
G02*
X177330000Y-146305000I-50000J0D01*
G01*
X175730000Y-146305000D01*
G75*
G02*
X175680000Y-146255000I0J50000D01*
G01*
X175680000Y-144655000D01*
G75*
G02*
X175730000Y-144605000I50000J0D01*
G01*
G37*
%TD*%
M02*
